<svg xmlns="http://www.w3.org/2000/svg" width="1240" height="1400" viewBox="0 0 1240 1400">
<style>.mr{fill-rule:evenodd;clip-rule:evenodd;fill:url(#mr)}.nm{fill-rule:evenodd;clip-rule:evenodd;fill:url(#nm)}.ei{fill-rule:evenodd;clip-rule:evenodd;fill:url(#ei)}.mg{fill-rule:evenodd;clip-rule:evenodd;fill:url(#mg)}.pn{fill-rule:evenodd;clip-rule:evenodd;fill:url(#pn)}</style>
<linearGradient id="mr"><stop offset="0" stop-color="#f44"/><stop offset="1" stop-color="#ff6c00"/></linearGradient>
<linearGradient id="nm"><stop offset="0" stop-color="#00d596"/><stop offset="1" stop-color="#12e671"/></linearGradient>
<linearGradient id="ei"><stop offset="0" stop-color="#ffb400"/><stop offset="1" stop-color="#ffd200"/></linearGradient>
<linearGradient id="mg"><stop offset="0" stop-color="#6e41e1"/><stop offset="1" stop-color="#b931da"/></linearGradient>
<linearGradient id="pn"><stop offset="0" stop-color="#004eff"/><stop offset="1" stop-color="#008aff"/></linearGradient>
<path class="mr" d="M1167.6 1049c2 0 3.6 1.6 3.6 3.6s-1.6 3.6-3.6 3.6-3.6-1.6-3.6-3.6 1.6-3.6 3.6-3.6z"/>
<path class="mr" d="M744.6 1357c2 0 3.6 1.6 3.6 3.6s-1.6 3.6-3.6 3.6-3.6-1.6-3.6-3.6 1.6-3.6 3.6-3.6z"/>
<path class="mr" d="M243.6 1258c2 0 3.6 1.6 3.6 3.6s-1.6 3.6-3.6 3.6-3.6-1.6-3.6-3.6 1.6-3.6 3.6-3.6z"/>
<path class="mr" d="M257.6 896c2 0 3.6 1.6 3.6 3.6s-1.6 3.6-3.6 3.6-3.6-1.6-3.6-3.6 1.6-3.6 3.6-3.6z"/>
<path class="mr" d="M8.4 487c2 0 3.6 1.6 3.6 3.6s-1.6 3.6-3.6 3.6-3.6-1.6-3.6-3.6 1.7-3.6 3.6-3.6z"/>
<path class="mr" d="M711.4 558c2 0 3.6 1.6 3.6 3.6s-1.6 3.6-3.6 3.6-3.6-1.6-3.6-3.6 1.7-3.6 3.6-3.6z"/>
<path class="mr" d="M865.4 31c2 0 3.6 1.6 3.6 3.6s-1.6 3.6-3.6 3.6-3.6-1.6-3.6-3.6 1.7-3.6 3.6-3.6z"/>
<path class="mr" d="M493.4 145c2 0 3.6 1.6 3.6 3.6s-1.6 3.6-3.6 3.6-3.6-1.6-3.6-3.6 1.7-3.6 3.6-3.6z"/>
<path class="mr" d="M604.4 328c2 0 3.6 1.6 3.6 3.6s-1.6 3.6-3.6 3.6-3.6-1.6-3.6-3.6 1.7-3.6 3.6-3.6z"/>
<path class="mr" d="M15.4 14c2 0 3.6 1.6 3.6 3.6s-1.6 3.6-3.6 3.6-3.6-1.6-3.6-3.6 1.7-3.6 3.6-3.6z"/>
<path class="mr" d="M1222.4 306c2 0 3.6 1.6 3.6 3.6s-1.6 3.6-3.6 3.6-3.6-1.6-3.6-3.6 1.7-3.6 3.6-3.6z"/>
<path class="nm" d="M1004.6 1159c2 0 3.6 1.6 3.6 3.6s-1.6 3.6-3.6 3.6-3.6-1.6-3.6-3.6 1.6-3.6 3.6-3.6z"/>
<path class="nm" d="M472.6 971c2 0 3.6 1.6 3.6 3.6s-1.6 3.6-3.6 3.6-3.6-1.6-3.6-3.6 1.6-3.6 3.6-3.6z"/>
<path class="nm" d="M395.4 465c2 0 3.6 1.6 3.6 3.6s-1.6 3.6-3.6 3.6-3.6-1.6-3.6-3.6 1.7-3.6 3.6-3.6z"/>
<path class="nm" d="M1139.4 599c2 0 3.6 1.6 3.6 3.6s-1.6 3.6-3.6 3.6-3.6-1.6-3.6-3.6 1.7-3.6 3.6-3.6z"/>
<path class="nm" d="M1160.4 7c2 0 3.6 1.6 3.6 3.6s-1.6 3.6-3.6 3.6-3.6-1.6-3.6-3.6 1.7-3.6 3.6-3.6z"/>
<path class="ei" d="M80.6 1316c2 0 3.6 1.6 3.6 3.6s-1.6 3.6-3.6 3.6-3.6-1.6-3.6-3.6 1.6-3.6 3.6-3.6z"/>
<path class="ei" d="M909.6 1372c2 0 3.6 1.6 3.6 3.6s-1.6 3.6-3.6 3.6-3.6-1.6-3.6-3.6 1.6-3.6 3.6-3.6z"/>
<path class="ei" d="M379.6 782c2 0 3.6 1.6 3.6 3.6s-1.6 3.6-3.6 3.6-3.6-1.6-3.6-3.6 1.6-3.6 3.6-3.6z"/>
<path class="ei" d="M640.6 1079c2 0 3.6 1.6 3.6 3.6s-1.6 3.6-3.6 3.6-3.6-1.6-3.6-3.6 1.6-3.6 3.6-3.6z"/>
<path class="ei" d="M281.6 1050c2 0 3.6 1.6 3.6 3.6s-1.6 3.6-3.6 3.6-3.6-1.6-3.6-3.6 1.6-3.6 3.6-3.6z"/>
<path class="ei" d="M174.4 390c2 0 3.6 1.6 3.6 3.6s-1.6 3.6-3.6 3.6-3.6-1.6-3.6-3.6 1.7-3.6 3.6-3.6z"/>
<path class="ei" d="M1001.4 530c2 0 3.6 1.6 3.6 3.6s-1.6 3.6-3.6 3.6-3.6-1.6-3.6-3.6 1.7-3.6 3.6-3.6z"/>
<path class="ei" d="M772.4 220c2 0 3.6 1.6 3.6 3.6s-1.6 3.6-3.6 3.6-3.6-1.6-3.6-3.6 1.7-3.6 3.6-3.6z"/>
<path class="mg" d="M1016.6 751c2 0 3.6 1.6 3.6 3.6s-1.6 3.6-3.6 3.6-3.6-1.6-3.6-3.6 1.6-3.6 3.6-3.6z"/>
<path class="mg" d="M1236.6 1238c2 0 3.6 1.6 3.6 3.6s-1.6 3.6-3.6 3.6-3.6-1.6-3.6-3.6 1.6-3.6 3.6-3.6z"/>
<path class="mg" d="M533.6 1309c2 0 3.6 1.6 3.6 3.6s-1.6 3.6-3.6 3.6-3.6-1.6-3.6-3.6 1.6-3.6 3.6-3.6z"/>
<path class="mg" d="M751.6 896c2 0 3.6 1.6 3.6 3.6s-1.6 3.6-3.6 3.6-3.6-1.6-3.6-3.6 1.6-3.6 3.6-3.6z"/>
<path class="mg" d="M500.4 606c2 0 3.6 1.6 3.6 3.6s-1.6 3.6-3.6 3.6-3.6-1.6-3.6-3.6 1.7-3.6 3.6-3.6z"/>
<path class="mg" d="M307.4 130c2 0 3.6 1.6 3.6 3.6s-1.6 3.6-3.6 3.6-3.6-1.6-3.6-3.6 1.7-3.6 3.6-3.6z"/>
<path class="mg" d="M987.4 145c2 0 3.6 1.6 3.6 3.6s-1.6 3.6-3.6 3.6-3.6-1.6-3.6-3.6 1.7-3.6 3.6-3.6z"/>
<path class="pn" d="M937.6 881c2 0 3.6 1.6 3.6 3.6s-1.6 3.6-3.6 3.6-3.6-1.6-3.6-3.6 1.6-3.6 3.6-3.6z"/>
<path class="pn" d="M802.6 1202c2 0 3.6 1.6 3.6 3.6s-1.6 3.6-3.6 3.6-3.6-1.6-3.6-3.6 1.6-3.6 3.6-3.6z"/>
<path class="pn" d="M1233.6 720c2 0 3.6 1.6 3.6 3.6s-1.6 3.6-3.6 3.6-3.6-1.6-3.6-3.6 1.6-3.6 3.6-3.6z"/>
<path class="pn" d="M4.6 1057c2 0 3.6 1.6 3.6 3.6s-1.6 3.6-3.6 3.6-3.6-1.6-3.6-3.6 1.6-3.6 3.6-3.6z"/>
<path class="pn" d="M84.6 758c2 0 3.6 1.6 3.6 3.6s-1.6 3.6-3.6 3.6-3.6-1.6-3.6-3.6 1.6-3.6 3.6-3.6z"/>
<path class="pn" d="M84.4 279c2 0 3.6 1.6 3.6 3.6s-1.6 3.6-3.6 3.6-3.6-1.6-3.6-3.6 1.7-3.6 3.6-3.6z"/>
<path class="pn" d="M335.4 621c2 0 3.6 1.6 3.6 3.6s-1.6 3.6-3.6 3.6-3.6-1.6-3.6-3.6 1.7-3.6 3.6-3.6z"/>
<path class="pn" d="M976.4 337c2 0 3.6 1.6 3.6 3.6s-1.6 3.6-3.6 3.6-3.6-1.6-3.6-3.6 1.7-3.6 3.6-3.6z"/></svg>