<svg xmlns="http://www.w3.org/2000/svg" width="300" height="46" viewBox="0 0 300 46"><path fill="#fff" d="M29.179 7.631c-1.874-2.003-4.07-3.589-6.593-4.757s-5.211-1.753-8.066-1.753h-14.52v44.505h14.519c2.855 0 5.544-.584 8.066-1.753s4.719-2.754 6.593-4.757c1.871-2.003 3.356-4.357 4.45-7.063 1.094-2.709 1.641-5.602 1.641-8.68 0-3.078-.548-5.971-1.641-8.679-1.093-2.705-2.578-5.062-4.449-7.063zm-16.64 29.742c-.229.566-.539 1.058-.93 1.477-.392.419-.851.75-1.379.995s-1.09.367-1.687.367h-3.037v-9.308h3.037c.597 0 1.159.122 1.687.367.528.244.987.576 1.379.995.391.418.702.911.931 1.477.229.567.343 1.172.343 1.815s-.115 1.248-.344 1.815zm282.091-3.631c-.229.567-.343 1.172-.343 1.815s.114 1.249.343 1.815c.229.566.539 1.058.931 1.477.392.419.851.75 1.379.995s1.09.367 1.687.367h1.373v5.415h-14.519c-2.855 0-5.544-.584-8.066-1.753s-4.719-2.754-6.593-4.757c-1.871-2.003-3.356-4.357-4.45-7.063-1.094-2.709-1.641-5.602-1.641-8.68 0-3.078.548-5.971 1.641-8.679 1.094-2.706 2.578-5.063 4.45-7.063 1.874-2.003 4.07-3.589 6.593-4.757s5.211-1.753 8.066-1.753h14.519v29.781h-1.373c-.597 0-1.159.122-1.687.367-.528.244-.987.576-1.379.995-.392.419-.702.912-.931 1.478zm-93.544-32.62h37.496v31.324h-10.626v13.181h-16.245v-13.181h-10.626v-31.324zm43.723 0h16.251v44.505h-16.251v-44.505zm-87.608-1.122v45.627h-14.389v-5.885l-7.827 5.885h-.133l-7.827-5.885v5.885h-14.389v-45.627l22.283 12.205 22.282-12.205zm-96.441 34.967c1.997-.925 3.736-2.18 5.219-3.766 1.482-1.586 2.657-3.45 3.523-5.592.866-2.144 1.299-4.435 1.299-6.871 0-2.437-.433-4.727-1.299-6.871-.866-2.142-2.041-4.008-3.523-5.592-1.484-1.586-3.222-2.841-5.219-3.766-1.997-.925-4.125-1.387-6.386-1.387h-15.293v44.504999999999995h5.506v-9.272l8.419 9.272h14.458l-8.946-9.854c.761-.214 1.514-.469 2.242-.806zm-9.14-3.555c-.229.566-.539 1.059-.931 1.477-.392.419-.851.751-1.379.995s-1.09.367-1.687.367h-3.037v-9.308h3.037c.597 0 1.159.122 1.687.367.528.244.987.576 1.379.995.392.418.702.911.931 1.477.229.567.343 1.172.343 1.815s-.114 1.248-.343 1.815zm15.843 14.215h15.852l.931-1.835h11.607l.931 1.835h15.852l-22.587-44.505-22.586 44.505zm18.645-5.506l3.941-7.765 3.941 7.765h-7.882zm71.093 5.506h15.852l.931-1.835h11.607l.931 1.835h15.852l-22.587-44.505-22.586 44.505zm18.645-5.506l3.941-7.765 3.941 7.765h-7.882z"/></svg>