<svg xmlns="http://www.w3.org/2000/svg" width="244" height="45" viewBox="0 0 244 45"><path fill="#fff" d="M95.082 0l-14.485 28.542v15.963h-16.202v-15.963l-14.485-28.542h18.646l3.941 7.765 3.94-7.765h18.645zm21.967 23.821v3.67h5.451v7.838h-5.451v3.67h7.442v5.506h-27.623v-44.504999999999995h27.623v23.821h-7.442zm83.513 6.258c1.482-1.586 2.657-3.45 3.523-5.592.866-2.144 1.299-4.435 1.299-6.871 0-2.437-.433-4.727-1.299-6.871-.866-2.142-2.041-4.008-3.523-5.592-1.484-1.586-3.222-2.841-5.219-3.766-1.997-.925-4.125-1.387-6.386-1.387h-15.294v44.504999999999995h5.506v-9.272l8.419 9.272h14.458l-8.946-9.854c.763-.214 1.516-.469 2.244-.806 1.996-.925 3.735-2.18 5.218-3.766zm-14.359.211c-.229.566-.539 1.059-.931 1.477-.392.419-.851.751-1.379.995s-1.09.367-1.687.367h-3.037v-9.308h3.037c.597 0 1.159.122 1.687.367.528.244.987.576 1.379.995.392.418.702.911.931 1.477.229.566.343 1.172.343 1.815 0 .644-.115 1.249-.343 1.815zm57.228 1.041c0 1.822-.324 3.535-.972 5.138-.647 1.602-1.526 2.996-2.634 4.182-1.109 1.186-2.41 2.125-3.903 2.816-1.493.692-3.085 1.038-4.775 1.038h-17.587v-13.803h7.7c.455 0 .883-.093 1.284-.279.402-.186.751-.439 1.05-.757.298-.319.534-.694.708-1.125.174-.431.261-.892.261-1.382s-.087-.951-.261-1.382c-.174-.431-.411-.806-.708-1.125-.299-.319-.648-.571-1.05-.757-.402-.186-.83-.279-1.284-.279h-2.312v-.04c-1.371-.049-2.677-.323-3.9-.89-1.339-.62-2.504-1.461-3.498-2.524-.993-1.063-1.781-2.312-2.361-3.748-.58-1.437-.871-2.972-.871-4.605s.291-3.168.871-4.605c.58-1.436 1.368-2.687 2.361-3.748.994-1.063 2.16-1.904 3.498-2.524 1.339-.62 2.765-.93 4.28-.93h11.468v11.07h-3.529c-.455 0-.883.093-1.284.279-.402.186-.752.439-1.05.757-.298.319-.534.694-.709 1.125-.174.431-.261.892-.261 1.382s.087.951.261 1.382c.174.431.411.806.709 1.125.298.319.648.571 1.05.757.402.186.83.279 1.284.279h3.88c1.69 0 3.282.346 4.775 1.037 1.493.692 2.794 1.631 3.903 2.816 1.108 1.184 1.987 2.58 2.634 4.182.648 1.603.972 3.316.972 5.138zm-99.712 11.339h11.607l.931 1.835h15.852l-22.587-44.505-22.586 44.505h15.852l.931-1.835zm5.803-11.436l3.941 7.765h-7.882l3.941-7.765zm-110.018.097c0 1.822-.324 3.535-.972 5.138-.647 1.602-1.526 2.996-2.634 4.182-1.109 1.186-2.41 2.125-3.903 2.816-1.493.692-3.085 1.038-4.775 1.038h-18.404v-8.106h2.312c.455 0 .883-.093 1.284-.279.402-.186.751-.439 1.05-.757.298-.319.534-.694.709-1.125.174-.431.261-.892.261-1.382 0-.49-.087-.951-.261-1.382-.174-.431-.411-.806-.709-1.125-.298-.319-.648-.571-1.05-.757-.402-.186-.83-.279-1.284-.279h-2.312v-7.769h2.312c.455 0 .883-.093 1.284-.279.402-.186.751-.438 1.05-.757.298-.319.534-.694.709-1.125.174-.431.261-.892.261-1.382 0-.49-.087-.951-.261-1.382-.174-.431-.411-.806-.709-1.125-.298-.319-.648-.571-1.05-.757-.402-.186-.83-.279-1.284-.279h-2.312v-14.458h10.251c1.515 0 2.942.31 4.28.93 1.339.62 2.504 1.461 3.498 2.524.993 1.061 1.781 2.312 2.361 3.748.58 1.437.871 2.972.871 4.605s-.291 3.168-.871 4.605c-.267.661-.59 1.272-.944 1.854 1.299.115 2.556.382 3.733.928 1.493.692 2.794 1.631 3.903 2.816 1.108 1.184 1.987 2.58 2.634 4.182.648 1.604.972 3.317.972 5.139z"/></svg>