<?xml version="1.0" encoding="utf-8"?>
<!-- Generator: Adobe Illustrator 21.1.0, SVG Export Plug-In . SVG Version: 6.00 Build 0)  -->
<!DOCTYPE svg PUBLIC "-//W3C//DTD SVG 1.1//EN" "http://www.w3.org/Graphics/SVG/1.1/DTD/svg11.dtd">
<svg version="1.1" id="レイヤー_1" xmlns="http://www.w3.org/2000/svg" xmlns:xlink="http://www.w3.org/1999/xlink" x="0px"
	 y="0px" width="230px" height="25px" viewBox="0 0 230 25" style="enable-background:new 0 0 230 25;" xml:space="preserve">
<style type="text/css">
	.st0{fill:#FFFFFF;}
	.st1{fill:#FEFEFE;}
	.st2{fill:#FDFEFE;}
	.st3{fill:#FDFDFD;}
	.st4{fill:#FCFCFD;}
	.st5{fill:#FBFCFC;}
	.st6{fill:#FAFBFB;}
	.st7{fill:#F9FAFB;}
	.st8{fill:#F8F9FA;}
	.st9{fill:#F7F9F9;}
	.st10{fill:#F7F8F9;}
	.st11{fill:#F6F7F8;}
	.st12{fill:#F5F6F7;}
	.st13{fill:#F4F6F7;}
	.st14{fill:#F3F5F6;}
	.st15{fill:#F2F4F5;}
	.st16{fill:#F1F3F5;}
	.st17{fill:#F0F3F4;}
	.st18{fill:#EFF2F3;}
	.st19{fill:#EEF1F3;}
	.st20{fill:#EDF0F2;}
	.st21{fill:#ECEFF1;}
	.st22{fill:#EBEFF1;}
	.st23{fill:#EBEEF0;}
	.st24{fill:#EAEDEF;}
	.st25{fill:#E9ECEE;}
	.st26{fill:#E8ECEE;}
	.st27{fill:#E7EBED;}
	.st28{fill:#E6EAEC;}
	.st29{fill:#E5E9EC;}
	.st30{fill:#E4E8EB;}
	.st31{fill:#E3E8EA;}
	.st32{fill:#E2E7EA;}
	.st33{fill:#E1E6E9;}
	.st34{fill:#E0E5E8;}
	.st35{fill:#DFE4E7;}
	.st36{fill:#DEE4E7;}
	.st37{fill:#DDE3E6;}
	.st38{fill:#DCE2E5;}
	.st39{fill:#DBE1E4;}
	.st40{fill:#DBE0E4;}
	.st41{fill:#DAE0E3;}
	.st42{fill:#D9DFE2;}
	.st43{fill:#D8DEE2;}
	.st44{fill:#D7DDE1;}
	.st45{fill:#D6DCE0;}
	.st46{fill:#D5DBDF;}
	.st47{fill:#D4DBDF;}
	.st48{fill:#D3DADE;}
	.st49{fill:#D2D9DD;}
	.st50{fill:#D1D8DC;}
	.st51{fill:#D0D7DC;}
	.st52{fill:#CFD7DB;}
	.st53{fill:#CED6DA;}
	.st54{fill:#CDD5D9;}
	.st55{fill:#CCD4D9;}
	.st56{fill:#CBD3D8;}
	.st57{fill:#CBD3D7;}
	.st58{fill:#CAD2D6;}
	.st59{fill:#C9D1D6;}
	.st60{fill:#C8D0D5;}
	.st61{fill:#C7CFD4;}
	.st62{fill:#C6CED3;}
	.st63{fill:#C5CED3;}
	.st64{fill:#C4CDD2;}
	.st65{fill:#C3CCD1;}
	.st66{fill:#C2CBD0;}
	.st67{fill:#C1CAD0;}
	.st68{fill:#C0C9CF;}
	.st69{fill:#BFC9CE;}
	.st70{fill:#BEC8CD;}
	.st71{fill:#BDC7CC;}
	.st72{fill:#BDC6CC;}
	.st73{fill:#BCC5CB;}
	.st74{fill:#BBC4CA;}
	.st75{fill:#BAC4C9;}
	.st76{fill:#B9C3C9;}
	.st77{fill:url(#SVGID_1_);}
	.st78{fill:#51656F;}
</style>
<g>
	<g>
		<g>
			<g>
				<g>
					<path class="st0" d="M3.6,24.999c-1.849,0-3.497-0.588-3.497-1.884c0-0.447,0.758-3.771,3.405-6.963
						c1.228-1.483,2.971-3.108,5.352-4.362s5.4-2.138,9.179-2.138c1.129,0,2.062,0.08,3.263,0.235
						c0.356,0.047,0.584,0.402,0.553,0.864c-0.039,0.583-0.505,1.174-1.458,1.174c-3.799,0-6.68,0.865-8.787,2.698
						c-1.054,0.916-1.915,2.075-2.6,3.488c-0.686,1.413-1.196,3.081-1.55,5.016C7.208,24.517,4.682,24.999,3.6,24.999z"/>
					<path class="st0" d="M8.887,11.784c2.378-1.249,5.391-2.127,9.16-2.126c1.126,0,2.059,0.08,3.257,0.235
						c0.353,0.047,0.58,0.405,0.544,0.864c-0.017,0.23-0.102,0.461-0.258,0.655c-0.236,0.294-0.635,0.506-1.207,0.507
						c-3.795,0.003-6.673,0.87-8.779,2.702c-1.053,0.916-1.914,2.074-2.599,3.486C8.32,19.52,7.809,21.186,7.455,23.12
						c-0.034,0.189-0.11,0.361-0.218,0.518c-0.687,0.996-2.692,1.358-3.634,1.359c-1.847,0.001-3.497-0.587-3.497-1.882
						c0-0.445,0.761-3.775,3.415-6.969C4.753,14.661,6.501,13.036,8.887,11.784z"/>
					<path class="st1" d="M8.914,11.778c2.375-1.243,5.382-2.116,9.142-2.114c1.122,0.001,2.055,0.08,3.25,0.235
						c0.351,0.047,0.574,0.407,0.534,0.865c-0.02,0.228-0.105,0.457-0.263,0.649c-0.239,0.291-0.638,0.5-1.208,0.501
						c-3.791,0.005-6.666,0.875-8.77,2.706c-1.053,0.916-1.913,2.073-2.598,3.483c-0.686,1.412-1.198,3.078-1.552,5.009
						c-0.034,0.189-0.11,0.361-0.217,0.519c-0.681,0.998-2.678,1.363-3.627,1.364c-1.845,0.001-3.496-0.587-3.496-1.88
						c0-0.443,0.764-3.778,3.424-6.974C4.77,14.652,6.522,13.028,8.914,11.778z"/>
					<path class="st2" d="M8.94,11.773c2.372-1.237,5.373-2.105,9.124-2.102c1.119,0.001,2.051,0.081,3.243,0.235
						c0.348,0.046,0.569,0.41,0.525,0.866c-0.022,0.227-0.109,0.453-0.268,0.642c-0.242,0.287-0.641,0.493-1.209,0.494
						c-3.788,0.008-6.66,0.88-8.762,2.711c-1.052,0.916-1.912,2.073-2.597,3.481c-0.687,1.412-1.198,3.076-1.553,5.006
						c-0.034,0.189-0.109,0.361-0.216,0.519c-0.675,1-2.664,1.368-3.62,1.37c-1.843,0.002-3.496-0.587-3.496-1.879
						c0-0.441,0.767-3.781,3.433-6.98C4.787,14.644,6.544,13.019,8.94,11.773z"/>
					<path class="st3" d="M8.967,11.767c2.369-1.232,5.365-2.094,9.105-2.09c1.116,0.001,2.048,0.081,3.236,0.235
						c0.346,0.046,0.564,0.412,0.516,0.866c-0.024,0.225-0.112,0.45-0.274,0.636c-0.245,0.283-0.644,0.487-1.21,0.488
						c-3.784,0.011-6.653,0.885-8.753,2.715c-1.052,0.916-1.911,2.072-2.595,3.479c-0.687,1.411-1.199,3.075-1.553,5.002
						c-0.035,0.189-0.109,0.361-0.214,0.519c-0.668,1.002-2.651,1.372-3.613,1.375c-1.841,0.003-3.495-0.587-3.495-1.877
						c0-0.439,0.77-3.784,3.443-6.986C4.804,14.635,6.566,13.011,8.967,11.767z"/>
					<path class="st4" d="M8.994,11.761c2.366-1.226,5.356-2.083,9.087-2.077c1.112,0.002,2.044,0.081,3.229,0.234
						c0.343,0.046,0.559,0.415,0.506,0.867c-0.026,0.223-0.116,0.446-0.279,0.63c-0.248,0.279-0.647,0.48-1.212,0.482
						c-3.78,0.013-6.646,0.89-8.745,2.719c-1.051,0.916-1.91,2.072-2.594,3.477c-0.687,1.411-1.199,3.073-1.554,4.998
						c-0.035,0.188-0.108,0.361-0.213,0.52c-0.662,1.004-2.637,1.377-3.606,1.38c-1.839,0.004-3.494-0.586-3.494-1.875
						c0-0.437,0.773-3.788,3.452-6.992C4.821,14.626,6.587,13.002,8.994,11.761z"/>
					<path class="st5" d="M9.021,11.755c2.364-1.22,5.347-2.072,9.068-2.065c1.109,0.002,2.04,0.081,3.222,0.234
						c0.341,0.045,0.554,0.417,0.497,0.867c-0.028,0.222-0.119,0.442-0.285,0.623c-0.25,0.275-0.651,0.474-1.213,0.476
						c-3.777,0.016-6.64,0.895-8.736,2.724c-1.051,0.916-1.909,2.071-2.593,3.475c-0.688,1.41-1.2,3.072-1.555,4.995
						c-0.035,0.188-0.108,0.361-0.211,0.52c-0.656,1.006-2.623,1.381-3.6,1.385c-1.837,0.004-3.494-0.586-3.494-1.874
						c0-0.434,0.776-3.791,3.462-6.998C4.838,14.618,6.609,12.993,9.021,11.755z"/>
					<path class="st6" d="M9.047,11.749c2.361-1.214,5.338-2.061,9.05-2.053c1.106,0.002,2.037,0.082,3.215,0.234
						c0.339,0.045,0.549,0.42,0.487,0.868c-0.03,0.22-0.123,0.438-0.29,0.617c-0.253,0.271-0.654,0.467-1.214,0.47
						c-3.773,0.019-6.633,0.9-8.728,2.728c-1.05,0.916-1.908,2.07-2.592,3.472c-0.688,1.41-1.2,3.07-1.556,4.991
						c-0.035,0.188-0.107,0.361-0.21,0.52c-0.65,1.008-2.609,1.386-3.593,1.39c-1.835,0.005-3.493-0.586-3.493-1.872
						c0-0.432,0.779-3.794,3.471-7.004C4.855,14.609,6.631,12.985,9.047,11.749z"/>
					<path class="st7" d="M9.074,11.743c2.358-1.209,5.329-2.05,9.032-2.041c1.102,0.003,2.033,0.082,3.209,0.234
						c0.336,0.045,0.544,0.422,0.478,0.869c-0.033,0.218-0.126,0.435-0.295,0.611c-0.256,0.267-0.657,0.461-1.215,0.463
						c-3.769,0.021-6.626,0.905-8.719,2.732c-1.049,0.916-1.907,2.07-2.59,3.47c-0.688,1.41-1.201,3.069-1.557,4.988
						c-0.035,0.188-0.107,0.361-0.208,0.52c-0.643,1.01-2.596,1.39-3.586,1.396c-1.833,0.006-3.493-0.585-3.493-1.87
						c0-0.43,0.783-3.798,3.48-7.01C4.872,14.6,6.652,12.976,9.074,11.743z"/>
					<path class="st8" d="M9.101,11.737c2.355-1.203,5.321-2.039,9.013-2.029c1.099,0.003,2.03,0.082,3.202,0.234
						c0.334,0.044,0.539,0.425,0.468,0.869c-0.035,0.216-0.13,0.431-0.301,0.604c-0.259,0.263-0.66,0.454-1.217,0.457
						c-3.765,0.024-6.62,0.91-8.711,2.737c-1.049,0.916-1.906,2.069-2.589,3.468c-0.689,1.409-1.202,3.067-1.557,4.984
						c-0.035,0.188-0.106,0.361-0.207,0.521c-0.637,1.012-2.582,1.395-3.579,1.401c-1.831,0.007-3.492-0.585-3.492-1.869
						c0-0.428,0.786-3.801,3.49-7.016C4.889,14.591,6.674,12.968,9.101,11.737z"/>
					<path class="st9" d="M9.128,11.732c2.352-1.197,5.312-2.028,8.995-2.016c1.096,0.003,2.026,0.082,3.195,0.234
						c0.331,0.044,0.535,0.427,0.459,0.87c-0.037,0.215-0.133,0.427-0.306,0.598c-0.261,0.26-0.664,0.448-1.218,0.451
						c-3.762,0.026-6.613,0.915-8.702,2.741c-1.048,0.916-1.905,2.069-2.588,3.466c-0.689,1.409-1.202,3.066-1.558,4.98
						c-0.035,0.188-0.106,0.361-0.205,0.521c-0.631,1.014-2.568,1.4-3.572,1.406c-1.829,0.007-3.491-0.585-3.491-1.867
						c0-0.426,0.789-3.804,3.499-7.022C4.906,14.583,6.695,12.959,9.128,11.732z"/>
					<path class="st10" d="M9.154,11.726c2.349-1.192,5.303-2.017,8.976-2.004c1.092,0.004,2.022,0.083,3.188,0.233
						c0.329,0.044,0.53,0.43,0.449,0.87c-0.039,0.213-0.137,0.423-0.312,0.592c-0.264,0.256-0.667,0.441-1.219,0.445
						c-3.758,0.029-6.607,0.92-8.694,2.745c-1.048,0.916-1.904,2.068-2.587,3.464c-0.689,1.408-1.203,3.064-1.559,4.977
						c-0.035,0.188-0.105,0.361-0.204,0.521c-0.625,1.016-2.554,1.404-3.566,1.411c-1.827,0.008-3.491-0.585-3.491-1.865
						c0-0.424,0.792-3.807,3.509-7.028C4.923,14.574,6.717,12.951,9.154,11.726z"/>
					<path class="st11" d="M9.181,11.72c2.348-1.181,5.294-2.006,8.958-1.992c1.089,0.004,2.019,0.083,3.181,0.233
						c0.326,0.043,0.525,0.432,0.44,0.871c-0.041,0.211-0.14,0.419-0.317,0.585c-0.267,0.252-0.67,0.435-1.22,0.439
						c-3.754,0.032-6.6,0.925-8.685,2.75c-1.047,0.916-1.903,2.067-2.586,3.461c-0.69,1.408-1.203,3.063-1.56,4.973
						c-0.035,0.187-0.105,0.361-0.202,0.522c-0.619,1.018-2.541,1.409-3.559,1.416c-1.825,0.009-3.49-0.584-3.49-1.864
						c0-0.421,0.795-3.811,3.518-7.034C4.94,14.565,6.741,12.947,9.181,11.72z"/>
					<path class="st12" d="M9.208,11.714c2.346-1.175,5.285-1.995,8.94-1.98c1.086,0.004,2.015,0.083,3.174,0.233
						c0.324,0.043,0.52,0.435,0.43,0.872c-0.043,0.209-0.144,0.416-0.322,0.579c-0.27,0.248-0.673,0.428-1.222,0.433
						c-3.75,0.034-6.593,0.93-8.677,2.754c-1.047,0.916-1.902,2.067-2.584,3.459c-0.69,1.407-1.204,3.061-1.56,4.97
						c-0.035,0.187-0.104,0.361-0.201,0.522c-0.612,1.02-2.527,1.413-3.552,1.422c-1.823,0.01-3.489-0.584-3.489-1.862
						c0-0.419,0.798-3.814,3.527-7.04C4.957,14.556,6.763,12.939,9.208,11.714z"/>
					<path class="st13" d="M9.235,11.708c2.343-1.169,5.277-1.984,8.921-1.967c1.082,0.005,2.011,0.083,3.167,0.233
						c0.321,0.043,0.515,0.437,0.421,0.872c-0.045,0.208-0.147,0.412-0.328,0.573c-0.272,0.244-0.676,0.422-1.223,0.426
						c-3.747,0.037-6.587,0.935-8.668,2.758c-1.046,0.916-1.901,2.066-2.583,3.457c-0.691,1.407-1.204,3.06-1.561,4.966
						c-0.035,0.187-0.104,0.361-0.199,0.522c-0.606,1.022-2.513,1.418-3.545,1.427c-1.822,0.01-3.489-0.584-3.489-1.86
						c0-0.417,0.801-3.817,3.537-7.046C4.974,14.548,6.785,12.931,9.235,11.708z"/>
					<path class="st14" d="M9.261,11.702c2.34-1.163,5.268-1.973,8.903-1.955c1.079,0.005,2.008,0.084,3.16,0.233
						c0.319,0.042,0.511,0.439,0.411,0.873c-0.047,0.206-0.151,0.408-0.333,0.566c-0.275,0.24-0.68,0.415-1.224,0.42
						c-3.743,0.04-6.58,0.94-8.66,2.763c-1.046,0.916-1.9,2.066-2.582,3.455c-0.691,1.407-1.205,3.058-1.562,4.962
						c-0.035,0.187-0.103,0.361-0.198,0.523c-0.6,1.024-2.499,1.422-3.538,1.432c-1.82,0.011-3.488-0.583-3.488-1.859
						c0-0.415,0.804-3.821,3.546-7.052C4.991,14.539,6.807,12.922,9.261,11.702z"/>
					<path class="st15" d="M9.288,11.696c2.337-1.157,5.259-1.962,8.884-1.943c1.076,0.005,2.004,0.084,3.154,0.233
						c0.316,0.042,0.506,0.442,0.402,0.873c-0.049,0.204-0.154,0.404-0.339,0.56c-0.278,0.236-0.683,0.409-1.225,0.414
						c-3.739,0.042-6.573,0.945-8.651,2.767c-1.045,0.916-1.899,2.065-2.581,3.453c-0.691,1.406-1.205,3.057-1.563,4.959
						c-0.035,0.187-0.103,0.361-0.197,0.523c-0.594,1.026-2.485,1.427-3.532,1.437c-1.818,0.012-3.488-0.583-3.488-1.857
						c0-0.413,0.807-3.824,3.556-7.058C5.008,14.53,6.828,12.914,9.288,11.696z"/>
					<path class="st16" d="M9.315,11.691c2.335-1.151,5.25-1.951,8.866-1.931c1.072,0.006,2,0.084,3.147,0.232
						c0.314,0.041,0.501,0.444,0.393,0.874c-0.051,0.202-0.158,0.401-0.344,0.554c-0.281,0.232-0.686,0.402-1.227,0.408
						c-3.735,0.045-6.567,0.95-8.643,2.771c-1.044,0.916-1.898,2.064-2.579,3.45c-0.692,1.406-1.206,3.055-1.564,4.955
						c-0.035,0.187-0.102,0.361-0.195,0.523c-0.588,1.027-2.472,1.431-3.525,1.442c-1.816,0.013-3.487-0.583-3.487-1.855
						c0-0.411,0.811-3.827,3.565-7.064C5.025,14.521,6.85,12.906,9.315,11.691z"/>
					<path class="st17" d="M9.342,11.685c2.332-1.145,5.241-1.94,8.848-1.919c1.069,0.006,1.997,0.084,3.14,0.232
						c0.312,0.041,0.496,0.447,0.383,0.874c-0.053,0.201-0.161,0.397-0.349,0.548c-0.283,0.229-0.689,0.396-1.228,0.402
						c-3.732,0.048-6.56,0.955-8.634,2.776c-1.044,0.916-1.897,2.064-2.578,3.448c-0.692,1.405-1.207,3.054-1.564,4.952
						c-0.035,0.187-0.102,0.361-0.194,0.524c-0.581,1.029-2.458,1.436-3.518,1.448c-1.814,0.013-3.486-0.583-3.486-1.854
						c0-0.408,0.814-3.831,3.574-7.07C5.042,14.513,6.872,12.898,9.342,11.685z"/>
					<path class="st18" d="M9.368,11.679c2.329-1.139,5.233-1.929,8.829-1.906c1.066,0.006,1.993,0.084,3.133,0.232
						c0.309,0.041,0.492,0.449,0.374,0.875c-0.055,0.199-0.165,0.393-0.355,0.541c-0.286,0.225-0.693,0.389-1.229,0.395
						c-3.728,0.05-6.553,0.96-8.626,2.78c-1.043,0.916-1.896,2.063-2.577,3.446c-0.692,1.405-1.207,3.053-1.565,4.948
						c-0.035,0.187-0.101,0.361-0.192,0.524c-0.575,1.031-2.444,1.441-3.511,1.453c-1.812,0.014-3.486-0.582-3.486-1.852
						c0-0.406,0.817-3.834,3.584-7.076C5.059,14.504,6.894,12.889,9.368,11.679z"/>
					<path class="st19" d="M9.395,11.673c2.326-1.133,5.224-1.918,8.811-1.894c1.062,0.007,1.99,0.085,3.126,0.232
						c0.307,0.04,0.487,0.451,0.364,0.876c-0.057,0.197-0.168,0.389-0.36,0.535c-0.289,0.221-0.696,0.383-1.23,0.389
						c-3.724,0.053-6.547,0.965-8.617,2.784c-1.043,0.916-1.895,2.062-2.576,3.444c-0.693,1.405-1.208,3.051-1.566,4.944
						c-0.035,0.186-0.101,0.361-0.191,0.524c-0.569,1.033-2.43,1.445-3.504,1.458c-1.81,0.015-3.485-0.582-3.485-1.85
						c0-0.404,0.82-3.837,3.593-7.081C5.076,14.495,6.915,12.881,9.395,11.673z"/>
					<path class="st20" d="M9.422,11.667c2.323-1.127,5.215-1.906,8.792-1.882c1.059,0.007,1.986,0.085,3.119,0.232
						c0.304,0.04,0.482,0.454,0.355,0.876c-0.059,0.195-0.172,0.386-0.365,0.529c-0.292,0.217-0.699,0.376-1.231,0.383
						c-3.72,0.056-6.54,0.97-8.609,2.789c-1.042,0.916-1.894,2.062-2.574,3.442c-0.693,1.404-1.208,3.05-1.567,4.941
						c-0.035,0.186-0.1,0.361-0.189,0.524c-0.563,1.035-2.417,1.45-3.498,1.463c-1.808,0.016-3.485-0.582-3.485-1.849
						c0-0.402,0.823-3.84,3.603-7.087C5.093,14.486,6.937,12.873,9.422,11.667z"/>
					<path class="st21" d="M9.449,11.661c2.321-1.121,5.206-1.895,8.774-1.87c1.056,0.007,1.982,0.085,3.112,0.231
						c0.302,0.04,0.478,0.456,0.345,0.877c-0.061,0.193-0.175,0.382-0.371,0.522c-0.294,0.213-0.702,0.37-1.233,0.377
						c-3.717,0.058-6.533,0.975-8.6,2.793c-1.042,0.916-1.893,2.061-2.573,3.44c-0.693,1.404-1.209,3.048-1.568,4.937
						c-0.035,0.186-0.1,0.361-0.188,0.525c-0.556,1.037-2.403,1.454-3.491,1.468c-1.806,0.016-3.484-0.581-3.484-1.847
						c0-0.4,0.826-3.844,3.612-7.093C5.11,14.478,6.959,12.864,9.449,11.661z"/>
					<path class="st22" d="M9.475,11.655c2.318-1.115,5.197-1.884,8.756-1.858c1.052,0.008,1.979,0.085,3.105,0.231
						c0.299,0.039,0.473,0.458,0.336,0.877c-0.063,0.192-0.179,0.378-0.376,0.516c-0.297,0.209-0.706,0.363-1.234,0.371
						c-3.713,0.061-6.527,0.98-8.592,2.797c-1.041,0.916-1.892,2.061-2.572,3.437c-0.694,1.403-1.209,3.047-1.568,4.934
						c-0.035,0.186-0.1,0.361-0.186,0.525c-0.55,1.039-2.389,1.461-3.484,1.474c-1.804,0.021-3.483-0.581-3.483-1.845
						c0-0.398,0.829-3.847,3.621-7.099C5.127,14.469,6.98,12.856,9.475,11.655z"/>
					<path class="st23" d="M9.502,11.65c2.315-1.11,5.189-1.873,8.737-1.845c1.049,0.008,1.975,0.086,3.099,0.231
						c0.297,0.039,0.469,0.461,0.326,0.878c-0.065,0.19-0.183,0.374-0.382,0.51c-0.3,0.205-0.709,0.357-1.235,0.365
						c-3.709,0.063-6.52,0.985-8.583,2.802c-1.041,0.916-1.891,2.06-2.571,3.435c-0.694,1.403-1.21,3.045-1.569,4.93
						c-0.035,0.186-0.099,0.361-0.185,0.525c-0.544,1.041-2.375,1.466-3.477,1.479C1.86,24.98,0.18,24.378,0.18,23.115
						c0-0.396,0.832-3.85,3.631-7.105C5.144,14.46,7.002,12.848,9.502,11.65z"/>
					<path class="st24" d="M9.529,11.644c2.312-1.104,5.18-1.862,8.719-1.833c1.046,0.008,1.971,0.086,3.092,0.231
						c0.294,0.039,0.464,0.463,0.317,0.879c-0.067,0.188-0.186,0.37-0.387,0.503c-0.303,0.201-0.712,0.35-1.236,0.358
						c-3.705,0.066-6.513,0.99-8.575,2.806c-1.04,0.916-1.89,2.059-2.57,3.433c-0.694,1.402-1.211,3.044-1.57,4.926
						c-0.035,0.186-0.099,0.361-0.183,0.526c-0.538,1.043-2.362,1.47-3.47,1.484c-1.8,0.022-3.482-0.581-3.482-1.842
						c0-0.393,0.835-3.854,3.64-7.111C5.161,14.451,7.024,12.839,9.529,11.644z"/>
					<path class="st25" d="M9.556,11.638c2.309-1.098,5.171-1.851,8.7-1.821c1.042,0.009,1.968,0.086,3.085,0.231
						c0.292,0.038,0.46,0.465,0.307,0.879c-0.069,0.186-0.19,0.366-0.392,0.497c-0.306,0.197-0.715,0.344-1.238,0.352
						c-3.702,0.069-6.507,0.995-8.566,2.81c-1.039,0.916-1.889,2.059-2.568,3.431c-0.695,1.402-1.211,3.042-1.571,4.923
						c-0.035,0.186-0.098,0.361-0.182,0.526c-0.532,1.045-2.348,1.475-3.464,1.489c-1.798,0.023-3.481-0.58-3.481-1.84
						c0-0.391,0.839-3.857,3.65-7.117C5.178,14.443,7.046,12.831,9.556,11.638z"/>
					<path class="st26" d="M9.582,11.632c2.306-1.092,5.162-1.84,8.682-1.809c1.039,0.009,1.964,0.086,3.078,0.231
						c0.289,0.038,0.455,0.468,0.298,0.88c-0.07,0.185-0.193,0.363-0.398,0.491c-0.309,0.193-0.718,0.337-1.239,0.346
						c-3.698,0.071-6.5,1-8.558,2.815c-1.039,0.916-1.888,2.058-2.567,3.429c-0.695,1.402-1.212,3.041-1.571,4.919
						c-0.035,0.185-0.098,0.361-0.18,0.526c-0.525,1.047-2.334,1.48-3.457,1.494c-1.796,0.024-3.481-0.58-3.481-1.838
						c0-0.389,0.842-3.86,3.659-7.123C5.195,14.434,7.067,12.823,9.582,11.632z"/>
					<path class="st27" d="M9.609,11.626c2.303-1.086,5.153-1.829,8.664-1.796c1.036,0.009,1.961,0.087,3.071,0.23
						c0.287,0.038,0.451,0.47,0.288,0.88c-0.072,0.183-0.197,0.359-0.403,0.484c-0.311,0.189-0.722,0.331-1.24,0.34
						c-3.694,0.074-6.494,1.005-8.549,2.819c-1.038,0.916-1.887,2.058-2.566,3.426c-0.695,1.401-1.212,3.039-1.572,4.916
						c-0.035,0.185-0.097,0.361-0.179,0.527c-0.519,1.049-2.32,1.484-3.45,1.5c-1.794,0.025-3.48-0.58-3.48-1.837
						c0-0.387,0.845-3.863,3.668-7.129C5.212,14.425,7.089,12.814,9.609,11.626z"/>
					<path class="st28" d="M9.636,11.62c2.301-1.08,5.145-1.818,8.645-1.784c1.032,0.01,1.957,0.087,3.064,0.23
						c0.285,0.037,0.446,0.472,0.279,0.881c-0.074,0.181-0.2,0.355-0.409,0.478c-0.314,0.185-0.725,0.324-1.241,0.334
						c-3.69,0.077-6.487,1.01-8.541,2.823c-1.038,0.916-1.886,2.057-2.565,3.424c-0.696,1.401-1.213,3.038-1.573,4.912
						c-0.035,0.185-0.097,0.361-0.177,0.527c-0.513,1.051-2.306,1.489-3.443,1.505c-1.792,0.025-3.48-0.579-3.48-1.835
						c0-0.385,0.848-3.867,3.678-7.135C5.229,14.417,7.111,12.806,9.636,11.62z"/>
					<path class="st29" d="M9.663,11.614c2.298-1.074,5.136-1.807,8.627-1.772c1.029,0.01,1.953,0.087,3.057,0.23
						c0.282,0.037,0.442,0.475,0.27,0.882c-0.076,0.179-0.204,0.351-0.414,0.472c-0.317,0.181-0.728,0.318-1.243,0.327
						c-3.687,0.079-6.48,1.015-8.532,2.828c-1.037,0.916-1.885,2.056-2.563,3.422c-0.696,1.4-1.213,3.036-1.574,4.908
						c-0.036,0.185-0.096,0.361-0.176,0.527c-0.507,1.053-2.293,1.493-3.436,1.51c-1.79,0.026-3.479-0.579-3.479-1.833
						c0-0.383,0.851-3.87,3.687-7.141C5.246,14.408,7.132,12.798,9.663,11.614z"/>
					<path class="st30" d="M9.689,11.608c2.295-1.069,5.127-1.796,8.608-1.76c1.025,0.01,1.95,0.087,3.05,0.23
						c0.28,0.037,0.438,0.477,0.26,0.882c-0.078,0.177-0.207,0.348-0.419,0.465c-0.32,0.177-0.731,0.311-1.244,0.321
						c-3.683,0.082-6.474,1.02-8.524,2.832c-1.037,0.916-1.884,2.056-2.562,3.42c-0.696,1.4-1.214,3.035-1.575,4.905
						c-0.036,0.185-0.096,0.361-0.175,0.528c-0.501,1.055-2.279,1.498-3.43,1.515c-1.788,0.027-3.478-0.579-3.478-1.832
						c0-0.38,0.854-3.873,3.697-7.147C5.263,14.399,7.154,12.789,9.689,11.608z"/>
					<path class="st31" d="M9.716,11.603c2.292-1.063,5.118-1.785,8.59-1.748c1.022,0.011,1.946,0.087,3.044,0.23
						c0.277,0.036,0.433,0.48,0.251,0.883c-0.08,0.176-0.211,0.344-0.425,0.459c-0.322,0.174-0.735,0.305-1.245,0.315
						c-3.679,0.085-6.467,1.025-8.515,2.836c-1.036,0.916-1.883,2.055-2.561,3.418c-0.697,1.399-1.215,3.033-1.575,4.901
						c-0.036,0.185-0.095,0.361-0.173,0.528c-0.494,1.057-2.265,1.503-3.423,1.521c-1.786,0.028-3.478-0.579-3.478-1.83
						c0-0.378,0.857-3.877,3.706-7.153C5.28,14.39,7.176,12.781,9.716,11.603z"/>
					<path class="st32" d="M9.743,11.597c2.289-1.057,5.109-1.774,8.572-1.735c1.019,0.011,1.942,0.088,3.037,0.229
						c0.275,0.036,0.429,0.482,0.241,0.883c-0.081,0.174-0.214,0.34-0.43,0.453c-0.325,0.17-0.738,0.298-1.246,0.309
						c-3.675,0.087-6.46,1.03-8.507,2.841c-1.036,0.916-1.882,2.055-2.56,3.415c-0.697,1.399-1.215,3.032-1.576,4.898
						c-0.036,0.185-0.095,0.361-0.172,0.528c-0.488,1.059-2.251,1.507-3.416,1.526c-1.784,0.029-3.477-0.578-3.477-1.828
						c0-0.376,0.86-3.88,3.716-7.159C5.297,14.382,7.197,12.772,9.743,11.597z"/>
					<path class="st33" d="M9.77,11.591c2.286-1.051,5.101-1.763,8.553-1.723c1.015,0.011,1.939,0.088,3.03,0.229
						c0.272,0.036,0.425,0.484,0.232,0.884c-0.083,0.172-0.218,0.336-0.436,0.446c-0.328,0.166-0.741,0.292-1.248,0.303
						c-3.672,0.09-6.454,1.035-8.498,2.845c-1.035,0.916-1.881,2.054-2.558,3.413c-0.697,1.399-1.216,3.03-1.577,4.894
						c-0.036,0.185-0.094,0.361-0.17,0.529c-0.482,1.061-2.238,1.512-3.409,1.531c-1.782,0.029-3.477-0.578-3.477-1.827
						c0-0.374,0.863-3.883,3.725-7.165C5.314,14.373,7.219,12.764,9.77,11.591z"/>
					<path class="st34" d="M9.796,11.585c2.283-1.045,5.092-1.752,8.535-1.711c1.012,0.012,1.935,0.088,3.023,0.229
						c0.27,0.035,0.42,0.487,0.222,0.885c-0.085,0.17-0.221,0.332-0.441,0.44c-0.331,0.162-0.744,0.285-1.249,0.296
						c-3.668,0.093-6.447,1.04-8.49,2.849c-1.034,0.916-1.88,2.053-2.557,3.411c-0.698,1.398-1.216,3.029-1.578,4.89
						c-0.036,0.184-0.094,0.36-0.169,0.529c-0.476,1.063-2.224,1.516-3.402,1.536c-1.78,0.03-3.476-0.578-3.476-1.825
						c0-0.372,0.867-3.886,3.734-7.171C5.331,14.364,7.241,12.755,9.796,11.585z"/>
					<path class="st35" d="M9.823,11.579c2.28-1.04,5.083-1.741,8.516-1.699c1.009,0.012,1.932,0.088,3.016,0.229
						c0.267,0.035,0.416,0.489,0.213,0.885c-0.087,0.169-0.225,0.329-0.446,0.434c-0.333,0.158-0.747,0.279-1.25,0.29
						c-3.664,0.095-6.44,1.045-8.481,2.854c-1.034,0.916-1.879,2.053-2.556,3.409c-0.698,1.398-1.217,3.027-1.579,4.887
						c-0.036,0.184-0.093,0.36-0.167,0.529c-0.47,1.065-2.21,1.521-3.396,1.541c-1.778,0.031-3.475-0.577-3.475-1.823
						c0-0.37,0.87-3.89,3.744-7.177C5.348,14.355,7.262,12.747,9.823,11.579z"/>
					<path class="st36" d="M9.85,11.573c2.277-1.034,5.074-1.73,8.498-1.687c1.005,0.012,1.928,0.089,3.009,0.229
						c0.265,0.035,0.412,0.491,0.203,0.886c-0.088,0.167-0.228,0.325-0.452,0.428c-0.336,0.154-0.751,0.272-1.251,0.284
						c-3.66,0.098-6.434,1.05-8.473,2.858c-1.033,0.916-1.878,2.052-2.555,3.407c-0.698,1.397-1.217,3.026-1.579,4.883
						c-0.036,0.184-0.093,0.36-0.166,0.529c-0.463,1.067-2.196,1.525-3.389,1.547c-1.776,0.031-3.475-0.577-3.475-1.822
						c0-0.368,0.873-3.893,3.753-7.183C5.365,14.347,7.284,12.738,9.85,11.573z"/>
					<path class="st37" d="M9.877,11.567c2.274-1.028,5.065-1.719,8.48-1.674c1.002,0.013,1.924,0.089,3.002,0.229
						c0.262,0.034,0.408,0.494,0.194,0.886c-0.09,0.165-0.231,0.321-0.457,0.421c-0.339,0.15-0.754,0.266-1.253,0.278
						c-3.657,0.101-6.427,1.055-8.464,2.862c-1.033,0.916-1.877,2.052-2.553,3.404c-0.699,1.397-1.218,3.024-1.58,4.88
						c-0.036,0.184-0.092,0.36-0.164,0.53c-0.457,1.069-2.183,1.53-3.382,1.552c-1.774,0.032-3.474-0.577-3.474-1.82
						c0-0.365,0.876-3.896,3.763-7.188C5.382,14.338,7.306,12.73,9.877,11.567z"/>
					<path class="st38" d="M9.903,11.562c2.272-1.023,5.057-1.708,8.461-1.662c0.999,0.013,1.921,0.089,2.995,0.228
						c0.26,0.034,0.404,0.496,0.184,0.887c-0.092,0.163-0.235,0.317-0.462,0.415c-0.342,0.146-0.757,0.259-1.254,0.272
						c-3.653,0.103-6.42,1.06-8.456,2.867c-1.032,0.916-1.876,2.051-2.552,3.402c-0.699,1.396-1.219,3.023-1.581,4.876
						c-0.036,0.184-0.092,0.36-0.163,0.53c-0.451,1.071-2.169,1.535-3.375,1.557c-1.772,0.033-3.473-0.577-3.473-1.818
						c0-0.363,0.879-3.9,3.772-7.194C5.399,14.329,7.327,12.721,9.903,11.562z"/>
					<path class="st39" d="M9.93,11.556c2.269-1.017,5.048-1.697,8.443-1.65c0.995,0.013,1.917,0.089,2.989,0.228
						c0.258,0.034,0.4,0.499,0.175,0.888c-0.093,0.162-0.238,0.314-0.468,0.409c-0.344,0.143-0.76,0.253-1.255,0.266
						c-3.649,0.106-6.414,1.065-8.447,2.871c-1.032,0.916-1.875,2.05-2.551,3.4c-0.7,1.396-1.219,3.021-1.582,4.872
						c-0.036,0.184-0.091,0.36-0.161,0.53c-0.445,1.073-2.155,1.539-3.369,1.562c-1.77,0.034-3.473-0.576-3.473-1.817
						c0-0.361,0.882-3.903,3.781-7.2C5.416,14.32,7.349,12.713,9.93,11.556z"/>
					<path class="st40" d="M9.957,11.55c2.266-1.011,5.039-1.686,8.424-1.638c0.992,0.014,1.913,0.09,2.982,0.228
						c0.255,0.033,0.396,0.501,0.165,0.888c-0.095,0.16-0.242,0.31-0.473,0.402c-0.347,0.139-0.764,0.246-1.256,0.259
						c-3.645,0.108-6.407,1.07-8.439,2.875c-1.031,0.916-1.874,2.05-2.55,3.398c-0.7,1.396-1.22,3.02-1.582,4.869
						c-0.036,0.184-0.091,0.36-0.16,0.531c-0.438,1.075-2.141,1.544-3.362,1.567c-1.768,0.034-3.472-0.576-3.472-1.815
						c0-0.359,0.885-3.906,3.791-7.206C5.433,14.312,7.37,12.704,9.957,11.55z"/>
					<path class="st41" d="M9.984,11.544c2.263-1.005,5.03-1.675,8.406-1.626c0.989,0.014,1.91,0.09,2.975,0.228
						c0.253,0.033,0.392,0.504,0.156,0.889c-0.097,0.158-0.245,0.306-0.479,0.396c-0.35,0.135-0.767,0.24-1.258,0.253
						c-3.642,0.111-6.401,1.075-8.43,2.88c-1.031,0.916-1.873,2.049-2.549,3.396c-0.7,1.395-1.22,3.018-1.583,4.865
						c-0.036,0.183-0.09,0.36-0.158,0.531c-0.432,1.076-2.127,1.548-3.355,1.573c-1.767,0.035-3.472-0.576-3.472-1.813
						c0-0.357,0.888-3.91,3.8-7.212C5.45,14.303,7.392,12.696,9.984,11.544z"/>
					<path class="st42" d="M10.01,11.538c2.26-1,5.021-1.663,8.388-1.613c0.985,0.014,1.906,0.09,2.968,0.228
						c0.25,0.033,0.388,0.506,0.147,0.889c-0.099,0.157-0.249,0.302-0.484,0.39c-0.353,0.131-0.77,0.233-1.259,0.247
						c-3.638,0.114-6.394,1.08-8.422,2.884c-1.03,0.916-1.872,2.048-2.547,3.394C8.1,19.351,7.58,20.973,7.217,22.818
						c-0.036,0.183-0.09,0.36-0.157,0.531c-0.426,1.078-2.114,1.553-3.348,1.578c-1.765,0.036-3.471-0.575-3.471-1.812
						c0-0.355,0.891-3.913,3.81-7.218C5.467,14.294,7.414,12.687,10.01,11.538z"/>
					<path class="st43" d="M10.037,11.532c2.257-0.994,5.013-1.652,8.369-1.601c0.982,0.015,1.902,0.09,2.961,0.228
						c0.248,0.032,0.384,0.509,0.137,0.89c-0.1,0.155-0.252,0.299-0.489,0.383c-0.355,0.127-0.773,0.227-1.26,0.241
						c-3.634,0.116-6.387,1.085-8.413,2.888c-1.029,0.916-1.871,2.048-2.546,3.391c-0.701,1.394-1.221,3.015-1.585,4.858
						c-0.036,0.183-0.089,0.36-0.156,0.532c-0.42,1.08-2.1,1.557-3.341,1.583c-1.763,0.036-3.47-0.575-3.47-1.81
						c0-0.352,0.895-3.916,3.819-7.224C5.484,14.285,7.435,12.679,10.037,11.532z"/>
					<path class="st44" d="M10.064,11.526c2.254-0.989,5.004-1.641,8.351-1.589c0.979,0.015,1.899,0.09,2.954,0.227
						c0.245,0.032,0.38,0.511,0.128,0.891c-0.102,0.153-0.256,0.295-0.495,0.377c-0.358,0.123-0.776,0.22-1.261,0.235
						c-3.63,0.119-6.381,1.09-8.405,2.892c-1.029,0.916-1.87,2.047-2.545,3.389c-0.701,1.394-1.222,3.014-1.586,4.854
						c-0.036,0.183-0.089,0.36-0.154,0.532c-0.414,1.082-2.086,1.562-3.335,1.588c-1.761,0.037-3.47-0.575-3.47-1.808
						c0-0.35,0.898-3.919,3.828-7.23C5.501,14.277,7.457,12.67,10.064,11.526z"/>
					<path class="st45" d="M10.091,11.521c2.251-0.983,4.995-1.63,8.332-1.577c0.975,0.015,1.895,0.091,2.947,0.227
						c0.243,0.031,0.376,0.514,0.118,0.891c-0.103,0.152-0.259,0.291-0.5,0.371c-0.361,0.119-0.78,0.214-1.262,0.228
						c-3.627,0.122-6.374,1.095-8.396,2.897c-1.028,0.916-1.869,2.047-2.544,3.387c-0.702,1.393-1.223,3.012-1.586,4.851
						c-0.036,0.183-0.088,0.36-0.153,0.532c-0.407,1.084-2.072,1.566-3.328,1.593C1.961,24.96,0.25,24.347,0.25,23.115
						c0-0.348,0.901-3.923,3.838-7.236C5.518,14.268,7.478,12.661,10.091,11.521z"/>
					<path class="st46" d="M10.117,11.515c2.248-0.977,4.986-1.619,8.314-1.564c0.972,0.016,1.892,0.091,2.94,0.227
						c0.24,0.031,0.372,0.516,0.109,0.892c-0.105,0.15-0.263,0.287-0.506,0.364c-0.364,0.115-0.783,0.207-1.264,0.222
						c-3.623,0.124-6.367,1.1-8.388,2.901c-1.028,0.916-1.868,2.046-2.542,3.385c-0.702,1.393-1.223,3.011-1.587,4.847
						c-0.036,0.183-0.088,0.36-0.151,0.533c-0.401,1.086-2.059,1.571-3.321,1.599c-1.757,0.038-3.469-0.574-3.469-1.805
						c0-0.346,0.904-3.926,3.847-7.242C5.535,14.259,7.5,12.653,10.117,11.515z"/>
					<path class="st47" d="M10.144,11.509c2.245-0.972,4.977-1.608,8.296-1.552c0.969,0.016,1.888,0.091,2.934,0.227
						c0.238,0.031,0.368,0.519,0.099,0.892c-0.107,0.148-0.266,0.284-0.511,0.358c-0.366,0.112-0.786,0.201-1.265,0.216
						c-3.619,0.127-6.361,1.105-8.379,2.905c-1.027,0.916-1.867,2.045-2.541,3.383c-0.702,1.393-1.224,3.009-1.588,4.844
						c-0.036,0.183-0.087,0.36-0.15,0.533c-0.395,1.088-2.045,1.576-3.314,1.604c-1.755,0.039-3.468-0.574-3.468-1.803
						c0-0.344,0.907-3.929,3.857-7.248C5.552,14.25,7.521,12.644,10.144,11.509z"/>
					<path class="st48" d="M10.171,11.503c2.242-0.966,4.969-1.597,8.277-1.54c0.965,0.016,1.884,0.091,2.927,0.227
						c0.236,0.03,0.364,0.522,0.09,0.893c-0.108,0.147-0.27,0.28-0.516,0.352c-0.369,0.108-0.789,0.194-1.266,0.21
						c-3.616,0.13-6.354,1.11-8.371,2.91c-1.027,0.917-1.866,2.045-2.54,3.38c-0.703,1.392-1.224,3.008-1.589,4.84
						c-0.036,0.183-0.087,0.36-0.148,0.533c-0.389,1.09-2.031,1.578-3.307,1.609c-1.753,0.036-3.467-0.574-3.467-1.802
						c0-0.342,0.91-3.933,3.866-7.254C5.569,14.242,7.543,12.635,10.171,11.503z"/>
					<path class="st49" d="M10.198,11.497c2.239-0.96,4.96-1.586,8.259-1.528c0.962,0.017,1.881,0.092,2.92,0.226
						c0.233,0.03,0.36,0.524,0.08,0.894c-0.11,0.145-0.273,0.277-0.522,0.345c-0.372,0.105-0.793,0.188-1.267,0.204
						c-3.612,0.132-6.347,1.115-8.362,2.914c-1.026,0.917-1.865,2.044-2.539,3.378c-0.703,1.392-1.225,3.006-1.59,4.836
						c-0.036,0.182-0.086,0.36-0.147,0.534c-0.383,1.092-2.017,1.582-3.301,1.614c-1.751,0.037-3.467-0.573-3.467-1.8
						c0-0.339,0.913-3.936,3.875-7.26C5.586,14.233,7.565,12.627,10.198,11.497z"/>
					<path class="st50" d="M10.224,11.491c2.236-0.955,4.951-1.575,8.24-1.516c0.959,0.017,1.877,0.092,2.913,0.226
						c0.231,0.03,0.356,0.527,0.071,0.894c-0.111,0.143-0.277,0.273-0.527,0.339c-0.374,0.101-0.796,0.181-1.269,0.198
						c-3.608,0.135-6.341,1.12-8.354,2.918c-1.026,0.917-1.865,2.044-2.537,3.376c-0.703,1.391-1.225,3.005-1.59,4.833
						c-0.036,0.182-0.086,0.36-0.145,0.534c-0.376,1.094-2.004,1.587-3.294,1.619c-1.749,0.038-3.466-0.573-3.466-1.798
						c0-0.337,0.916-3.939,3.885-7.266C5.603,14.224,7.586,12.618,10.224,11.491z"/>
					<path class="st51" d="M10.251,11.485c2.233-0.949,4.942-1.564,8.222-1.503c0.955,0.017,1.873,0.092,2.906,0.226
						c0.228,0.029,0.353,0.53,0.061,0.895c-0.113,0.142-0.28,0.269-0.533,0.333c-0.377,0.097-0.799,0.175-1.27,0.191
						c-3.604,0.138-6.334,1.125-8.345,2.923c-1.025,0.917-1.864,2.043-2.536,3.374c-0.704,1.391-1.226,3.003-1.591,4.829
						c-0.036,0.182-0.085,0.36-0.144,0.534c-0.37,1.096-1.99,1.591-3.287,1.625c-1.747,0.039-3.465-0.573-3.465-1.797
						c0-0.335,0.919-3.942,3.894-7.272C5.62,14.216,7.608,12.609,10.251,11.485z"/>
					<path class="st52" d="M10.278,11.48c2.23-0.944,4.933-1.553,8.204-1.491c0.952,0.018,1.87,0.092,2.899,0.226
						c0.226,0.029,0.349,0.532,0.052,0.895c-0.115,0.14-0.284,0.265-0.538,0.327c-0.38,0.093-0.802,0.168-1.271,0.185
						c-3.601,0.14-6.327,1.13-8.337,2.927c-1.024,0.917-1.863,2.042-2.535,3.372c-0.704,1.39-1.227,3.002-1.592,4.826
						c-0.036,0.182-0.085,0.36-0.142,0.534c-0.364,1.098-1.976,1.596-3.28,1.63c-1.745,0.039-3.465-0.573-3.465-1.795
						c0-0.333,0.923-3.946,3.904-7.278C5.637,14.207,7.629,12.601,10.278,11.48z"/>
					<path class="st53" d="M10.305,11.474c2.227-0.938,4.925-1.542,8.185-1.479c0.949,0.018,1.866,0.093,2.892,0.226
						c0.223,0.029,0.345,0.535,0.042,0.896c-0.116,0.139-0.287,0.262-0.543,0.32c-0.383,0.089-0.805,0.162-1.272,0.179
						c-3.597,0.143-6.321,1.135-8.328,2.931c-1.024,0.917-1.862,2.042-2.534,3.369c-0.704,1.39-1.227,3-1.593,4.822
						c-0.036,0.182-0.084,0.36-0.141,0.535c-0.358,1.1-1.962,1.6-3.273,1.635c-1.743,0.04-3.464-0.572-3.464-1.793
						c0-0.331,0.926-3.949,3.913-7.284C5.654,14.198,7.651,12.592,10.305,11.474z"/>
					<path class="st54" d="M10.331,11.468c2.224-0.933,4.916-1.531,8.167-1.467c0.945,0.018,1.863,0.093,2.885,0.226
						c0.221,0.028,0.341,0.538,0.033,0.896c-0.118,0.137-0.291,0.258-0.549,0.314c-0.385,0.085-0.809,0.155-1.274,0.173
						c-3.593,0.146-6.314,1.14-8.32,2.936c-1.023,0.917-1.861,2.041-2.533,3.367c-0.705,1.39-1.228,2.999-1.593,4.819
						c-0.036,0.182-0.084,0.36-0.139,0.535c-0.351,1.102-1.949,1.605-3.267,1.64c-1.741,0.041-3.464-0.572-3.464-1.792
						c0-0.329,0.929-3.952,3.922-7.289C5.671,14.189,7.672,12.583,10.331,11.468z"/>
					<path class="st55" d="M10.358,11.462c2.221-0.927,4.907-1.52,8.148-1.455c0.942,0.019,1.859,0.093,2.879,0.225
						c0.218,0.028,0.338,0.541,0.024,0.897c-0.119,0.135-0.294,0.254-0.554,0.308c-0.388,0.081-0.812,0.149-1.275,0.167
						c-3.589,0.148-6.307,1.145-8.311,2.94c-1.023,0.917-1.86,2.041-2.531,3.365c-0.705,1.389-1.228,2.997-1.594,4.815
						c-0.037,0.182-0.083,0.36-0.138,0.535c-0.345,1.104-1.935,1.609-3.26,1.645c-1.739,0.042-3.463-0.572-3.463-1.79
						c0-0.327,0.932-3.956,3.932-7.295C5.688,14.181,7.694,12.574,10.358,11.462z"/>
					<path class="st56" d="M10.385,11.456c2.218-0.922,4.898-1.509,8.13-1.442c0.939,0.019,1.855,0.093,2.872,0.225
						c0.216,0.028,0.334,0.544,0.014,0.898c-0.121,0.134-0.298,0.25-0.56,0.301c-0.391,0.077-0.815,0.142-1.276,0.16
						c-3.586,0.151-6.301,1.15-8.303,2.944c-1.022,0.917-1.859,2.04-2.53,3.363c-0.705,1.389-1.229,2.996-1.595,4.811
						c-0.037,0.181-0.083,0.36-0.137,0.536c-0.339,1.106-1.921,1.614-3.253,1.651c-1.737,0.042-3.462-0.571-3.462-1.788
						c0-0.324,0.935-3.959,3.941-7.301C5.705,14.172,7.715,12.565,10.385,11.456z"/>
					<path class="st57" d="M10.412,11.45c2.215-0.916,4.889-1.498,8.112-1.43c0.935,0.019,1.852,0.093,2.865,0.225
						c0.213,0.027,0.33,0.547,0.005,0.898c-0.122,0.132-0.301,0.246-0.565,0.295c-0.394,0.074-0.818,0.136-1.277,0.154
						c-3.582,0.153-6.294,1.155-8.294,2.949c-1.022,0.917-1.858,2.039-2.529,3.361c-0.706,1.388-1.229,2.994-1.596,4.808
						c-0.037,0.181-0.082,0.36-0.135,0.536c-0.333,1.108-1.907,1.619-3.246,1.656c-1.735,0.043-3.462-0.571-3.462-1.787
						c0-0.322,0.938-3.962,3.951-7.307C5.722,14.163,7.737,12.557,10.412,11.45z"/>
					<path class="st58" d="M10.438,11.444c2.212-0.911,4.881-1.487,8.093-1.418c0.932,0.02,1.848,0.094,2.858,0.225
						c0.211,0.027,0.327,0.55-0.005,0.899c-0.124,0.131-0.305,0.243-0.57,0.289c-0.396,0.07-0.822,0.129-1.279,0.148
						c-3.578,0.156-6.288,1.16-8.286,2.953c-1.021,0.917-1.857,2.039-2.528,3.359c-0.706,1.388-1.23,2.993-1.597,4.804
						c-0.037,0.181-0.082,0.36-0.134,0.536c-0.327,1.11-1.893,1.623-3.239,1.661c-1.733,0.044-3.461-0.571-3.461-1.785
						c0-0.32,0.941-3.965,3.96-7.313C5.739,14.154,7.758,12.548,10.438,11.444z"/>
					<path class="st59" d="M10.465,11.438c2.209-0.905,4.872-1.476,8.075-1.406c0.929,0.02,1.844,0.094,2.851,0.225
						c0.209,0.027,0.323,0.553-0.014,0.899c-0.126,0.129-0.308,0.239-0.576,0.282c-0.399,0.066-0.825,0.123-1.28,0.142
						c-3.574,0.159-6.281,1.165-8.277,2.957c-1.021,0.917-1.856,2.038-2.526,3.356c-0.706,1.387-1.231,2.991-1.597,4.801
						c-0.037,0.181-0.081,0.36-0.132,0.537c-0.32,1.112-1.88,1.628-3.233,1.666c-1.731,0.045-3.461-0.571-3.461-1.783
						c0-0.318,0.944-3.969,3.969-7.319C5.756,14.146,7.78,12.539,10.465,11.438z"/>
					<path class="st60" d="M10.492,11.433c2.206-0.9,4.863-1.465,8.056-1.393c0.925,0.02,1.841,0.094,2.844,0.224
						c0.206,0.026,0.319,0.556-0.024,0.9c-0.127,0.128-0.312,0.235-0.581,0.276c-0.402,0.062-0.828,0.116-1.281,0.136
						c-3.571,0.161-6.274,1.17-8.269,2.962c-1.02,0.917-1.855,2.038-2.525,3.354c-0.707,1.387-1.231,2.99-1.598,4.797
						c-0.037,0.181-0.081,0.36-0.131,0.537c-0.314,1.114-1.866,1.632-3.226,1.672c-1.729,0.045-3.46-0.57-3.46-1.782
						c0-0.316,0.948-3.972,3.979-7.325C5.773,14.137,7.801,12.53,10.492,11.433z"/>
					<path class="st61" d="M10.519,11.427c2.203-0.894,4.854-1.454,8.038-1.381c0.922,0.021,1.837,0.094,2.837,0.224
						c0.204,0.026,0.316,0.559-0.033,0.901c-0.129,0.126-0.315,0.231-0.586,0.27c-0.405,0.058-0.831,0.11-1.282,0.13
						c-3.567,0.164-6.268,1.175-8.26,2.966c-1.019,0.917-1.854,2.037-2.524,3.352c-0.707,1.387-1.232,2.988-1.599,4.793
						c-0.037,0.181-0.08,0.36-0.129,0.537c-0.308,1.116-1.852,1.637-3.219,1.677c-1.727,0.046-3.459-0.57-3.459-1.78
						c0-0.314,0.951-3.975,3.988-7.331C5.79,14.128,7.823,12.521,10.519,11.427z"/>
					<path class="st62" d="M10.545,11.421c2.2-0.889,4.845-1.443,8.02-1.369c0.919,0.021,1.834,0.095,2.83,0.224
						c0.201,0.026,0.312,0.562-0.043,0.901c-0.13,0.125-0.319,0.228-0.592,0.263c-0.408,0.054-0.835,0.103-1.284,0.123
						c-3.563,0.167-6.261,1.18-8.252,2.97c-1.019,0.917-1.853,2.036-2.523,3.35c-0.707,1.386-1.232,2.987-1.6,4.79
						c-0.037,0.181-0.08,0.36-0.128,0.538c-0.302,1.118-1.838,1.641-3.212,1.682c-1.725,0.047-3.459-0.57-3.459-1.778
						c0-0.311,0.954-3.979,3.998-7.337C5.807,14.119,7.844,12.512,10.545,11.421z"/>
					<path class="st63" d="M10.572,11.415c2.197-0.884,4.836-1.432,8.001-1.357c0.915,0.021,1.83,0.095,2.824,0.224
						c0.199,0.025,0.308,0.565-0.052,0.902c-0.132,0.123-0.322,0.224-0.597,0.257c-0.41,0.05-0.838,0.097-1.285,0.117
						c-3.559,0.169-6.254,1.185-8.243,2.975c-1.018,0.917-1.852,2.036-2.521,3.348c-0.708,1.386-1.233,2.985-1.601,4.786
						c-0.037,0.18-0.079,0.36-0.126,0.538c-0.296,1.12-1.825,1.646-3.205,1.687c-1.723,0.048-3.458-0.569-3.458-1.777
						c0-0.309,0.957-3.982,4.007-7.343C5.824,14.111,7.866,12.504,10.572,11.415z"/>
					<path class="st64" d="M10.599,11.409c2.194-0.878,4.828-1.42,7.983-1.345c0.912,0.022,1.826,0.095,2.817,0.224
						c0.196,0.025,0.305,0.568-0.062,0.902c-0.133,0.122-0.326,0.22-0.603,0.251c-0.413,0.046-0.841,0.09-1.286,0.111
						c-3.556,0.172-6.248,1.19-8.235,2.979c-1.018,0.917-1.851,2.035-2.52,3.345c-0.708,1.385-1.233,2.984-1.601,4.783
						c-0.037,0.18-0.079,0.36-0.125,0.538c-0.289,1.122-1.811,1.651-3.199,1.692c-1.722,0.048-3.457-0.569-3.457-1.775
						c0-0.307,0.96-3.985,4.016-7.349C5.841,14.102,7.887,12.495,10.599,11.409z"/>
					<path class="st65" d="M10.626,11.403c2.189-0.877,4.819-1.409,7.964-1.332c0.909,0.022,1.823,0.095,2.81,0.224
						c0.194,0.025,0.301,0.571-0.071,0.903c-0.135,0.12-0.329,0.216-0.608,0.244c-0.416,0.043-0.844,0.084-1.287,0.105
						c-3.552,0.175-6.241,1.195-8.226,2.983c-1.017,0.917-1.85,2.035-2.519,3.343c-0.709,1.385-1.234,2.982-1.602,4.779
						c-0.037,0.18-0.078,0.36-0.123,0.538c-0.283,1.123-1.797,1.655-3.192,1.698c-1.72,0.049-3.457-0.569-3.457-1.773
						c0-0.305,0.963-3.989,4.026-7.355C5.858,14.093,7.907,12.48,10.626,11.403z"/>
					<path class="st66" d="M10.652,11.397c2.186-0.871,4.81-1.398,7.946-1.32c0.905,0.022,1.819,0.096,2.803,0.223
						c0.191,0.024,0.298,0.574-0.081,0.904c-0.136,0.119-0.333,0.213-0.613,0.238c-0.419,0.039-0.847,0.077-1.289,0.099
						c-3.548,0.177-6.234,1.2-8.218,2.988c-1.017,0.917-1.849,2.034-2.518,3.341c-0.709,1.384-1.235,2.981-1.603,4.775
						c-0.037,0.18-0.078,0.36-0.122,0.539c-0.277,1.125-1.783,1.66-3.185,1.703c-1.718,0.05-3.456-0.569-3.456-1.772
						c0-0.303,0.966-3.992,4.035-7.361C5.875,14.084,7.928,12.472,10.652,11.397z"/>
					<path class="st67" d="M10.679,11.392c2.183-0.866,4.801-1.387,7.928-1.308c0.902,0.023,1.815,0.096,2.796,0.223
						c0.189,0.024,0.294,0.577-0.09,0.904c-0.138,0.117-0.336,0.209-0.619,0.232c-0.421,0.035-0.851,0.071-1.29,0.092
						c-3.544,0.18-6.228,1.205-8.209,2.992c-1.016,0.917-1.848,2.033-2.517,3.339c-0.709,1.384-1.235,2.979-1.604,4.772
						c-0.037,0.18-0.077,0.36-0.12,0.539c-0.271,1.127-1.77,1.664-3.178,1.708c-1.716,0.05-3.456-0.568-3.456-1.77
						c0-0.301,0.969-3.995,4.045-7.367C5.892,14.076,7.95,12.463,10.679,11.392z"/>
					<path class="st68" d="M10.706,11.386c2.18-0.86,4.792-1.376,7.909-1.296c0.899,0.023,1.812,0.096,2.789,0.223
						c0.186,0.024,0.29,0.581-0.099,0.905c-0.139,0.116-0.34,0.205-0.624,0.226c-0.424,0.031-0.854,0.064-1.291,0.086
						c-3.541,0.183-6.221,1.21-8.201,2.996c-1.016,0.917-1.847,2.033-2.515,3.337c-0.71,1.384-1.236,2.978-1.604,4.768
						c-0.037,0.18-0.077,0.36-0.119,0.539c-0.265,1.129-1.756,1.669-3.171,1.713c-1.714,0.051-3.455-0.568-3.455-1.768
						c0-0.299,0.972-3.998,4.054-7.373C5.909,14.067,7.971,12.455,10.706,11.386z"/>
					<path class="st69" d="M10.733,11.38c2.177-0.854,4.784-1.365,7.891-1.284c0.895,0.023,1.808,0.096,2.782,0.223
						c0.184,0.023,0.287,0.584-0.109,0.905c-0.141,0.114-0.343,0.201-0.63,0.219c-0.427,0.027-0.857,0.058-1.292,0.08
						c-3.537,0.185-6.214,1.215-8.192,3.001c-1.015,0.917-1.846,2.032-2.514,3.334c-0.71,1.383-1.236,2.976-1.605,4.765
						c-0.037,0.18-0.076,0.36-0.117,0.54c-0.258,1.131-1.742,1.673-3.165,1.718c-1.712,0.052-3.454-0.568-3.454-1.767
						c0-0.296,0.976-4.002,4.064-7.379C5.926,14.058,7.993,12.446,10.733,11.38z"/>
					<path class="st70" d="M10.759,11.374c2.174-0.848,4.775-1.354,7.872-1.271c0.892,0.024,1.804,0.096,2.775,0.223
						c0.182,0.023,0.283,0.587-0.118,0.906c-0.142,0.113-0.347,0.198-0.635,0.213c-0.43,0.023-0.86,0.051-1.294,0.074
						c-3.533,0.188-6.208,1.22-8.184,3.005c-1.014,0.917-1.845,2.031-2.513,3.332c-0.71,1.383-1.237,2.975-1.606,4.761
						c-0.037,0.18-0.076,0.36-0.116,0.54C6.69,24.29,5.214,24.834,3.784,24.88c-1.71,0.053-3.454-0.567-3.454-1.765
						c0-0.294,0.979-4.005,4.073-7.385C5.943,14.049,8.015,12.438,10.759,11.374z"/>
					<path class="st71" d="M10.786,11.368c2.172-0.843,4.766-1.343,7.854-1.259c0.889,0.024,1.801,0.099,2.769,0.223
						c0.179,0.023,0.28,0.591-0.128,0.907c-0.144,0.112-0.35,0.194-0.64,0.207c-0.432,0.019-0.864,0.045-1.295,0.068
						c-3.529,0.19-6.201,1.225-8.175,3.009c-1.014,0.917-1.844,2.031-2.512,3.33c-0.711,1.382-1.237,2.973-1.607,4.757
						c-0.037,0.179-0.076,0.36-0.115,0.54c-0.246,1.135-1.714,1.682-3.151,1.729c-1.708,0.053-3.453-0.567-3.453-1.763
						c0-0.292,0.982-4.008,4.082-7.391C5.96,14.041,8.036,12.429,10.786,11.368z"/>
					<path class="st72" d="M10.813,11.362c2.169-0.837,4.757-1.332,7.836-1.247c0.885,0.024,1.797,0.099,2.762,0.222
						c0.177,0.023,0.276,0.594-0.137,0.907c-0.146,0.11-0.354,0.19-0.646,0.2c-0.435,0.015-0.867,0.038-1.296,0.061
						c-3.526,0.193-6.195,1.23-8.167,3.014c-1.013,0.917-1.843,2.03-2.51,3.328c-0.711,1.382-1.238,2.972-1.608,4.754
						c-0.037,0.179-0.075,0.359-0.113,0.541c-0.24,1.137-1.701,1.687-3.144,1.734c-1.706,0.054-3.453-0.567-3.453-1.762
						c0-0.29,0.985-4.012,4.092-7.396C5.977,14.032,8.058,12.421,10.813,11.362z"/>
					<path class="st73" d="M10.84,11.356c2.166-0.831,4.748-1.321,7.817-1.235c0.882,0.025,1.793,0.099,2.755,0.222
						c0.174,0.022,0.273,0.598-0.147,0.908c-0.147,0.109-0.357,0.186-0.651,0.194c-0.438,0.012-0.87,0.032-1.297,0.055
						c-3.522,0.196-6.188,1.235-8.158,3.018c-1.013,0.917-1.842,2.03-2.509,3.326c-0.711,1.381-1.239,2.97-1.608,4.75
						c-0.037,0.179-0.075,0.359-0.112,0.541c-0.233,1.139-1.687,1.692-3.137,1.739c-1.704,0.055-3.452-0.567-3.452-1.76
						c0-0.288,0.988-4.015,4.101-7.402C5.994,14.023,8.08,12.412,10.84,11.356z"/>
					<path class="st74" d="M10.866,11.351c2.163-0.825,4.74-1.31,7.799-1.222c0.878,0.025,1.79,0.1,2.748,0.222
						c0.172,0.022,0.269,0.601-0.156,0.908c-0.149,0.107-0.361,0.183-0.657,0.188c-0.441,0.008-0.873,0.025-1.298,0.049
						c-3.518,0.198-6.181,1.24-8.15,3.022c-1.012,0.917-1.841,2.029-2.508,3.323c-0.712,1.381-1.239,2.969-1.609,4.747
						c-0.037,0.179-0.074,0.359-0.11,0.541c-0.227,1.141-1.673,1.696-3.131,1.744c-1.702,0.056-3.451-0.566-3.451-1.758
						c0-0.286,0.991-4.018,4.111-7.408C6.011,14.015,8.101,12.403,10.866,11.351z"/>
					<path class="st75" d="M10.893,11.345c2.16-0.82,4.731-1.299,7.78-1.21c0.875,0.025,1.786,0.1,2.741,0.222
						c0.169,0.022,0.266,0.605-0.166,0.909c-0.15,0.106-0.364,0.179-0.662,0.181c-0.443,0.004-0.876,0.019-1.3,0.043
						c-3.514,0.201-6.175,1.245-8.141,3.027c-1.012,0.917-1.84,2.028-2.507,3.321c-0.712,1.381-1.24,2.967-1.61,4.743
						c-0.037,0.179-0.074,0.359-0.109,0.542c-0.221,1.143-1.659,1.701-3.124,1.75c-1.7,0.056-3.451-0.566-3.451-1.757
						c0-0.283,0.994-4.021,4.12-7.414C6.028,14.006,8.123,12.395,10.893,11.345z"/>
					<path class="st76" d="M21.416,10.362c-4.269-0.555-7.721-0.071-10.496,0.976s-4.875,2.658-6.441,4.356
						c-3.132,3.396-4.129,7.139-4.129,7.42c0,2.22,6.104,2.466,6.567,0c0.69-3.688,2.023-6.605,4.223-8.6s5.27-3.068,9.434-3.068
						C21.735,11.447,21.641,10.39,21.416,10.362z"/>
				</g>
				<g>
					<g>
						<linearGradient id="SVGID_1_" gradientUnits="userSpaceOnUse" x1="0.2805" y1="8.6923" x2="18.4906" y2="17.1838">
							<stop  offset="0" style="stop-color:#54C3F1"/>
							<stop  offset="0.0553" style="stop-color:#00AEE6"/>
							<stop  offset="0.1405" style="stop-color:#0093D8"/>
							<stop  offset="0.2084" style="stop-color:#0085CF"/>
							<stop  offset="0.25" style="stop-color:#0081CC"/>
							<stop  offset="0.4" style="stop-color:#0068B7"/>
							<stop  offset="0.64" style="stop-color:#005BAC"/>
							<stop  offset="1" style="stop-color:#004EA2"/>
						</linearGradient>
						<path class="st77" d="M11.979,0C6.974,0,0.106,3.044,0.103,12.612v10.563c0,2.433,6.787,2.433,6.787,0L6.889,12.251
							c0-4.492,2.829-7.865,6.787-7.96c3.127-0.074,5.655,1.523,5.655,6.072c0,1.141,2.26,1.141,2.26,0
							C21.591,2.679,17.332,0,11.979,0z"/>
					</g>
				</g>
			</g>
			<g>
				<path class="st78" d="M28.321,24.469h-2.473c-0.223,0-0.304-0.148-0.406-0.295l-2.919-3.937h-0.285
					c-0.525,0-1.339-0.046-1.804-0.06v3.997c0,0.162-0.162,0.295-0.386,0.295h-2.028c-0.224,0-0.404-0.133-0.404-0.295V14.027
					c0-0.294,0.241-0.395,0.647-0.442c1.054-0.119,2.494-0.192,3.974-0.192c3.122,0,5.84,0.811,5.84,3.334v0.131
					c0,1.563-1.074,2.537-2.736,3.008l3.182,4.308C28.625,24.32,28.545,24.469,28.321,24.469z M25.28,16.727
					c0-1.107-1.014-1.577-3.042-1.577c-0.425,0-1.437,0.029-1.804,0.058v3.318c0.324,0.014,1.46,0.043,1.804,0.043
					c2.089,0,3.042-0.413,3.042-1.71V16.727z"/>
				<path class="st78" d="M39.19,24.38c-0.649,0.073-1.439,0.204-3.851,0.204c-2.636,0-4.685-0.515-4.685-3.022v-5.146
					c0-2.507,2.05-3.023,4.685-3.023c2.411,0,3.202,0.133,3.851,0.207c0.305,0.032,0.407,0.104,0.407,0.31v0.943
					c0,0.162-0.183,0.297-0.407,0.297h-4.136c-1.176,0-1.6,0.293-1.6,1.267v1.593h5.493c0.224,0,0.405,0.133,0.405,0.295v1.061
					c0,0.164-0.181,0.297-0.405,0.297h-5.493v1.901c0,0.972,0.424,1.269,1.6,1.269h4.136c0.224,0,0.407,0.131,0.407,0.295v0.943
					C39.597,24.276,39.495,24.349,39.19,24.38z"/>
				<path class="st78" d="M50.667,24.349c-0.304,0.059-1.642,0.235-3.203,0.235c-2.433,0-5.738-0.87-5.738-4.512v-2.168
					c0-3.701,3.305-4.512,5.738-4.512c1.561,0,2.899,0.177,3.203,0.239c0.263,0.057,0.446,0.131,0.446,0.336v0.987
					c0,0.195-0.122,0.326-0.446,0.312c-0.71-0.044-2.088-0.118-3.162-0.118c-1.703,0-2.941,0.662-2.941,2.755v2.168
					c0,2.052,1.238,2.759,2.941,2.759c1.074,0,2.452-0.075,3.162-0.12c0.324-0.013,0.446,0.12,0.446,0.311v0.989
					C51.113,24.218,50.93,24.291,50.667,24.349z"/>
				<path class="st78" d="M64.05,24.469h-2.474c-0.222,0-0.304-0.148-0.405-0.295l-2.919-3.937h-0.285
					c-0.527,0-1.337-0.046-1.803-0.06v3.997c0,0.162-0.164,0.295-0.387,0.295H53.75c-0.223,0-0.407-0.133-0.407-0.295V14.027
					c0-0.294,0.245-0.395,0.649-0.442c1.055-0.119,2.495-0.192,3.974-0.192c3.123,0,5.84,0.811,5.84,3.334v0.131
					c0,1.563-1.074,2.537-2.738,3.008l3.183,4.308C64.353,24.32,64.272,24.469,64.05,24.469z M61.009,16.727
					c0-1.107-1.014-1.577-3.043-1.577c-0.424,0-1.438,0.029-1.803,0.058v3.318c0.324,0.014,1.46,0.043,1.803,0.043
					c2.089,0,3.043-0.413,3.043-1.71V16.727z"/>
				<path class="st78" d="M76.03,24.336c-0.71,0.073-3.264,0.249-4.5,0.249c-3.265,0-5.536-1.001-5.536-4.142v-6.649
					c0-0.162,0.183-0.283,0.406-0.283h2.007c0.222,0,0.405,0.121,0.405,0.283v6.649c0,1.682,0.528,2.445,2.718,2.445
					c0.811,0,2.048-0.056,2.797-0.116v-8.978c0-0.162,0.163-0.283,0.387-0.283h2.006c0.223,0,0.406,0.121,0.406,0.283v9.642
					C77.125,24.054,76.761,24.26,76.03,24.336z"/>
				<path class="st78" d="M82.379,24.469h-2.007c-0.224,0-0.406-0.133-0.406-0.295v-10.38c0-0.162,0.182-0.283,0.406-0.283h2.007
					c0.223,0,0.404,0.121,0.404,0.283v10.38C82.783,24.336,82.602,24.469,82.379,24.469z"/>
				<path class="st78" d="M95.023,15.223h-3.546v8.95c0,0.162-0.183,0.295-0.406,0.295h-2.007c-0.224,0-0.407-0.133-0.407-0.295
					v-8.95H85.11c-0.224,0-0.405-0.104-0.405-0.268v-1.162c0-0.162,0.181-0.283,0.405-0.283h9.913c0.224,0,0.407,0.121,0.407,0.283
					v1.162C95.43,15.119,95.246,15.223,95.023,15.223z"/>
			</g>
		</g>
		<g>
			<g>
				<g>
					<g>
						<path class="st78" d="M104.881,20.711v-5.586c0-0.131-0.14-0.237-0.31-0.237h-1.494c-0.169,0-0.309,0.106-0.309,0.237v5.586
							c0,0.129,0.14,0.235,0.309,0.235h1.494C104.741,20.946,104.881,20.84,104.881,20.711z"/>
						<path class="st78" d="M110.782,14.888h-1.494c-0.172,0-0.31,0.106-0.31,0.237v3.926c0,3.087-1.507,3.623-4.176,4.026
							c-0.315,0.048-0.405,0.118-0.405,0.312v0.895c0,0.256,0.088,0.306,0.43,0.282c4.828-0.349,6.266-1.905,6.266-5.36v-4.08
							C111.093,14.994,110.954,14.888,110.782,14.888z"/>
					</g>
					<path class="st78" d="M152.919,19.045c-1.612-0.413-3.696-0.842-5.735-1.217v-2.981c0-0.131-0.142-0.239-0.312-0.239h-1.612
						c-0.171,0-0.31,0.108-0.31,0.239v9.433c0,0.131,0.139,0.239,0.31,0.239h1.612c0.17,0,0.312-0.108,0.312-0.239v-4.927
						c1.989,0.417,4.015,0.891,5.688,1.348c0.299,0.083,0.392-0.013,0.392-0.286v-0.887
						C153.264,19.272,153.224,19.124,152.919,19.045z"/>
					<g>
						<path class="st78" d="M126.977,14.899h-1.355c-0.17,0-0.31,0.108-0.31,0.24v3.224c0,2.668-0.552,3.64-1.337,4.46
							c-0.267,0.282-0.314,0.351-0.314,0.633v0.74c0,0.226,0.163,0.278,0.43,0.193c2.146-0.679,3.198-2.482,3.198-5.947v-3.303
							C127.29,15.007,127.15,14.899,126.977,14.899z"/>
						<path class="st78" d="M130.126,24.371c2.69,0,4.134-2.245,4.611-5.316c0.054-0.355-0.029-0.438-0.235-0.438h-1.047
							c-0.264,0-0.35,0.097-0.411,0.392c-0.378,1.741-0.884,2.836-1.925,3.339c-0.285,0.141-0.472,0.048-0.472-0.223v-6.986
							c0-0.132-0.139-0.24-0.31-0.24h-1.356c-0.17,0-0.312,0.108-0.312,0.24v8.14C128.672,24.081,129.061,24.371,130.126,24.371z"/>
					</g>
					<path class="st78" d="M143.122,18.684h-6.665c-0.222,0-0.31,0.11-0.31,0.226v1.195c0,0.116,0.088,0.226,0.31,0.226h6.665
						c0.222,0,0.311-0.11,0.311-0.226V18.91C143.434,18.794,143.344,18.684,143.122,18.684z"/>
					<path class="st78" d="M121.639,14.936h-5.985c-0.505,0-0.679,0.16-0.786,0.598c-0.365,1.473-1.043,2.429-1.893,2.957
						c-0.34,0.214-0.406,0.299-0.406,0.515v0.846c0,0.226,0.104,0.27,0.429,0.214c1.607-0.278,2.858-1.188,3.719-3.373
						c0.092-0.235,0.236-0.283,0.555-0.283h2.849c0.179,0,0.409,0.118,0.392,0.378c-0.243,4.196-2.103,5.667-5.662,6.266
						c-0.334,0.056-0.405,0.124-0.405,0.326v0.881c0,0.254,0.09,0.303,0.43,0.282c4.961-0.312,7.793-2.457,7.793-8.688
						C122.67,15.235,122.406,14.936,121.639,14.936z"/>
				</g>
				<g>
					<g>
						<path class="st78" d="M186.548,15.333h-8.206c-0.223,0-0.308,0.11-0.308,0.226v1.022c0,0.123,0.095,0.226,0.308,0.226h6.726
							c0.181,0,0.401,0.141,0.391,0.401c-0.116,4.103-2.297,5.144-6.055,5.677c-0.334,0.046-0.407,0.125-0.407,0.32v0.914
							c0,0.24,0.09,0.266,0.43,0.245c5.271-0.334,8.013-2.19,8.146-7.223v-0.781C187.575,15.652,187.317,15.333,186.548,15.333z"/>
					</g>
					<g>
						<path class="st78" d="M222.123,14.899h-1.356c-0.171,0-0.31,0.108-0.31,0.24v3.224c0,2.668-0.553,3.64-1.338,4.46
							c-0.268,0.282-0.313,0.351-0.313,0.633v0.74c0,0.226,0.162,0.278,0.43,0.195c2.145-0.681,3.197-2.483,3.197-5.948v-3.303
							C222.433,15.007,222.293,14.899,222.123,14.899z"/>
						<path class="st78" d="M225.271,24.371c2.69,0,4.134-2.245,4.609-5.316c0.055-0.355-0.026-0.438-0.235-0.438h-1.045
							c-0.264,0-0.349,0.097-0.413,0.392c-0.376,1.741-0.883,2.836-1.922,3.341c-0.287,0.139-0.472,0.046-0.472-0.226v-6.986
							c0-0.132-0.14-0.24-0.311-0.24h-1.356c-0.171,0-0.31,0.108-0.31,0.24v8.14C223.817,24.081,224.204,24.371,225.271,24.371z"/>
					</g>
					<g>
						<path class="st78" d="M165.121,14.905h-7.735c-0.222,0-0.309,0.108-0.309,0.223v1.024c0,0.116,0.087,0.226,0.309,0.226h7.735
							c0.223,0,0.311-0.11,0.311-0.226v-1.024C165.432,15.013,165.344,14.905,165.121,14.905z"/>
						<g>
							<path class="st78" d="M165.975,18.758c0-0.667-0.196-1.066-0.983-1.066h-8.308c-0.225,0-0.312,0.11-0.312,0.226v1.024
								c0,0.118,0.092,0.224,0.312,0.224h6.848c0.232,0,0.338,0.142,0.331,0.401c-0.064,2.204-2.276,3.289-5.49,3.508
								c-0.316,0.021-0.404,0.1-0.404,0.31v0.937c0,0.208,0.088,0.256,0.428,0.243C164.345,24.289,165.975,22.28,165.975,18.758z"/>
						</g>
					</g>
					<path class="st78" d="M176.841,14.699H175.1c-0.284,0-0.43,0.106-0.565,0.324c-1.449,2.354-3.594,3.49-7.054,4.009
						c-0.31,0.046-0.404,0.112-0.404,0.308v0.958c0,0.237,0.09,0.274,0.43,0.253c1.499-0.095,2.876-0.339,4.107-0.752v4.529
						c0,0.131,0.14,0.237,0.31,0.237h1.612c0.17,0,0.312-0.106,0.312-0.237v-5.57c1.394-0.874,2.48-2.078,3.187-3.654
						C177.155,14.838,177.049,14.699,176.841,14.699z"/>
					<path class="st78" d="M218.693,14.699h-1.744c-0.282,0-0.428,0.106-0.562,0.324c-1.451,2.354-3.595,3.49-7.053,4.009
						c-0.311,0.046-0.405,0.112-0.405,0.308v0.958c0,0.237,0.087,0.274,0.429,0.253c1.499-0.095,2.878-0.339,4.107-0.752v4.529
						c0,0.131,0.141,0.237,0.311,0.237h1.611c0.172,0,0.311-0.106,0.311-0.237v-5.57c1.396-0.874,2.482-2.078,3.189-3.654
						C219.005,14.838,218.9,14.699,218.693,14.699z"/>
					<path class="st78" d="M207.19,14.936h-5.994c-0.504,0-0.677,0.16-0.784,0.598c-0.366,1.473-1.044,2.429-1.894,2.957
						c-0.341,0.214-0.405,0.299-0.405,0.515v0.846c0,0.226,0.104,0.27,0.43,0.214c1.606-0.278,2.855-1.188,3.719-3.373
						c0.093-0.235,0.236-0.283,0.557-0.283h2.852c0.18,0,0.408,0.118,0.392,0.378c-0.062,1.033-0.215,1.901-0.46,2.624l-3.636-0.76
						c-0.216-0.046-0.312,0.021-0.312,0.177v1c0,0.204,0.072,0.284,0.312,0.334l2.957,0.619c-0.932,1.319-2.428,1.93-4.529,2.271
						c-0.333,0.056-0.406,0.125-0.406,0.326v0.881c0,0.254,0.091,0.303,0.43,0.282c4.966-0.312,7.799-2.457,7.799-8.688
						C208.219,15.235,207.955,14.936,207.19,14.936z"/>
					<path class="st78" d="M197.577,22.172l-2.548-2.009c0.759-1.151,1.286-2.509,1.533-4.071c0.091-0.559-0.163-1.025-0.846-1.025
						h-6.539c-0.223,0-0.312,0.11-0.312,0.226v1.024c0,0.106,0.078,0.226,0.312,0.226h4.825c0.18,0,0.328,0.121,0.265,0.372
						c-0.725,2.923-2.681,4.763-5.58,5.962c-0.327,0.137-0.405,0.235-0.405,0.451v0.968c0,0.239,0.077,0.278,0.43,0.181
						c2.089-0.573,3.88-1.558,5.237-2.962l3.551,2.958c0.162,0.141,0.388,0.046,0.388-0.158v-1.533
						C197.89,22.519,197.835,22.39,197.577,22.172z"/>
				</g>
			</g>
		</g>
	</g>
</g>
</svg>
