<svg xmlns="http://www.w3.org/2000/svg" width="44" height="30" viewBox="0 0 44 30">
<style>path{fill-rule:evenodd;clip-rule:evenodd;fill:url(#mg)}</style>
<linearGradient id="mg"><stop offset="0" stop-color="#6e41e1"/><stop offset="1" stop-color="#dd53ff"/></linearGradient>
<path d="M4.582 11.774c1.724-6.532 5.387-9.919 10.84-9.919s7.328 3.387 5.604 9.919l-1.703 6.452c-1.724 6.532-5.387 9.919-10.84 9.919s-7.328-3.387-5.604-9.919l1.703-6.452zm18.732-.403c2.341-8.871-2.704-11.371-7.402-11.371s-11.063 2.5-13.404 11.371l-1.916 7.258c-2.341 8.871 2.704 11.371 7.402 11.371s11.063-2.5 13.404-11.371l1.916-7.258zm17.935-8.871c.587 0 1.153.081 1.698.242l.553-2.097h-13.087l-4.653 12.702h.126c2.092-1.411 4.362-2.54 6.879-2.54 5.034 0 8.145 3.629 6.857 8.508-1.192 4.516-6.022 8.831-10.846 8.831-3.649 0-5.878-1.411-7.23-4.234l-2.47 1.573.847.605c1.662 1.168 2.197 3.91 8.363 3.91 6.25 0 12.048-5.121 13.57-10.887 1.532-5.806-2.226-10.161-8.183-10.161-1.51 0-3 .242-4.502.847l2.64-7.299h9.438z"/></svg>