<svg xmlns="http://www.w3.org/2000/svg" width="38" height="30" viewBox="0 0 38 30">
<style>path{fill-rule:evenodd;clip-rule:evenodd;fill:url(#pn)}</style>
<linearGradient id="pn"><stop offset="0" stop-color="#004eff"/><stop offset="1" stop-color="#00a2ff"/></linearGradient>
<path d="M4.582 11.774c1.725-6.532 5.386-9.919 10.838-9.919s7.325 3.387 5.601 9.919l-1.703 6.452c-1.724 6.532-5.386 9.919-10.837 9.919s-7.325-3.387-5.601-9.919l1.702-6.452zm18.725-.403c2.342-8.871-2.701-11.371-7.398-11.371-4.696 0-11.059 2.5-13.401 11.371l-1.916 7.258c-2.341 8.871 2.702 11.371 7.398 11.371 4.697 0 11.059-2.5 13.401-11.371l1.916-7.258zm3.264.484l7.279-6.29-5.886 22.298c-.128.484-.444 1.048-.729 1.492h2.851c-.051-.444-.069-1.008.058-1.492l7.356-27.863-9.299 7.903c-.926.806-1.925 1.573-2.934 2.218l1.304 1.734z"/></svg>