<svg xmlns="http://www.w3.org/2000/svg" width="47" height="30" viewBox="0 0 47 30">
<style>path{fill-rule:evenodd;clip-rule:evenodd;fill:url(#nm)}</style>
<linearGradient id="nm"><stop offset="0" stop-color="#00d596"/><stop offset="1" stop-color="#12e62b"/></linearGradient>
<path d="M5.378 11.774c2.183-6.532 6.083-9.919 11.534-9.919 5.451 0 7.086 3.387 4.903 9.919l-2.157 6.452c-2.183 6.532-6.083 9.919-11.534 9.919-5.451 0-7.086-3.387-4.903-9.919l2.157-6.452zm18.751-.403c2.965-8.871-1.901-11.371-6.597-11.371-4.697 0-11.235 2.5-14.2 11.371l-2.426 7.258c-2.965 8.871 1.902 11.371 6.598 11.371s11.234-2.5 14.199-11.371l2.426-7.258zm22.871-11.371h-.084l-24.073 19.96c-.359.323-.791.484-1.348.645l.707 2.903h14.759l-1.456 4.355c-.162.484-.518 1.048-.834 1.492h2.851c-.019-.444.002-1.008.163-1.492l1.456-4.355h4.78l.701-2.097c-.641.161-1.255.242-1.842.242h-3.019l7.239-21.653zm-4.138 5.605h.084l-5.364 16.048h-13.795l19.075-16.048z"/></svg>