<svg xmlns="http://www.w3.org/2000/svg" width="45" height="30" viewBox="0 0 45 30">
<style>path{fill-rule:evenodd;clip-rule:evenodd;fill:url(#mr)}</style>
<linearGradient id="mr"><stop offset="0" stop-color="#f44"/><stop offset="1" stop-color="#ff6c00"/></linearGradient>
<path d="M4.582 11.774c1.724-6.532 5.385-9.919 10.837-9.919s7.326 3.387 5.602 9.919l-1.703 6.452c-1.724 6.532-5.385 9.919-10.837 9.919s-7.326-3.387-5.602-9.919l1.703-6.452zm18.726-.403c2.341-8.871-2.703-11.371-7.4-11.371s-11.06 2.5-13.401 11.371l-1.915 7.258c-2.341 8.871 2.703 11.371 7.399 11.371s11.06-2.5 13.401-11.371l1.916-7.258zm-1.117 7.419c.04.484.069 1.169-.101 1.815-1.065 4.032 1.336 9.395 7.585 9.395 5.787 0 12.135-3.871 13.741-9.96.819-3.105.203-6.331-2.444-7.742 1.943-1.008 2.968-2.984 3.404-4.637 1.107-4.193-1.375-7.661-5.946-7.661-5.452 0-9.642 4.597-10.291 7.056-.085.323-.254.645-.434 1.008h2.348c1.009-3.347 4.071-6.21 7.719-6.21 3.187 0 5.231 2.742 4.412 5.847-.66 2.5-2.795 4.234-5.261 4.839 2.431.323 5.588 2.661 4.375 7.258-1.288 4.879-6.229 8.347-11.135 8.347-4.739 0-6.926-3.629-5.415-9.355h-2.557z"/></svg>