<svg xmlns="http://www.w3.org/2000/svg" width="45" height="30" viewBox="0 0 45 30">
<style>path{fill-rule:evenodd;clip-rule:evenodd;fill:url(#ei)}</style>
<linearGradient id="ei"><stop offset="0" stop-color="#ff9c00"/><stop offset="1" stop-color="#ffd200"/></linearGradient>
<path d="M4.582 11.774c1.725-6.532 5.386-9.919 10.838-9.919s7.325 3.387 5.601 9.919l-1.703 6.452c-1.724 6.532-5.386 9.919-10.837 9.919s-7.325-3.387-5.601-9.919l1.702-6.452zm18.725-.403c2.342-8.871-2.701-11.371-7.398-11.371-4.696 0-11.059 2.5-13.401 11.371l-1.916 7.258c-2.341 8.871 2.702 11.371 7.398 11.371 4.697 0 11.059-2.5 13.401-11.371l1.916-7.258zm15.926 17.984l.553-2.097c-.63.161-1.238.242-1.825.242h-12.79l.021-.081 10.462-7.863c3.817-2.863 7.569-5.323 8.751-9.798 1.352-5.121-.988-9.758-7.236-9.758-6.29 0-10.955 5.121-11.998 9.073-.117.444-.391.847-.592 1.29h2.516c.075-.444.14-.847.257-1.29 1.043-3.952 5.47-7.218 9.076-7.218 4.235 0 6.957 3.508 5.872 7.621-1.224 4.637-7.561 8.468-11.378 11.331l-11.335 8.468-.021.081h19.667z"/></svg>