<svg xmlns="http://www.w3.org/2000/svg" width="245" height="65" viewBox="0 0 245 65">
<style>path{fill-rule:evenodd;clip-rule:evenodd;fill:url(#ei)}</style>
<linearGradient id="ei"><stop offset="0" stop-color="#ff9c00"/><stop offset="1" stop-color="#ffd200"/></linearGradient>
<path d="M17.237 2.03c-2.576 0-4.85.579-6.865 1.771-1.856 1.095-2.95 2.221-4.501 4.604l4.362.773c.8-1.32 1.293-1.867 2.129-2.479.974-.645 2.244-.999 3.822-.999 2.737 0 3.856 1.256 3.16 3.477-.777 2.479-3.14 3.96-6.36 3.96-1.384 0-2.083-.032-3.073-.161l-1.251 3.992c1.135-.129 2.079-.161 3.495-.161s2.829.322 3.46.773c.947.676 1.208 1.9.744 3.38-.797 2.543-3.34 4.185-6.527 4.185-1.545 0-2.702-.419-3.502-1.256-.603-.644-.742-1.127-.686-2.64l-4.896.934c.005 1.835.161 2.672.683 3.574 1.179 2.093 3.452 3.059 7.219 3.059 3.445 0 6.432-.901 8.737-2.608 1.564-1.191 2.86-2.962 3.404-4.701.595-1.9.536-3.252-.153-4.443-.733-1.256-1.753-1.803-3.928-2.157 1.848-.451 2.637-.708 3.516-1.256 1.707-1.03 3.099-2.801 3.704-4.733 1.313-4.184-1.316-6.888-6.693-6.888zM52.832 14.521c1.384 0 2.244.032 3.179.129l1.069-3.413c-1.006.129-1.886.161-3.367.161h-5.183l1.311-4.185h6.568c1.449 0 2.276.032 3.233.161l1.099-3.509c-1.006.129-1.821.161-3.334.161h-15.066c.973-1.256 1.507-1.932 1.569-2.028.377-.483.471-.58.786-.966l-3.589-.773c-.298.644-.735 1.32-1.509 2.35-2.308 3.155-4.648 5.28-8.81 8.081.762 1.062.985 1.481 1.485 2.865 2.645-1.867 4.808-3.735 7.299-6.342h6.728l-1.311 4.185h-7.019c-.869 0-1.567-.032-2.223-.097-.147.676-.267 1.159-.488 1.867l-2.058 6.568h-1.642c-1.449 0-2.459-.064-3.449-.193l-1.15 3.67c1.103-.129 2.153-.193 3.57-.193h10.818l-1.241 3.96c-.535 1.706-.871 2.576-1.293 3.509h3.928c.132-.934.372-1.803.886-3.445l1.261-4.024h7.469c1.384 0 2.491.064 3.449.193l1.15-3.67c-1.038.129-2.089.193-3.57.193h-7.469l1.634-5.216h5.28zm-10.455 5.216h-5.795l1.634-5.216h5.795l-1.634 5.216zM79.745 12.493c.825-.064 1.865-.097 2.992-.097h6.342l-4.216 13.458c-.202.644-.562.869-1.464.869-.579 0-1.708-.097-2.396-.161.198-.837.398-1.578.781-2.801l2.048-6.536c.393-1.256.678-2.06 1.004-2.898-.964.097-1.682.129-3.034.129h-7.18c-1.32 0-2.05-.032-2.954-.129-.208.869-.458 1.771-.811 2.898l-2.461 7.856c-.363 1.159-.863 2.447-1.234 3.22h3.413l.565-1.803h6.825c.258 0 .869 0 1.793.032.079 1.288.059 1.867-.202 3.316 1.612.097 1.74.097 2.191.097 1.996 0 2.992-.097 3.759-.386 1.31-.483 1.959-1.32 2.564-3.252l6.607-21.088c.504-1.61.789-2.415 1.248-3.574-.932.097-1.747.129-3.356.129h-6.181c-1.642 0-2.405-.032-3.244-.129-.248.998-.499 1.9-.841 2.994l-1.543 4.926c-.435 1.385-.658 1.996-1.015 2.93zm-1.191 11.301h-6.568l.656-2.093h6.568l-.656 2.093zm1.473-4.701h-6.568l.605-1.932h6.568l-.605 1.932zm5.543-14.713h6.02l-.504 1.61h-6.02l.504-1.61zm-1.22 3.896h6.02l-.514 1.642h-6.021l.515-1.642zM63.424 30.265c.144-.869.442-2.028 1.048-3.96l4.357-13.908h5.827c1.127 0 2.115.032 2.932.097.158-.708.357-1.449.821-2.93l1.543-4.926c.393-1.256.647-1.964 1.035-2.994-.9.097-1.65.129-3.324.129h-5.699c-1.578 0-2.405-.032-3.276-.129-.226 1.03-.476 1.932-1.001 3.606l-6.587 21.023c-.625 1.996-1.013 3.026-1.444 3.992h3.768zm7.916-25.885h5.538l-.504 1.61h-5.538l.504-1.61zm-1.22 3.896h5.538l-.514 1.642h-5.538l.514-1.642zM120.801 9.917c-.099-.097-.175-.161-.272-.161-.064 0-.171.032-.288.097l-1.455.741c.665 1.062 1.226 2.254 1.517 3.38l2.039-1.062c-.388-1.127-.946-2.222-1.541-2.995zM123.346 8.372c-.097 0-.203.032-.362.129l-1.413.708c.706.934 1.34 2.093 1.663 3.219l2.029-1.03c-.42-1.127-1.053-2.189-1.7-2.898-.034-.096-.121-.128-.217-.128zM99.071 10.014l.235-.032c3.842-.547 7.81-1.191 12.087-1.996-3.802 3.091-5.748 6.117-6.827 9.562-1.574 5.022-.234 8.66 4.256 9.948 2.148.644 4.452.998 7.213 1.127.29 0 .461-.032.594-.354.482-1.127 1.153-2.447 1.848-3.638-2.706-.097-5.03-.386-6.875-.869-2.977-.773-4.246-2.479-2.884-6.825 1.029-3.284 3.321-6.181 6.673-8.145 2.927-1.739 5.852-2.543 9.49-2.543.418 0 .578-.097.628-.258l.006-.225-.153-2.801c-.006-.29-.169-.386-.555-.386-2.185.193-5.001.547-7.899 1.062-5.315.934-10.813 1.835-16.2 2.382-.535.064-1.06.097-1.511.097l-.359 3.509c-.026.288.008.385.233.385zM142.2 19.834c-5.922 3.284-11.269 5.344-18.188 7.083.482 1.03.703 1.867.837 3.187 7.352-2.093 14.522-5.248 21.127-9.272l-1.614 5.151c-.161.515-.556.644-2.198.644-1.127 0-1.632-.032-3.569-.322.091 1.352.048 2.415-.23 3.509 2.771.097 2.771.097 3.479.097 3.606 0 4.955-.708 5.671-2.994l2.804-8.95c1.905-1.352 3.437-2.543 4.977-3.863 1.065-.934 1.403-1.191 2.07-1.674l-1.628-2.511c-.892.998-2.137 2.093-4.047 3.67l2.138-6.825c.484-1.545.839-2.576 1.26-3.509-.9.097-1.714.129-3.485.129h-5.956c.64-.708 1.343-1.513 2.318-2.672l-3.615-.483c-.76 1.191-1.533 2.221-2.437 3.155h-2.576c-1.706 0-2.469-.032-3.437-.129-.226 1.03-.446 1.835-.84 3.091l-3.611 11.524c-3.002.129-3.002.129-3.356.129-.322 0-.634-.032-1.01-.064l-.596 3.445c.61-.097 1.038-.129 2.099-.225 5.572-.42 6.632-.517 13.613-1.321zm-3.694-13.49h12.009l-.565 1.803h-12.009l.565-1.803zm-1.412 4.507h12.009l-.585 1.867h-12.009l.585-1.867zm-1.432 4.572h12.009l-.383 1.223c-5.29.547-5.29.547-12.332 1.03l.706-2.253zM188.391 5.185c-1.811-.386-4.004-.579-6.74-.579-2.125 0-4.868.225-6.846.579-.31.064-.739.097-1.145.161l-.623 3.735c2.568-.386 5.053-.612 7.081-.612 2.35 0 4.618.161 6.899.483.619-1.256 1.141-2.511 1.498-3.445l.03-.097c.041-.129-.003-.193-.154-.225zM171.742 22.667c-.609-.419-.754-1.191-.261-2.865l-3.448 1.449c-.223.097-.318.193-.368.354l-.02.064c-.446 1.835-.238 3.123.629 4.057.844.901 2.657 1.384 6.166 1.384 3.477 0 6.648-.258 9.162-.676.235-.032.352-.097.433-.354l.04-.129c.139-.547.331-1.159.553-1.867.171-.547.343-1.095.557-1.674-3.111.58-6.154.837-8.987.837-2.867-.001-3.76-.13-4.456-.58zM160.119 29.041c.741 0 1.512-.612 2.36-1.674 1.382-1.739 2.8-3.799 4.086-6.053.093-.193.175-.354.216-.483.071-.225.079-.354-.01-.483-.498-.773-.787-1.803-.736-2.994-.943 1.674-2.122 3.38-3.161 4.539.303-1.996.784-3.735 1.399-5.698 1.162-3.606 2.666-7.276 4.212-10.979.236-.547.441-.998.764-1.513l.073-.129c.03-.097-.014-.161-.165-.193-1.151-.129-2.646-.29-3.708-.29l-.571 1.513c-1.637 3.992-3.059 8.017-4.229 11.751-1.442 4.604-2.19 8.532-2.009 11.139.068 1.322.513 1.547 1.479 1.547zM212.735 6.215c-2.028 0-3.934.225-6.393.676-4.192.741-8.338 1.642-12.611 2.64-.759.161-1.517.322-2.171.354-.083 1.191-.113 2.415-.067 3.606.036.193.102.29.328.29h.129c.632-.064 1.316-.193 1.978-.354 3.802-.934 8.105-2.028 11.655-2.672 2.566-.483 4.494-.676 5.782-.676 3.187 0 4.614 2.125 3.606 5.344-.706 2.254-2.545 4.218-6.168 5.505-3.665 1.32-8.252 2.189-12.669 2.415 1.003.805 1.512 2.061 1.65 3.059.058.225.265.386.78.386h.129c3.729-.29 7.758-1.127 11.464-2.576 4.78-1.9 7.632-4.733 8.903-8.789 1.703-5.441-1.045-9.208-6.325-9.208zM244.543 3.253c-.768-.837-1.862-1.867-2.807-2.447-.431.451-1.075.966-1.677 1.449-4.397 3.348-9.201 6.761-13.415 9.626-1.927 1.32-2.682 2.189-3.005 3.219-.393 1.256.022 2.189 1.623 3.348 3.278 2.382 7.091 7.373 8.839 10.528.201.386.348.74.462 1.095 1.379-.805 2.907-1.674 4.501-2.447l-.575-.837c-2.787-4.668-6.169-8.467-9.597-11.397-.284-.225-.394-.386-.323-.612.05-.161.25-.386.62-.644 4.168-3.026 8.591-6.149 13.634-9.401.604-.386 1.144-.773 1.536-.998.117-.064.211-.161.242-.258.021-.063.019-.159-.058-.224zM15.112 41.335c2.286 0 3.195.901 3.295 3.252l4.679-1.062c-.194-1.642-.445-2.382-.999-3.284-1.051-1.578-3.075-2.415-5.844-2.415-3.38 0-6.339 1.223-9.056 3.831-2.328 2.189-4.506 5.956-5.757 9.948-1.513 4.829-1.371 8.693.366 10.753 1.154 1.352 3.294 2.125 5.87 2.125 5.473 0 10.456-3.574 12.06-8.693.595-1.9.723-3.541.354-4.829-.67-2.382-2.995-3.799-6.279-3.799-3.252 0-5.424.869-7.888 3.187.928-2.447 1.766-3.992 3.095-5.666 1.791-2.221 3.818-3.348 6.104-3.348zm-3.15 9.337c3.187 0 4.502 1.867 3.503 5.055-.343 1.095-.933 2.157-1.648 2.898-1.345 1.417-3.249 2.254-5.117 2.254-3.155 0-4.775-2.125-3.847-5.087.917-2.931 3.954-5.12 7.109-5.12zM48.783 41.883c-2.028 0-3.934.225-6.393.676-4.192.741-8.338 1.642-12.611 2.64-.759.161-1.517.322-2.171.354-.083 1.191-.113 2.415-.067 3.606.036.193.102.29.328.29h.129c.632-.064 1.316-.193 1.978-.354 3.802-.934 8.105-2.028 11.655-2.672 2.566-.483 4.494-.676 5.782-.676 3.187 0 4.614 2.125 3.606 5.344-.706 2.254-2.545 4.218-6.168 5.505-3.665 1.32-8.252 2.189-12.669 2.415 1.003.805 1.512 2.061 1.65 3.059.058.225.265.386.78.386h.129c3.729-.29 7.758-1.127 11.464-2.576 4.78-1.9 7.632-4.733 8.903-8.789 1.703-5.442-1.045-9.208-6.325-9.208zM79.34 39.629c-8.886 0-16.736 5.634-19.026 12.942-1.422 4.54-.449 7.598 1.451 9.24.688.58 1.424.901 2.229.901.934 0 1.956-.386 3.1-1.159 4.544-2.994 9.161-8.789 12.651-18.287 5.392.773 6.671 4.604 5.4 8.66-1.109 3.541-3.383 5.763-7 7.34-1.713.74-3.911 1.384-6.05 1.739 1.04.483 1.802 1.545 2.053 2.286.113.258.298.386.619.386.097 0 .193 0 .332-.032 1.68-.225 3.949-1.095 5.521-1.9 4.302-2.221 7.206-5.634 8.487-9.723 1.906-6.083-.882-12.393-9.767-12.393zm-13.08 18.319c-.455.322-.827.483-1.149.483-.354 0-.594-.161-.782-.483-.733-1.256-.812-3.059-.016-5.602 1.291-4.121 5.321-8.145 11.27-9.047-2.339 7.566-5.641 12.041-9.323 14.649zM118.794 40.112c-.1-.193-.229-.193-.519-.193-.6.064-1.125.097-1.704.097l-15.721.032c-.612 0-1.203-.064-1.74-.097l-1.321 4.218c.535-.064 1.115-.064 1.64-.097 2.338-.064 4.419-.129 6.876-.161l7.393-.064c-4.609 6.181-9.886 10.592-15.996 13.651-1.945.966-4.608 1.964-6.809 2.415.851.676 1.58 1.739 2.125 2.672.112.258.243.354.501.354.064 0 .161 0 .3-.032 1.207-.258 3.007-.966 5.503-2.254 2.655-1.384 5.315-3.091 7.88-5.216 2.049 2.093 4.117 5.151 5.461 7.952.056.129.133.193.229.193.064 0 .171-.032.298-.129 1.28-.901 2.551-1.771 3.93-2.576-.221-.322-.41-.644-.621-.998-1.413-2.479-3.638-5.344-5.966-7.469 2.652-2.608 5.369-5.731 7.911-9.015.429-.547.765-.901 1.102-1.256.095-.097.147-.161.167-.225.03-.097.018-.161-.048-.258l-.871-1.544zM139.29 46.744c2.413-.097 4.516-.129 6.393-.161.579 0 1.127 0 1.664.032l.933-3.799c-2.413.097-4.976.161-8.184.225l.735-3.477c.038-.225.099-.419.149-.579.091-.29.194-.515.413-.805.115-.161.177-.258.218-.386.081-.258-.04-.386-.362-.386l-3.801-.097c-.227 1.545-.528 3.123-1.15 5.827-2.586.032-4.592.064-6.491.064h-.644c-.193 0-.419 0-.602-.032l-.798 3.574c-.059.29.04.386.233.386h.097c.471-.064.964-.097 1.553-.129 1.588-.032 3.668-.097 5.878-.161l-1.131 5.151c-2.982.064-5.642.129-8.154.129h-1.61c-.579 0-1.213-.032-1.718-.064l-.933 3.799c-.038.225-.014.354.179.354h.097c3.409-.193 7.011-.386 11.387-.483-.6 2.737-1.084 4.797-1.539 6.761-.178.773-.345 1.513-.587 2.286l4.149-.193c.113-.773.259-1.545.435-2.415.41-2.028.818-4.153 1.359-6.6 3.24-.064 6.361-.161 9.321-.258h.837c.29 0 .579 0 .827.032.251-1.417.576-2.865.878-3.831-3.473.193-7.206.29-11.132.386l1.101-5.15zM165.301 43.17c.141-.451.347-.901.82-1.384.137-.129.209-.258.25-.386.061-.193-.018-.354-.33-.386l-4.097-.386c-.388 1.545-.727 2.833-1.029 3.799-1.674 5.344-2.82 8.178-4.437 10.463-1.597 2.221-3.975 4.057-6.884 5.119 1.344.644 2.11 1.384 2.65 2.125.111.161.273.258.467.258.129 0 .31-.064.491-.129 2.405-.998 5.2-3.445 7.148-6.375 1.416-2.157 2.37-4.379 4.004-9.594.294-.934.616-1.965.947-3.124zM176.741 52.797c-2.913 1.9-5.727 3.381-8.473 4.54l4.721-15.067c.192-.612.399-.966.768-1.32.147-.161.262-.322.302-.451.05-.161-.006-.29-.253-.322l-4.171-.354c-.404 1.803-.858 3.252-1.392 4.958-1.493 4.765-2.776 8.757-4.111 12.814-.202.644-.498 1.384-.783 2.189l-.04.129c-.071.225-.036.322.138.483l1.379 1.352c.121.129.261.193.422.193.129 0 .268-.032.449-.097 4.317-1.449 9.62-4.089 13.682-6.986.127-.097.222-.193.252-.29.03-.097.038-.225.014-.354-.053-1.062.119-2.64.512-3.896-1.161.933-2.283 1.738-3.416 2.479z"/></svg>