<svg xmlns="http://www.w3.org/2000/svg" width="98" height="6" viewBox="0 0 98 6"><path fill="#121212" d="M3.117 3.77l-.075.044-.063-.038-.075-.106c-.319-.351-.72-.695-1.059-.94v.232c0 .57.019 1.566.031 2.28l.019.376-.425-.006-.401.006-.056-.069.012-.294c.025-.821.031-1.66.031-2.487 0-.664 0-1.315-.019-1.979l-.037-.376c.338.006.614.012.864.044l.075.063-.025.069c-.031.056-.05.119-.05.213-.019.475-.019.964-.019 1.741.125-.138.232-.282.338-.451l.051-.032.038.019.118.094c.345.257.752.602 1.084.94l.175.157c-.181.125-.419.375-.532.5zm.213-2.11c-.106-.257-.257-.508-.445-.765l.276-.119.037-.012.069.044c.144.169.307.426.432.689l-.369.163zm.526-.238c-.119-.257-.275-.508-.463-.733l.256-.119.05-.012.063.031c.15.156.326.413.457.677l-.363.156zM9.971 2.255l.025.05-.019.05-.144.301c-.664 1.585-1.56 2.512-2.85 2.931-.207.069-.401.1-.577.113h-.044c-.075 0-.113-.025-.144-.088-.112-.213-.331-.457-.526-.576.338-.031.702-.094.996-.194.996-.339 1.804-1.072 2.268-2.161l-1.466.006c-.714 0-1.372.012-1.992.025l-.075-.062-.006-.514v-.2l.282.019.902.005h.896c.727 0 1.397-.013 2.086-.044l.132.044.256.295zm-2.387-1.754c.47 0 1.196 0 1.66-.006l.288-.012-.006.412v.313l-.063.062c-.532-.019-1.315-.025-1.91-.025-.539 0-1.083 0-1.56.019l-.094-.056-.006-.72.345.013h1.346zM16.029 1.735l.031.063-.05.075-.288.282c-.626.683-1.365 1.409-2.111 2.042.225.288.413.539.576.789-.257.106-.482.225-.702.338l-.062.019-.082-.063c-.307-.532-.795-1.184-1.309-1.697-.075-.075-.15-.144-.25-.207l.651-.438.044-.012.05.031.138.163.482.495c.564-.495 1.159-1.04 1.679-1.616l-3.282.056c-.213.006-.401.012-.564.031l-.006-.733c0-.063.013-.088.063-.088h.025l.501.012 3.558-.019.426-.019h.031l.1.05.351.446zM21.479.983l.019.038-.044.05-.213.056c-.357.1-.777.2-1.221.288 0 .326 0 .589-.013.983.796 0 1.441-.025 2.08-.063l-.006.363.006.388-.539-.006-1.566.012c-.063.983-.388 1.641-.865 2.055-.25.225-.539.376-.808.463l-.081.019-.119-.075c-.156-.182-.344-.326-.564-.438.357-.094.714-.282.971-.495.414-.343.652-.819.734-1.521l-2.198.05c-.056 0-.075-.012-.075-.075l.019-.683.276.012.933.006 1.084-.006.011-.851c-.67.106-1.121.169-1.516.2h-.019c-.069 0-.119-.031-.138-.088-.063-.182-.188-.432-.301-.576 1.121-.062 2.336-.275 3.188-.539l.37-.138.595.571zM23.698 3.507l-.025-.169c-.069-.357-.176-.789-.282-1.134l.639-.1h.019l.031.038.038.15c.088.288.176.664.257 1.096-.251.032-.477.076-.677.119zm3.345-1.146l-.075.156c-.106.689-.32 1.353-.62 1.854-.263.445-.683.833-1.09 1.077-.276.17-.495.264-.658.302l-.044.006-.106-.069c-.106-.144-.263-.294-.476-.438.282-.062.608-.2.865-.351.395-.232.708-.532.933-.877.269-.414.489-1.077.583-1.754l.019-.269.633.188.081.082-.045.093zm-1.76-.363h.013l.038.044.031.15c.088.288.169.664.238 1.077-.263.019-.457.062-.67.106-.063-.42-.144-.789-.244-1.134l-.056-.15.65-.093zM33.057 1.509l.031.069-.013.056-.238.47c-.445.971-.965 1.735-1.529 2.324-.52.532-1.184.983-1.848 1.209l-.08.019-.094-.056c-.213-.219-.42-.401-.676-.545.225-.056.438-.132.645-.219.507-.213 1.015-.545 1.416-.933.545-.526 1.034-1.215 1.378-1.979l-1.51.044c-.407.601-.877 1.103-1.334 1.453l-.075.031-.088-.05c-.144-.15-.401-.307-.589-.382.865-.664 1.497-1.447 1.904-2.274.081-.163.125-.288.156-.426.226.056.52.132.764.219l.088.081-.062.075c-.063.038-.094.082-.144.169l-.219.413 1.265-.05.464-.031.044-.006.094.05.25.269zM35.996 1.002c.294-.075.564-.163.833-.244v.106c0 .169.013.363.031.545v.012l-.063.082-.977.294c-.257.996-.501 1.986-.752 2.938l-.063.307c-.263-.056-.545-.132-.827-.207l.113-.307c.275-.846.545-1.76.745-2.574-.251.075-.464.132-.67.175l-.025.006-.063-.056c-.069-.188-.119-.445-.169-.639l.207-.031c.276-.056.583-.132.896-.219.069-.344.106-.683.119-1.002.282.012.495.025.752.056l.057.056-.006.031-.138.671zm2.831 1.303l-.075.044-.044-.006c-.169-.05-.344-.075-.526-.075-.338 0-.539.2-.539.401 0 .119.031.244.056.332.081.307.182.67.269 1.027.551.119 1.14.363 1.597.626l.05.056-.019.044c-.119.213-.225.432-.313.664-.382-.276-.802-.501-1.197-.626v.082c0 .608-.344.908-1.096.908-.789 0-1.29-.363-1.29-.946 0-.495.401-.915 1.228-.915l.301.012c-.075-.288-.169-.614-.225-.795s-.081-.338-.081-.489c0-.395.244-.695.745-.839-.257-.106-.514-.188-.727-.238l.338-.532.075-.044.044.006c.614.157 1.234.426 1.698.771l.031.05-.012.044-.288.438zm-1.992 2.267c-.376 0-.495.094-.495.232 0 .188.232.288.539.288.188 0 .313-.038.395-.125.05-.056.081-.132.081-.238l-.006-.113c-.113-.025-.269-.044-.514-.044zM45.637 2.298l-.138.332c-.276.677-.526 1.134-.846 1.566.119.219.244.395.376.539.106.113.244.226.282.226l.081-.119c.044-.144.044-.144.119-.733.213.213.294.276.564.42-.144.845-.363 1.215-.708 1.215-.32 0-.814-.42-1.178-1.009-.47.464-.958.821-1.516 1.096-.194-.288-.263-.363-.476-.545.658-.269 1.209-.645 1.685-1.153-.263-.645-.401-1.397-.47-2.499h-1.942l-.013.827h1.153c.219 0 .313-.006.445-.025l-.038.532c-.063 1.127-.1 1.459-.207 1.723-.1.25-.326.344-.808.344l-.476-.019c-.031-.269-.069-.42-.163-.664.332.044.426.05.608.05.194 0 .25-.038.282-.194.05-.219.081-.626.094-1.134h-.914c-.044.714-.1 1.146-.194 1.572-.113.501-.238.783-.514 1.221-.194-.25-.319-.37-.545-.532.219-.338.351-.633.432-.99.125-.526.188-1.359.188-2.474 0-.482-.006-.639-.038-.89.226.019.482.031.808.031h1.816l-.019-.489c-.006-.232-.006-.257-.031-.395h.745c-.019.132-.031.388-.031.595v.288h.827c-.176-.232-.294-.363-.551-.576l.482-.307c.288.244.395.351.633.658l-.326.226h.188c.332 0 .501-.006.664-.038v.689c-.207-.019-.445-.031-.764-.031h-1.127c.056.821.144 1.397.288 1.873.315-.505.528-1.025.603-1.463l.67.256zM51.902 3.821l-.357.313c-.163.144-.363.288-.601.432.526.276 1.046.451 1.641.557-.15.244-.225.407-.332.72-.939-.238-1.641-.576-2.255-1.09-.451-.382-.701-.701-.958-1.24h-.545v1.422c.545-.119.821-.194 1.259-.338l.006.626c-.677.225-1.34.388-2.449.601l-.282.062-.132-.701c.2-.006.476-.038.89-.113v-1.56h-.338c-.263 0-.432.006-.639.038v-.675c.132.025.363.038.651.038h.326v-1.98c0-.338-.006-.445-.025-.62.188.025.376.031.683.031h2.806c.364 0 .539-.006.727-.038v.664c-.2-.025-.345-.031-.72-.031h-2.75v.313h2.656c.251 0 .445-.013.576-.031v.57c-.125-.019-.42-.031-.576-.031h-2.656v.307h2.656c.251 0 .457-.012.576-.031v.576c-.176-.025-.32-.031-.576-.031h-2.656v.332h3.339c.282 0 .451-.012.62-.038v.677c-.157-.025-.344-.038-.564-.038h-.589l.588.307zm-2.155-.307c.182.326.338.495.658.727.313-.213.664-.514.839-.727h-1.497zM58.467 2.775l.019.05-.019.038-.169.082c-.539.188-1.065.388-1.472.576.057.363.106.733.132 1.109h-.163l-.495.019h-.019l-.044-.056c-.012-.25-.043-.564-.081-.808-.721.344-.958.658-.958.939 0 .207.138.32.401.344.194.019.476.031.795.031.489 0 .99-.031 1.51-.094l-.032.676c0 .069-.012.088-.069.094-.444.025-.896.05-1.409.05-.332 0-.595-.013-.877-.044-.639-.069-1.071-.382-1.071-.971 0-.351.125-.664.458-.977.27-.244.689-.514 1.108-.708-.056-.332-.138-.457-.382-.457-.332 0-.645.144-.933.413-.307.294-.514.545-.702.808l-.082.056-.069-.031-.451-.363-.025-.05.019-.05c.489-.539.978-1.159 1.397-1.879-.37.044-.614.069-.883.082h-.031l-.062-.05c-.082-.207-.119-.432-.175-.626.47-.013.902-.044 1.459-.1.106-.257.194-.539.257-.795.238.031.488.075.676.113l.057.044-.019.056c-.075.144-.15.32-.232.52.458-.044.814-.107 1.19-.182-.013.144-.038.319-.038.495v.1c0 .062-.025.088-.082.094-.438.075-.852.156-1.384.207l-.338.608c.176-.075.363-.106.545-.106.489 0 .79.263.94.833.338-.144.676-.294 1.033-.463l.294-.176.476.549zM59.402 1.578h.276c.338-.013.727-.05 1.159-.094l-.012-.977-.013-.275c.244 0 .47.006.739.031l.087.069-.025.075c-.044.062-.062.119-.062.188l-.006.814c.338-.038.645-.082.952-.138l-.006.338.006.363c-.307.063-.614.106-.958.15l.006.852c.501-.207.996-.313 1.491-.313 1.178 0 1.829.664 1.829 1.51 0 .915-.683 1.466-1.604 1.466-.702 0-1.184-.457-1.184-1.378 0-.132.038-.226.138-.276.219-.113.395-.232.557-.432-.019.113-.031.244-.031.395 0 .664.257.902.608.902.395 0 .739-.282.739-.683 0-.476-.445-.814-1.115-.814-.507 0-1.015.169-1.403.414 0 .501.057 1.159.138 1.698l.006.05-.043.081-.438.263-.088.025-.088-.031c-.47-.357-.958-.701-1.359-.921l-.119.075-.05.012-.075-.038c-.094-.169-.213-.432-.263-.595.1-.044.219-.1.338-.182.357-.251.808-.564 1.334-.908-.013-.313-.019-.645-.025-1.077-.407.05-.814.088-1.152.1h-.019c-.063 0-.088-.025-.101-.075l-.164-.664zm1.49 2.506c-.226.144-.432.294-.633.457l.683.338c-.025-.263-.037-.526-.05-.795zm3.495-1.66l-.157-.138c-.395-.326-.946-.664-1.384-.858.132-.194.276-.363.432-.526l.05-.025.056.012c.489.188 1.078.532 1.497.896l.025.038-.019.038-.5.563zM66.562 3.714c-.044.783-.131 1.309-.307 1.854l-.557-.257c.175-.539.257-.971.294-1.685l.57.088zm-.833-.946l.269.019.25-.006.364-.457c-.338-.432-.401-.501-.858-.927l.357-.52.188.219c.238-.363.458-.789.52-1.015l.595.244-.132.226c-.144.288-.426.745-.583.958l.263.313c.407-.589.589-.889.676-1.096l.577.332-.207.288c-.351.52-.789 1.103-1.059 1.409.37-.019.395-.019.714-.056-.057-.156-.082-.219-.182-.426l.47-.188c.163.319.332.739.495 1.221l-.526.219-.069-.294-.444.044v1.973c0 .313.012.482.038.67h-.689c.025-.188.038-.357.038-.67v-1.916l-.589.044-.407.038-.069-.646zm2.424.821c.132.551.232 1.071.301 1.597l-.57.138c-.044-.482-.132-1.115-.238-1.61l.507-.125zm1.046-1.904c-.226.451-.332.626-.626.99-.125-.194-.27-.338-.501-.508.313-.357.577-.802.739-1.246.119-.313.194-.583.226-.789l.702.125-.082.257-.182.526h1.365c.263 0 .376-.006.514-.025-.025.2-.025.2-.031 1.09-.006.714-.075 1.804-.144 2.318-.1.72-.213 1.065-.419 1.228-.144.113-.395.163-.802.163-.163 0-.357-.006-.583-.025-.031-.276-.075-.432-.175-.702.319.056.601.082.82.082.282 0 .351-.075.426-.464.125-.608.201-1.716.201-3.019h-1.448zm.289 2.618c-.263-.764-.389-1.046-.714-1.591l.545-.301c.37.589.533.927.771 1.572l-.602.32zM72.889 1.309c-.226 0-.445.013-.651.038v-.708c.194.025.351.038.664.038h1.76c0-.257-.012-.363-.043-.564h.789c-.031.194-.044.326-.044.564h1.867c.332 0 .482-.006.67-.038v.708c-.201-.025-.426-.038-.658-.038h-1.879v.451h1.309c.545-.006.545-.006.695-.025-.019.244-.025.351-.025.633v.714l.025.639c-.163-.019-.395-.031-.695-.031h-.933c.2.257.482.514.802.733.413.288.908.507 1.516.689-.15.2-.263.395-.375.664-.533-.213-.927-.413-1.297-.67-.476-.332-.727-.57-1.034-.983l.013.432v.702c0 .313.013.47.044.645h-.789c.038-.207.043-.344.043-.639v-.716l.006-.232.013-.188c-.282.363-.526.607-.946.915-.363.275-.752.495-1.271.714-.088-.225-.194-.401-.37-.626.601-.219 1.077-.476 1.535-.821.25-.188.501-.438.639-.62h-.789c-.338 0-.558.012-.708.031.019-.175.025-.307.025-.639v-.701c0-.313-.006-.438-.025-.645.138.019.37.025.689.025h1.203v-.451h-1.775zm.558 1.046v.752h1.215v-.752h-1.215zm1.917.752h1.328v-.752h-1.328v.752zM82.981 5.067c-.013.132-.05.188-.182.244-.639.269-1.359.401-2.042.401-.651 0-1.034-.263-1.09-1.009-.031-.363-.044-.889-.044-1.422 0-.827.013-1.61.069-2.618l.006-.157-.025-.307c.257 0 .52.025.764.056.056.006.062.025.069.094l-.025.532c-.05.833-.063 1.654-.063 2.386 0 .495.006.983.031 1.29.025.276.107.357.464.357.689 0 1.409-.175 2.236-.583-.099.298-.149.554-.168.736zM84.792 1.115l.282.019.307.006c.263 0 .545-.013.852-.025-.019-.388-.031-.701-.056-.971.226.006.476.025.714.044l.069.056-.012.044-.032.2.025.576c.532-.025 1.065-.075 1.491-.138l-.019.514v.163l-.075.063c-.407.056-.845.106-1.365.144 0 .188.013.438.038.689.601-.038 1.165-.1 1.748-.182v.639l-.062.088c-.57.05-1.034.1-1.623.144l.082.877c.676.169 1.24.395 1.779.67l.038.056-.019.056c-.113.188-.232.42-.32.626-.444-.294-.908-.526-1.403-.689l.006.169c0 .282-.082.451-.219.576-.182.169-.464.238-.865.238-1.09 0-1.597-.388-1.597-1.009 0-.501.426-.865 1.284-.865.219 0 .414.013.614.044l-.056-.701c-.526.044-.996.075-1.403.081h-.075c-.156 0-.25-.019-.319-.038l-.075-.069-.106-.639c.106.019.219.031.363.031h.088c.419-.006.889-.019 1.459-.056l-.05-.701c-.25.012-.495.019-.727.019l-.595-.012c-.056 0-.094-.025-.1-.094l-.066-.643zm1.015 3.413c-.351 0-.514.113-.514.257 0 .156.257.294.702.294.357 0 .52-.063.52-.326l-.006-.138c-.22-.055-.464-.087-.702-.087zM92.641 1.904c-.814 0-1.547.012-2.33.056l-.307.025-.044-.044-.044-.727.332.019c.752-.006 1.523-.006 2.362-.006-.012-.395-.031-.758-.056-1.084.238 0 .482.013.714.031.069.006.094.038.094.081l-.025.075c-.043.069-.05.156-.05.25l.012.658h1.0270000000000001l.658.006.338-.006.006.313-.006.426c-.576-.038-1.165-.063-1.798-.063h-.219l.013.94c.144.232.207.526.207.883 0 1.002-.595 1.785-1.509 2.105l-.075.019-.075-.05c-.088-.125-.294-.338-.595-.426.858-.282 1.359-.695 1.528-1.259-.138.138-.319.219-.545.219-.395 0-.839-.363-.839-1.084 0-.614.345-1.027.833-1.027.175 0 .288.038.401.125l-.008-.455zm-.3.952c-.157 0-.245.182-.245.376 0 .226.101.376.238.376.182 0 .257-.238.257-.382.001-.138-.075-.37-.25-.37zM97.127 5.023c0 .47-.382.858-.852.858s-.858-.388-.858-.858c0-.464.388-.852.858-.852s.852.389.852.852zm-1.39 0c0 .301.245.539.539.539.294 0 .539-.238.539-.539 0-.294-.245-.532-.539-.532-.295 0-.539.238-.539.532z"/></svg>