<svg xmlns="http://www.w3.org/2000/svg" width="270" height="47" viewBox="0 0 270 47">
<style>path{fill-rule:evenodd;clip-rule:evenodd;fill:url(#mg)}</style>
<linearGradient id="mg"><stop offset="0" stop-color="#6e41e1"/><stop offset="1" stop-color="#dd53ff"/></linearGradient>
<path d="M26.552 30.016c.698-2.23.934-2.824 1.471-4.063h-5.946c-.159 1.14-.466 2.279-1.025 4.063h-13.083c-2.973 0-4.577-.099-6.2-.297l-1.769 5.649c1.747-.198 3.661-.297 6.386-.297h13.082l-1.956 6.244c-.745 2.378-1.248 3.667-2.023 5.352h6.194c.233-1.536.538-2.825 1.345-5.401l1.94-6.194h13.875c3.023 0 4.444.05 6.25.297l1.769-5.649c-1.747.198-3.463.297-6.436.297h-13.874zm2.179-24.677h-12.635c-2.428 0-4.181-.099-5.887-.347l-1.754 5.599c1.648-.198 1.648-.198 5.99-.297h32.061c2.478 0 4.28.099 5.655.297l1.754-5.599c-1.812.248-3.577.347-6.005.347h-13.678l.357-1.14c.419-1.338.875-2.478 1.43-3.617h-6.095c-.159 1.14-.417 2.279-.836 3.617l-.357 1.14zm-9.808 5.054c-1.997 3.37-3.624 5.401-6.64 8.226-2.609 2.478-4.741 4.063-8.236 6.045 1.167 1.338 1.711 2.131 2.611 4.163 4.397-3.122 6.786-5.054 9.944-8.176 1.172 2.428 2.007 3.716 4.17 6.145 1.974-2.032 2.882-2.874 4.834-4.361-2.482-1.883-3.838-3.568-5.047-6.194 1.128-1.387 1.708-2.131 3.218-4.261l-4.854-1.587zm18.616.05c-1.275 2.329-2.288 3.667-4.371 6.045-2.198 2.428-3.837 3.865-6.753 5.897 1.281 1.288 1.928 2.23 2.605 3.865 3.155-2.478 4.518-3.667 6.524-5.798 1.8 3.271 4.459 5.699 8.198 7.681 1.463-1.982 2.771-3.469 4.457-5.054-4.208-1.437-7.009-3.568-8.958-6.838.933-1.239 1.352-1.784 3.023-4.113l-4.725-1.685zM78.655 20.552l-.745 2.378h-9.812c-2.23 0-3.651-.05-4.977-.248l-1.397 4.46c1.45-.198 2.952-.248 5.132-.248h9.811l-.776 2.478h-13.13c-2.676 0-4.33-.099-5.853-.297l-1.552 4.955c1.945-.198 3.76-.297 6.089-.297h9.217c-5.004 3.32-10.692 5.5-18.408 7.036.807 1.536 1.283 3.023 1.533 4.757 4.272-1.14 7.698-2.428 11.412-4.162 3.485-1.635 5.769-3.072 8.843-5.451-.785 2.032-.847 2.23-1.204 3.37l-.745 2.378c-.621 1.982-1.232 3.617-1.881 5.054h5.847c.187-1.388.569-2.924 1.221-5.005l.761-2.428c.372-1.189.512-1.635.953-3.518 3.047 4.509 7.7 7.532 15.311 9.811 1.494-2.081 2.43-3.171 4.408-5.054-4.311-.793-6.67-1.487-9.422-2.825-2.452-1.189-4.263-2.527-5.497-3.964h9.96c2.279 0 4.082.099 5.853.297l1.552-4.955c-1.499.198-3.265.297-6.089.297h-13.826l.776-2.478h10.356c2.18 0 3.701.05 5.026.248l1.397-4.46c-1.449.198-2.952.248-5.181.248h-10.356l.745-2.379h12.933c2.329 0 3.552.05 5.026.248l1.475-4.708c-1.484.149-2.738.198-5.166.198h-5.748c1.082-1.239 1.42-1.685 2.982-3.667h4.955c2.428 0 4.33.099 5.819.248l1.552-4.955c-1.549.198-3.116.297-5.693.297h-1.387c1.571-1.536 2.752-2.775 4.562-4.757l-4.514-1.883c-1.652 2.428-3.137 4.162-5.648 6.64h-3.122l1.102-3.518c.497-1.586 1.015-2.924 1.458-3.865h-5.401c-.196.942-.503 2.081-1 3.667l-1.162 3.718h-3.518l1.164-3.717c.528-1.685.919-2.775 1.297-3.667h-5.401c-.162.991-.497 2.379-.963 3.865l-1.102 3.518h-2.825c-.506-2.972-.827-4.162-1.782-6.49l-5.545 1.883c1.182 2.081 1.528 2.874 1.926 4.608h-1.586c-2.527 0-4.082-.099-5.556-.297l-1.552 4.955c1.632-.149 3.546-.248 5.974-.248h5.352c.25.942.438 2.081.685 3.667h-5.996c-2.428 0-3.701-.05-5.042-.198l-1.475 4.708c1.598-.198 2.902-.248 5.182-.248h12.388zm.196-4.262c-.045-1.437-.11-2.18-.338-3.667h11.298c-.915 1.338-1.59 2.23-2.784 3.667h-8.176zM135.504 15.398l-2.856 9.118h-7.681c-2.725 0-4.33-.099-5.853-.297l-1.707 5.451c1.747-.198 3.76-.297 6.089-.297h7.631l-3.291 10.505h-12.735c-2.626 0-4.726-.099-6.779-.347l-1.769 5.649c2.407-.248 4.568-.347 7.145-.347h30.326c2.626 0 4.379.099 6.631.347l1.769-5.649c-2.06.248-4.172.347-6.997.347h-11.893l3.291-10.505h8.573c2.329 0 4.28.099 6.002.297l1.707-5.451c-1.697.198-3.71.297-6.188.297h-8.573l2.856-9.118h10.456c2.379 0 4.379.099 6.448.297l1.707-5.451c-2.094.198-4.256.297-6.783.297h-10.307l1.195-3.816c.823-2.626 1.434-4.261 2.144-5.897h-6.343c-.327 1.833-.709 3.37-1.516 5.946l-1.18 3.766h-8.077c1.187-1.734 2.021-2.973 2.502-3.716.735-1.239.75-1.288 1.008-1.635.626-.892.626-.892.85-1.288l-5.215-1.388c-.648 1.437-1.222 2.478-2.534 4.608-3.408 5.5-8.011 10.703-12.907 14.469 1.278 1.14 2.046 2.329 2.744 4.212 3.719-3.171 6.632-6.144 9.999-10.406h10.111zM166.783 26.696c.855-.198 1.301-.198 3.577-.347 1.567-.099 2.326-.149 3.745-.248l-4.765 15.213c-.776 2.478-1.214 3.716-1.943 5.253h5.649c.218-1.487.541-2.676 1.332-5.203l4.92-15.708c1.831-.149 1.831-.149 3.478-.347 0 .793-.026 1.189-.101 2.378l4.275-1.784c-.042-5.401-.042-5.401-.764-10.059l-3.817 1.586c.25 1.734.277 2.279.357 3.766-1.781.149-1.995.198-5.56.347 2.126-1.883 5.383-5.005 6.921-6.59 3.915-4.113 5.92-6.244 6.05-6.343l-3.736-2.626c-1.33 2.032-4.154 5.352-7.374 8.672-.433-.991-.69-1.437-1.156-2.478 2.557-2.626 3.413-3.617 6.478-7.235 1.758-2.131 1.758-2.131 2.309-2.626l-4.303-2.081c-1.098 2.081-3.255 4.856-6.454 8.424-.427-.694-.82-1.338-1.179-1.933l-3.927 4.311c2.045 3.122 2.697 4.361 4.12 7.73-1.02 1.041-1.522 1.536-3.112 2.973h-.892c-1.635 0-2.412-.049-3.125-.149l-1.003 5.104zm32.493-19.573c-2.24 6.045-5.417 9.068-12.202 11.744 1.352 1.536 1.903 2.626 2.152 4.361 8.002-3.716 12.273-8.176 15.351-16.105h6.937c-1.688 4.757-2.697 7.185-3.8 8.969-.527.892-1.116 1.189-2.503 1.189s-2.827-.149-4.884-.545c.333 1.784.261 3.122-.372 5.302 2.595.099 2.793.099 3.289.099 5.203 0 7.087-.793 8.761-3.766 1.467-2.626 3.105-6.59 5.073-12.24.937-2.676 1.142-3.171 1.489-3.964-1.022.099-2.722.149-4.704.149h-15.609c-1.982 0-3.983-.099-5.457-.297l-1.692 5.401c1.4-.198 3.215-.297 5.346-.297h2.825zm-31.865 21.208c-2.47 6.937-4.12 10.307-6.768 14.172l4.245 1.635c3.03-5.401 4.357-8.374 6.735-15.014l-4.212-.793zm11.811.892c-.337 3.766-1.12 7.532-2.592 12.388l4.637-1.041c1.317-5.153 1.852-8.127 2.248-12.24l-4.293.893zm7.859 14.618h11.992l-.838 2.676h5.451c.252-1.437.668-2.924 1.366-5.153l3.741-11.942c.667-2.131 1.12-3.419 1.673-4.708-1.087.149-2.143.198-4.225.198h-14.618c-1.833 0-2.958-.05-3.952-.198-.286 1.387-.64 2.676-1.261 4.658l-3.71 11.843c-.621 1.982-1.198 3.667-1.846 5.104h5.451l.776-2.478zm4.359-14.073h12.041l-2.887 9.217h-12.041l2.887-9.217zM247.621 1.276c-3.248 3.568-6.496 6.343-10.846 9.316-4.611 3.171-8.632 5.253-14.205 7.383.782 1.933.964 2.775 1.201 5.5 5.044-2.18 10.335-5.153 14.782-8.275 4.561-3.171 6.916-5.153 10.983-9.118 1.453 4.063 2.767 6.194 5.521 9.266 3.175 3.469 6.165 5.946 9.942 8.127 1.364-1.982 2.926-3.964 4.641-5.798-5.854-2.824-9.618-5.996-12.935-10.753-1.259-1.833-1.794-2.973-2.641-5.649h-6.443zm-13.023 16.897c-.171 1.338-.414 2.428-.786 3.617-2.778 8.87-5.228 12.735-10.344 16.253-2.15 1.487-3.687 2.279-7.309 3.716 1.358 1.833 1.927 3.023 2.496 5.005 5.744-2.676 9.75-5.5 13.042-9.365 3.276-3.816 5.295-7.73 7.757-15.114.667-2.131.95-2.874 1.486-4.113h-6.342zm15.757 0c-.264 1.635-.709 3.37-1.361 5.451l-5.184 16.551c-.683 2.18-1.356 4.014-2.178 5.847h6.343c.373-1.982.802-3.667 1.5-5.897l5.153-16.451c.792-2.527 1.26-3.865 2.02-5.5h-6.293z"/></svg>