<svg xmlns="http://www.w3.org/2000/svg" width="87" height="6" viewBox="0 0 87 6"><path fill="#121212" d="M5.619 3.301c-.288-.031-.577-.044-.952-.044h-3.709c-.35 0-.676.019-.958.044v-.827c.269.031.551.044.958.044h3.708c.42 0 .708-.013.952-.044v.827zM7.574 2.155c-.012.958-.069 1.641-.175 2.21-.113.589-.251.984-.533 1.491-.175-.25-.307-.394-.526-.576.207-.382.307-.658.388-1.071.138-.651.182-1.34.182-2.825 0-.464-.006-.626-.025-.852.219.019.438.031.708.031h1.56v-.137l-.031-.357h.745c-.025.106-.032.206-.032.363v.132h1.553c.351 0 .57-.012.758-.038v.651c-.207-.019-.363-.025-.658-.025h-.482v.438h.601c.257 0 .395-.006.557-.031v.62c-.144-.019-.269-.025-.557-.025h-.601v.589l.019.395-.407-.006h-1.741l-.438.006.025-.395v-.588h-.89zm3.94 1.678l-.119.125c-.338.395-.658.683-1.033.939.545.194 1.09.282 1.854.294-.119.232-.194.432-.263.708-1.053-.13-1.679-.299-2.262-.607-.651.313-1.19.47-2.142.614-.05-.238-.1-.37-.244-.645.789-.056 1.271-.156 1.791-.351-.351-.269-.539-.457-.852-.889l-.444.025v-.589c.156.025.338.031.67.031h2.186c.257 0 .37-.006.52-.019l.338.364zm-3.051-2.242v-.439h-.883v.438h.883zm.539 2.43c.188.232.388.388.727.589.332-.194.495-.32.777-.589h-1.504zm1.347-2.43v-.439h-1.228v.438h1.228zm-1.228.996h1.228v-.432h-1.228v.432zM13.469 4.134c.432.301.958.795 1.303 1.228l-.614.564c-.326-.42-.821-.958-1.253-1.278l.564-.514zM19.177 5.255c0 .294.006.451.031.639h-.758c.031-.188.038-.357.038-.651v-1.573c-.244.225-.376.326-.695.532-.075-.238-.188-.463-.32-.651.438-.25.739-.489 1.077-.846.294-.307.476-.564.683-.965h-1.021c-.226 0-.357.006-.526.025v-.694c.156.019.288.025.495.025h.313v-.526c0-.163-.012-.332-.038-.476h.758c-.025.144-.038.282-.038.489v.514h.257l.363-.019.301.326-.138.263c-.207.451-.326.657-.626 1.071.294.332.583.557.996.795-.15.2-.244.376-.344.614-.326-.213-.539-.395-.808-.708v1.816zm2.656-.294h.752c.313 0 .52-.013.714-.038v.758c-.219-.031-.464-.044-.714-.044h-2.142c-.25 0-.489.012-.708.044v-.758c.2.025.42.038.72.038h.683v-2.45h-.47c-.213 0-.413.012-.614.031v-.707c.182.025.344.031.614.031h.47v-1.102c0-.257-.012-.407-.044-.651h.783c-.038.25-.044.382-.044.651v1.102h.664c.282 0 .438-.006.614-.031v.708c-.2-.019-.395-.031-.614-.031h-.664v2.449zM25.36 2.161c-.388.251-.564.344-1.002.539-.106-.25-.207-.426-.363-.639.677-.269 1.096-.501 1.572-.871.413-.32.733-.652.99-1.052h.746c.332.464.583.708 1.058 1.04.532.376 1.04.639 1.61.846-.175.269-.257.445-.344.701-.395-.169-.633-.294-1.071-.57v.489c-.163-.019-.326-.025-.564-.025h-2.092c-.182 0-.37.006-.539.025v-.483zm-.344 1.616c-.319 0-.532.012-.739.038v-.727c.207.025.445.038.739.038h3.902c.307 0 .526-.012.733-.038v.727c-.207-.025-.42-.038-.733-.038h-2.155c-.194.457-.388.827-.651 1.215 1.109-.063 1.109-.063 1.986-.156-.2-.219-.307-.332-.658-.695l.62-.276c.67.677.939.99 1.447 1.672l-.601.395-.376-.545c-.52.069-.896.113-1.127.138-.62.056-1.86.169-2.111.188-.352.024-.665.056-.809.087l-.1-.764.363.019.551-.025c.307-.464.501-.827.67-1.253h-.951zm2.969-1.81l.276-.006c-.576-.395-.933-.72-1.309-1.215-.332.445-.72.808-1.303 1.215l.257.006h2.079zM31.945 5.305c-.1.207-.213.326-.357.326-.188 0-.288-.044-.382-.301-.194-.507-.288-1.271-.288-2.167 0-.727.031-1.51.106-2.286l.019-.294c.207 0 .507.031.739.056l.044.038-.006.025-.056.294c-.075.72-.144 1.435-.15 2.136 0 .382.012.72.075 1.109.132-.225.257-.557.338-.883.063.232.182.432.326.583l.031.094-.013.094c-.113.437-.263.838-.426 1.176zm1.29-1.472c.006.326.081.476.226.557.163.088.344.113.902.113.551 0 1.127-.05 1.698-.163l-.006.326.006.363v.025l-.063.069c-.463.081-1.065.132-1.741.132-.683 0-1.065-.094-1.284-.27-.225-.182-.344-.432-.369-.789v-.013l.05-.069.581-.281zm-.457-2.812l.213-.031c.363-.069.883-.113 1.297-.113.532 0 .971.038 1.347.113l.044.044v.019c-.012.182-.038.426-.082.67-.463-.062-.914-.094-1.372-.094-.395 0-.865.044-1.341.119l-.106-.727zM39.181.764c0-.301-.013-.457-.038-.62h.783c-.025.182-.038.332-.038.62v1.372h1.34v-1.021c0-.207-.006-.344-.025-.495h.752c-.025.188-.031.313-.031.545v1.247l.019.401-.438-.019h-1.616v2.054h1.547v-1.04c0-.213-.006-.376-.031-.532h.758c-.019.163-.031.344-.031.595v1.353c0 .294.012.457.038.626h-.733v-.326h-3.727v.326h-.733c.025-.188.038-.376.038-.626v-1.328c0-.244-.013-.438-.031-.601h.758c-.025.15-.031.288-.031.539v1.015h1.472v-2.056h-1.503l-.451.019.019-.401v-1.24c0-.226-.006-.395-.031-.551h.751c-.019.138-.025.288-.025.501v1.015h1.24v-1.372zM48.183 1.134l.013.044c0 .038-.025.056-.107.056-.708 0-1.228.15-1.691.489-.532.388-.802.946-.802 1.585 0 .846.351 1.178.977 1.334.388.094.858.15 1.391.169-.062.226-.113.482-.138.701-.006.063-.038.069-.094.069-.545-.031-1.015-.094-1.472-.213-.952-.257-1.434-.965-1.434-1.942 0-.67.194-1.259.745-1.854-.783.15-1.516.276-2.23.382l-.044.006-.069-.075-.144-.683h.05l.238-.019c1.015-.106 2.029-.276 3.007-.457.532-.1 1.058-.175 1.472-.207h.025c.057 0 .088.019.106.069l.201.546zM52.762.795l.038.075-.031.069c-.094.113-.175.251-.238.363-.307.545-.589 1.077-.908 1.735.513.069 1.008.176 1.497.32.088-.251.15-.47.213-.708.238.069.432.125.658.207l.056.063-.006.031c-.075.194-.156.407-.226.639.438.15.67.25.952.388l.038.056-.006.025c-.056.194-.15.438-.25.67-.326-.188-.645-.332-1.015-.47-.332.564-.727 1.033-1.271 1.359l-.144.044-.088-.025c-.119-.094-.388-.213-.632-.263.601-.344 1.103-.808 1.422-1.353-.564-.182-1.027-.282-1.547-.351-.313.539-.583.896-.858 1.134-.232.2-.458.288-.714.288-.407 0-.764-.288-.764-.864 0-.839.777-1.271 1.679-1.271h.245l.864-1.698c-.62.05-1.096.088-1.554.1l-.075-.056-.097-.707.288.013c.658-.019 1.391-.075 2.036-.144l.05-.006.113.056.275.281zm-3.125 3.358c0 .106.05.169.131.169.05 0 .138-.025.232-.1.144-.119.276-.282.476-.601-.582.005-.839.237-.839.532zM60.004 1.134l.013.044c0 .038-.025.056-.106.056-.708 0-1.228.15-1.691.489-.532.388-.802.946-.802 1.585 0 .846.351 1.178.978 1.334.388.094.858.15 1.39.169-.062.226-.112.482-.138.701-.006.063-.038.069-.094.069-.545-.031-1.015-.094-1.472-.213-.952-.257-1.434-.965-1.434-1.942 0-.67.194-1.259.745-1.854-.783.15-1.516.276-2.23.382l-.044.006-.069-.075-.144-.683h.05l.238-.019c1.015-.106 2.03-.276 3.007-.457.532-.1 1.059-.175 1.472-.207h.025c.056 0 .087.019.106.069l.2.546zM62.085 5.456c-.056.1-.169.131-.3.131h-.069c-.132-.012-.219-.069-.282-.219-.175-.413-.307-1.159-.307-1.954 0-.902.1-1.929.275-2.838l.057-.326c.219.025.495.069.708.119l.057.05-.006.038-.082.25c-.207.965-.307 2.03-.307 2.744 0 .326.032.645.069.871.119-.194.231-.445.332-.758.063.219.176.388.332.551l.031.082-.012.062c-.114.395-.289.833-.496 1.197zm.79-3.79h.194c.438 0 .915-.019 1.397-.044-.025-.445-.05-.852-.082-1.221h.188c.201 0 .389.006.545.025l.062.05-.012.044-.025.163v.031c.006.269.006.557.031.858.401-.031.776-.075 1.165-.138-.025.144-.031.313-.031.476v.194l-.05.069c-.313.05-.664.075-1.059.125.038.633.062 1.234.119 1.842.426.138.908.369 1.309.626l.025.038-.013.038c-.087.188-.207.401-.326.589-.332-.25-.645-.432-.977-.564v.05c0 .326-.113.482-.275.589-.194.132-.451.2-.771.2-.769 0-1.289-.32-1.289-.99 0-.457.432-.777 1.127-.777.188 0 .326.019.47.044-.05-.601-.075-1.077-.106-1.641-.426.031-.795.044-1.159.044h-.213c-.056 0-.082-.025-.094-.075l-.15-.645zm1.139 2.906c-.269 0-.369.088-.369.194 0 .182.244.288.545.288.257 0 .432-.075.432-.332v-.038c-.182-.074-.414-.112-.608-.112zM71.525 5.061c-.013.132-.05.188-.182.244-.639.269-1.359.401-2.042.401-.651 0-1.034-.263-1.09-1.009-.031-.363-.044-.889-.044-1.422 0-.827.013-1.61.069-2.618l.006-.157-.025-.307c.257 0 .52.025.764.056.056.006.062.025.069.094l-.025.532c-.05.833-.063 1.654-.063 2.386 0 .495.006.983.031 1.29.025.276.107.357.464.357.689 0 1.409-.175 2.236-.583-.099.297-.149.554-.168.736zm-.695-3.301c-.106-.25-.25-.507-.438-.764l.27-.119.038-.012.069.044c.144.169.307.426.432.689l-.371.162zm.526-.238c-.119-.257-.276-.507-.464-.733l.257-.119.05-.012.069.031c.144.157.319.413.451.677l-.363.156zM77.094 5.136c-.301.169-.614.269-.927.307h-.056c-.094 0-.157-.031-.219-.094-.175-.175-.401-.332-.658-.432.476-.025.915-.138 1.24-.294.57-.282.858-.701.858-1.159 0-.501-.357-.94-1.008-1.09-.194.607-.482 1.203-.821 1.597.15.113.282.2.458.294-.169.138-.319.288-.458.426l-.075.038-.05-.012c-.106-.056-.232-.144-.345-.232-.401.376-.745.601-1.059.701-.125.038-.244.063-.351.063-.157 0-.301-.05-.432-.144-.219-.157-.438-.457-.438-1.04 0-.689.357-1.428 1.134-1.91-.106-.395-.201-.808-.276-1.203l-.043-.219c.213-.025.532-.057.732-.063l.044.056.013.188c.038.269.094.595.169.939.357-.119.79-.207 1.259-.213.082-.426.131-.821.156-1.209.27.025.508.056.752.106l.062.056-.025.069-.057.182c-.043.275-.106.576-.188.871 1.09.269 1.578.946 1.578 1.81.002.703-.361 1.267-.969 1.611zm-3.019-2.33c-.407.382-.62.846-.62 1.196 0 .176.038.313.106.382.038.044.087.069.15.069l.125-.025c.232-.082.489-.244.758-.482-.212-.332-.387-.72-.519-1.14zm.626-.295c.088.332.207.608.376.902.219-.301.389-.645.533-1.096-.345.006-.652.082-.909.194zM83.709 1.134l.013.044c0 .038-.025.056-.106.056-.708 0-1.228.15-1.691.489-.532.388-.802.946-.802 1.585 0 .846.351 1.178.978 1.334.388.094.858.15 1.39.169-.062.226-.112.482-.138.701-.006.063-.038.069-.094.069-.545-.031-1.015-.094-1.472-.213-.952-.257-1.434-.965-1.434-1.942 0-.67.194-1.259.745-1.854-.783.15-1.516.276-2.23.382l-.044.006-.069-.075-.144-.683h.05l.238-.019c1.015-.106 2.03-.276 3.007-.457.532-.1 1.059-.175 1.472-.207h.025c.056 0 .087.019.106.069l.2.546zM85.101 4.134c.432.301.958.795 1.303 1.228l-.614.563c-.326-.42-.82-.958-1.252-1.278l.563-.513z"/></svg>