<svg xmlns="http://www.w3.org/2000/svg" width="158" height="65" viewBox="0 0 158 65">
<style>path{fill-rule:evenodd;clip-rule:evenodd;fill:url(#pn)}</style>
<linearGradient id="pn"><stop offset="0" stop-color="#004eff"/><stop offset="1" stop-color="#00a2ff"/></linearGradient>
<path d="M36.212 24.84c-.322 0-.418 0-.634-.032l-.514 3.799c.481-.097.984-.161 1.787-.258 5.931-.74 9.376-1.256 13.759-2.093-.023.998-.068 1.449-.179 2.833l3.979-1.191c.204-5.892-.217-10.818-1.356-15.196l-3.444 1.127c.6 2.608.947 6.02 1.003 9.337-2.159.419-6.204.998-8.925 1.256 2.97-4.443 7.1-11.461 10.204-17.257 2.803-5.248 2.803-5.248 3.148-5.731l-3.931-.708c-.434 1.384-1.566 3.767-3.967 8.242-2.936 5.57-5.832 10.496-9.299 15.808-1.277.064-1.277.064-1.631.064zM33.573 16.308c-.919 2.318-1.418 3.702-1.559 4.153l-1.624 5.183c-.575 1.835-.952 2.833-1.506 4.089h3.896c.172-1.062.402-1.9 1.088-4.089l1.937-6.181c.615-1.964.615-1.964.862-3.059.028-.193.119-.483.208-.869.475 1.771 1.172 3.348 1.978 4.475.812-1.256 1.722-2.415 2.574-3.284-1.518-1.835-2.406-3.316-2.94-4.797h1.706c1.191 0 2.018.032 2.815.161l1.099-3.509c-.823.161-1.542.193-2.894.193h-2.06l1.291-4.121c1.399-.354 2.103-.547 4.108-1.191l1.536-.483-1.165-2.962c-.668.386-1.147.579-2.118.901-3.434 1.095-6.362 1.706-10.892 2.189.293 1.223.354 2.157.223 3.091 2.226-.322 2.974-.451 4.611-.741l-1.039 3.316h-2.543c-1.288 0-2.083-.032-2.934-.193l-1.099 3.509c.942-.129 1.757-.161 2.884-.161h2.125c-.157.193-.262.322-.324.419-1.714 2.286-2.26 2.898-4.183 4.926-1.525 1.578-2.326 2.286-4.217 3.799.46.998.628 1.9.722 3.348 2.732-2.252 5.232-4.989 7.434-8.112zM63.035 29.057c3.661-6.342 7.878-13.329 11.346-19.156 1.723-.258 3.232-.451 4.739-.741.31-.064.489-.225.622-.547.305-.869.682-1.867 1.131-2.994-1.626.258-2.9.418-4.357.547.881-1.578 1.626-2.93 2.74-4.636l.145-.258c.04-.129-.004-.193-.219-.225-1.09-.322-2.384-.612-3.589-.773-.194.515-.429 1.062-.697 1.61-.814 1.674-1.622 3.123-2.463 4.572-.976.032-1.823.064-2.692.064h-.998s-.612 0-.903-.097c-.428 1.159-.885 2.415-1.283 3.477-.081.258-.036.322.189.322h.837c.805 0 1.684-.032 2.692-.064-3.321 5.666-7 11.655-10.818 17.675 1.18.452 2.327.903 3.578 1.224zM71.383 24.711c-.192.612-.415 1.223-.651 1.771-.101.322-.002.419.279.547 2.305.966 5.556 1.481 9.259 1.481h.322c2.865 0 4.922-.193 6.796-.419.18-.676.369-1.384.601-2.125.182-.579.373-1.191.607-1.835-2.163.225-4.586.354-6.936.354-3.574 0-6.913-.644-9.728-1.835-.137.645-.327 1.353-.549 2.061zM90.834 13.185l1.947-3.542.073-.129c.04-.129-.026-.225-.199-.29-2.866-1.127-7.194-1.803-10.8-1.803h-.258c-.258 0-.362.129-.487.322-.675 1.127-1.201 2.189-1.81 3.413 4.585.162 8.335.935 11.534 2.029zM113.714 1.112l.04-.129c.071-.225.026-.29-.114-.354-1.314-.225-2.207-.354-3.583-.483-.119.483-.27.966-.422 1.449-.363 1.159-.801 2.35-1.289 3.702-.718.032-1.394.032-2.071.032-2.415 0-4.477-.097-6.497-.225l-.459 3.316c-.067.419.084.451.396.483 1.203.065 2.481.097 3.962.097.837 0 1.706 0 2.682-.032-1.87 3.606-4.267 6.632-7.026 9.272-.095.097-.189.193-.23.322-.03.097.014.161.058.225l1.743 1.835c.066.097.143.161.271.161.129 0 .246-.064.405-.161 3.693-2.64 7.1-3.96 10.545-3.96 2.608 0 4.047 1.674 3.361 3.863-.585 1.867-2.301 3.542-6.092 4.443-1.912.451-4.375.708-7.498.708-1.417 0-3.061-.097-4.449-.29.639.837.95 1.9 1.026 2.994.04.386.239.676.798.74.881.064 1.912.064 2.877.064 10.238 0 15.66-3.638 17.274-8.789 1.231-3.928-.87-6.986-6.15-6.986-2.221 0-4.328.354-6.623.998 1.18-1.61 2.365-3.541 3.389-5.473 4.238-.064 8.184-.225 12.094-.58.3-.032.352-.097.463-.451.397-1.062.952-2.318 1.5-3.348-4.005.451-7.671.644-12.176.741.636-1.512 1.325-2.993 1.795-4.184zM147.643 3.301c-8.886 0-16.736 5.634-19.026 12.942-1.422 4.54-.449 7.598 1.451 9.24.688.58 1.424.901 2.229.901.934 0 1.956-.386 3.1-1.159 4.544-2.994 9.161-8.789 12.651-18.287 5.392.773 6.671 4.604 5.4 8.66-1.109 3.542-3.383 5.763-7 7.341-1.713.74-3.911 1.384-6.05 1.739 1.04.483 1.802 1.545 2.053 2.286.112.258.297.386.619.386.097 0 .193 0 .332-.032 1.68-.225 3.949-1.095 5.521-1.9 4.302-2.221 7.206-5.634 8.487-9.723 1.907-6.083-.881-12.394-9.767-12.394zm-13.08 18.319c-.455.322-.827.483-1.149.483-.354 0-.594-.161-.782-.483-.733-1.256-.812-3.059-.016-5.602 1.291-4.121 5.321-8.145 11.27-9.047-2.339 7.566-5.64 12.042-9.323 14.649zM30.153 42.671c-.088-.129-.153-.129-.346-.129-.503.064-.9.097-1.415.097l-8.852.097 1.229-4.024c.131-.419.256-.612.604-.901.147-.161.252-.29.302-.451.06-.193-.008-.386-.32-.419-1.183-.129-2.569-.225-3.815-.258-.438 1.706-.979 3.638-1.713 6.085-1.2.032-2.295.032-3.293.032s-1.9 0-2.727-.032c-.708 0-1.159 0-1.805-.097l-1.108 3.638c-.091.29-.024.386.297.386 2.22-.097 4.622-.161 7.389-.258-1.432 4.057-3.362 7.341-6.093 9.787-2.33 2.093-5.43 3.767-8.469 4.733.901.515 1.564 1.481 2.022 2.382.112.258.211.354.436.354.129 0 .3-.032.513-.097 2.516-.837 5.518-2.608 8.236-5.119 3.139-2.93 5.297-6.632 7.195-12.073l7.306-.097c-1.273 3.96-2.626 7.662-4.003 10.721-.359.837-.689 1.481-1.106 2.093-.25.386-.526.547-.986.579-.922.064-1.865.097-2.767.097-.901 0-1.761-.032-2.545-.097.82.773 1.19 2.061 1.156 3.606 0 .515.163.612.742.612 1.417 0 2.765-.193 4.025-.515 1.996-.515 3.319-1.449 4.571-4.314 1.335-3.026 2.994-7.501 4.969-13.393.232-.74.526-1.578.781-2.286.04-.129.038-.225-.028-.322l-.382-.417zM48.399 42.51c.141-.451.347-.901.82-1.384.137-.129.209-.258.25-.386.061-.193-.018-.354-.33-.386l-4.097-.386c-.388 1.545-.727 2.833-1.029 3.799-1.674 5.344-2.82 8.178-4.437 10.463-1.597 2.221-3.975 4.057-6.884 5.119 1.344.644 2.11 1.384 2.65 2.125.111.161.273.258.467.258.129 0 .31-.064.491-.129 2.405-.998 5.2-3.445 7.148-6.375 1.416-2.157 2.37-4.379 4.004-9.594.294-.934.617-1.965.947-3.124zM59.839 52.137c-2.913 1.9-5.727 3.381-8.473 4.54l4.721-15.067c.192-.612.399-.966.768-1.32.147-.161.262-.322.302-.451.05-.161-.006-.29-.253-.322l-4.171-.354c-.404 1.803-.858 3.252-1.392 4.958-1.493 4.765-2.776 8.757-4.111 12.814-.202.644-.498 1.384-.783 2.189l-.04.129c-.071.225-.036.322.138.483l1.379 1.352c.121.129.261.193.422.193.129 0 .268-.032.449-.097 4.317-1.449 9.62-4.089 13.682-6.986.127-.097.221-.193.252-.29.03-.097.038-.225.014-.354-.053-1.062.119-2.64.512-3.896-1.161.933-2.282 1.738-3.416 2.479zM87.637 42.349c2.427-.451 4.745-.966 6.742-1.481l1.185-.29c.139-.032.266-.129.306-.258.02-.064.008-.129-.036-.193l-2.141-2.93c-.65.225-1.385.515-2.121.708-4.802 1.352-11.391 2.447-17.255 2.769.347.74.588 2.028.617 2.962.006.29.213.451.567.451h.097c2.079-.161 4.498-.483 8.114-1.03l-1.436 4.378c-1.974.032-3.841.032-5.58.032-1.738 0-3.348 0-4.787-.032-.58 0-.924-.032-1.396-.064l-1.196 3.509c-.101.322-.025.386.265.386 3.411-.097 7.391-.161 11.381-.258-1.548 3.606-3.538 6.053-6.218 7.823-1.663 1.095-3.801 2.06-5.787 2.543.945.579 1.679 1.32 2.191 2.254.145.258.265.386.491.386.129 0 .268-.032.449-.097 1.526-.451 3.249-1.223 4.9-2.382 3.113-2.125 5.846-5.505 7.751-10.56 2.93 0 5.59-.064 8.069-.064.934 0 1.867 0 2.759.032.18-.676.391-1.352.593-1.996s.393-1.256.617-1.867c-3.344.193-6.701.322-10.79.322.701-2.026 1.124-3.378 1.649-5.053zM120.298 47.662c-.076-.064-.131-.097-.227-.097l-.235.032c-.352.097-.801.193-1.208.258l-8.436 1.545.745-3.509.081-.258c.071-.225.163-.419.32-.612.105-.129.167-.225.208-.354.061-.193-.028-.322-.35-.322l-3.272.064c-.309 1.706-.671 3.477-1.071 5.473l-5.081.805c-.513.097-.952.161-1.435.161l-.453 3.091c-.018.161-.016.258.145.258.064 0 .161 0 .268-.032.139-.032.459-.129.94-.225l4.906-.966c-.695 3.348-1.373 6.439-2.064 9.465-.198.837-.396 1.674-.636 2.543 1.059-.193 2.226-.322 3.286-.419.258 0 .374-.064.455-.322l.03-.097c.689-3.638 1.437-7.566 2.277-11.687l6.48-1.159c-1.766 1.835-3.902 3.413-6.109 4.7.768.322 1.51.934 1.941 1.513.088.129.197.193.326.193s.278-.064.437-.161c2.406-1.513 5.211-3.992 7.585-6.536.441-.483.83-.901 1.166-1.256.137-.129.189-.193.209-.258.02-.064.008-.129-.068-.193l-1.16-1.638zM130.677 48.563c-.612 0-.956-.032-1.419-.097l-1.317 3.896c-.091.29.008.386.297.386 3.743-.129 8.164-.161 13.174-.225h2.221c3.638 0 6.87.064 10.467.193.139-.547.321-1.127.513-1.739.262-.837.567-1.706.881-2.608-1.501.064-3.163.129-4.773.129l-20.044.065z"/></svg>