<svg xmlns="http://www.w3.org/2000/svg" width="246" height="109" viewBox="0 0 246 109">
<style>path{fill-rule:evenodd;clip-rule:evenodd;fill:url(#pn)}</style>
<linearGradient id="pn"><stop offset="0" stop-color="#004eff"/><stop offset="1" stop-color="#00a2ff"/></linearGradient>
<path d="M47.053 1.353c-.667 2.129-2.409 5.794-6.099 12.677-4.515 8.567-8.967 16.144-14.299 24.315-1.962.099-1.962.099-2.507.099-.495 0-.644 0-.975-.049l-.79 5.844c.74-.149 1.514-.248 2.749-.396 9.122-1.139 14.421-1.931 21.163-3.219-.035 1.535-.104 2.229-.275 4.358l6.12-1.832c.312-9.062-.336-16.639-2.09-23.374l-5.297 1.733c.923 4.011 1.458 9.26 1.545 14.361-3.321.644-9.543 1.535-13.728 1.931 4.566-6.834 10.918-17.629 15.69-26.543 4.31-8.072 4.31-8.072 4.84-8.815l-6.047-1.09zm-23.685 12.38h-3.912c-1.981 0-3.203-.049-4.512-.297l-1.69 5.398c1.449-.198 2.702-.248 4.435-.248h3.268c-.242.297-.403.495-.499.644-2.636 3.516-3.476 4.457-6.433 7.577-2.344 2.427-3.577 3.516-6.485 5.844.708 1.535.967 2.922 1.111 5.15 4.205-3.466 8.049-7.676 11.435-12.479-1.414 3.566-2.179 5.695-2.396 6.388l-2.497 7.973c-.884 2.823-1.464 4.358-2.316 6.289h5.992c.264-1.634.618-2.922 1.672-6.289l2.977-9.508c.946-3.021.946-3.021 1.325-4.704.044-.297.183-.743.32-1.337.732 2.724 1.804 5.15 3.044 6.883 1.249-1.931 2.649-3.714 3.959-5.051-2.335-2.823-3.702-5.101-4.523-7.379h2.625c1.832 0 3.104.05 4.33.248l1.69-5.398c-1.266.248-2.371.297-4.451.297h-3.169l1.985-6.339c2.151-.545 3.235-.842 6.318-1.832l2.362-.743-1.793-4.556c-1.028.594-1.765.891-3.257 1.386-5.281 1.684-9.785 2.625-16.753 3.368.451 1.882.546 3.318.344 4.754 3.423-.495 4.575-.693 7.092-1.139l-1.598 5.1zM111.17 15.07c.065-.049.096-.149.112-.198.062-.198-.04-.347-.306-.446-4.409-1.733-11.066-2.773-16.612-2.773h-.396c-.396 0-.557.198-.749.495-1.038 1.733-1.847 3.367-2.783 5.249 7.054.248 12.822 1.436 17.742 3.12l2.992-5.447zm-8.291 28.376c.276-1.04.568-2.129.924-3.268.279-.891.574-1.832.933-2.823-3.327.347-7.054.545-10.669.545-5.497 0-10.634-.99-14.963-2.823-.211.99-.503 2.08-.844 3.169-.295.941-.639 1.882-1.001 2.724-.155.495-.004.644.43.842 3.546 1.486 8.547 2.278 14.242 2.278h.495c4.408 0 7.571-.298 10.453-.644zm-10.025-34.566c-2.501.396-4.46.644-6.701.842 1.354-2.426 2.501-4.506 4.214-7.131.096-.148.192-.297.223-.396.062-.198-.006-.297-.337-.347-1.677-.495-3.667-.941-5.521-1.189-.298.792-.66 1.634-1.072 2.476-1.252 2.575-2.495 4.804-3.787 7.032-1.501.049-2.804.099-4.141.099h-1.535s-.941 0-1.39-.149c-.657 1.783-1.361 3.714-1.972 5.348-.124.396-.056.495.291.495h1.287c1.238 0 2.591-.05 4.141-.099-5.106 8.717-10.763 17.928-16.634 27.189 1.813.693 3.577 1.387 5.502 1.882 5.63-9.756 12.115-20.502 17.447-29.465 2.65-.396 4.971-.693 7.29-1.139.477-.099.752-.347.957-.842.467-1.337 1.047-2.873 1.738-4.606zM121.239 13.189c-.103.644.13.693.609.743 1.851.099 3.816.149 6.094.149 1.287 0 2.625 0 4.126-.05-2.876 5.546-6.562 10.201-10.804 14.262-.146.149-.291.297-.353.495-.047.149.021.248.09.347l2.682 2.823c.102.149.22.248.418.248.198 0 .378-.099.622-.248 5.679-4.061 10.92-6.091 16.219-6.091 4.011 0 6.226 2.575 5.171 5.942-.899 2.872-3.538 5.447-9.37 6.834-2.941.693-6.729 1.09-11.533 1.09-2.179 0-4.708-.149-6.843-.446.983 1.288 1.462 2.922 1.579 4.605.062.594.368 1.04 1.228 1.139 1.356.099 2.94.099 4.426.099 15.748 0 24.086-5.596 26.567-13.519 1.892-6.042-1.34-10.746-9.461-10.746-3.417 0-6.658.545-10.187 1.535 1.815-2.476 3.637-5.447 5.211-8.419 6.518-.099 12.588-.347 18.602-.891.461-.05.542-.149.712-.693.611-1.634 1.463-3.565 2.306-5.15-6.16.693-11.799.99-18.729 1.139.976-2.327 2.036-4.605 2.759-6.438l.062-.198c.109-.347.04-.446-.176-.545-2.021-.347-3.395-.545-5.512-.743-.183.743-.416 1.486-.648 2.228-.558 1.783-1.231 3.615-1.981 5.695-1.105.05-2.145.05-3.185.05-3.714 0-6.886-.149-9.994-.347l-.707 5.101zM210.609 24.38c2.931-9.359-1.359-19.066-15.027-19.066s-25.741 8.666-29.261 19.907c-2.186 6.982-.688 11.687 2.235 14.212 1.058.891 2.19 1.387 3.428 1.387 1.436 0 3.009-.594 4.767-1.783 6.988-4.605 14.088-13.519 19.455-28.128 8.294 1.188 10.262 7.082 8.308 13.321-1.706 5.447-5.202 8.864-10.766 11.291-2.635 1.139-6.015 2.129-9.305 2.674 1.6.743 2.772 2.377 3.158 3.516.173.396.458.594.953.594.148 0 .297 0 .511-.049 2.585-.347 6.074-1.684 8.492-2.922 6.616-3.415 11.083-8.665 13.052-14.954zm-20.806-13.42c-3.594 11.637-8.672 18.521-14.335 22.532-.7.495-1.273.743-1.768.743-.545 0-.913-.248-1.204-.743-1.128-1.931-1.251-4.704-.025-8.617 1.985-6.338 8.182-12.528 17.332-13.915zM46.344 74.418c-.136-.198-.235-.198-.532-.198-.774.099-1.384.149-2.176.149l-13.615.148 1.889-6.19c.201-.644.394-.941.929-1.387.226-.248.387-.446.465-.693.093-.297-.012-.594-.492-.644-1.82-.198-3.952-.347-5.868-.396-.673 2.625-1.505 5.596-2.634 9.359-1.848.049-3.531.049-5.067.049-1.535 0-2.922 0-4.194-.049-1.09 0-1.783 0-2.776-.149l-1.703 5.596c-.14.446-.038.594.458.594 3.414-.149 7.11-.248 11.365-.396-2.201 6.24-5.17 11.291-9.369 15.054-3.583 3.219-8.351 5.794-13.025 7.28 1.386.792 2.406 2.278 3.111 3.665.173.396.325.545.671.545.198 0 .461-.049.789-.149 3.87-1.287 8.486-4.011 12.667-7.874 4.828-4.506 8.146-10.201 11.064-18.57l11.238-.149c-1.957 6.091-4.037 11.786-6.154 16.491-.552 1.287-1.06 2.278-1.701 3.219-.384.594-.808.842-1.517.891-1.418.099-2.869.149-4.256.149s-2.708-.05-3.915-.149c1.262 1.188 1.83 3.169 1.779 5.546 0 .792.25.941 1.142.941 2.179 0 4.253-.297 6.191-.792 3.071-.792 5.105-2.228 7.03-6.636 2.052-4.655 4.604-11.538 7.639-20.601.357-1.139.809-2.427 1.2-3.516.062-.198.059-.347-.043-.495l-.59-.643zM86.248 72.784c.295-.941.614-1.486 1.181-2.03.226-.248.403-.495.465-.693.077-.248-.009-.446-.39-.495l-6.416-.545c-.621 2.773-1.319 5.002-2.14 7.626-2.295 7.329-4.267 13.47-6.32 19.709-.31.99-.766 2.129-1.203 3.367l-.062.198c-.109.347-.056.495.213.743l2.122 2.08c.186.198.402.297.65.297.198 0 .412-.049.69-.148 6.64-2.229 14.795-6.289 21.044-10.746.195-.148.341-.297.387-.446.047-.149.059-.347.022-.545-.083-1.634.182-4.061.787-5.992-1.787 1.436-3.511 2.674-5.255 3.813-4.48 2.922-8.809 5.2-13.031 6.982l7.256-23.175zm-16.988-2.525c-.596 2.377-1.117 4.358-1.582 5.843-2.574 8.22-4.335 12.578-6.822 16.094-2.457 3.417-6.114 6.24-10.587 7.874 2.067.99 3.245 2.129 4.077 3.268.17.248.421.396.718.396.198 0 .477-.099.755-.198 3.7-1.535 7.998-5.299 10.994-9.805 2.178-3.318 3.644-6.735 6.156-14.757.45-1.436.946-3.021 1.455-4.803.217-.693.533-1.387 1.261-2.129.211-.198.322-.396.384-.594.093-.297-.028-.545-.507-.594l-6.302-.595zM144.105 66c-1 .347-2.13.792-3.263 1.089-7.386 2.08-17.52 3.764-26.54 4.259.535 1.139.905 3.12.95 4.556.009.446.328.693.872.693h.148c3.197-.248 6.918-.743 12.48-1.585l-2.208 6.735c-3.036.049-5.909.049-8.583.049-2.674 0-5.15 0-7.363-.049-.891 0-1.421-.049-2.148-.099l-1.839 5.398c-.155.495-.037.594.408.594 5.246-.149 11.368-.248 17.506-.396-2.38 5.546-5.441 9.31-9.562 12.034-2.558 1.684-5.845 3.169-8.901 3.912 1.454.891 2.583 2.03 3.371 3.466.223.396.408.594.755.594.198 0 .412-.049.69-.149 2.346-.693 4.997-1.882 7.536-3.664 4.787-3.268 8.99-8.468 11.92-16.243 4.506 0 8.598-.099 12.411-.099 1.436 0 2.872 0 4.243.049.276-1.04.602-2.08.912-3.07.31-.991.605-1.931.949-2.872-5.144.297-10.307.495-16.596.495 1.076-3.12 1.727-5.2 2.533-7.775 3.733-.693 7.299-1.486 10.37-2.278.805-.198 1.396-.347 1.823-.446.214-.049.409-.198.471-.396.031-.099.012-.198-.056-.297l-3.289-4.505zM187.022 82.094c-.118-.099-.201-.148-.35-.148l-.362.049c-.542.148-1.232.297-1.857.396l-12.976 2.377 1.146-5.398.124-.396c.109-.347.251-.644.493-.941.161-.198.257-.347.319-.545.093-.297-.043-.495-.538-.495l-5.033.099c-.475 2.625-1.031 5.348-1.646 8.419l-7.816 1.238c-.789.148-1.464.248-2.207.248l-.696 4.754c-.028.248-.025.396.223.396.099 0 .248 0 .412-.049.214-.049.706-.198 1.446-.347l7.547-1.486c-1.068 5.15-2.111 9.904-3.172 14.559-.304 1.287-.608 2.575-.977 3.912 1.628-.297 3.423-.495 5.055-.644.396 0 .576-.099.7-.495l.046-.148c1.059-5.596 2.208-11.637 3.499-17.976l9.967-1.783c-2.716 2.823-6.002 5.249-9.395 7.23 1.182.495 2.323 1.436 2.985 2.327.136.198.303.297.501.297s.427-.099.672-.248c3.7-2.327 8.014-6.141 11.665-10.053.678-.743 1.276-1.387 1.793-1.931.211-.198.291-.297.322-.396.031-.099.012-.198-.105-.297l-1.785-2.525zM206.964 83.481c-.941 0-1.47-.049-2.182-.149l-2.025 5.992c-.139.446.012.594.458.594 5.757-.198 12.557-.248 20.264-.347h3.417c5.596 0 10.566.099 16.1.297.214-.842.493-1.733.788-2.674.403-1.288.871-2.625 1.355-4.011-2.309.099-4.866.198-7.342.198l-30.833.1z"/></svg>