<svg xmlns="http://www.w3.org/2000/svg" width="112" height="6" viewBox="0 0 112 6"><path fill="#121212" d="M3.896.563l.038.069-.038.081c-.52.595-1.109 1.24-1.71 1.86.933-.331 1.848-.563 2.474-.676.176-.031.313-.05.438-.05l.069.056c.013.195.044.364.088.583l.006.025-.05.025c-.451.026-.833.094-1.165.195-.375.113-.707.351-.902.601-.187.238-.35.583-.35.952s.182.551.614.626c.37.069.839.106 1.378.119-.038.207-.063.445-.069.664l-.076.063c-.52-.019-1.059-.082-1.478-.169-.689-.15-1.109-.495-1.109-1.159 0-.489.182-.958.576-1.353-.858.276-1.572.62-2.224 1.021l-.08.038-.057-.038c-.106-.157-.206-.344-.263-.545l-.006-.037.038-.057c.231-.131.513-.307.776-.507.614-.482 1.221-1.084 1.879-1.892-.557.144-1.064.276-1.396.338l-.044.007-.056-.05c-.057-.213-.094-.414-.132-.639l.207-.031c.688-.107 1.365-.295 1.979-.458l.106-.019.106.038.433.319zM6.077 5.505l-.056-.068.025-.069.169-.363c.651-1.623 1.515-3.308 2.386-4.673l.125-.225c.182.088.451.2.695.332l.026.037-.025.056-.144.188c-.451.633-.877 1.322-1.353 2.211.351-.257.652-.382 1.04-.382.495 0 .808.357.808.946l-.031 1.428c0 .1.031.15.119.15l.113-.019c.438-.119 1.015-.495 1.566-1.14.012.276.094.539.163.664l.025.088-.063.138c-.651.67-1.259 1.021-1.936 1.021-.489 0-.739-.244-.739-.758 0-.426.019-.952.056-1.466v-.05c0-.188-.075-.276-.269-.276-.482 0-1.034.42-1.372 1.009-.232.401-.451.958-.595 1.378-.025.069-.05.094-.094.094l-.069-.019-.57-.232zM14.296 1.008c.294-.075.564-.163.833-.244v.106c0 .169.013.363.031.545v.012l-.063.082-.977.294c-.256.997-.5 1.986-.751 2.938l-.063.307c-.263-.056-.545-.132-.827-.207l.113-.307c.275-.846.545-1.76.745-2.574-.251.075-.464.132-.67.175l-.025.006-.063-.056c-.069-.188-.119-.445-.169-.639l.207-.031c.276-.056.583-.132.896-.219.069-.344.106-.683.119-1.002.282.012.495.025.751.056l.056.056-.006.031-.137.671zm2.831 1.303l-.075.044-.044-.006c-.169-.05-.344-.075-.526-.075-.338 0-.539.2-.539.401 0 .119.031.244.056.332.081.307.182.67.269 1.027.551.119 1.14.363 1.597.626l.05.056-.019.044c-.119.213-.225.432-.313.664-.382-.276-.802-.501-1.197-.626v.082c0 .608-.344.908-1.096.908-.789 0-1.29-.363-1.29-.946 0-.495.401-.915 1.228-.915l.301.012c-.075-.288-.169-.614-.225-.795s-.082-.338-.082-.489c0-.395.244-.695.745-.839-.257-.106-.514-.188-.727-.238l.338-.532.075-.044.044.006c.614.157 1.234.426 1.698.771l.031.05-.012.044-.287.438zm-1.992 2.267c-.376 0-.495.094-.495.232 0 .188.232.288.539.288.188 0 .313-.038.395-.125.05-.056.081-.132.081-.238l-.006-.113c-.113-.025-.269-.044-.514-.044zM19.071 4.146c.432.301.958.795 1.303 1.228l-.614.564c-.326-.42-.821-.958-1.253-1.278l.564-.514zM26.224.889c.138-.276.226-.539.288-.827l.789.075c-.113.301-.207.514-.32.752h1.453c.363 0 .539-.006.77-.031-.025.213-.031.382-.031.77v3.508c0 .369.006.526.038.727h-.72v-.32h-3.094v.32h-.707c.025-.157.038-.432.038-.727v-3.508c0-.376-.006-.551-.031-.77.225.025.401.031.764.031h.763zm-.82 1.347h3.094v-.708h-3.094v.708zm0 1.315h3.094v-.714h-3.094v.714zm0 1.359h3.094v-.757h-3.094v.757zM32.057 2.906c-.213 0-.37.012-.532.031v-.444c-.301.307-.457.445-.783.695-.106-.213-.257-.401-.482-.614.777-.539 1.247-1.052 1.647-1.798.15-.276.219-.445.25-.633l.752.269c-.063.094-.094.15-.169.319-.232.495-.601 1.052-1.008 1.522l.326.012h2.305l.388-.006c-.438-.495-.764-.99-1.033-1.572l-.132-.263.695-.269c.044.163.106.294.244.545.414.752.952 1.315 1.735 1.816-.263.307-.313.376-.476.677-.344-.257-.501-.388-.777-.658v.213c0 1.297-.106 2.286-.263 2.618-.138.276-.363.363-.921.363l-.645-.025c-.031-.275-.075-.426-.188-.733.301.05.576.081.758.081.232 0 .301-.025.357-.119.094-.185.195-1.012.195-1.664v-.363h-1.203c-.05.651-.188 1.109-.489 1.604-.345.576-.852 1.009-1.591 1.378-.119-.232-.219-.37-.457-.614.388-.144.645-.301.971-.576.438-.376.714-.858.821-1.428l.038-.363h-.333zM37.665 4.516c-.063-.013-.094-.038-.107-.138-.031-.363-.069-.858-.069-1.34 0-.426.019-.852.063-1.253l.031-.282c.175.031.438.082.708.163l.05.05-.012.05-.062.207c-.044.294-.082.658-.082 1.059l.006.307c.47-.482 1.077-.72 1.71-.72.977 0 1.572.633 1.572 1.434 0 .877-.808 1.597-2.318 1.785h-.05c-.088 0-.131-.031-.163-.081-.094-.182-.269-.338-.52-.47 1.591-.169 2.292-.651 2.292-1.253 0-.426-.338-.727-.814-.727-.677 0-1.322.407-1.685 1.215l-.094.069h-.019l-.437-.075zm1.71-3.019c-.351-.395-.727-.72-1.103-.958.2-.169.388-.313.583-.432l.044-.013.05.019c.37.219.702.514 1.046.908-.176.1-.407.281-.62.476zM46.748 5.073c-.012.132-.05.188-.182.244-.639.269-1.359.401-2.042.401-.651 0-1.033-.263-1.09-1.009-.031-.363-.044-.889-.044-1.422 0-.827.013-1.61.069-2.618l.006-.157-.025-.307c.257 0 .52.025.764.056.056.006.062.025.069.094l-.025.532c-.05.833-.062 1.654-.062 2.386 0 .495.006.983.031 1.29.025.276.106.357.463.357.689 0 1.409-.175 2.236-.583-.099.298-.149.555-.168.736zM50.188 4.002c-.207.495-.507 1.015-.752 1.303-.106.125-.238.188-.369.188-.138 0-.276-.069-.395-.2-.263-.301-.514-.927-.514-2.029 0-.595.1-1.347.351-2.268l.1-.451c.25.069.539.156.77.263l.038.044-.012.038c-.056.094-.106.213-.138.313-.257.821-.363 1.591-.363 2.048 0 .501.056.852.144 1.059l.056.05.081-.062c.2-.282.382-.645.589-1.103.088.232.232.426.376.558l.063.138-.025.111zm3.051.338l-.044.044c-.213.05-.495.119-.764.169-.132-.789-.382-1.528-.745-2.192.232-.069.476-.125.651-.156l.031-.006.075.05c.313.526.551 1.14.708 1.792l.081.276.007.023zM55.294 1.979c-.257.539-.507.915-.852 1.315-.163-.238-.307-.388-.513-.532.47-.476.845-1.134 1.059-1.829.081-.269.113-.401.138-.583l.714.176-.056.163-.063.207-.169.47h1.021v-.477c0-.326-.013-.52-.044-.752h.802c-.025.207-.038.413-.038.745v.482h1.303c.319 0 .589-.013.845-.038v.689c-.269-.025-.526-.038-.827-.038h-1.322v1.153h1.084c.313 0 .564-.013.77-.038v.689c-.225-.025-.476-.038-.77-.038h-1.084v1.328h1.503c.357 0 .62-.012.871-.044v.714c-.294-.029-.52-.041-.852-.041h-3.833c-.326 0-.595.012-.889.044v-.714c.269.031.539.044.871.044h1.61v-1.329h-.965c-.294 0-.545.012-.758.038v-.689c.2.025.407.038.752.038h.971v-1.153h-1.279zM62.536.163c.201-.019.451-.044.714-.056l.05.044c.025.213.082.501.125.702.294-.069.664-.175.964-.288.031.25.069.457.106.595l.006.038-.044.063c-.25.088-.532.169-.871.25.05.194.106.395.188.607.213-.038.401-.088.67-.169.075-.025.1-.044.1-.119l-.038-.25c.169.025.414.044.607.044h.082l.1.062c.044.138.088.307.088.438l-.006.063c-.019.156-.125.244-.357.326-.257.088-.607.182-.99.276.138.332.351.701.607 1.021l.032.069-.032.062-.263.332-.088.056-.062-.019c-.476-.2-.983-.294-1.616-.294-.558 0-.827.219-.827.457 0 .376.426.601 1.572.601.382 0 .827-.019 1.265-.069-.062.207-.106.457-.119.658l-.069.069c-.282.025-.695.05-1.115.05-1.685 0-2.292-.501-2.292-1.309 0-.658.495-1.102 1.697-1.102.319 0 .576.025.852.056l-.226-.514c-.833.119-1.535.194-2.312.238l-.094-.075-.201-.62c.821-.025 1.604-.1 2.38-.219l-.176-.577c-.57.119-1.134.194-1.672.232h-.013l-.056-.056-.25-.639c.601-.025 1.19-.088 1.816-.2l-.232-.834zM68.745.657c0-.207-.012-.37-.044-.52h.808c-.025.132-.038.294-.038.52v.383h1.723c.351 0 .576-.013.789-.044v.758c-.194-.025-.388-.038-.764-.038h-2.292l-.05.677h1.735c.326 0 .501-.006.645-.031l-.006.063-.025.438c-.026.939-.107 1.747-.214 2.198-.144.595-.351.752-.977.752-.219 0-.363-.006-.846-.044-.025-.288-.075-.495-.182-.727.363.056.651.081.939.081.276 0 .338-.069.42-.501.075-.376.113-.771.138-1.572h-1.729c-.263 1.259-.827 2.061-2.01 2.838-.157-.276-.276-.414-.508-.595.551-.344.821-.564 1.122-.927.539-.645.751-1.372.783-2.65h-1.027c-.313 0-.57.013-.783.038v-.758c.226.031.463.044.783.044h1.61v-.383zM77.966 2.781l.019.05-.019.038-.169.082c-.539.188-1.065.388-1.472.576.057.363.106.733.132 1.109h-.163l-.495.019h-.019l-.044-.056c-.012-.25-.044-.564-.081-.808-.721.344-.958.658-.958.939 0 .207.138.32.401.344.194.019.476.031.795.031.489 0 .99-.031 1.51-.094l-.032.676c0 .069-.012.088-.069.094-.444.025-.896.05-1.409.05-.332 0-.595-.013-.877-.044-.639-.069-1.071-.382-1.071-.971 0-.351.125-.664.458-.977.27-.244.689-.514 1.108-.708-.056-.332-.138-.457-.382-.457-.332 0-.645.144-.933.413-.307.294-.514.545-.702.808l-.082.056-.069-.031-.451-.363-.025-.05.019-.05c.488-.539.977-1.159 1.396-1.879-.37.044-.614.069-.883.082h-.031l-.062-.05c-.082-.207-.119-.432-.175-.626.47-.013.902-.044 1.459-.1.106-.257.194-.539.257-.795.238.031.488.075.676.113l.057.044-.019.056c-.075.144-.15.32-.232.52.458-.044.814-.107 1.19-.182-.013.144-.038.319-.038.495v.1c0 .062-.025.088-.082.094-.438.075-.852.156-1.384.207l-.338.608c.176-.075.363-.106.545-.106.489 0 .79.263.94.833.338-.144.676-.294 1.033-.463l.294-.176.477.549zM82.971.382c.294 0 .482-.006.67-.031-.025.251-.031.426-.031.645v4.109c0 .32.013.539.038.758h-.751v-.351h-2.932v.351h-.751c.024-.213.036-.433.036-.708v-4.134c0-.244-.013-.464-.031-.67.207.025.407.031.701.031h3.051zm-.075 1.465v-.795h-2.932v.795h2.932zm-2.932 1.466h2.932v-.808h-2.932v.808zm0 1.535h2.932v-.877h-2.932v.877zM85.722.751c0-.276-.013-.438-.038-.639h.751c-.025.194-.038.357-.038.633v.532h.138c.176 0 .307-.006.482-.031v.67c-.182-.019-.319-.025-.482-.025h-.138v.99l.633-.188.006.601-.639.219v1.748c0 .282-.094.451-.288.52-.125.044-.313.063-.614.063l-.458-.019c-.025-.282-.056-.42-.15-.67.282.038.463.056.645.056.15 0 .188-.031.188-.169v-1.328l-.52.132-.244.069-.113-.72c.219-.012.438-.05.877-.15v-1.154h-.326c-.169 0-.307.006-.489.031v-.682c.163.025.307.037.489.037h.326v-.526zm2.186.063c.902-.138 1.691-.363 2.023-.589l.495.57c-.533.163-.921.276-1.159.332-.513.119-.658.144-1.359.238v.307c0 .2.1.232.771.232.852 0 1.033-.019 1.121-.119.082-.088.113-.226.125-.601.245.1.433.156.652.2-.038.395-.082.576-.163.727-.188.338-.426.395-1.666.395-1.266 0-1.51-.094-1.51-.595v-1.191c0-.269-.006-.413-.031-.595h.733c-.025.156-.031.307-.031.557v.132zm-.651 2.562c0-.263-.006-.407-.019-.532.157.019.288.025.558.025h1.873c.294 0 .438-.006.577-.025-.019.131-.025.282-.025.545v1.86c0 .351.006.482.031.639h-.701v-.282h-1.641v.282h-.683c.025-.169.032-.301.032-.614v-1.898zm.651.57h1.641v-.501h-1.641v.501zm0 1.077h1.641v-.526h-1.641v.526zM94.041 1.91c-.814 0-1.547.012-2.33.056l-.307.025-.044-.044-.044-.727.332.019c.752-.005 1.522-.005 2.362-.005-.012-.395-.031-.758-.056-1.084.238 0 .482.013.714.031.069.006.094.038.094.081l-.025.075c-.043.069-.05.156-.05.25l.012.658h1.0270000000000001l.658.006.338-.006.006.313-.006.426c-.576-.038-1.165-.063-1.798-.063h-.219l.013.94c.144.232.207.526.207.883 0 1.002-.595 1.785-1.509 2.105l-.075.019-.075-.05c-.088-.125-.294-.338-.595-.426.858-.282 1.359-.695 1.528-1.259-.138.138-.319.219-.545.219-.395 0-.839-.363-.839-1.084 0-.614.345-1.027.833-1.027.175 0 .288.038.401.125l-.008-.456zm-.3.952c-.157 0-.245.182-.245.376 0 .226.101.376.238.376.182 0 .257-.238.257-.382 0-.138-.075-.37-.25-.37zM100.713.206c-.025.106-.043.42-.043.645 0 1.009.163 1.672.614 2.468.263.47.545.802.99 1.19.369.326.557.457.971.677-.238.244-.338.395-.489.695-.764-.532-1.146-.889-1.591-1.478-.382-.507-.62-.99-.833-1.71-.119.501-.232.789-.489 1.265-.25.457-.52.796-.964 1.203-.326.301-.533.451-.971.72-.144-.288-.263-.445-.488-.645.639-.338.971-.595 1.365-1.046.808-.927 1.146-1.954 1.146-3.458 0-.244-.006-.357-.025-.526h.807zM105.324 5.318c-.1.207-.213.326-.357.326-.188 0-.288-.044-.382-.301-.194-.507-.288-1.271-.288-2.167 0-.727.031-1.51.106-2.286l.019-.294c.207 0 .507.031.739.056l.044.038-.006.025-.056.294c-.075.72-.144 1.435-.15 2.136 0 .382.013.72.075 1.109.131-.225.257-.557.338-.883.062.232.182.432.326.583l.031.094-.013.094c-.113.436-.263.837-.426 1.176zm1.29-1.472c.006.326.082.476.226.557.163.088.345.113.902.113.551 0 1.127-.05 1.697-.163l-.006.326.006.363v.025l-.062.069c-.464.081-1.065.132-1.742.132-.683 0-1.064-.094-1.284-.27-.226-.182-.345-.432-.37-.789v-.013l.05-.069.583-.281zm-.457-2.813l.213-.031c.363-.069.883-.113 1.297-.113.532 0 .971.038 1.347.113l.043.044v.019c-.012.182-.038.426-.081.67-.464-.062-.915-.094-1.372-.094-.395 0-.864.044-1.34.119l-.107-.727zM110.687 4.146c.432.301.958.795 1.303 1.228l-.614.564c-.326-.42-.82-.958-1.253-1.278l.564-.514z"/></svg>