<svg xmlns="http://www.w3.org/2000/svg" width="86" height="6" viewBox="0 0 86 6"><path fill="#121212" d="M5.099 1.115l.012.044-.106.05c-.708 0-1.228.157-1.691.495-.533.381-.802.945-.802 1.584 0 .846.351 1.178.977 1.328.388.094.858.15 1.391.169-.063.232-.113.489-.139.708-.006.063-.037.069-.093.069-.545-.025-1.015-.094-1.472-.219-.952-.25-1.434-.958-1.434-1.935 0-.67.194-1.259.745-1.86-.783.156-1.516.282-2.23.388l-.044.005-.069-.075-.144-.682.288-.019c1.015-.106 2.029-.282 3.007-.464.532-.1 1.059-.169 1.472-.207.075 0 .113.019.132.075l.2.546zm-.514 1.597c-.125-.219-.307-.451-.501-.658l.238-.144.05-.019.062.031c.163.15.338.363.482.583l-.331.207zm.476-.301c-.132-.219-.326-.445-.52-.626l.232-.138.062-.025.05.025c.169.138.357.344.508.564l-.332.2zM7.668 2.111c-.276-.276-.639-.57-.94-.771l-.031-.05.013-.044c.087-.138.312-.376.438-.488.338.2.664.445.933.677.113-.388.226-.789.307-1.115l.05-.244.658.188.05.05-.012.05-.088.268c-.295.952-.577 1.898-.802 2.919.288.056.608.106.908.131-.05.194-.094.414-.1.583-.006.063-.038.088-.082.088h-.019c-.275-.031-.525-.069-.807-.138l-.019.282c0 .388.395.589.915.589.495 0 .852-.15.852-.514 0-.476-.288-1.09-1.271-1.898.219-.075.401-.176.507-.269l.081-.031.075.025c.896.677 1.384 1.478 1.384 2.18 0 .764-.47 1.247-1.547 1.247-1.221 0-1.716-.564-1.716-1.365l.025-.395c-.608-.176-.965-.457-.965-.94 0-.213.125-.526.363-.752l.1-.056.031.006.564.132c-.231.218-.338.438-.338.575 0 .176.094.25.388.338.1-.47.232-.99.395-1.528l-.3.27zM12.21 4.146c.432.301.958.795 1.303 1.228l-.614.564c-.326-.42-.821-.958-1.253-1.278l.564-.514zM19.258.563l.038.069-.038.081c-.52.595-1.109 1.24-1.71 1.86.933-.332 1.848-.564 2.474-.677.176-.031.313-.05.438-.05l.069.056c.013.194.044.363.088.583l.006.025-.05.025c-.451.025-.833.094-1.165.194-.376.113-.708.351-.902.601-.188.238-.351.583-.351.952s.182.551.614.626c.37.069.839.106 1.378.119-.038.207-.062.445-.069.664l-.075.063c-.52-.019-1.059-.082-1.478-.169-.689-.15-1.109-.495-1.109-1.159 0-.489.182-.958.576-1.353-.858.276-1.572.62-2.224 1.021l-.082.038-.056-.038c-.106-.157-.207-.344-.263-.545l-.006-.038.038-.056c.232-.132.514-.307.777-.507.614-.482 1.221-1.084 1.879-1.892-.557.144-1.065.275-1.397.338l-.044.006-.056-.05c-.056-.213-.094-.413-.131-.639l.207-.031c.689-.106 1.365-.294 1.979-.457l.106-.019.106.038.433.321zM26.017 5.067c-.257.156-.645.326-.958.369l-.062.006c-.063 0-.106-.025-.144-.075-.094-.144-.307-.351-.539-.445.395-.069.783-.194 1.071-.338.607-.307.914-.739.914-1.428 0-.789-.482-1.534-1.578-1.685-.1 1.848-.645 2.975-1.347 3.558-.175.15-.351.225-.532.225-.156 0-.319-.062-.489-.175-.47-.32-.846-.915-.846-1.798 0-1.422 1.184-2.518 2.913-2.518 1.729 0 2.656 1.228 2.656 2.411 0 .797-.357 1.461-1.059 1.893zm-3.746-1.829c0 .495.125.845.345 1.09.056.063.113.094.182.094.062 0 .125-.031.194-.094.557-.507.927-1.378.921-2.85-1.103.175-1.642.958-1.642 1.76zM29.689 2.186c-.382.225-.952.52-1.29.664l-.226.1-.282-.639c.438-.1 1.102-.401 1.597-.714l.201.589zm.827-1.034c-.232.313-.338.426-.658.689-.2-.207-.276-.27-.476-.407.401-.301.67-.614.896-1.04.081-.156.106-.226.138-.332l.708.113-.119.207-.125.225h1.779c.326 0 .432-.006.57-.025l.344.269-.125.188c-.182.301-.414.595-.645.814-.238-.132-.344-.182-.589-.282.182-.138.276-.225.426-.42h-.983c.006.169.025.238.106.407.288.589.846.889 1.898 1.015-.163.294-.213.407-.263.639-.539-.138-.889-.257-1.184-.42-.207-.113-.388-.25-.551-.407-.144-.15-.213-.244-.32-.464-.213.42-.382.595-.864.871l.62.106-.169.232-.182.257h2.192c.282 0 .451-.006.614-.038v.67c-.207-.025-.401-.038-.683-.038h-.526c-.194.351-.351.545-.62.802 1.065.326 1.159.357 1.748.589l-.426.539c-.708-.301-1.221-.489-1.911-.701-.708.388-1.51.576-2.787.658-.075-.226-.15-.388-.313-.633h.213c.739 0 1.441-.1 1.998-.288-.482-.125-.889-.219-1.478-.332.301-.25.407-.351.664-.633h-.795c-.282 0-.495.012-.689.038v-.67c.157.025.326.038.614.038h1.39c.207-.257.276-.357.351-.501-.301.144-.589.244-.996.332-.1-.263-.169-.382-.351-.595.783-.1 1.341-.326 1.679-.67.257-.263.37-.495.382-.802h-.502zm-2.061-.939c.463.2.77.376 1.121.626l-.395.539c-.382-.301-.645-.451-1.103-.645l.377-.52zm1.816 3.77l-.332.351c.47.1.47.1 1.046.25.244-.175.445-.376.583-.601h-1.297zM35.741 5.318c-.1.207-.213.326-.357.326-.188 0-.288-.044-.382-.301-.194-.507-.288-1.271-.288-2.167 0-.727.031-1.51.106-2.286l.019-.294c.207 0 .507.031.739.056l.044.038-.006.025-.056.294c-.075.72-.144 1.435-.15 2.136 0 .382.012.72.075 1.109.132-.225.257-.557.338-.883.063.232.182.432.326.583l.031.094-.013.094c-.113.436-.263.837-.426 1.176zm1.29-1.472c.006.326.081.476.226.557.163.088.344.113.902.113.551 0 1.127-.05 1.698-.163l-.007.326.006.363v.025l-.063.069c-.463.081-1.065.132-1.741.132-.683 0-1.065-.094-1.284-.27-.225-.182-.344-.432-.369-.789v-.013l.05-.069.582-.281zm-.457-2.813l.213-.031c.363-.069.883-.113 1.297-.113.532 0 .971.038 1.347.113l.044.044v.019c-.012.182-.038.426-.082.67-.463-.062-.914-.094-1.372-.094-.395 0-.865.044-1.341.119l-.106-.727zM40.634 2.524c.169.025.269.031.501.031h.551c.188 0 .313-.006.476-.031-.019.194-.025.357-.025.689v1.259c.125.207.257.326.495.457.25.144.601.188 1.547.188.983 0 1.691-.038 2.318-.113-.106.282-.15.451-.188.727-.489.025-1.654.05-2.117.05-1.416 0-1.867-.138-2.374-.714-.282.269-.438.401-.852.708l-.119.088-.307-.733.1-.044c.138-.05.576-.357.846-.602v-1.277h-.42c-.169 0-.263.006-.432.031v-.714zm.589-2.286c.526.476.67.62 1.09 1.146l-.52.501c-.382-.52-.614-.777-1.077-1.184l.507-.463zm2.349 2.305c-.05 1.103-.232 1.704-.689 2.324-.213-.238-.338-.357-.539-.508.451-.557.589-1.215.589-2.812 0-.457-.013-.714-.031-.902l.194.006c.451 0 1.416-.15 2.023-.32.232-.062.401-.131.514-.2l.513.595c-.689.25-1.541.42-2.555.514v.657h2.073c.288 0 .451-.006.645-.031v.708c-.194-.019-.388-.031-.62-.031h-.363v1.679c0 .326.013.52.038.67h-.751c.025-.163.037-.344.037-.67v-1.679h-1.078zM51.428 4.804c-.633.288-1.359.451-2.073.507h-.025c-.094 0-.15-.031-.175-.081-.087-.188-.263-.438-.507-.589.852-.044 1.691-.219 2.324-.476.62-.257.858-.626.858-1.065 0-.626-.407-1.04-1.027-1.04-.25 0-.614.044-1.077.131-.658.132-1.428.338-2.111.52l-.357.069h-.031l-.082-.056c-.081-.238-.15-.47-.2-.708.119 0 .257-.025.401-.063.764-.188 1.516-.376 2.286-.52.458-.088.808-.125 1.209-.125 1.027 0 1.785.727 1.785 1.791-.002.79-.384 1.342-1.198 1.705zm.707-3.27c-.119-.219-.294-.457-.482-.664l.244-.144.044-.013.062.031c.163.15.332.363.47.589l-.338.201zm.489-.294c-.131-.219-.319-.445-.507-.626l.232-.138.062-.025.056.025c.163.144.345.357.489.576l-.332.188zM56.865 5.844l-.157-.213c-.532-.614-1.579-1.585-2.361-2.048-.382-.226-.52-.407-.52-.651 0-.2.094-.37.388-.626.646-.557 1.372-1.221 2.023-1.873l.238-.282c.219.113.495.313.695.476l.025.044-.032.05-.238.194c-.783.633-1.453 1.24-2.08 1.829l-.082.125c0 .044.031.075.101.119.845.57 1.735 1.309 2.562 2.217l.163.163c-.261.15-.505.319-.725.476zM61.495 1.797c-.006.063-.031.094-.087.106-.276.056-.558.094-.877.144-.32 1.134-.714 2.493-1.04 3.727-.263-.063-.514-.15-.771-.238.376-1.171.727-2.336 1.027-3.439l-.52.013h-.163l-.057-.063.038-.677.182.019h.194l.52-.012c.075-.282.144-.564.2-.889l.038-.313c.245.031.514.088.746.15l.056.044-.012.05c-.113.332-.176.595-.25.902.275-.025.513-.056.814-.106l-.038.582zm1.378 3.871h-.062c-.72 0-1.384-.1-1.892-.288-.062-.025-.088-.044-.088-.106l.019-.344-.019-.401c.62.232 1.309.357 2.004.357.458 0 .921-.025 1.328-.069l-.006.357.013.413c-.351.044-.74.081-1.297.081zm1.058-2.981c-.689-.213-1.465-.363-2.368-.395.044-.238.082-.445.144-.664l.075-.062h.05c.702 0 1.584.131 2.211.351l.057.056-.006.025-.163.689zM69.326 5.148c-.301.169-.614.269-.927.307h-.056c-.094 0-.157-.031-.219-.094-.175-.175-.401-.332-.658-.432.476-.025.915-.138 1.24-.294.57-.282.858-.701.858-1.159 0-.501-.357-.94-1.008-1.09-.194.607-.482 1.203-.821 1.597.15.113.282.2.458.294-.169.138-.319.288-.458.426l-.075.038-.05-.012c-.106-.056-.232-.144-.345-.232-.401.376-.745.601-1.059.701-.125.038-.244.063-.351.063-.157 0-.301-.05-.432-.144-.219-.157-.438-.457-.438-1.04 0-.689.357-1.428 1.134-1.91-.106-.395-.201-.808-.276-1.203l-.043-.219c.213-.025.532-.056.732-.063l.044.056.013.188c.038.269.094.595.169.939.357-.119.79-.207 1.259-.213.082-.426.131-.821.156-1.209.27.025.508.056.752.106l.062.056-.025.069-.057.182c-.043.275-.106.576-.188.871 1.09.269 1.579.946 1.579 1.81.001.703-.363 1.267-.97 1.611zm-3.019-2.33c-.407.382-.62.846-.62 1.196 0 .176.038.313.106.382.038.044.087.069.15.069l.125-.025c.232-.082.489-.244.758-.482-.212-.332-.388-.72-.519-1.14zm.626-.294c.088.332.207.608.376.902.219-.301.389-.645.533-1.096-.345.006-.652.081-.909.194zM72.497 5.318c-.1.207-.213.326-.357.326-.188 0-.288-.044-.382-.301-.194-.507-.288-1.271-.288-2.167 0-.727.031-1.51.106-2.286l.019-.294c.207 0 .507.031.739.056l.044.038-.006.025-.056.294c-.075.72-.144 1.435-.15 2.136 0 .382.013.72.075 1.109.131-.225.257-.557.338-.883.062.232.182.432.326.583l.031.094-.013.094c-.113.436-.264.837-.426 1.176zm1.29-1.472c.006.326.082.476.226.557.163.088.345.113.902.113.551 0 1.127-.05 1.697-.163l-.006.326.006.363v.025l-.062.069c-.464.081-1.065.132-1.742.132-.683 0-1.064-.094-1.284-.27-.226-.182-.345-.432-.37-.789v-.013l.05-.069.583-.281zm-.457-2.813l.213-.031c.363-.069.883-.113 1.297-.113.532 0 .971.038 1.347.113l.043.044v.019c-.012.182-.038.426-.081.67-.464-.062-.915-.094-1.372-.094-.395 0-.864.044-1.34.119l-.107-.727zM78.548 5.468c-.056.1-.169.131-.3.131h-.069c-.132-.012-.219-.069-.282-.219-.175-.413-.307-1.159-.307-1.954 0-.902.1-1.929.275-2.838l.057-.326c.219.025.495.069.708.119l.057.05-.006.038-.082.25c-.207.965-.307 2.03-.307 2.744 0 .326.032.645.069.871.119-.194.231-.445.332-.758.063.219.176.388.332.551l.031.082-.012.062c-.114.395-.289.833-.496 1.197zm.79-3.79h.194c.438 0 .915-.019 1.397-.044-.025-.445-.05-.852-.082-1.221h.188c.201 0 .389.006.545.025l.063.05-.013.044-.025.163v.031c.006.269.006.557.031.858.401-.031.776-.075 1.165-.138-.025.145-.031.314-.031.477v.194l-.05.069c-.313.05-.664.075-1.059.125.038.633.062 1.234.119 1.842.426.138.908.369 1.309.626l.025.038-.013.038c-.087.188-.207.401-.326.589-.332-.25-.645-.432-.977-.564v.05c0 .326-.113.482-.275.589-.194.132-.451.2-.771.2-.771 0-1.291-.32-1.291-.99 0-.457.432-.777 1.127-.777.188 0 .326.019.47.044-.05-.601-.075-1.077-.106-1.641-.426.031-.795.044-1.159.044h-.213c-.056 0-.082-.025-.094-.075l-.148-.646zm1.139 2.907c-.269 0-.369.088-.369.194 0 .182.244.288.545.288.257 0 .432-.075.432-.332v-.038c-.181-.075-.413-.112-.608-.112zM84.23 4.146c.432.301.958.795 1.303 1.228l-.614.564c-.326-.42-.82-.958-1.253-1.278l.564-.514z"/></svg>