<svg xmlns="http://www.w3.org/2000/svg" width="295" height="9" viewBox="0 0 295 9"><path fill="#121212" d="M2.438 1.394c.203-.405.332-.793.424-1.217l1.161.11c-.166.443-.304.756-.47 1.107h2.138c.535 0 .793-.01 1.134-.046-.037.314-.046.562-.046 1.133v5.162c0 .543.009.773.056 1.068h-1.061v-.47h-4.553v.47h-1.041c.037-.23.055-.636.055-1.068v-5.162c0-.553-.009-.811-.046-1.133.332.036.59.046 1.125.046h1.124zm-1.207 1.981h4.553v-1.041h-4.553v1.041zm0 1.936h4.553v-1.051h-4.553v1.051zm0 2h4.553v-1.115h-4.553v1.115zM11.567 4.362c-.313 0-.544.019-.783.046v-.655c-.442.451-.673.654-1.152 1.022-.156-.312-.378-.59-.709-.902 1.143-.793 1.834-1.549 2.424-2.646.221-.405.322-.654.368-.931l1.106.396c-.093.138-.139.221-.249.47-.341.728-.885 1.548-1.484 2.239l.479.019h3.392l.571-.009c-.645-.729-1.124-1.456-1.521-2.313-.037-.093-.129-.276-.193-.388l1.022-.396c.065.239.157.433.36.802.607 1.105 1.4 1.936 2.553 2.673-.388.451-.461.553-.7.995-.508-.378-.738-.571-1.144-.968v.313c0 1.907-.156 3.363-.387 3.853-.203.405-.534.534-1.354.534-.185 0-.332-.009-.949-.037-.047-.405-.111-.626-.277-1.078.442.074.849.12 1.115.12.342 0 .442-.037.525-.175.139-.277.286-1.493.286-2.452v-.532h-1.77c-.074.958-.276 1.631-.719 2.359-.507.848-1.254 1.483-2.341 2.027-.174-.34-.322-.543-.671-.903.571-.212.949-.442 1.428-.848.645-.552 1.05-1.262 1.207-2.101.027-.156.037-.268.055-.534h-.488zM20.366 6.73c-.093-.019-.139-.055-.157-.202-.046-.535-.102-1.263-.102-1.973 0-.627.028-1.254.093-1.844l.046-.414c.258.046.646.119 1.041.239l.074.074-.019.073c-.046.074-.073.175-.092.305-.064.433-.12.967-.12 1.557l.009.452c.691-.71 1.586-1.06 2.517-1.06 1.438 0 2.313.931 2.313 2.11 0 1.29-1.189 2.35-3.41 2.626h-.074c-.129 0-.193-.046-.239-.119-.139-.268-.396-.498-.765-.691 2.341-.249 3.373-.959 3.373-1.844 0-.626-.498-1.068-1.198-1.068-.995 0-1.944.599-2.479 1.788-.037.073-.083.101-.138.101h-.028l-.645-.11zm2.515-4.442c-.516-.58-1.069-1.06-1.622-1.41.295-.248.571-.461.857-.636l.064-.019.073.028c.544.322 1.032.755 1.539 1.336-.256.148-.597.415-.911.701zM34.279 7.55c-.019.193-.073.276-.268.359-.939.396-2 .59-3.004.59-.959 0-1.521-.387-1.604-1.483-.047-.535-.065-1.309-.065-2.093 0-1.216.019-2.368.102-3.852l.01-.23c0-.147-.01-.286-.037-.452.378 0 .765.037 1.124.083.083.01.093.037.102.139 0 .23-.019.479-.037.783-.073 1.226-.092 2.433-.092 3.512 0 .728.009 1.446.046 1.898.037.405.157.525.683.525 1.014 0 2.073-.259 3.29-.857-.149.433-.223.811-.25 1.078zM39.888 5.974c-.304.729-.746 1.493-1.105 1.917-.157.185-.351.276-.544.276-.203 0-.406-.101-.581-.295-.387-.442-.756-1.363-.756-2.985 0-.876.147-1.981.517-3.337.064-.221.102-.424.147-.663.368.102.792.23 1.134.387l.055.064-.019.056c-.083.138-.156.313-.202.461-.378 1.207-.535 2.341-.535 3.014 0 .737.083 1.253.212 1.558l.082.073.12-.092c.295-.415.562-.949.866-1.622.129.341.341.627.553.82.056.055.093.119.093.202l-.037.166zm4.488.498l-.064.064c-.313.073-.728.175-1.124.249-.193-1.161-.562-2.249-1.097-3.226.341-.102.7-.185.958-.23l.046-.01.111.074c.46.774.811 1.677 1.041 2.636.037.156.073.285.12.405l.009.038zM47.949 2.998c-.378.793-.747 1.346-1.254 1.936-.239-.351-.451-.571-.756-.783.691-.701 1.245-1.669 1.558-2.691.12-.396.166-.59.203-.857l1.05.257-.083.239-.092.304-.249.691h1.502v-.7c0-.479-.019-.765-.064-1.106h1.18c-.037.305-.056.608-.056 1.097v.71h1.917c.471 0 .867-.019 1.244-.055v1.014c-.396-.037-.773-.056-1.216-.056h-1.945v1.696h1.595c.461 0 .829-.019 1.134-.056v1.014c-.332-.037-.7-.056-1.134-.056h-1.595v1.954h2.212c.525 0 .913-.019 1.281-.064v1.051c-.433-.046-.765-.064-1.253-.064h-5.641c-.479 0-.876.019-1.309.064v-1.051c.396.046.792.064 1.281.064h2.368v-1.954h-1.417c-.434 0-.802.019-1.115.056v-1.014c.295.037.599.056 1.105.056h1.429v-1.696h-1.88zM59.153.325c.295-.027.663-.064 1.05-.083l.074.064c.037.313.12.737.185 1.032.433-.102.977-.258 1.419-.424.046.369.102.673.156.876l.01.055-.064.093c-.369.129-.783.248-1.281.368.073.286.156.581.276.895.313-.056.59-.13.986-.249.11-.037.147-.064.147-.176 0-.092-.019-.212-.056-.368.249.037.608.064.895.064h.119c.074 0 .12.009.147.092.065.203.13.452.13.646l-.01.092c-.027.23-.185.359-.525.479-.378.129-.894.268-1.456.405.203.489.517 1.032.894 1.503l.047.102-.047.092-.387.488c-.037.056-.083.083-.129.083l-.092-.027c-.701-.295-1.447-.434-2.378-.434-.82 0-1.217.322-1.217.673 0 .553.627.885 2.313.885.562 0 1.217-.027 1.861-.102-.092.305-.156.673-.175.968-.01.074-.027.102-.102.102-.415.037-1.022.074-1.641.074-2.479 0-3.373-.737-3.373-1.927 0-.968.729-1.622 2.498-1.622.47 0 .848.037 1.253.083l-.332-.756c-1.226.175-2.258.286-3.4.351-.074 0-.11-.027-.139-.11l-.295-.913c1.208-.037 2.359-.147 3.503-.322-.093-.286-.185-.553-.268-.848-.839.175-1.668.285-2.461.341h-.019l-.083-.083-.368-.94c.885-.036 1.751-.129 2.673-.295l-.338-1.227zM68.834 1.053c0-.305-.019-.544-.064-.766h1.189c-.037.194-.056.434-.056.766v.562h2.534c.517 0 .849-.019 1.162-.064v1.115c-.286-.036-.572-.055-1.125-.055h-3.373c-.046.69-.046.719-.074.995h2.554c.479 0 .737-.01.949-.046l-.01.092c-.019.139-.019.249-.036.646-.037 1.382-.157 2.571-.313 3.234-.212.876-.517 1.106-1.438 1.106-.322 0-.534-.01-1.244-.064-.036-.424-.11-.729-.267-1.069.534.083.958.12 1.382.12.406 0 .498-.102.618-.737.11-.554.165-1.134.202-2.313h-2.543c-.388 1.853-1.217 3.032-2.959 4.175-.23-.405-.405-.608-.746-.876.811-.507 1.207-.829 1.649-1.363.793-.949 1.105-2.019 1.152-3.898h-1.512c-.461 0-.839.019-1.152.055v-1.118c.332.046.683.064 1.152.064h2.368v-.561zM82.952 4.177l.027.073-.027.056-.249.12c-.793.276-1.566.571-2.166.848.083.534.157 1.078.193 1.631h-.239c-.23 0-.451.01-.729.028h-.027l-.064-.083c-.019-.369-.064-.83-.12-1.189-1.06.508-1.41.968-1.41 1.383 0 .305.203.47.59.507.286.027.701.046 1.171.046.719 0 1.456-.046 2.221-.138l-.046.995c0 .102-.019.129-.102.139-.654.036-1.317.073-2.073.073-.488 0-.876-.019-1.29-.064-.94-.102-1.576-.562-1.576-1.429 0-.516.185-.977.673-1.438.396-.359 1.014-.756 1.631-1.041-.083-.489-.202-.673-.562-.673-.489 0-.949.212-1.374.607-.451.434-.755.802-1.032 1.189l-.119.083-.102-.046-.665-.534-.036-.073.027-.074c.719-.792 1.438-1.705 2.056-2.765-.544.064-.903.102-1.3.12h-.046l-.093-.074c-.119-.304-.175-.636-.258-.922.691-.018 1.327-.064 2.147-.147.156-.378.286-.792.378-1.17.351.046.719.11.995.166l.083.064-.027.083c-.11.212-.222.47-.341.765.673-.064 1.198-.156 1.751-.268-.019.212-.056.471-.056.729v.147c0 .092-.037.129-.12.139-.645.11-1.253.229-2.036.304-.147.286-.351.627-.498.894.258-.11.534-.156.802-.156.719 0 1.161.387 1.383 1.226.497-.212.995-.433 1.521-.682.129-.064.313-.166.434-.259l.7.81zM90.865.647c.434 0 .71-.009.986-.046-.037.369-.046.627-.046.949v6.046c0 .471.019.793.056 1.115h-1.106v-.515h-4.313v.516h-1.105c.037-.313.056-.636.056-1.041v-6.084c0-.359-.019-.682-.047-.986.305.037.6.046 1.032.046h4.487zm-.111 2.157v-1.171h-4.313v1.171h4.313zm-4.313 2.156h4.313v-1.188h-4.313v1.188zm0 2.258h4.313v-1.29h-4.313v1.29zM95.46 1.191c0-.405-.019-.645-.056-.939h1.105c-.036.285-.055.525-.055.931v.783h.203c.258 0 .451-.009.709-.046v.986c-.268-.028-.47-.037-.709-.037h-.203v1.456c.35-.102.498-.139.931-.276l.009.885-.939.322v2.571c0 .415-.139.664-.424.766-.185.064-.461.092-.903.092l-.673-.027c-.037-.415-.083-.618-.222-.986.415.055.683.083.95.083.221 0 .276-.046.276-.249v-1.956c-.12.037-.378.102-.766.193l-.359.102-.166-1.06c.323-.019.646-.074 1.291-.222v-1.694h-.479c-.249 0-.452.009-.719.046v-1.005c.239.037.451.056.719.056h.479v-.775zm3.216.093c1.327-.203 2.488-.535 2.978-.867l.728.839c-.783.24-1.354.406-1.705.489-.756.175-.968.212-2 .35v.452c0 .295.147.341 1.134.341 1.254 0 1.521-.028 1.649-.176.12-.129.166-.331.185-.885.359.147.636.23.959.295-.056.581-.12.849-.24 1.069-.276.498-.626.581-2.451.581-1.861 0-2.222-.139-2.222-.876v-1.751c0-.396-.009-.608-.046-.875h1.079c-.037.229-.047.451-.047.819v.195zm-.958 3.769c0-.388-.01-.6-.028-.784.23.028.425.037.82.037h2.756c.434 0 .646-.009.848-.037-.027.194-.036.415-.036.802v2.737c0 .517.009.71.046.94h-1.032v-.415h-2.415v.415h-1.004c.036-.249.046-.442.046-.903v-2.792zm.958.838h2.415v-.737h-2.415v.737zm0 1.586h2.415v-.774h-2.415v.774zM108.249 2.896c-1.197 0-2.276.019-3.428.083l-.452.037-.064-.064-.064-1.069c.203.027.323.027.488.027 1.106-.009 2.24-.009 3.475-.009-.019-.581-.046-1.115-.083-1.595.351 0 .71.019 1.051.046.102.01.139.056.139.12l-.037.11c-.064.102-.073.23-.073.369 0 .285 0 .562.018.968h1.5110000000000001c.305 0 .627 0 .968.009l.498-.009.009.461-.009.626c-.848-.055-1.715-.092-2.646-.092h-.322l.019 1.383c.212.341.304.773.304 1.299 0 1.475-.875 2.627-2.221 3.097l-.11.028-.111-.074c-.129-.185-.433-.497-.875-.627 1.263-.414 2-1.022 2.248-1.852-.202.202-.47.322-.802.322-.58 0-1.234-.535-1.234-1.595 0-.903.507-1.512 1.226-1.512.258 0 .424.056.59.185l-.013-.672zm-.442 1.401c-.23 0-.36.267-.36.553 0 .332.147.553.351.553.268 0 .378-.35.378-.562-.001-.203-.111-.544-.369-.544zM118.614.389c-.037.157-.064.617-.064.949 0 1.484.239 2.461.903 3.632.387.69.802 1.18 1.456 1.751.544.479.82.673 1.429.995-.351.359-.498.581-.72 1.023-1.124-.784-1.687-1.31-2.341-2.176-.562-.746-.912-1.456-1.226-2.516-.175.737-.341 1.161-.719 1.861-.368.673-.765 1.171-1.419 1.77-.479.442-.784.664-1.429 1.061-.212-.425-.387-.655-.719-.95.939-.497 1.429-.875 2.009-1.539 1.189-1.363 1.687-2.875 1.687-5.087 0-.359-.009-.525-.037-.774h1.19zM125.948 7.91c-.148.305-.313.479-.525.479-.277 0-.425-.064-.562-.442-.286-.747-.424-1.871-.424-3.188 0-1.069.046-2.222.156-3.364l.027-.434c.305 0 .747.046 1.088.083l.064.056-.009.037c-.046.147-.064.276-.083.433-.11 1.061-.212 2.11-.222 3.143 0 .562.019 1.061.111 1.632.193-.332.378-.82.497-1.3.093.341.268.636.479.857l.046.138-.019.139c-.164.644-.385 1.234-.624 1.731zm1.898-2.166c.009.479.119.701.331.82.24.129.507.166 1.327.166.812 0 1.659-.073 2.498-.239l-.01.479.01.534v.037c0 .073-.027.092-.092.102-.683.119-1.567.193-2.562.193-1.005 0-1.566-.139-1.89-.396-.331-.268-.507-.636-.544-1.161v-.019l.074-.102.858-.414zm-.673-4.138l.313-.046c.534-.102 1.299-.166 1.907-.166.783 0 1.429.056 1.981.166l.064.064v.027c-.019.268-.055.627-.119.986-.683-.092-1.346-.139-2.019-.139-.581 0-1.272.064-1.973.176l-.154-1.068zM134.384 6.186c.637.442 1.41 1.171 1.917 1.807l-.902.83c-.479-.618-1.208-1.41-1.844-1.881l.829-.756zM146.069 5.643l-.111.064-.092-.056-.11-.156c-.471-.517-1.061-1.023-1.558-1.383v.341c0 .839.027 2.305.046 3.354 0 .194.009.369.027.554l-.626-.01-.59.01c-.074 0-.083-.028-.083-.102l.019-.434c.036-1.207.046-2.442.046-3.658 0-.978 0-1.936-.028-2.913-.009-.184-.027-.387-.055-.553.497.009.903.019 1.271.064.074.01.11.046.11.093l-.036.101c-.047.083-.074.176-.074.313-.027.7-.027 1.42-.027 2.562.185-.203.341-.415.497-.664l.074-.046.056.027.175.139c.507.378 1.105.885 1.595 1.383l.258.23c-.269.186-.618.555-.784.74zm.312-3.106c-.156-.378-.377-.746-.654-1.124l.406-.176.055-.018.102.064c.212.248.452.626.636 1.014l-.545.24zm.775-.351c-.175-.377-.405-.746-.682-1.078l.378-.175.073-.019.093.046c.221.23.479.608.673.996l-.535.23zM156.701 3.413l.036.073-.027.074c-.073.129-.138.267-.212.442-.977 2.331-2.295 3.695-4.193 4.312-.304.102-.59.147-.848.166h-.064c-.11 0-.166-.036-.212-.129-.166-.313-.488-.673-.774-.848.498-.046 1.032-.139 1.466-.286 1.465-.497 2.654-1.575 3.336-3.18l-2.156.01c-1.051 0-2.019.019-2.932.037-.073 0-.101-.028-.11-.093l-.009-.756v-.295l.414.028c.442.009.885.009 1.327.009h1.318c1.069 0 2.056-.019 3.069-.064.092 0 .147.01.193.064l.378.436zm-3.512-2.581c.691 0 1.761 0 2.442-.009.139 0 .286 0 .424-.019l-.009.608v.461c0 .073-.028.092-.093.092-.783-.027-1.936-.037-2.811-.037-.793 0-1.595 0-2.295.028-.102 0-.129-.028-.139-.083-.009-.378-.009-.737-.009-1.061l.507.019h1.983zM166.164 2.647l.046.093-.074.11c-.156.129-.295.276-.424.415-.922 1.004-2.009 2.073-3.105 3.004.331.424.608.793.848 1.161-.378.157-.71.332-1.032.498l-.092.027c-.047 0-.083-.027-.12-.092-.452-.783-1.171-1.742-1.927-2.498-.11-.11-.221-.212-.368-.304l.958-.646.065-.018.073.046c.056.092.139.184.203.239l.709.729c.83-.729 1.705-1.53 2.471-2.378l-4.83.083c-.313.009-.59.019-.829.046l-.01-1.078c0-.093.019-.129.093-.129h.037c.221.009.442.018.737.018l5.234-.027.627-.027h.046c.074 0 .11.019.147.073l.517.655zM174.731 1.542l.027.055-.064.074-.313.083c-.525.147-1.143.295-1.797.424 0 .479 0 .866-.019 1.447 1.171 0 2.12-.037 3.06-.093l-.009.535.009.571c-.258-.01-.524-.01-.792-.01l-2.305.019c-.092 1.447-.571 2.415-1.271 3.023-.368.332-.793.553-1.188.682l-.12.027c-.064 0-.11-.036-.175-.11-.23-.267-.507-.479-.83-.645.525-.139 1.051-.415 1.429-.729.608-.507.959-1.207 1.078-2.239-1.134.027-2.267.046-3.234.073-.083 0-.111-.019-.111-.11l.028-1.005.405.019c.415.01.876.01 1.373.01.498 0 1.032 0 1.595-.01l.019-1.253c-.986.156-1.65.249-2.23.295h-.027c-.102 0-.176-.046-.203-.129-.092-.268-.276-.637-.442-.849 1.649-.092 3.438-.405 4.691-.792.193-.056.378-.139.543-.203l.873.84zM178.173 5.255l-.037-.249c-.102-.525-.258-1.161-.415-1.668.313-.055.691-.11.94-.147h.027l.047.056.055.221c.129.424.259.978.378 1.613-.368.045-.7.11-.995.174zm4.922-1.686c-.065.064-.093.12-.111.23-.156 1.014-.47 1.991-.912 2.729-.387.654-1.005 1.226-1.604 1.585-.405.249-.729.387-.968.442l-.064.009c-.064 0-.11-.027-.157-.102-.156-.212-.387-.433-.7-.645.415-.093.895-.295 1.272-.517.58-.341 1.041-.783 1.373-1.29.396-.608.719-1.585.856-2.58.019-.13.028-.259.028-.396l.931.276c.083.027.12.073.12.12l-.064.139zm-2.59-.534h.019l.055.064.046.221c.129.424.249.978.351 1.586-.387.027-.673.092-.986.156-.092-.617-.212-1.161-.359-1.668l-.083-.222.957-.137zM192.493 2.316l.047.101-.019.083c-.139.259-.24.461-.351.691-.654 1.429-1.419 2.553-2.249 3.419-.765.784-1.741 1.447-2.719 1.779l-.12.027-.138-.083c-.313-.322-.617-.59-.995-.802.331-.083.645-.193.949-.322.746-.313 1.493-.802 2.083-1.373.802-.774 1.521-1.788 2.027-2.912l-2.222.064c-.599.885-1.29 1.622-1.963 2.138l-.11.046-.129-.073c-.212-.222-.59-.452-.866-.562 1.271-.977 2.202-2.129 2.802-3.346.119-.239.185-.424.23-.626.331.082.765.193 1.124.322.092.027.129.073.129.119l-.092.111c-.093.055-.139.119-.212.249-.12.221-.203.414-.323.607l1.862-.073c.258-.01.47-.019.682-.046l.064-.01.139.074.37.398zM197.365 1.569c.434-.11.83-.239 1.227-.359v.157c0 .248.018.534.046.802v.018c0 .083-.046.102-.093.12l-1.438.434c-.378 1.465-.737 2.921-1.105 4.322l-.093.451c-.387-.083-.802-.193-1.217-.304l.166-.451c.406-1.245.802-2.59 1.097-3.788-.368.11-.682.193-.985.258l-.037.009-.092-.083c-.102-.276-.176-.654-.249-.939l.304-.046c.405-.083.857-.194 1.318-.323.102-.507.156-1.004.175-1.475.415.019.729.037 1.106.083l.082.083-.009.046-.203.985zm4.166 1.917l-.11.064-.064-.009c-.249-.074-.507-.11-.774-.11-.498 0-.793.295-.793.59 0 .175.047.359.083.488.12.451.268.986.396 1.511.812.176 1.678.535 2.351.922l.073.083-.027.064c-.175.313-.332.636-.461.978-.562-.406-1.18-.737-1.76-.922v.12c0 .894-.508 1.336-1.613 1.336-1.161 0-1.898-.534-1.898-1.392 0-.729.59-1.346 1.807-1.346l.442.019c-.111-.424-.249-.903-.332-1.171-.083-.267-.12-.497-.12-.719 0-.58.359-1.022 1.097-1.234-.378-.157-.756-.277-1.069-.351.13-.193.313-.525.498-.783l.11-.064.064.009c.903.23 1.816.627 2.498 1.134l.046.073-.019.065-.425.645zm-2.931 3.337c-.553 0-.729.138-.729.341 0 .276.342.424.793.424.276 0 .461-.056.581-.185.073-.083.119-.193.119-.35l-.009-.166c-.165-.037-.396-.064-.755-.064zM212.098 3.477l-.202.488c-.406.995-.774 1.668-1.244 2.304.175.323.359.581.553.793.156.166.359.332.415.332.036 0 .073-.056.119-.176.064-.212.064-.212.176-1.078.312.313.433.405.829.618-.212 1.244-.534 1.787-1.042 1.787-.47 0-1.197-.617-1.732-1.483-.691.682-1.41 1.207-2.23 1.612-.285-.424-.387-.534-.7-.802.968-.396 1.779-.949 2.479-1.695-.388-.949-.59-2.056-.691-3.678h-2.857l-.018 1.217h1.695c.322 0 .461-.009.654-.037-.019.166-.037.425-.056.784-.092 1.658-.147 2.146-.304 2.534-.147.368-.479.507-1.188.507-.259 0-.406-.01-.701-.027-.046-.396-.101-.618-.239-.978.488.064.627.074.894.074.286 0 .369-.056.415-.286.074-.322.12-.922.139-1.668h-1.346c-.064 1.051-.147 1.687-.286 2.313-.166.737-.35 1.151-.756 1.797-.285-.368-.47-.544-.802-.783.323-.498.517-.931.636-1.456.185-.774.277-2 .277-3.641 0-.71-.01-.94-.056-1.309.332.027.71.046 1.188.046h2.673l-.027-.719c-.01-.341-.01-.378-.046-.581h1.097c-.027.194-.046.572-.046.876v.424h1.216c-.258-.341-.433-.534-.811-.848l.71-.452c.424.359.58.517.931.968l-.479.332h.276c.488 0 .737-.009.977-.056v1.015c-.304-.028-.654-.047-1.124-.047h-1.659c.083 1.208.212 2.056.424 2.756.461-.746.774-1.512.885-2.156l.984.379zM222.417 5.716l-.525.461c-.24.212-.535.424-.885.636.774.405 1.539.664 2.414.82-.221.359-.331.6-.488 1.06-1.382-.35-2.414-.848-3.317-1.604-.664-.562-1.032-1.032-1.41-1.824h-.802v2.092c.802-.175 1.207-.286 1.853-.498l.009.922c-.995.332-1.972.571-3.604.885l-.415.092-.193-1.032c.295-.009.7-.055 1.309-.165v-2.296h-.497c-.388 0-.636.009-.94.055v-.995c.193.037.534.056.959.056h.479v-2.914c0-.497-.009-.654-.036-.912.276.037.553.046 1.004.046h4.129c.535 0 .793-.009 1.069-.055v.977c-.295-.037-.507-.046-1.06-.046h-4.046v.461h3.907c.369 0 .654-.019.848-.047v.839c-.184-.027-.617-.046-.848-.046h-3.907v.452h3.907c.369 0 .673-.019.848-.047v.849c-.258-.037-.47-.047-.848-.047h-3.907v.489h4.912c.415 0 .663-.019.912-.056v.996c-.23-.036-.507-.055-.829-.055h-.866l.864.451zm-3.171-.451c.268.479.498.728.968 1.068.461-.313.978-.755 1.235-1.068h-2.203zM233.178 4.177l.027.073-.027.056-.249.12c-.793.276-1.566.571-2.166.848.083.534.157 1.078.193 1.631h-.239c-.23 0-.451.01-.729.028h-.027l-.064-.083c-.019-.369-.064-.83-.12-1.189-1.06.508-1.41.968-1.41 1.383 0 .305.203.47.59.507.286.027.701.046 1.171.046.719 0 1.456-.046 2.221-.138l-.046.995c0 .102-.019.129-.102.139-.654.036-1.317.073-2.073.073-.488 0-.876-.019-1.29-.064-.94-.102-1.576-.562-1.576-1.429 0-.516.185-.977.673-1.438.396-.359 1.014-.756 1.631-1.041-.083-.489-.202-.673-.562-.673-.489 0-.949.212-1.374.607-.451.434-.755.802-1.032 1.189l-.119.083-.102-.046-.664-.535-.036-.073.027-.074c.719-.792 1.438-1.705 2.056-2.765-.544.064-.903.102-1.3.12h-.046l-.093-.074c-.119-.304-.175-.636-.258-.922.691-.018 1.327-.064 2.147-.147.156-.378.286-.792.378-1.17.351.046.719.11.995.166l.083.064-.027.083c-.11.212-.222.47-.341.765.673-.064 1.198-.156 1.751-.268-.019.212-.056.471-.056.729v.147c0 .092-.037.129-.12.139-.645.11-1.253.229-2.036.304-.147.286-.351.627-.498.894.258-.11.534-.156.802-.156.719 0 1.161.387 1.383 1.226.497-.212.995-.433 1.521-.682.129-.064.313-.166.434-.259l.699.811zM235.284 2.417h.406c.498-.018 1.069-.073 1.705-.138 0-.442-.009-.978-.019-1.438l-.018-.406c.359 0 .69.01 1.087.047.093.009.129.046.129.101l-.036.111c-.065.092-.093.175-.093.276-.009.368-.009.792-.009 1.198.497-.056.949-.12 1.4-.203l-.009.498.009.534c-.451.092-.903.156-1.41.222l.01 1.253c.737-.304 1.465-.461 2.193-.461 1.732 0 2.691.978 2.691 2.222 0 1.345-1.005 2.156-2.359 2.156-1.032 0-1.742-.673-1.742-2.027 0-.193.055-.332.203-.406.322-.165.58-.341.819-.636-.027.166-.046.359-.046.581 0 .977.378 1.327.895 1.327.58 0 1.087-.415 1.087-1.005 0-.7-.654-1.198-1.641-1.198-.746 0-1.492.249-2.064.608 0 .737.083 1.705.203 2.498l.009.073-.064.12-.645.387-.129.037-.129-.046c-.691-.525-1.41-1.032-2-1.354l-.176.11-.073.019-.11-.056c-.139-.249-.313-.636-.388-.876.147-.064.323-.147.498-.267.525-.369 1.188-.83 1.963-1.337-.019-.461-.027-.949-.037-1.585-.599.074-1.198.129-1.695.147h-.028c-.092 0-.129-.037-.147-.11l-.24-.976zm2.193 3.686c-.332.212-.636.434-.931.673l1.005.498c-.037-.387-.055-.774-.074-1.171zm5.143-2.442l-.23-.202c-.58-.479-1.392-.978-2.036-1.263.193-.286.405-.534.636-.774l.073-.037.083.019c.719.276 1.586.783 2.203 1.318l.037.055-.028.056-.738.828zM246.736 5.56c-.064 1.151-.193 1.926-.451 2.728l-.82-.378c.258-.792.378-1.429.433-2.479l.838.129zm-1.226-1.392c.139.018.212.027.396.027l.368-.01.535-.672c-.498-.637-.59-.738-1.263-1.364l.525-.766.276.323c.35-.535.673-1.161.765-1.493l.876.359-.194.332c-.212.424-.626 1.097-.856 1.41l.387.46c.6-.866.866-1.309.995-1.612l.849.488c-.093.102-.147.193-.305.424-.516.766-1.161 1.622-1.558 2.074.544-.028.581-.028 1.051-.083-.083-.23-.119-.323-.268-.627l.691-.276c.24.47.488 1.087.729 1.797l-.774.323-.102-.434-.654.064v2.903c0 .461.019.71.056.986h-1.014c.037-.276.055-.525.055-.986v-2.82l-.866.064c-.396.027-.424.027-.599.056l-.101-.947zm3.567 1.207c.193.811.342 1.576.442 2.35l-.839.203c-.064-.71-.193-1.641-.35-2.368l.747-.185zm1.539-2.801c-.331.663-.488.922-.921 1.456-.185-.286-.396-.498-.737-.746.461-.525.848-1.18 1.087-1.834.176-.461.286-.857.332-1.162l1.032.185-.12.378c-.119.378-.156.488-.267.774h2.009c.387 0 .553-.01.756-.037-.037.295-.037.295-.046 1.604-.01 1.051-.111 2.654-.212 3.41-.147 1.06-.313 1.566-.618 1.807-.212.166-.58.239-1.18.239-.239 0-.525-.009-.856-.037-.047-.405-.111-.636-.259-1.032.471.083.885.12 1.208.12.414 0 .516-.11.626-.682.185-.895.295-2.525.295-4.442h-2.129zm.424 3.852c-.387-1.125-.571-1.539-1.05-2.341l.802-.442c.543.866.783 1.363 1.133 2.312l-.885.471zM256.962 2.021c-.332 0-.654.019-.958.055v-1.041c.285.037.516.055.977.055h2.59c0-.378-.019-.534-.064-.829h1.161c-.046.286-.064.479-.064.829h2.746c.488 0 .71-.009.986-.055v1.041c-.295-.036-.627-.055-.968-.055h-2.765v.663h1.926c.802-.009.802-.009 1.023-.037-.027.359-.037.517-.037.932v1.05c.019.756.019.756.037.94-.239-.027-.581-.046-1.023-.046h-1.373c.295.378.71.756 1.18 1.078.608.424 1.337.747 2.23 1.014-.222.295-.387.581-.553.978-.783-.313-1.364-.608-1.908-.986-.7-.488-1.069-.839-1.521-1.447l.019.636v1.032c0 .461.019.691.064.949h-1.161c.055-.304.064-.507.064-.939v-1.052l.009-.341.019-.276c-.414.534-.774.894-1.392 1.345-.534.406-1.105.729-1.871 1.051-.129-.331-.285-.59-.544-.921.885-.323 1.586-.701 2.259-1.208.368-.276.737-.645.939-.912h-1.161c-.497 0-.82.019-1.041.046.027-.258.037-.451.037-.94v-1.034c0-.46-.01-.645-.037-.949.202.028.544.037 1.014.037h1.77v-.663h-2.609zm.821 1.539v1.105h1.788v-1.105h-1.788zm2.82 1.106h1.954v-1.106h-1.954v1.106zM272.359 7.55c-.019.193-.073.276-.268.359-.939.396-2 .59-3.004.59-.959 0-1.521-.387-1.604-1.483-.047-.535-.065-1.309-.065-2.093 0-1.216.019-2.368.102-3.852l.01-.23c0-.147-.01-.286-.037-.452.378 0 .765.037 1.124.083.083.01.093.037.102.139 0 .23-.019.479-.037.783-.073 1.226-.092 2.433-.092 3.512 0 .728.009 1.446.046 1.898.037.405.157.525.683.525 1.014 0 2.073-.259 3.29-.857-.149.433-.223.811-.25 1.078zM275.574 1.735c.138.027.276.027.414.027l.452.01c.387 0 .802-.019 1.253-.037-.027-.571-.046-1.032-.083-1.429.332.01.701.037 1.051.064.064.01.102.037.102.083l-.019.064c-.027.074-.046.157-.046.295.009.176.009.434.037.849.783-.037 1.566-.111 2.193-.203-.019.23-.027.507-.027.756v.239c0 .056-.037.074-.111.093-.599.083-1.244.156-2.009.212 0 .276.019.645.056 1.014.885-.056 1.714-.147 2.571-.268v.9410000000000001c0 .083-.028.119-.093.129-.839.073-1.521.147-2.387.212l.12 1.29c.995.249 1.824.581 2.617.986l.056.083-.028.083c-.166.276-.341.617-.47.922-.654-.434-1.337-.774-2.064-1.015l.009.249c0 .415-.119.664-.322.849-.268.248-.682.35-1.271.35-1.604 0-2.351-.571-2.351-1.483 0-.737.627-1.272 1.89-1.272.322 0 .608.019.903.064l-.083-1.032c-.774.064-1.466.111-2.064.12h-.111c-.229 0-.368-.027-.47-.056-.064-.018-.102-.046-.11-.101l-.157-.94c.157.027.323.046.535.046h.129c.617-.009 1.309-.027 2.147-.083-.037-.442-.056-.728-.074-1.032-.368.019-.728.028-1.068.028-.305 0-.59-.01-.876-.019-.083 0-.139-.037-.147-.139l-.094-.949zm1.493 5.023c-.517 0-.756.165-.756.377 0 .23.378.434 1.032.434.525 0 .765-.092.765-.479l-.009-.202c-.323-.084-.682-.13-1.032-.13zM287.67 2.896c-1.198 0-2.277.019-3.429.083l-.452.037-.064-.064-.064-1.069c.203.027.322.027.488.027 1.106-.009 2.24-.009 3.475-.009-.019-.581-.046-1.115-.083-1.595.351 0 .71.019 1.051.046.102.01.139.056.139.12l-.037.11c-.064.102-.073.23-.073.369 0 .285 0 .562.018.968h1.5110000000000001c.305 0 .627 0 .968.009l.498-.009.009.461-.009.626c-.849-.055-1.715-.092-2.646-.092h-.322l.019 1.383c.212.341.304.773.304 1.299 0 1.475-.875 2.627-2.221 3.097l-.111.028-.11-.074c-.129-.185-.433-.497-.875-.627 1.263-.414 2-1.022 2.248-1.852-.202.202-.47.322-.802.322-.58 0-1.234-.535-1.234-1.595 0-.903.507-1.512 1.226-1.512.258 0 .424.056.59.185l-.012-.672zm-.443 1.401c-.229 0-.359.267-.359.553 0 .332.147.553.351.553.268 0 .378-.35.378-.562-.001-.203-.111-.544-.37-.544zM294.82 7.486c0 .691-.562 1.263-1.254 1.263-.69 0-1.263-.571-1.263-1.263 0-.682.572-1.253 1.263-1.253s1.254.571 1.254 1.253zm-2.046 0c0 .442.359.793.792.793.434 0 .793-.351.793-.793 0-.433-.359-.783-.793-.783-.433 0-.792.35-.792.783z"/></svg>