<svg xmlns="http://www.w3.org/2000/svg" width="171" height="31" viewBox="0 0 171 31">
<style>path{fill-rule:evenodd;clip-rule:evenodd;fill:url(#mg)}</style>
<linearGradient id="mg"><stop offset="0" stop-color="#6e41e1"/><stop offset="1" stop-color="#dd53ff"/></linearGradient>
<path d="M11.232 13.648c.761 1.578 1.304 2.415 2.71 3.993 1.283-1.32 1.873-1.868 3.142-2.834-1.613-1.224-2.494-2.319-3.279-4.025.733-.902 1.11-1.385 2.091-2.769l-3.155-1.03c-1.298 2.19-2.356 3.51-4.316 5.345-1.696 1.61-3.082 2.641-5.353 3.929.758.869 1.112 1.385 1.696 2.705 2.859-2.029 4.411-3.285 6.464-5.314zM25.944 10.783c.606-.805.878-1.159 1.965-2.673l-3.07-1.095c-.829 1.513-1.487 2.383-2.841 3.929-1.428 1.578-2.494 2.512-4.389 3.832.832.837 1.253 1.449 1.692 2.512 2.05-1.61 2.936-2.383 4.24-3.768 1.169 2.125 2.897 3.703 5.327 4.991.951-1.288 1.801-2.254 2.897-3.285-2.734-.934-4.555-2.318-5.821-4.443zM17.697 19.735c.454-1.449.607-1.836.956-2.641h-3.864c-.103.741-.303 1.481-.666 2.641h-8.501c-1.932 0-2.975-.064-4.029-.193l-1.15 3.671c1.135-.129 2.379-.193 4.15-.193h8.501l-1.272 4.057c-.484 1.546-.811 2.383-1.315 3.478h4.025c.152-.998.35-1.835.874-3.51l1.261-4.025h9.016c1.964 0 2.888.032 4.061.193l1.15-3.671c-1.135.129-2.25.193-4.182.193h-9.015zM30.665 6.918c1.61 0 2.781.064 3.675.193l1.14-3.639c-1.178.161-2.325.225-3.903.225h-8.887l.232-.741c.272-.869.569-1.61.93-2.351h-3.961c-.103.741-.271 1.481-.543 2.351l-.232.741h-8.211c-1.578 0-2.717-.064-3.826-.225l-1.14 3.639c1.071-.129 1.071-.129 3.892-.193h20.834zM59.295 10.815c.703-.805.923-1.095 1.938-2.383h3.22c1.578 0 2.814.064 3.781.161l1.009-3.22c-1.006.129-2.025.193-3.699.193h-.902c1.021-.998 1.789-1.803 2.965-3.091l-2.933-1.224c-1.074 1.578-2.039 2.705-3.671 4.315h-2.029l.716-2.286c.323-1.03.66-1.9.948-2.512h-3.51c-.127.612-.327 1.352-.65 2.383l-.757 2.415h-2.286l.757-2.415c.343-1.095.597-1.803.843-2.383h-3.51c-.105.644-.323 1.546-.626 2.512l-.716 2.286h-1.835c-.328-1.932-.537-2.705-1.158-4.218l-3.604 1.224c.768 1.352.993 1.868 1.251 2.995h-1.03c-1.642 0-2.653-.064-3.61-.193l-1.009 3.22c1.061-.097 2.305-.161 3.882-.161h3.478c.163.612.285 1.352.445 2.383h-3.896c-1.578 0-2.405-.032-3.276-.129l-.959 3.059c1.039-.129 1.886-.161 3.367-.161h8.05l-.484 1.546h-6.375c-1.449 0-2.373-.032-3.234-.161l-.908 2.898c.942-.129 1.918-.161 3.335-.161h6.376l-.505 1.61h-8.533c-1.739 0-2.814-.064-3.804-.193l-1.009 3.22c1.264-.129 2.443-.193 3.957-.193h5.99c-3.252 2.158-6.949 3.574-11.963 4.573.524.998.833 1.964.996 3.091 2.776-.741 5.003-1.578 7.417-2.705 2.265-1.063 3.749-1.996 5.747-3.542-.51 1.32-.551 1.449-.783 2.19l-.484 1.546c-.404 1.288-.801 2.351-1.223 3.285h3.8c.122-.902.37-1.9.794-3.252l.494-1.578c.242-.773.333-1.063.62-2.286 1.98 2.93 5.003 4.895 9.949 6.376.971-1.352 1.58-2.061 2.865-3.285-2.801-.515-4.334-.966-6.123-1.836-1.593-.773-2.77-1.642-3.572-2.576h6.473c1.481 0 2.653.064 3.804.193l1.009-3.22c-.974.129-2.121.193-3.957.193h-8.984l.505-1.61h6.73c1.417 0 2.405.032 3.266.161l.908-2.898c-.942.129-1.918.161-3.367.161h-6.73l.484-1.546h8.405c1.513 0 2.308.032 3.266.161l.959-3.059c-.964.097-1.779.129-3.357.129h-3.738zm-3.574 0h-5.313c-.029-.934-.071-1.417-.219-2.383h7.342c-.596.869-1.035 1.449-1.81 2.383zM96.444 10.235c1.546 0 2.846.064 4.19.193l1.11-3.542c-1.361.129-2.766.193-4.408.193h-6.698l.777-2.48c.535-1.707.932-2.769 1.394-3.832h-4.122c-.212 1.191-.461 2.19-.986 3.864l-.767 2.447h-5.249c.773-1.126 1.315-1.931 1.627-2.414.478-.805.488-.837.655-1.063.407-.58.407-.58.552-.837l-3.388-.902c-.421.934-.794 1.61-1.647 2.995-2.215 3.574-5.207 6.955-8.389 9.403.831.741 1.329 1.513 1.783 2.737 2.417-2.061 4.31-3.993 6.499-6.762h6.569l-1.857 5.925h-4.991c-1.771 0-2.814-.064-3.804-.193l-1.11 3.542c1.135-.129 2.443-.193 3.957-.193h4.959l-2.139 6.827h-8.276c-1.707 0-3.071-.064-4.405-.225l-1.15 3.671c1.564-.161 2.969-.225 4.643-.225h19.707c1.707 0 2.846.064 4.309.225l1.15-3.671c-1.339.161-2.711.225-4.547.225h-7.728l2.139-6.827h5.571c1.513 0 2.781.064 3.9.193l1.11-3.542c-1.103.129-2.411.193-4.021.193h-5.571l1.857-5.925h6.795zM138.649 1.637c-.664.064-1.769.097-3.057.097h-10.143c-1.288 0-2.588-.064-3.546-.193l-1.1 3.51c.91-.129 2.089-.193 3.474-.193h1.835c-1.456 3.929-3.521 5.893-7.93 7.632.879.998 1.236 1.707 1.398 2.834 5.201-2.415 7.977-5.313 9.977-10.465h4.508c-1.098 3.091-1.753 4.669-2.471 5.828-.343.58-.725.773-1.627.773s-1.837-.097-3.174-.354c.216 1.159.169 2.029-.242 3.446 1.686.064 1.815.064 2.137.064 3.381 0 4.605-.515 5.694-2.447.953-1.707 2.018-4.283 3.297-7.954.611-1.74.744-2.062.97-2.578zM115.868 18.64l-2.79.58c-.22 2.447-.729 4.895-1.686 8.05l3.013-.676c.857-3.35 1.205-5.282 1.463-7.954zM121.137 16.418c-1.191 0-1.922-.032-2.568-.129-.186.902-.416 1.739-.82 3.027l-2.412 7.696c-.404 1.288-.779 2.383-1.2 3.317h3.542l.505-1.61h7.793l-.545 1.739h3.542c.164-.934.434-1.9.888-3.349l2.432-7.761c.434-1.385.728-2.222 1.087-3.059-.707.097-1.393.129-2.745.129h-9.499zm5.828 9.145h-7.825l1.877-5.989h7.825l-1.877 5.989zM105.402 18.64c-1.606 4.508-2.679 6.698-4.4 9.21l2.758 1.063c1.969-3.51 2.832-5.442 4.378-9.757l-2.736-.516zM115.388 16.675c0 .515-.017.773-.066 1.546l2.778-1.159c-.027-3.51-.027-3.51-.495-6.537l-2.48 1.03c.162 1.127.18 1.481.231 2.447-1.157.097-1.296.129-3.613.225 1.382-1.224 3.499-3.252 4.498-4.283 2.544-2.673 3.848-4.057 3.932-4.122l-2.428-1.707c-.865 1.32-2.7 3.478-4.793 5.635-.281-.644-.448-.934-.751-1.61 1.662-1.707 2.218-2.351 4.21-4.701 1.142-1.385 1.142-1.385 1.501-1.707l-2.796-1.352c-.714 1.352-2.116 3.156-4.195 5.474l-.766-1.256-2.552 2.802c1.329 2.029 1.753 2.834 2.676 5.023-.663.676-.989.998-2.022 1.932h-.58c-1.063 0-1.568-.032-2.031-.097l-.653 3.317c.556-.129.845-.129 2.325-.225 1.018-.064 1.512-.097 2.433-.161l-3.098 9.886c-.505 1.61-.789 2.415-1.263 3.413h3.671c.142-.966.352-1.739.866-3.381l3.199-10.208c1.192-.095 1.192-.095 2.262-.224zM147.276 14.389c-1.806 5.764-3.398 8.276-6.723 10.562-1.398.966-2.396 1.481-4.75 2.415.882 1.191 1.252 1.964 1.621 3.252 3.733-1.739 6.337-3.574 8.476-6.086 2.129-2.48 3.442-5.023 5.042-9.821.434-1.385.617-1.868.966-2.673h-4.122c-.11.87-.268 1.578-.51 2.351zM162.153 4.729c-.818-1.191-1.166-1.932-1.716-3.671h-4.186c-2.111 2.318-4.222 4.122-7.049 6.054-2.997 2.061-5.61 3.413-9.232 4.798.508 1.256.626 1.803.78 3.574 3.278-1.417 6.717-3.349 9.607-5.378 2.964-2.061 4.495-3.349 7.138-5.925.944 2.641 1.798 4.025 3.587 6.022 2.063 2.254 4.006 3.864 6.46 5.281.887-1.288 1.902-2.576 3.016-3.768-3.805-1.835-6.25-3.896-8.405-6.987zM157.143 15.581l-3.37 10.755c-.444 1.417-.882 2.608-1.416 3.8h4.122c.243-1.288.521-2.383.975-3.832l3.35-10.691c.515-1.642.819-2.512 1.313-3.574h-4.09c-.172 1.062-.461 2.189-.884 3.542z"/></svg>