<svg xmlns="http://www.w3.org/2000/svg" width="128" height="20" viewBox="0 0 128 20"><path d="M14.865 15.111h2.454c.873 0 1.269.02 1.893.08v-2.6c-.582.06-1.019.08-1.893.08h-2.454v-1h2.932c.853 0 1.414.02 1.997.08v-2.761c-.603.06-1.082.08-1.997.08h-8.444c-.811 0-1.352-.02-1.872-.06v2.721c.416-.04.853-.06 1.497-.06h2.828v3.901c-.541-.32-.811-.58-1.185-1.06.146-.4.208-.6.27-.86.146-.48.25-.82.312-.96l-3.016-.64c-.229 1.96-1.04 3.681-2.35 4.981v-5.323c.457-.18.603-.22 1.248-.48v-2.78l-1.248.42v-2.04h.541c.333 0 .603.02.936.04v-2.861c-.437.06-.52.06-.936.06h-.539v-1.36c0-1.04.021-1.44.104-2.041h-3.307c.083.58.104.98.104 2.061v1.34h-.541c-.582 0-.977-.02-1.518-.1v2.941c.603-.06.998-.08 1.477-.08h.582v2.9c-1.061.28-1.664.38-2.204.42l.291 3.041.25-.06.52-.16 1.144-.3v3.301c0 .54-.104.64-.665.64-.478 0-.894-.02-1.601-.1.416 1.08.541 1.66.665 2.841.666.04.998.06 1.539.06 2.121 0 2.829-.36 3.099-1.58.936.74 1.081.88 1.872 1.78.853-.96 1.144-1.36 1.851-2.581 1.747 1.72 3.515 2.24 7.612 2.24.354 0 .915-.02 2.454-.06.166-1.18.312-1.86.686-2.921-.998.08-2.516.16-3.265.16-.79 0-1.685-.02-2.121-.06v-1.28zm1.684-6.681c.894 0 1.477.02 2.142.06-.062-.74-.083-1.22-.083-2.08v-3.321c0-.82.042-1.54.104-2.041-.582.06-1.227.1-2.017.1h-6.739c-.728 0-1.435-.04-2.08-.1.062.5.083 1.12.083 1.9v3.441c-.042 1.3-.062 2-.062 2.08.416-.019.853-.039 1.602-.039h7.05zm-5.594-5.041h4.617v.66h-4.617v-.66zm0 2.4h4.617v.66h-4.617v-.66zM33.47 13.231h5.22l-2.017 1.16c.915 1.44 1.435 2.1 2.433 3.121.832.86 1.31 1.28 2.413 2.08.749-1.12 1.248-1.72 2.184-2.661-1.206-.66-1.872-1.18-2.849-2.22-.499-.52-.749-.82-1.186-1.48h1.893c.894 0 1.331.02 1.955.1v-3.041c-.561.08-1.019.1-1.955.1h-1.144v-3.461h.603c.894 0 1.435.02 2.017.1v-3.06c-.582.08-1.123.12-2.017.12h-.603v-1.58c0-.64.021-1.14.104-1.72h-3.328c.062.48.104 1 .104 1.68v1.62h-2.163v-1.66c0-.7.021-1.14.083-1.64h-3.307c.062.58.104 1.04.104 1.62v1.68h-.166c-.811 0-1.352-.02-2.038-.1v3.041c.686-.08 1.123-.1 2.038-.1h.166v3.461h-.644c-.915 0-1.393-.02-1.955-.1v3.041c.562-.08 1.061-.1 1.955-.1h1.289c-.582.96-.894 1.36-1.601 2.101-.749.76-1.248 1.16-2.205 1.74v-11.644c.52-1.08.873-1.941 1.31-3.321.125-.38.187-.58.312-.86l-3.265-.86c-.229 1.42-.478 2.281-1.019 3.521-.749 1.74-1.643 3.141-2.725 4.201.499 1.36.728 2.12 1.061 3.681.499-.5.77-.84 1.185-1.44-.021.66-.021.8-.021 2.061v4.761c0 1.04-.042 1.64-.125 2.3h3.411c-.062-.48-.125-1.56-.125-2 .832.68 1.414 1.24 2.121 2.121 1.144-.84 1.664-1.3 2.433-2.121.894-.96 1.393-1.64 2.288-3.081l-2.224-1.161zm1.664-2.841v-3.461h2.163v3.461h-2.163zM61.203 2.728c0-.28.083-.5.229-.7.062-.1.083-.18.083-.26 0-.16-.125-.28-.437-.3-1.102-.1-2.225-.16-3.369-.2.083 1.32.104 2.701.104 4.201h-3.598v-2.32c0-.2.062-.42.166-.58.062-.1.104-.18.104-.26 0-.14-.125-.24-.333-.26-1.165-.1-2.267-.18-3.494-.24.104 1.14.125 2.32.125 3.641-1.185 0-2.163 0-3.099-.02-.291 0-.603-.02-.874-.06-.021.66-.042 1.36-.042 2.041 0 .48 0 .94.021 1.38l1.04-.06c.874-.02 1.83-.04 2.953-.04 0 1.68-.042 3.141-.083 4.601 0 .26.125.34.354.34.707-.04 1.414-.06 2.101-.06.395 0 .79.02 1.185.04-.042-.38-.083-.78-.083-1.18-.042-1.22-.042-2.461-.042-3.801l3.556.02c-.062 2.541-.499 4.021-1.289 5.201-.811 1.2-2.413 2.341-4.284 3.041.998.46 1.851 1.06 2.496 1.74.146.16.312.24.499.24.104 0 .208-.04.333-.08 1.83-.76 3.369-2.06 4.243-3.521.894-1.48 1.394-3.261 1.414-6.501 1.56 0 2.787 0 4.201.06-.021-.8-.062-1.64-.062-2.461 0-.34 0-.68.021-1-.291.04-.645.06-.936.06-1.04.04-2.038.04-3.161.04l-.042-2.742zM70.025 8.35c-.686 0-1.123-.02-1.539-.06l-.021 3.261c0 .28.042.36.333.36h.104c2.995-.1 5.574-.16 8.361-.16 2.953 0 5.865 0 8.901.08-.021-.68-.042-1.32-.042-1.98 0-.54 0-1.1.021-1.66-.894.08-1.809.1-2.725.1l-13.393.059zM107.797 2.568c-.437-.74-.873-1.4-1.373-1.94-.062-.06-.125-.1-.187-.1l-.166.04-.936.42c.499.6 1.019 1.38 1.414 2.141l1.248-.561zm-1.767.821c-.437-.82-.873-1.52-1.331-2.02-.083-.1-.146-.14-.229-.14l-.125.04-.978.4c.52.7 1.019 1.54 1.331 2.28l1.332-.56zm-11.897 9.182c3.66-1.46 7.487-3.861 10.191-6.601.291-.3.541-.5.79-.6.187-.08.312-.16.312-.28 0-.1-.104-.22-.291-.36-.998-.66-2.038-1.24-3.161-1.8-2.121 2.621-5.075 4.921-7.799 6.141v-5.161c0-.36.062-.6.187-.8.083-.1.125-.18.125-.28 0-.14-.125-.26-.395-.28l-3.452-.32c.041.38.062.78.062 1.28v11.242c0 1.86.915 2.78 2.974 2.941.957.08 2.121.1 3.536.1 2.87 0 5.74-.08 8.07-.2.25-.02.354-.12.354-.38.042-1 .146-2.061.291-3.101-3.265.32-6.51.46-9.317.46-.665 0-1.31 0-1.913-.02-.395-.02-.562-.14-.562-.54v-1.441zM124.408 2.928c-.125-.14-.229-.2-.395-.2h-.083c-.395.04-.79.08-1.206.08l-10.44.04c-.395 0-.79-.02-1.186-.04l.042 3.561c.354-.04.707-.06 1.144-.08 1.352-.06 2.828-.1 4.43-.12l4.118-.04c-1.477 3.181-4.118 5.741-7.3 7.442-1.206.64-2.641 1.22-4.014 1.58.998.72 1.768 1.48 2.454 2.38.125.16.27.26.458.26l.25-.04c.79-.22 1.685-.6 2.849-1.26 1.394-.78 2.828-1.8 4.118-2.981 1.685 1.34 3.161 2.841 4.596 4.641.104.12.187.18.27.18.083 0 .166-.04.25-.12.832-.8 1.768-1.58 2.766-2.281-.25-.22-.499-.48-.728-.74-1.477-1.6-3.057-3.001-4.846-4.281 1.144-1.48 2.35-3.501 3.307-5.441.146-.32.312-.54.478-.8.062-.08.083-.14.083-.22 0-.06-.021-.12-.104-.2l-1.311-1.32z"/></svg>