<svg xmlns="http://www.w3.org/2000/svg" width="92" height="14" viewBox="0 0 92 14">
<style>path{fill-rule:evenodd;clip-rule:evenodd;fill:url(#pn)}</style>
<linearGradient id="pn"><stop offset="0" stop-color="#004eff"/><stop offset="1" stop-color="#00a2ff"/></linearGradient>
<path d="M9.221 11c-1.066.502-2.209.736-3.161.736-2.799 0-4.484-2.099-3.788-4.736.686-2.601 3.508-4.736 6.288-4.736.933 0 2.056.341 2.763.771l.715-2.709c-.281.287-.375.359-.599.359-.205 0-1.585-.359-2.368-.359-3.937.001-7.876 2.979-8.852 6.674-.975 3.695 1.392 6.673 5.329 6.673.336 0 .728-.072 1.139-.144.411-.072.859-.144 1.27-.144.131 0 .238.018.34.054s.177.108.218.233l.706-2.672zM18.901 1.331c.081-.305.207-.502.544-.718h-2.725c.223.215.246.413.165.718l-2.116 8.019c-.635 2.404.688 4.323 3.375 4.323s5.022-1.919 5.657-4.323l2.116-8.019c.081-.305.207-.502.544-.718h-2.724c.223.215.246.413.165.718l-2.117 8.019c-.279 1.058-1.283 2.386-3.074 2.386-1.735 0-2.272-1.076-1.927-2.386l2.117-8.019zM36.683 11.09c-.394.431-.907.466-1.392.466h-3.807l2.699-10.225c.081-.305.207-.502.544-.718h-2.724c.223.215.246.413.165.718l-2.992 11.337c-.08.305-.207.502-.544.718h7.445l.606-2.296zM41.575.614l-.568 2.153c.262-.143.552-.323.832-.323h2.37l-2.699 10.225c-.081.305-.207.502-.544.718h2.724c-.223-.215-.246-.413-.165-.718l2.699-10.225h2.388c.28 0 .475.179.661.323l.568-2.153h-8.266zM56.593 1.331c.081-.305.207-.502.544-.718h-2.724c.223.215.246.413.165.718l-2.117 8.019c-.634 2.404.688 4.323 3.375 4.323 2.687 0 5.022-1.919 5.657-4.323l2.116-8.019c.08-.305.207-.502.544-.718h-2.724c.223.215.246.413.165.718l-2.117 8.019c-.279 1.058-1.283 2.386-3.074 2.386-1.735 0-2.272-1.076-1.927-2.386l2.117-8.019zM70.114 8.005c2.183.144 4.335 2.099 3.734 4.377-.099.377-.255.825-.676 1.005h3.06c-.182-.09-.251-.251-.231-.466.214-2.296-.274-5.184-3.062-5.579l.009-.036c1.736-.215 2.875-1.489 3.272-2.996.582-2.206-.684-3.982-3.073-3.982-.914 0-2.045.323-2.38.323-.317 0-.513-.036-.643-.323l-3.257 12.342c-.081.305-.207.502-.544.718h2.724c-.223-.215-.246-.413-.165-.718l1.232-4.665zm1.515-5.741h1.008c1.399 0 1.877.736 1.574 1.884-.36 1.363-1.627 2.207-2.84 2.207h-.821l1.079-4.091zM80.601 12.669c-.08.305-.207.502-.544.718h7.818l.611-2.314c-.398.448-.893.484-1.565.484h-4.011l.966-3.66h2.986c.205 0 .35.018.448.072.112.072.2.161.274.305l.696-2.637c-.287.233-.516.323-.908.323h-2.986l.928-3.516h4.012c.672 0 1.147.036 1.309.484l.611-2.314h-7.818c.223.215.246.413.165.718l-2.992 11.337z"/></svg>