<svg xmlns="http://www.w3.org/2000/svg" width="258" height="9" viewBox="0 0 258 9"><path fill="#121212" d="M8.447 4.938c-.424-.046-.848-.064-1.4-.064h-5.457c-.517 0-.996.027-1.41.064v-1.217c.396.047.811.064 1.41.064h5.456c.617 0 1.041-.018 1.4-.064v1.217zM12.056 3.251c-.019 1.41-.102 2.415-.259 3.254-.165.866-.368 1.446-.783 2.193-.258-.369-.451-.581-.773-.849.304-.562.451-.967.571-1.575.202-.959.267-1.973.267-4.157 0-.682-.009-.921-.036-1.253.322.027.645.046 1.041.046h2.295v-.203c0-.202-.019-.35-.046-.525h1.097c-.037.157-.046.305-.046.535v.193h2.285c.517 0 .839-.019 1.115-.056v.959c-.304-.027-.534-.037-.968-.037h-.71v.646h.885c.378 0 .581-.01.82-.046v.912c-.212-.027-.396-.037-.82-.037h-.885v.866c0 .23.01.424.028.581l-.6-.01h-2.562l-.646.01c.019-.157.037-.388.037-.581v-.866h-1.307zm5.797 2.47l-.175.185c-.498.58-.968 1.004-1.521 1.382.802.285 1.604.414 2.729.433-.175.342-.286.637-.387 1.042-1.549-.193-2.471-.442-3.327-.895-.959.461-1.752.691-3.152.903-.074-.35-.147-.544-.359-.949 1.161-.083 1.871-.23 2.636-.516-.516-.396-.793-.673-1.254-1.309-.322.009-.46.018-.654.036v-.865c.23.037.498.046.986.046h3.217c.378 0 .544-.009.765-.027l.496.534zm-4.488-3.299v-.646h-1.3v.646h1.3zm.792 3.576c.277.341.572.571 1.069.866.488-.286.729-.471 1.143-.866h-2.212zm1.982-3.576v-.646h-1.807v.646h1.807zm-1.806 1.465h1.807v-.636h-1.807v.636zM21.277 6.163c.637.442 1.41 1.171 1.917 1.807l-.902.829c-.479-.617-1.208-1.409-1.844-1.88l.829-.756zM30.657 7.813c0 .433.01.663.046.939h-1.114c.046-.276.055-.525.055-.958v-2.313c-.359.332-.553.479-1.022.783-.111-.35-.277-.682-.471-.958.646-.369 1.088-.719 1.585-1.244.434-.452.701-.83 1.005-1.42h-1.502c-.332 0-.525.01-.774.037v-1.023c.23.028.424.037.729.037h.461v-.774c0-.239-.019-.488-.056-.7h1.115c-.037.212-.056.415-.056.719v.756h.378c.286 0 .415-.009.535-.027l.442.479c-.083.138-.139.23-.203.387-.306.662-.48.967-.923 1.575.434.488.857.82 1.466 1.17-.222.295-.359.554-.507.903-.479-.313-.793-.58-1.189-1.041v2.673zm3.908-.433h1.105c.461 0 .766-.019 1.051-.056v1.115c-.322-.046-.682-.064-1.051-.064h-3.151c-.369 0-.72.019-1.042.064v-1.115c.295.037.617.056 1.061.056h1.004v-3.604h-.692c-.312 0-.607.019-.902.046v-1.041c.267.037.507.046.902.046h.691v-1.622c0-.378-.019-.599-.064-.959h1.152c-.056.369-.064.562-.064.959v1.622h.977c.415 0 .646-.009.903-.046v1.041c-.295-.027-.581-.046-.903-.046h-.977v3.604zM40.302 3.261c-.571.368-.829.507-1.475.792-.156-.368-.304-.627-.534-.939.995-.396 1.612-.737 2.312-1.281.608-.471 1.079-.959 1.457-1.549h1.097c.488.683.856 1.042 1.558 1.53.783.553 1.529.94 2.368 1.244-.258.396-.378.654-.507 1.032-.581-.249-.931-.434-1.576-.839v.719c-.239-.027-.479-.036-.829-.036h-3.078c-.268 0-.544.009-.793.036v-.709zm-.507 2.377c-.47 0-.783.019-1.088.056v-1.07c.305.037.654.056 1.088.056h5.742c.451 0 .773-.019 1.078-.056v1.069c-.305-.037-.618-.056-1.078-.056h-3.171c-.286.673-.571 1.217-.958 1.788 1.631-.092 1.631-.092 2.921-.23-.295-.322-.451-.488-.968-1.022l.913-.405c.985.995 1.382 1.456 2.129 2.46l-.885.581c-.305-.451-.396-.581-.554-.802-.765.102-1.317.166-1.658.202-.913.083-2.737.249-3.106.277-.516.036-.977.083-1.188.129l-.147-1.125.534.028c.064 0 .341-.01.812-.037.451-.682.737-1.217.985-1.844h-1.401zm4.369-2.663l.406-.009c-.849-.581-1.374-1.061-1.927-1.788-.488.654-1.06 1.188-1.917 1.788l.378.009h3.06zM50.54 7.887c-.148.305-.313.479-.525.479-.277 0-.425-.064-.562-.442-.286-.746-.424-1.871-.424-3.188 0-1.069.046-2.222.156-3.364l.027-.434c.305 0 .747.047 1.088.083l.064.056-.009.037c-.046.147-.064.276-.083.433-.11 1.06-.212 2.11-.222 3.143 0 .562.019 1.061.111 1.632.193-.332.378-.82.497-1.3.093.341.268.636.479.857l.046.138-.019.139c-.164.644-.385 1.234-.624 1.731zm1.898-2.166c.009.479.119.701.331.82.24.129.507.166 1.327.166.812 0 1.659-.073 2.498-.239l-.01.479.01.534v.037c0 .073-.027.092-.092.101-.683.12-1.567.194-2.562.194-1.005 0-1.566-.139-1.89-.396-.331-.268-.507-.636-.544-1.161v-.019l.074-.102.858-.414zm-.673-4.138l.313-.046c.534-.102 1.299-.166 1.907-.166.783 0 1.429.055 1.981.166l.064.064v.027c-.019.268-.055.627-.119.986-.683-.092-1.346-.139-2.019-.139-.581 0-1.272.064-1.973.176l-.154-1.068zM61.733 1.205c0-.442-.019-.673-.055-.912h1.151c-.036.267-.055.488-.055.912v2.019h1.972v-1.503c0-.304-.009-.507-.037-.728h1.106c-.036.277-.045.461-.045.802v1.834c0 .239.009.442.027.59-.203-.019-.424-.027-.645-.027h-2.378v3.022h2.276v-1.529c0-.313-.01-.554-.047-.784h1.115c-.027.24-.046.508-.046.876v1.991c0 .433.019.672.056.921h-1.078v-.48h-5.484v.479h-1.078c.037-.276.056-.553.056-.921v-1.954c0-.359-.019-.646-.046-.885h1.115c-.037.221-.047.424-.047.792v1.493h2.166v-3.022h-2.212c-.249 0-.442.009-.663.027.019-.203.027-.378.027-.59v-1.824c0-.331-.009-.58-.046-.811h1.105c-.027.203-.036.424-.036.737v1.493h1.824v-2.018zM75.526 1.749l.019.064c0 .056-.037.083-.157.083-1.041 0-1.806.221-2.488.719-.783.571-1.18 1.392-1.18 2.332 0 1.244.517 1.732 1.438 1.963.572.138 1.263.221 2.047.249-.094.331-.167.709-.205 1.032-.01.092-.056.101-.139.101-.802-.046-1.492-.138-2.165-.312-1.401-.378-2.111-1.42-2.111-2.857 0-.986.286-1.853 1.097-2.729-1.151.222-2.229.406-3.28.562l-.064.01c-.064 0-.083-.028-.102-.111l-.212-1.004h.073l.351-.028c1.493-.156 2.986-.405 4.424-.673.783-.147 1.558-.258 2.166-.304h.036c.083 0 .13.027.157.102l.295.801zM82.812 1.251l.056.11-.046.102c-.139.166-.258.369-.351.535-.451.802-.866 1.585-1.336 2.553.756.102 1.483.258 2.202.47.129-.368.222-.691.313-1.041.351.101.636.184.968.304l.083.092-.009.047c-.111.285-.23.599-.332.939.646.222.986.369 1.4.571l.056.083-.009.037c-.083.286-.222.646-.369.986-.479-.276-.949-.488-1.493-.691-.488.83-1.069 1.521-1.871 2-.073.046-.156.064-.212.064l-.129-.037c-.175-.138-.571-.312-.931-.387.885-.507 1.622-1.188 2.092-1.99-.829-.268-1.511-.415-2.276-.517-.461.793-.856 1.318-1.263 1.668-.341.295-.673.424-1.051.424-.599 0-1.124-.424-1.124-1.271 0-1.235 1.143-1.871 2.47-1.871h.359l1.272-2.497c-.913.073-1.613.129-2.286.147-.064 0-.102-.01-.11-.083l-.139-1.042c.147.019.286.019.425.019.967-.027 2.046-.11 2.995-.212l.073-.009c.074 0 .111.027.166.082l.407.415zm-4.599 4.94c0 .156.074.248.193.248.074 0 .203-.036.341-.146.212-.176.406-.415.701-.885-.857.009-1.235.35-1.235.783zM94.016 1.749l.019.064c0 .056-.037.083-.157.083-1.041 0-1.806.221-2.488.719-.783.571-1.18 1.392-1.18 2.332 0 1.244.517 1.732 1.438 1.963.572.138 1.263.221 2.047.249-.093.331-.166.709-.203 1.032-.01.092-.056.101-.139.101-.802-.046-1.492-.138-2.165-.312-1.401-.378-2.111-1.42-2.111-2.857 0-.986.286-1.853 1.097-2.729-1.151.222-2.229.406-3.28.562l-.064.01c-.064 0-.083-.028-.102-.111l-.212-1.004h.073l.351-.028c1.493-.156 2.986-.405 4.424-.673.783-.147 1.558-.258 2.166-.304h.036c.083 0 .13.027.157.102l.293.801zM97.626 8.108c-.083.147-.249.193-.442.193h-.102c-.193-.018-.322-.101-.415-.322-.258-.608-.451-1.705-.451-2.876 0-1.327.147-2.839.405-4.175.037-.166.064-.305.083-.479.322.037.729.102 1.042.175l.082.074-.009.056c-.056.129-.083.212-.12.368-.304 1.419-.451 2.986-.451 4.037 0 .479.046.949.102 1.28.175-.285.341-.654.488-1.114.092.322.258.571.488.811l.046.12-.019.092c-.164.581-.423 1.225-.727 1.76zm1.162-5.576h.286c.645 0 1.345-.027 2.055-.064-.037-.654-.073-1.254-.12-1.797h.277c.295 0 .571.009.802.036.055 0 .092.028.092.074l-.019.064-.037.239v.046c.01.396.01.82.047 1.263.59-.046 1.143-.11 1.714-.202-.037.212-.046.461-.046.7v.286c0 .064-.028.092-.074.101-.461.074-.977.111-1.558.185.056.931.093 1.815.176 2.71.626.202 1.336.544 1.926.922l.037.055-.019.056c-.129.276-.305.59-.479.866-.488-.369-.949-.636-1.438-.829v.073c0 .479-.166.71-.405.866-.286.193-.664.295-1.134.295-1.134 0-1.898-.47-1.898-1.456 0-.673.636-1.143 1.659-1.143.276 0 .479.027.69.064-.073-.885-.11-1.585-.156-2.415-.627.046-1.171.064-1.705.064h-.313c-.083 0-.12-.036-.139-.11l-.221-.949zm1.677 4.277c-.396 0-.544.129-.544.286 0 .267.359.424.802.424.378 0 .636-.111.636-.489v-.055c-.268-.111-.609-.166-.894-.166zM112.064 7.527c-.019.193-.073.276-.268.359-.939.396-2 .59-3.004.59-.959 0-1.521-.387-1.604-1.483-.047-.535-.065-1.309-.065-2.093 0-1.216.019-2.368.102-3.852l.01-.23c0-.147-.01-.286-.037-.452.378 0 .765.037 1.124.083.083.01.093.037.102.139 0 .23-.019.479-.037.783-.073 1.226-.092 2.433-.092 3.512 0 .728.009 1.446.046 1.898.037.405.157.525.683.525 1.014 0 2.073-.259 3.29-.857-.148.434-.223.811-.25 1.078zm-1.023-4.856c-.156-.369-.368-.747-.645-1.125l.396-.175.055-.019.102.064c.212.249.452.627.636 1.014l-.544.241zm.774-.351c-.175-.378-.405-.746-.682-1.078l.378-.176.073-.018.102.046c.212.23.47.608.664.995l-.535.231zM120.806 7.638c-.442.249-.902.396-1.363.452h-.083c-.139 0-.23-.046-.323-.139-.258-.258-.59-.488-.968-.636.701-.037 1.346-.203 1.825-.433.839-.415 1.263-1.033 1.263-1.705 0-.737-.525-1.383-1.483-1.604-.286.895-.71 1.77-1.208 2.351.222.166.415.295.673.434-.249.202-.47.424-.673.626l-.11.056-.073-.019c-.157-.083-.342-.212-.508-.341-.59.553-1.097.885-1.557 1.032-.185.056-.359.092-.517.092-.23 0-.442-.073-.636-.212-.322-.23-.646-.673-.646-1.529 0-1.015.525-2.102 1.668-2.812-.156-.58-.295-1.188-.405-1.77l-.064-.322c.313-.037.783-.083 1.078-.093l.064.083.019.276c.056.396.139.876.249 1.383.525-.175 1.161-.304 1.853-.313.12-.626.193-1.207.23-1.778.396.037.746.083 1.105.156.065.01.093.046.093.083l-.037.102c-.037.083-.073.175-.083.268-.064.405-.156.848-.276 1.28 1.604.396 2.322 1.393 2.322 2.664 0 1.032-.534 1.861-1.429 2.368zm-4.441-3.428c-.6.562-.913 1.244-.913 1.76 0 .258.056.461.157.562.055.064.129.102.221.102l.185-.037c.341-.12.719-.359 1.115-.71-.314-.489-.572-1.06-.765-1.677zm.921-.434c.129.488.305.894.554 1.327.322-.442.571-.949.783-1.613-.507.01-.959.12-1.337.286zM131.089 1.749l.019.064c0 .056-.037.083-.157.083-1.041 0-1.806.221-2.488.719-.783.571-1.18 1.392-1.18 2.332 0 1.244.517 1.732 1.438 1.963.572.138 1.263.221 2.047.249-.093.331-.166.709-.203 1.032-.009.092-.056.101-.139.101-.802-.046-1.493-.138-2.165-.312-1.401-.378-2.111-1.42-2.111-2.857 0-.986.286-1.853 1.097-2.729-1.151.222-2.229.406-3.28.562l-.064.01c-.064 0-.083-.028-.102-.111l-.212-1.004h.073l.351-.028c1.493-.156 2.986-.405 4.424-.673.783-.147 1.558-.258 2.166-.304h.036c.083 0 .13.027.157.102l.293.801zM133.685 6.163c.637.442 1.41 1.171 1.917 1.807l-.902.829c-.479-.617-1.208-1.409-1.844-1.88l.829-.756zM143.543 1.546c.434-.11.83-.239 1.227-.359v.157c0 .248.018.534.046.802v.019c0 .082-.046.101-.093.119l-1.438.434c-.378 1.465-.737 2.921-1.105 4.322l-.093.451c-.387-.083-.802-.193-1.216-.304l.165-.452c.406-1.244.802-2.589 1.097-3.787-.368.11-.682.193-.985.258l-.037.009-.093-.083c-.101-.276-.175-.654-.248-.939l.304-.046c.405-.083.857-.194 1.318-.323.101-.507.156-1.004.175-1.475.415.019.729.037 1.105.083.056.01.083.037.083.083l-.009.046-.203.985zm4.166 1.917l-.11.064-.064-.009c-.249-.074-.507-.11-.774-.11-.498 0-.793.295-.793.59 0 .175.047.359.083.488.12.451.268.986.396 1.512.812.175 1.678.534 2.351.921l.073.083-.027.064c-.175.313-.332.636-.461.978-.562-.406-1.18-.737-1.761-.922v.12c0 .894-.507 1.336-1.612 1.336-1.161 0-1.898-.534-1.898-1.392 0-.729.59-1.346 1.807-1.346l.442.019c-.111-.424-.249-.903-.332-1.171-.083-.267-.12-.497-.12-.719 0-.58.359-1.022 1.097-1.234-.378-.157-.756-.276-1.069-.351.13-.193.313-.525.498-.783l.11-.064.064.009c.903.23 1.816.627 2.498 1.134l.046.074-.019.064-.425.645zm-2.93 3.337c-.553 0-.729.138-.729.341 0 .276.342.424.793.424.276 0 .461-.056.581-.185.073-.083.119-.193.119-.351l-.009-.165c-.165-.037-.396-.064-.755-.064zM152.691 6.071c-.073.102-.166.166-.35.166l-.194-.019c-.239-.037-.341-.147-.479-.387-.24-.434-.369-1.171-.369-2.111 0-.866.083-1.797.258-2.728.028-.129.047-.276.056-.405.268.036.683.092 1.023.147l.083.064-.01.046c-.212 1.032-.322 1.908-.322 2.746 0 .369.019.766.055 1.097.185-.304.369-.69.517-1.124.073.276.193.516.368.756l.047.156-.019.12c-.11.453-.369 1.08-.664 1.476zm2.498 1.107c-.305.562-.812 1.087-1.364 1.428-.064.037-.129.064-.203.064-.073 0-.156-.027-.229-.092-.23-.193-.507-.359-.895-.47.691-.351 1.189-.784 1.567-1.383.405-.663.599-1.483.599-2.497 0-1.152-.046-2.259-.129-3.337l-.064-.534h.276c.276 0 .562.009.82.027.102.01.138.056.138.12l-.019.092c-.036.064-.046.129-.046.23l.01.166c.073 1.014.129 2.129.129 3.244 0 1.273-.185 2.203-.59 2.942zM162.634 2.707c-.009.093-.046.139-.129.157-.405.083-.82.138-1.29.212-.471 1.668-1.051 3.668-1.53 5.483-.387-.092-.756-.221-1.134-.351.553-1.723 1.069-3.438 1.512-5.06l-.765.019h-.24c-.064 0-.083-.019-.083-.092l.056-.995.268.027h.285l.765-.019c.111-.415.213-.829.295-1.309.028-.157.047-.313.056-.461.359.046.756.129 1.097.221l.083.065-.019.073c-.166.488-.258.876-.368 1.327.405-.037.756-.083 1.198-.156-.029.325-.048.611-.057.859zm2.028 5.696h-.092c-1.06 0-2.037-.147-2.783-.424-.093-.037-.129-.065-.129-.157.018-.156.027-.332.027-.507 0-.203-.01-.405-.027-.59.912.341 1.926.525 2.949.525.673 0 1.354-.037 1.953-.102l-.009.525.019.608c-.517.067-1.088.122-1.908.122zm1.557-4.387c-1.014-.312-2.156-.534-3.483-.58.064-.351.119-.654.212-.977.019-.056.037-.093.11-.093h.074c1.032 0 2.331.193 3.253.517l.083.083-.009.036-.24 1.014zM171.699 5.951c-.304.729-.746 1.493-1.105 1.917-.157.185-.351.276-.544.276-.203 0-.406-.101-.581-.295-.387-.442-.756-1.363-.756-2.985 0-.876.147-1.981.517-3.337.064-.221.102-.424.147-.663.368.102.792.23 1.134.387l.055.064-.019.056c-.083.138-.156.313-.202.461-.378 1.207-.535 2.341-.535 3.014 0 .737.083 1.253.212 1.558l.083.073.12-.092c.295-.415.562-.949.866-1.622.129.341.341.627.553.82.056.055.093.12.093.202l-.038.166zm4.488.498l-.064.064c-.313.074-.728.175-1.124.249-.193-1.161-.562-2.249-1.097-3.226.341-.102.7-.185.958-.23l.046-.01.111.074c.46.774.811 1.677 1.041 2.636.037.156.073.286.12.405l.009.038zM180.681 1.371c.203-.405.332-.793.424-1.217l1.161.11c-.166.442-.304.756-.47 1.106h2.138c.535 0 .793-.01 1.134-.046-.036.313-.046.562-.046 1.134v5.16c0 .544.01.774.056 1.069h-1.061v-.47h-4.553v.47h-1.041c.037-.23.055-.636.055-1.069v-5.16c0-.554-.009-.812-.046-1.134.332.036.59.046 1.125.046h1.124zm-1.207 1.982h4.553v-1.042h-4.553v1.042zm0 1.935h4.553v-1.051h-4.553v1.051zm0 2h4.553v-1.115h-4.553v1.115zM189.81 4.339c-.313 0-.544.019-.783.046v-.655c-.442.451-.673.654-1.152 1.022-.156-.312-.378-.59-.709-.902 1.143-.793 1.834-1.549 2.424-2.646.221-.405.322-.654.368-.931l1.106.396c-.093.138-.139.221-.249.47-.341.729-.885 1.548-1.484 2.239l.479.019h3.392l.571-.009c-.645-.729-1.124-1.456-1.521-2.313-.037-.092-.129-.276-.193-.387l1.023-.396c.064.239.156.433.359.802.607 1.105 1.4 1.936 2.553 2.673-.388.451-.461.553-.701.995-.507-.378-.736-.571-1.143-.968v.313c0 1.907-.156 3.364-.387 3.853-.203.405-.535.534-1.354.534-.185 0-.332-.009-.95-.037-.046-.405-.11-.626-.276-1.078.442.074.849.12 1.115.12.341 0 .442-.037.525-.176.139-.276.286-1.492.286-2.451v-.533h-1.77c-.074.958-.276 1.631-.719 2.359-.507.848-1.254 1.483-2.341 2.027-.176-.341-.323-.544-.673-.903.571-.212.949-.442 1.428-.848.646-.553 1.051-1.263 1.208-2.102.027-.156.036-.268.055-.534h-.487zM197.623 2.265l.268.019h.093c.35-.009.755-.027 1.262-.055.102-.525.222-1.015.295-1.475.028-.147.047-.286.056-.434.332.064.719.166 1.069.286.055.018.083.055.083.101l-.01.083c-.129.424-.267.903-.378 1.401.332-.019.581-.027.774-.027.434 0 .608.046.812.184.276.193.47.59.47 1.475 0 1.069-.102 2.351-.322 3.272-.259 1.041-.756 1.4-2.01 1.492h-.027c-.147 0-.212-.064-.268-.193-.138-.359-.295-.682-.516-.866.405 0 .885-.037 1.263-.138.258-.065.378-.176.442-.471.221-.977.35-2.221.35-3.456 0-.185-.036-.249-.193-.249h-.027c-.341.01-.719.028-.986.047-.396 1.409-1.014 3.631-1.456 5.336l-.074.083-.046-.01c-.295-.083-.59-.248-.829-.378-.056-.027-.093-.055-.093-.11l.01-.055c.461-1.567.94-3.235 1.373-4.82-.405.019-.885.046-1.226.046-.129 0-.175-.037-.175-.129l.016-.959zm6.332-.184l.073-.019.093.046c.58.746 1.143 1.797 1.502 2.903l.01.046-.047.064c-.341.147-.682.304-1.014.461-.027-.129-.046-.258-.092-.378-.322-.959-.82-1.927-1.401-2.729l.876-.394zm.589-.185c-.193-.313-.461-.654-.756-.959l.359-.221.064-.019.093.037c.248.221.507.525.719.848l-.479.314zm.701-.452c-.212-.322-.497-.645-.783-.903l.341-.212.093-.036.073.036c.249.203.525.498.756.82l-.48.295zM209.407 6.034c-.442 0-.756.01-.995.028.036-.268.046-.554.046-.978v-3.363c0-.507-.019-.912-.046-1.151.276.037.543.046.968.046h4.248c.424 0 .71-.009.978-.046-.028.221-.047.645-.047 1.151v3.364c0 .442.01.719.047.978-.24-.019-.6-.028-.978-.028h-.792v1.42c0 .258.083.285.802.285.709 0 .894-.037 1.004-.193.093-.129.139-.479.166-1.18.378.203.6.295.949.387-.092 1.023-.184 1.364-.414 1.586-.259.239-.654.313-1.696.313-1.53 0-1.807-.13-1.807-.82v-1.799h-.829c-.11.71-.405 1.272-.876 1.705-.58.544-1.28.866-2.341 1.106-.156-.388-.267-.581-.534-.903.866-.157 1.354-.323 1.797-.608.498-.322.766-.719.876-1.3h-.526zm.018-3.898h4.156v-.599h-4.156v.599zm0 1.484h4.156v-.618h-4.156v.618zm0 1.521h4.156v-.655h-4.156v.655zM223.78 6.983c-.931.415-2.009.654-3.051.737h-.036c-.147 0-.222-.046-.259-.11-.129-.286-.387-.646-.746-.876 1.244-.064 2.479-.312 3.41-.69.922-.369 1.271-.931 1.271-1.576 0-.922-.599-1.53-1.512-1.53-.368 0-.902.056-1.594.193-.959.185-2.093.498-3.097.766-.176.046-.359.083-.535.102h-.036c-.064 0-.093-.028-.12-.083-.12-.342-.222-.691-.305-1.032.185-.01.388-.056.59-.102 1.134-.286 2.24-.544 3.374-.756.663-.129 1.188-.193 1.77-.193 1.511 0 2.636 1.078 2.636 2.636.001 1.16-.562 1.97-1.76 2.514zM227.538 2.2l.359.019c.35-.009.755-.027 1.253-.055.11-.517.23-1.015.304-1.466.028-.147.047-.295.047-.442.341.064.719.175 1.078.295.064.019.092.046.092.102l-.019.083c-.119.414-.267.903-.387 1.4.341-.019.599-.027.802-.027.415 0 .59.046.783.185.276.184.471.58.471 1.465 0 1.069-.093 2.359-.313 3.271-.259 1.042-.756 1.41-2.019 1.493h-.027c-.139 0-.203-.055-.259-.193-.138-.359-.295-.682-.516-.856.405-.01.875-.047 1.263-.148.258-.064.378-.165.442-.46.221-.978.35-2.23.35-3.466 0-.185-.036-.249-.193-.249h-.027c-.341.01-.719.028-.986.056-.396 1.4-1.005 3.622-1.456 5.336l-.074.083-.046-.009c-.304-.093-.59-.249-.829-.378-.064-.037-.092-.056-.092-.11l.009-.064c.461-1.558.94-3.235 1.364-4.82-.396.027-.876.046-1.227.055-.119 0-.165-.046-.165-.129l.018-.971zm6.322-.175l.083-.027.092.055c.571.737 1.143 1.798 1.502 2.895l.01.046-.056.064c-.332.147-.682.304-1.005.461l-.092-.378c-.322-.959-.829-1.927-1.401-2.729l.867-.387zM241.996 7.73c-.691.313-1.53.507-2.313.562h-.027c-.102 0-.166-.046-.193-.092-.102-.23-.286-.507-.554-.737.931-.046 1.807-.23 2.507-.516.673-.277.922-.637.922-1.125 0-.691-.434-1.078-1.105-1.078-.305 0-.654.046-1.144.147-.709.156-1.566.368-2.341.571-.129.037-.268.064-.368.074h-.028c-.073 0-.11-.037-.138-.111-.074-.221-.139-.543-.193-.82.138 0 .285-.027.442-.064.848-.212 1.677-.414 2.525-.58.507-.093.912-.139 1.354-.139 1.134 0 1.972.83 1.972 2-.001.876-.425 1.502-1.318 1.908zM249.457 2.707c-.009.093-.046.139-.129.157-.405.083-.82.138-1.29.212-.471 1.668-1.051 3.668-1.53 5.483-.387-.092-.756-.221-1.134-.351.553-1.723 1.069-3.438 1.512-5.06l-.765.019h-.24c-.064 0-.083-.019-.083-.092l.056-.995.268.027h.285l.765-.019c.111-.415.213-.829.295-1.309.028-.157.047-.313.056-.461.359.046.756.129 1.097.221l.083.065-.019.073c-.166.488-.258.876-.368 1.327.405-.037.756-.083 1.198-.156-.03.325-.049.611-.057.859zm2.027 5.696h-.092c-1.06 0-2.037-.147-2.783-.424-.093-.037-.129-.065-.129-.157.018-.156.027-.332.027-.507 0-.203-.01-.405-.027-.59.912.341 1.926.525 2.949.525.673 0 1.354-.037 1.953-.102l-.009.525.019.608c-.517.067-1.088.122-1.908.122zm1.558-4.387c-1.014-.312-2.156-.534-3.483-.58.064-.351.119-.654.212-.977.019-.056.037-.093.11-.093h.074c1.032 0 2.331.193 3.253.517l.083.083-.009.036-.24 1.014zM257.618 7.463c0 .691-.562 1.263-1.254 1.263-.69 0-1.262-.571-1.262-1.263 0-.682.571-1.253 1.262-1.253.691 0 1.254.571 1.254 1.253zm-2.046 0c0 .442.359.793.792.793.434 0 .793-.351.793-.793 0-.434-.359-.783-.793-.783-.433 0-.792.349-.792.783z"/></svg>