<svg xmlns="http://www.w3.org/2000/svg" width="246" height="31" viewBox="0 0 246 31">
<style>path{fill-rule:evenodd;clip-rule:evenodd;fill:url(#nm)}</style>
<linearGradient id="nm"><stop offset="0" stop-color="#00d596"/><stop offset="1" stop-color="#12e62b"/></linearGradient>
<path d="M27.982 4.101c-.1-.193-.229-.193-.519-.193-.6.064-1.125.097-1.705.097l-15.724.031c-.612 0-1.203-.064-1.741-.097l-1.322 4.219c.535-.064 1.115-.064 1.64-.097 2.339-.064 4.42-.129 6.877-.161l7.394-.064c-4.61 6.183-9.889 10.594-16 13.653-1.945.966-4.608 1.964-6.811 2.415.851.676 1.58 1.739 2.125 2.673.113.258.243.354.501.354.064 0 .161 0 .3-.032 1.208-.258 3.008-.966 5.504-2.254 2.656-1.385 5.316-3.091 7.882-5.217 2.049 2.093 4.117 5.152 5.461 7.954.056.129.133.193.229.193.064 0 .171-.032.298-.129 1.281-.902 2.552-1.771 3.931-2.576-.221-.322-.41-.644-.621-.998-1.413-2.48-3.638-5.345-5.967-7.471 2.653-2.608 5.371-5.732 7.913-9.016.429-.547.766-.902 1.102-1.256.095-.097.147-.161.167-.225.03-.097.018-.161-.048-.258l-.866-1.545zM49.694 10.96c-.839-.612-1.877-.998-3.101-.998-1.159 0-2.216.29-3.344.805-2.575 1.127-5.245 2.351-7.458 3.349-.606.29-1.192.515-1.778.741l1.132 3.478c.046.161.123.225.251.225.097 0 .203-.032.32-.097 2.976-1.481 5.867-2.898 8.783-4.186.34-.161.596-.258.821-.258s.388.097.628.258c3.083 2.286 6.731 5.442 10.313 9.016.109.064.185.129.282.129s.213-.064.308-.161c1.033-.934 2.246-2.029 3.561-3.349-.491-.386-.949-.773-1.42-1.224-2.951-2.705-6.215-5.442-9.298-7.728zM58.68 4.068c-1.449 0-2.972 1.159-3.426 2.608-.454 1.449.342 2.608 1.791 2.608 1.449 0 2.972-1.159 3.426-2.608.454-1.448-.342-2.608-1.791-2.608zm.567 2.609c-.242.773-1.046 1.385-1.819 1.385-.773 0-1.193-.612-.951-1.385.242-.773 1.046-1.385 1.819-1.385s1.193.612.951 1.385zM67.053 24.001c-.717.129-1.423.225-2.28.29l.59 3.768c.014.161.123.225.284.225l.203-.032c4.32-.837 8.791-2.158 13.242-3.929 4.995-1.964 8.992-3.929 12.965-6.537.201-.129.348-.29.409-.483l.057-.386c-.021-1.063.195-2.576.535-3.864-4.668 3.285-9.482 5.7-14.062 7.471-4.358 1.674-8.169 2.737-11.943 3.477zM83.472 9.833c1.213-1.095 2.628-2.222 3.887-3.156-1.27-1.803-2.944-3.349-4.51-4.412l-.752-.58-.173-.064c-.097 0-.213.064-.33.129-1.13.934-2.29 1.964-3.323 2.898 1.88 1.192 3.623 3.027 5.201 5.185zM75.584 17.432c1.096-1.03 2.363-2.093 3.8-3.188-1.486-1.835-3.032-3.478-4.691-4.862-.197-.193-.382-.322-.547-.515-.044-.064-.131-.097-.195-.097-.097 0-.213.064-.34.161l-3.462 2.93c1.862 1.353 3.803 3.381 5.435 5.571zM121.916 12.312c-.076-.064-.131-.097-.227-.097l-.236.032c-.352.097-.801.193-1.208.258l-8.438 1.546.746-3.51.081-.258c.071-.225.163-.419.321-.612.105-.129.167-.225.208-.354.061-.193-.028-.322-.35-.322l-3.273.065c-.309 1.707-.671 3.478-1.071 5.474l-5.082.805c-.513.097-.952.161-1.435.161l-.454 3.091c-.018.161-.016.258.145.258.064 0 .161 0 .268-.032.139-.032.459-.129.94-.225l4.908-.966c-.695 3.349-1.374 6.44-2.065 9.467-.198.837-.396 1.674-.636 2.544 1.059-.193 2.226-.322 3.287-.419.258 0 .374-.064.455-.322l.03-.097c.689-3.639 1.438-7.567 2.278-11.689l6.482-1.159c-1.767 1.835-3.903 3.413-6.11 4.701.769.322 1.511.934 1.941 1.513.088.129.197.193.326.193s.278-.064.437-.161c2.406-1.513 5.212-3.993 7.587-6.537.441-.483.83-.902 1.166-1.256.137-.129.189-.193.209-.258.02-.064.008-.129-.068-.193l-1.162-1.641zM152.908 16.788c-2.914 1.9-5.729 3.381-8.475 4.54l4.723-15.07c.192-.612.399-.966.768-1.32.147-.161.262-.322.302-.451.05-.161-.006-.29-.253-.322l-4.172-.354c-.404 1.803-.858 3.252-1.393 4.959-1.493 4.766-2.777 8.759-4.113 12.816-.202.644-.498 1.385-.783 2.19l-.04.129c-.071.225-.036.322.138.483l1.379 1.352c.121.129.261.193.423.193.129 0 .268-.032.449-.097 4.318-1.449 9.622-4.09 13.686-6.988.127-.097.222-.193.252-.29.03-.097.038-.225.014-.354-.053-1.063.119-2.641.513-3.896-1.162.934-2.284 1.739-3.418 2.48zM141.467 7.16c.141-.451.347-.902.82-1.385.137-.129.209-.258.25-.386.061-.193-.018-.354-.33-.386l-4.097-.386c-.388 1.546-.727 2.834-1.03 3.8-1.675 5.345-2.821 8.179-4.439 10.465-1.598 2.222-3.976 4.057-6.885 5.12 1.344.644 2.11 1.385 2.651 2.125.111.161.273.258.467.258.129 0 .31-.064.491-.129 2.406-.998 5.202-3.446 7.15-6.376 1.417-2.158 2.371-4.379 4.005-9.596.293-.934.616-1.965.947-3.124zM173.336 10.895c-.175-.161-.382-.322-.493-.483-.044-.064-.099-.097-.163-.097s-.181.064-.276.161c-.852.869-1.599 1.61-2.465 2.319.422-1.449.826-2.737 1.179-3.864.616-1.964 1.142-3.542 1.691-5.088.184-.483.349-.805.601-1.095.147-.161.21-.258.24-.354.061-.193-.038-.29-.253-.322-1.27-.161-2.677-.193-4.405-.225-.085.58-.21 1.288-.38 1.932-.973 3.413-2.022 6.762-3.092 10.176-1.332 4.251-2.749 8.566-4.199 12.784-.182.58-.375 1.095-.539 1.514-.081.258-.047.354.211.354.622-.032 1.33-.032 2.039-.032.741 0 1.514 0 2.212.032.137-.644.265-1.256.477-1.932.933-3.285 2.261-7.728 3.199-10.723.272-.869.505-1.61.718-2.19 1.345 1.256 2.819 3.027 3.896 4.83.1.193.179.354.247.547.056.129.133.193.261.193.097 0 .246-.064.425-.225.781-.644 2.441-1.932 3.544-2.576-.241-.258-.45-.515-.649-.805-1.163-1.739-2.701-3.511-4.026-4.831zM188.967 13.214c-.612 0-.956-.032-1.419-.097l-1.318 3.896c-.091.29.008.386.298.386 3.744-.129 8.165-.161 13.177-.225h2.222c3.639 0 6.871.064 10.469.193.139-.547.321-1.127.513-1.739.262-.837.567-1.707.882-2.608-1.501.064-3.164.129-4.774.129l-20.05.065zM245.86 7.482l-.854-1.385c-.111-.161-.177-.258-.402-.258l-.235.032c-.771.097-1.522.129-2.433.161l-6.586.258c.63-.676 1.132-1.352 1.793-2.125.399-.451.63-.676 1.013-.869.266-.129.403-.258.443-.386.05-.161-.028-.322-.32-.419-1.115-.451-2.507-.837-3.575-1.127-.383.708-.81 1.352-1.491 2.19-3.425 4.251-7.939 8.276-13.452 11.689.845.386 1.913 1.191 2.411 1.964.111.161.209.258.37.258.129 0 .278-.064.437-.161 2.916-1.803 6.138-4.379 9.2-7.471l7.831-.225c-3.002 3.929-6.624 7.471-10.273 10.176-2.686 1.996-5.83 3.703-8.781 4.798-1.204.451-2.42.837-3.67 1.127 1.088.741 1.858 1.674 2.6 2.802.133.193.231.29.392.29.129 0 .268-.032.449-.097 3.777-1.159 7.916-3.478 11.447-6.215 3.847-3.027 7.751-6.956 11.601-11.947.639-.805 1.215-1.513 1.98-2.415l.155-.29c.041-.13.006-.226-.05-.355z"/></svg>