<svg xmlns="http://www.w3.org/2000/svg" width="88" height="14" viewBox="0 0 88 14">
<style>path{fill-rule:evenodd;clip-rule:evenodd;fill:url(#mr)}</style>
<linearGradient id="mr"><stop offset="0" stop-color="#f44"/><stop offset="1" stop-color="#ff6c00"/></linearGradient>
<path d="M7.313 13.673h.037l5.645-7.463h.037l-.509 6.243c-.014.125-.006.305-.044.448-.043.161-.197.395-.464.484h3.023c-.279-.143-.334-.359-.324-.61l.636-12.45h-.037l-6.794 9.133h-.018l-1.882-9.131h-.037l-5.935 12.45c-.123.25-.292.466-.647.609h2.911c-.219-.09-.279-.287-.236-.448.047-.179.094-.287.137-.377l2.87-6.35h.037l1.594 7.462zM20.025 12.669c-.08.305-.207.502-.544.718h7.818l.611-2.314c-.398.448-.893.484-1.565.484h-4.012l.966-3.66h2.986c.205 0 .35.018.448.072.112.072.2.161.274.305l.696-2.637c-.286.233-.515.323-.907.323h-2.986l.928-3.516h4.012c.672 0 1.147.036 1.309.484l.611-2.314h-7.818c.223.215.246.413.165.718l-2.992 11.337zM38.624 13.673h.037l5.646-7.463h.037l-.509 6.243c-.014.125-.006.305-.044.448-.043.161-.197.395-.464.484h3.023c-.279-.143-.334-.359-.324-.61l.636-12.45h-.037l-6.795 9.133h-.019l-1.881-9.131h-.037l-5.936 12.45c-.122.251-.291.466-.646.61h2.911c-.219-.09-.279-.287-.236-.448.047-.179.094-.287.137-.377l2.87-6.35h.037l1.594 7.461zM54.188 13.386c2.911 0 5.851-1.381 6.646-4.395.336-1.274.029-2.655-1.309-2.96l.01-.036c.958-.377 1.446-1.166 1.668-2.009.615-2.332-1.311-3.659-3.587-3.659-.392 0-.84.072-1.251.144-.429.072-.822.143-1.12.143-.261 0-.508-.054-.661-.251l-3.248 12.306c-.08.305-.207.502-.544.718h3.396zm1.937-11.229h1.138c1.362 0 2.232.664 1.877 2.009-.402 1.525-1.809 2.045-3.246 2.189 1.73.09 3.3.646 2.789 2.583-.436 1.65-1.894 2.511-3.555 2.511h-1.456l2.453-9.292zM65.442 12.669c-.08.305-.207.502-.544.718h7.819l.611-2.314c-.398.448-.893.484-1.565.484h-4.012l.966-3.66h2.986c.205 0 .35.018.448.072.112.072.2.161.274.305l.696-2.637c-.287.233-.516.323-.907.323h-2.986l.928-3.516h4.012c.672 0 1.147.036 1.309.484l.611-2.314h-7.818c.223.215.246.413.165.718l-2.993 11.337zM81.75 8.005c2.183.144 4.335 2.099 3.734 4.377-.1.377-.255.825-.676 1.005h3.06c-.182-.09-.251-.251-.231-.466.214-2.296-.274-5.184-3.062-5.579l.009-.036c1.736-.215 2.875-1.489 3.272-2.996.582-2.206-.684-3.982-3.073-3.982-.914 0-2.045.323-2.38.323-.317 0-.513-.036-.643-.323l-3.257 12.342c-.08.305-.207.502-.544.718h2.724c-.223-.215-.246-.413-.165-.718l1.232-4.665zm1.515-5.741h1.008c1.399 0 1.877.736 1.574 1.884-.36 1.363-1.627 2.207-2.84 2.207h-.821l1.079-4.091z"/></svg>