<svg xmlns="http://www.w3.org/2000/svg" width="377" height="109" viewBox="0 0 377 109">
<style>path{fill-rule:evenodd;clip-rule:evenodd;fill:url(#ei)}</style>
<linearGradient id="ei"><stop offset="0" stop-color="#ff9c00"/><stop offset="1" stop-color="#ffd200"/></linearGradient>
<path d="M1.726 34.359c.008 2.823.248 4.11 1.052 5.497 1.815 3.219 5.311 4.705 11.105 4.705 5.299 0 9.893-1.387 13.438-4.011 2.406-1.832 4.398-4.556 5.235-7.23.915-2.922.823-5.002-.237-6.834-1.128-1.931-2.697-2.773-6.042-3.318 2.842-.693 4.055-1.09 5.408-1.931 2.626-1.585 4.766-4.308 5.696-7.28 2.016-6.438-2.03-10.598-10.3-10.598-3.962 0-7.46.891-10.559 2.724-2.855 1.684-4.536 3.417-6.922 7.082l6.709 1.188c1.23-2.03 1.989-2.872 3.274-3.813 1.499-.99 3.452-1.535 5.878-1.535 4.209 0 5.932 1.931 4.862 5.348-1.194 3.813-4.829 6.091-9.781 6.091-2.129 0-3.203-.049-4.726-.248l-1.923 6.141c1.746-.198 3.197-.248 5.376-.248 2.179 0 4.351.495 5.323 1.189 1.457 1.04 1.858 2.922 1.145 5.2-1.225 3.912-5.136 6.438-10.038 6.438-2.377 0-4.156-.644-5.387-1.931-.928-.99-1.141-1.733-1.056-4.061l-7.53 1.435zM51.654 30.595h-2.526c-2.228 0-3.782-.099-5.305-.297l-1.768 5.645c1.696-.198 3.312-.297 5.491-.297h16.639l-1.907 6.091c-.822 2.625-1.34 3.962-1.987 5.398h6.041c.202-1.436.571-2.773 1.362-5.299l1.938-6.19h11.489c2.129 0 3.832.099 5.305.297l1.768-5.645c-1.597.198-3.213.297-5.491.297h-11.488l2.512-8.022h8.121c2.129 0 3.451.049 4.89.198l1.644-5.249c-1.548.198-2.9.248-5.178.248h-7.973l2.016-6.438h10.102c2.229 0 3.5.049 4.974.248l1.69-5.398c-1.548.198-2.801.248-5.129.248h-23.175c1.496-1.931 2.317-2.971 2.413-3.12.579-.743.725-.891 1.208-1.486l-5.521-1.189c-.459.99-1.131 2.03-2.32 3.615-3.55 4.853-7.149 8.121-13.549 12.43 1.172 1.634 1.515 2.278 2.285 4.407 4.069-2.872 7.395-5.744 11.226-9.756h10.349l-2.016 6.438h-10.795c-1.337 0-2.411-.049-3.42-.149-.227 1.04-.41 1.783-.751 2.872l-3.164 10.103zm5.2 0l2.512-8.022h8.914l-2.512 8.022h-8.914zM129.545 26.733c.605-1.931 1.042-3.169 1.544-4.457-1.483.149-2.588.198-4.667.198h-11.043c-2.03 0-3.154-.049-4.543-.198-.32 1.337-.704 2.724-1.247 4.457l-3.784 12.083c-.558 1.783-1.327 3.764-1.897 4.952h5.249l.868-2.773h10.498c.396 0 1.337 0 2.758.049.123 1.981.091 2.872-.31 5.101 2.479.149 2.677.149 3.37.149 3.07 0 4.603-.149 5.782-.594 2.015-.743 3.013-2.03 3.943-5.002l10.157-32.436c.775-2.476 1.213-3.714 1.919-5.497-1.433.149-2.687.198-5.163.198h-9.508c-2.526 0-3.699-.049-4.989-.198-.382 1.535-.766 2.922-1.294 4.605l-2.372 7.577c-.667 2.129-1.011 3.07-1.56 4.506 1.269-.099 2.869-.149 4.602-.149h9.756l-6.482 20.7c-.31.99-.864 1.337-2.251 1.337-.891 0-2.628-.149-3.686-.248.304-1.287.611-2.426 1.201-4.308l3.149-10.052zm2.671-19.759h9.26l-.775 2.476h-9.26l.775-2.476zm-1.876 5.992h9.26l-.791 2.526h-9.26l.791-2.526zm-15.818 13.667h10.102l-.93 2.971h-10.102l.93-2.971zm-2.187 6.983h10.102l-1.008 3.219h-10.102l1.008-3.219zm-5.868-14.312h8.963c1.733 0 3.253.05 4.509.149.242-1.09.549-2.228 1.263-4.506l2.372-7.577c.605-1.931.995-3.021 1.591-4.605-1.384.149-2.538.198-5.113.198h-8.765c-2.427 0-3.699-.049-5.039-.198-.348 1.585-.732 2.971-1.539 5.546l-10.125 32.337c-.961 3.07-1.557 4.655-2.22 6.141h5.794c.221-1.337.68-3.12 1.61-6.091l6.699-21.394zm3.861-12.33h8.518l-.776 2.476h-8.518l.776-2.476zm-1.876 5.992h8.517l-.791 2.526h-8.518l.792-2.526zM193.284 17.769c-.646-1.733-1.62-3.367-2.616-4.457-.053-.148-.186-.198-.334-.198s-.313.05-.557.198l-2.173 1.09c1.085 1.436 2.062 3.219 2.56 4.952l3.12-1.585zm-4.492 2.328c-.596-1.733-1.456-3.417-2.371-4.606-.152-.149-.269-.248-.418-.248-.099 0-.263.05-.443.149l-2.238 1.139c1.023 1.634 1.886 3.466 2.333 5.2l3.137-1.634zm4.643-15.302c-.009-.446-.26-.594-.854-.594-3.362.297-7.692.842-12.149 1.634-8.175 1.436-16.632 2.823-24.917 3.664-.823.099-1.631.149-2.324.149l-.551 5.398c-.04.446.012.594.359.594.099 0 .198 0 .362-.05 5.909-.842 12.013-1.832 18.591-3.07-5.846 4.754-8.839 9.409-10.498 14.708-2.419 7.725-.358 13.321 6.549 15.302 3.305.99 6.848 1.535 11.095 1.733.446 0 .709-.049.913-.545.741-1.733 1.773-3.764 2.842-5.596-4.163-.149-7.737-.594-10.575-1.337-4.58-1.188-6.531-3.813-4.438-10.498 1.582-5.051 5.107-9.508 10.262-12.529 4.502-2.674 9-3.912 14.596-3.912.644 0 .888-.149.966-.396.031-.099.012-.198.01-.347l-.239-4.308zM222.679 40.202c-.248.792-.855.99-3.38.99-1.733 0-2.51-.049-5.49-.495.141 2.08.075 3.714-.353 5.398 4.262.149 4.262.149 5.351.149 5.546 0 7.621-1.089 8.722-4.605l4.311-13.767c2.929-2.08 5.286-3.912 7.655-5.943 1.638-1.436 2.158-1.832 3.183-2.575l-2.505-3.863c-1.372 1.535-3.286 3.219-6.225 5.645l3.287-10.498c.744-2.377 1.29-3.962 1.938-5.398-1.384.149-2.637.198-5.361.198h-9.161c.985-1.089 2.066-2.327 3.565-4.11l-5.561-.743c-1.168 1.832-2.357 3.417-3.748 4.853h-3.962c-2.625 0-3.798-.049-5.286-.198-.348 1.585-.686 2.823-1.29 4.754l-5.551 17.729c-4.618.198-4.618.198-5.163.198-.495 0-.975-.05-1.554-.099l-.916 5.299c.938-.149 1.597-.198 3.228-.347 8.571-.644 10.202-.792 20.939-2.03-9.109 5.051-17.331 8.22-27.974 10.894.742 1.585 1.081 2.872 1.287 4.903 11.308-3.219 22.336-8.072 32.495-14.262l-2.481 7.923zm-11.183-23.275h18.471l-.899 2.872h-18.471l.899-2.872zm19.774-4.159h-18.471l.868-2.773h18.471l-.868 2.773zm-21.976 11.191h18.471l-.589 1.882c-8.137.842-8.137.842-18.967 1.585l1.085-3.467zM266.794 14.204c3.95-.594 7.772-.941 10.892-.941 3.615 0 7.103.248 10.612.743.951-1.931 1.754-3.863 2.303-5.299l.047-.149c.062-.198-.006-.297-.238-.347-2.785-.594-6.159-.891-10.368-.891-3.268 0-7.487.347-10.53.891-.477.099-1.136.148-1.761.248l-.957 5.745zm-7.694 18.719c-.344.148-.489.297-.567.545l-.031.099c-.686 2.823-.365 4.804.968 6.24 1.299 1.387 4.087 2.129 9.485 2.129 5.348 0 10.226-.396 14.092-1.04.362-.049.542-.149.666-.545l.062-.198c.214-.842.509-1.783.85-2.872.264-.842.527-1.684.856-2.575-4.785.891-9.465 1.288-13.823 1.288-4.407 0-5.781-.198-6.852-.891-.937-.644-1.159-1.832-.403-4.407l-5.303 2.227zm-2.259.099c.143-.297.27-.545.332-.743.109-.347.121-.545-.015-.743-.767-1.188-1.212-2.773-1.133-4.605-1.45 2.575-3.262 5.2-4.861 6.982.466-3.07 1.205-5.744 2.15-8.765 1.786-5.546 4.099-11.192 6.476-16.887.363-.842.679-1.535 1.174-2.327l.112-.198c.047-.148-.021-.248-.254-.297-1.77-.198-4.07-.446-5.704-.446-.282.743-.58 1.535-.877 2.327-2.517 6.141-4.703 12.331-6.502 18.075-2.217 7.081-3.367 13.123-3.087 17.134.107 2.03.791 2.377 2.277 2.377 1.139 0 2.325-.941 3.629-2.575 2.125-2.674 4.306-5.843 6.283-9.309zM337.596 23.959c2.621-8.369-1.607-14.163-9.728-14.163-3.12 0-6.051.347-9.834 1.04-6.448 1.139-12.824 2.526-19.396 4.061-1.167.248-2.334.495-3.34.545-.128 1.832-.173 3.714-.103 5.546.055.297.158.446.504.446h.198c.972-.099 2.024-.297 3.043-.545 5.847-1.436 12.466-3.12 17.926-4.11 3.947-.743 6.912-1.04 8.893-1.04 4.903 0 7.098 3.268 5.547 8.22-1.085 3.467-3.913 6.487-9.485 8.468-5.637 2.03-12.692 3.367-19.486 3.714 1.544 1.238 2.326 3.169 2.538 4.705.089.347.408.594 1.201.594h.198c5.735-.446 11.933-1.733 17.632-3.962 7.353-2.921 11.738-7.279 13.692-13.519zM368.385 42.728l-.884-1.288c-4.288-7.181-9.491-13.024-14.765-17.53-.436-.347-.606-.594-.498-.941.078-.248.384-.594.954-.99 6.41-4.655 13.213-9.458 20.969-14.46.929-.594 1.759-1.189 2.363-1.535.18-.099.325-.248.372-.396.031-.099.028-.248-.09-.347-1.182-1.287-2.864-2.872-4.318-3.764-.663.693-1.654 1.486-2.58 2.229-6.763 5.15-14.151 10.399-20.632 14.807-2.963 2.03-4.125 3.367-4.621 4.952-.605 1.931.035 3.367 2.497 5.15 5.043 3.665 10.909 11.34 13.599 16.193.309.594.535 1.139.711 1.684 2.121-1.239 4.471-2.576 6.923-3.764zM34.911 75.731c-.299-2.525-.685-3.664-1.538-5.051-1.617-2.427-4.73-3.714-8.989-3.714-5.2 0-9.751 1.882-13.928 5.893-3.58 3.367-6.929 9.161-8.852 15.302-2.326 7.428-2.107 13.371.565 16.54 1.775 2.08 5.068 3.268 9.029 3.268 8.419 0 16.082-5.497 18.548-13.371.915-2.922 1.111-5.447.543-7.428-1.031-3.664-4.608-5.843-9.659-5.843-5.002 0-8.342 1.337-12.133 4.903 1.426-3.764 2.715-6.141 4.759-8.716 2.754-3.417 5.871-5.15 9.387-5.15s4.914 1.387 5.07 5.002l7.198-1.635zm-17.11 10.993c4.903 0 6.925 2.872 5.39 7.775-.527 1.684-1.435 3.318-2.535 4.457-2.069 2.179-4.998 3.466-7.87 3.466-4.853 0-7.346-3.268-5.919-7.824 1.411-4.506 6.081-7.874 10.934-7.874zM84.176 87.368c2.621-8.369-1.607-14.163-9.728-14.163-3.12 0-6.051.347-9.834 1.04-6.448 1.139-12.824 2.526-19.396 4.061-1.167.248-2.334.495-3.34.545-.128 1.832-.173 3.714-.103 5.546.056.297.158.446.504.446h.198c.972-.099 2.024-.297 3.043-.545 5.847-1.436 12.466-3.12 17.926-4.11 3.947-.743 6.912-1.04 8.893-1.04 4.903 0 7.098 3.268 5.547 8.22-1.085 3.466-3.913 6.487-9.485 8.468-5.637 2.03-12.692 3.367-19.486 3.714 1.544 1.238 2.326 3.169 2.538 4.704.089.347.408.594 1.2.594h.198c5.735-.446 11.932-1.733 17.632-3.962 7.353-2.92 11.739-7.278 13.693-13.518zM136.488 88.804c2.931-9.359-1.359-19.065-15.027-19.065s-25.741 8.666-29.261 19.907c-2.186 6.982-.688 11.687 2.235 14.212 1.058.891 2.19 1.387 3.428 1.387 1.436 0 3.009-.594 4.768-1.783 6.988-4.605 14.088-13.519 19.455-28.128 8.294 1.188 10.262 7.081 8.308 13.321-1.706 5.447-5.202 8.864-10.766 11.291-2.635 1.139-6.015 2.129-9.305 2.674 1.6.743 2.772 2.377 3.158 3.516.173.396.458.594.953.594.149 0 .297 0 .511-.05 2.585-.347 6.074-1.684 8.492-2.922 6.616-3.415 11.082-8.665 13.051-14.954zm-20.805-13.42c-3.594 11.637-8.672 18.521-14.335 22.532-.7.495-1.272.743-1.768.743-.545 0-.913-.248-1.203-.743-1.129-1.931-1.251-4.704-.026-8.617 1.985-6.338 8.182-12.528 17.332-13.915zM182.161 70.481c-.154-.297-.353-.297-.798-.297-.922.099-1.73.148-2.622.148l-24.182.05c-.941 0-1.851-.099-2.677-.149l-2.031 6.487c.823-.099 1.715-.099 2.523-.148 3.596-.099 6.797-.198 10.576-.248l11.371-.099c-7.088 9.508-15.204 16.292-24.6 20.997-2.991 1.486-7.086 3.021-10.473 3.714 1.309 1.04 2.431 2.674 3.269 4.11.173.396.374.545.77.545.099 0 .248 0 .461-.049 1.857-.396 4.625-1.486 8.464-3.466 4.084-2.129 8.174-4.754 12.119-8.022 3.152 3.219 6.334 7.923 8.401 12.232.087.198.204.297.353.297.099 0 .263-.049.458-.198 1.969-1.387 3.923-2.724 6.044-3.962-.34-.495-.631-.99-.955-1.535-2.173-3.813-5.597-8.22-9.179-11.489 4.079-4.011 8.257-8.815 12.166-13.866.66-.842 1.177-1.386 1.694-1.931.146-.149.226-.248.257-.347.046-.149.028-.248-.074-.396l-1.335-2.378zM213.702 80.683c3.711-.149 6.945-.198 9.833-.248.891 0 1.733 0 2.56.049l1.434-5.843c-3.711.149-7.654.248-12.588.347l1.13-5.348c.059-.347.152-.644.23-.891.14-.446.298-.792.635-1.238.176-.248.273-.396.335-.594.124-.396-.062-.594-.557-.594l-5.846-.149c-.348 2.377-.811 4.803-1.767 8.963-3.977.049-7.063.099-9.985.099h-.99c-.297 0-.644 0-.925-.049l-1.226 5.497c-.09.446.062.594.359.594h.149c.724-.099 1.483-.148 2.389-.198 2.442-.05 5.642-.149 9.041-.248l-1.738 7.923c-4.587.099-8.679.198-12.541.198h-2.476c-.891 0-1.866-.049-2.643-.099l-1.434 5.843c-.059.347-.022.545.275.545h.149c5.243-.297 10.783-.594 17.515-.743-.922 4.209-1.667 7.379-2.365 10.399-.273 1.188-.531 2.327-.903 3.516l6.382-.297c.174-1.188.398-2.377.668-3.714.63-3.12 1.258-6.388 2.089-10.152 4.983-.099 9.784-.248 14.337-.396h1.288c.446 0 .891 0 1.272.05.385-2.179.885-4.407 1.35-5.893-5.342.297-11.084.446-17.122.594l1.686-7.923zM265.547 73.799c.295-.941.614-1.486 1.181-2.03.226-.248.403-.495.465-.693.077-.248-.009-.446-.39-.495l-6.416-.545c-.621 2.773-1.319 5.002-2.14 7.626-2.295 7.329-4.267 13.47-6.32 19.709-.31.99-.766 2.129-1.203 3.367l-.062.198c-.108.347-.056.495.213.743l2.122 2.08c.186.198.402.297.65.297.198 0 .412-.049.69-.149 6.64-2.228 14.795-6.289 21.044-10.746.195-.149.341-.297.387-.446.046-.149.059-.347.022-.545-.083-1.634.182-4.061.787-5.992-1.787 1.436-3.512 2.674-5.255 3.813-4.48 2.922-8.809 5.2-13.032 6.982l7.257-23.174zm-16.987-2.525c-.596 2.377-1.117 4.358-1.582 5.843-2.574 8.22-4.335 12.578-6.822 16.094-2.457 3.417-6.114 6.24-10.587 7.874 2.067.99 3.245 2.129 4.077 3.268.17.248.421.396.718.396.198 0 .477-.099.755-.198 3.699-1.535 7.998-5.299 10.994-9.805 2.178-3.318 3.644-6.735 6.156-14.757.45-1.436.946-3.021 1.455-4.804.217-.693.533-1.387 1.261-2.129.21-.198.322-.396.384-.594.093-.297-.027-.545-.507-.594l-6.302-.594z"/></svg>