<svg xmlns="http://www.w3.org/2000/svg" width="117" height="14" viewBox="0 0 117 14">
<style>path{fill-rule:evenodd;clip-rule:evenodd;fill:url(#mg)}</style>
<linearGradient id="mg"><stop offset="0" stop-color="#6e41e1"/><stop offset="1" stop-color="#dd53ff"/></linearGradient>
<path d="M7.062 6.031c-.317 0-.503-.072-.656-.341l-.692 2.62c.295-.27.519-.341.836-.341h3.21l-.819 3.103c-.981.323-1.985.664-2.974.664-2.799 0-4.391-2.099-3.695-4.736.687-2.601 3.414-4.736 6.195-4.736 1.064 0 1.85.413 2.534.861l.739-2.799c-.174.233-.393.287-.542.287-.168 0-.499-.09-.89-.161-.393-.071-.845-.125-1.237-.125-3.937 0-7.876 2.978-8.852 6.673-.975 3.695 1.392 6.673 5.329 6.673 2.109 0 3.339-.771 5.427-1.615-.2-.161-.124-.592-.062-.825l1.373-5.202h-5.224zM18.688 8.005c2.183.144 4.335 2.099 3.734 4.377-.1.377-.255.825-.676 1.005h3.06c-.182-.09-.251-.251-.231-.466.214-2.296-.274-5.184-3.062-5.579l.009-.036c1.736-.215 2.875-1.489 3.272-2.996.582-2.206-.684-3.982-3.073-3.982-.914 0-2.045.323-2.38.323-.317 0-.513-.036-.643-.323l-3.257 12.342c-.081.305-.207.502-.544.718h2.724c-.223-.215-.246-.413-.165-.718l1.232-4.665zm1.515-5.741h1.008c1.399 0 1.877.735 1.574 1.884-.36 1.363-1.627 2.207-2.84 2.207h-.821l1.079-4.091zM29.695 13.386c-.149-.072-.158-.251-.115-.413.024-.09.127-.269.277-.484l1.393-1.955h5.131l.361 1.955c.036.215.045.395.021.484-.043.161-.146.341-.333.413h3.116c-.163-.161-.232-.395-.287-.61l-2.889-12.449h-.037l-8.672 11.929c-.385.538-.558.843-.914 1.13h2.948zm6.396-4.789h-3.657l2.881-4.198.776 4.198zM47.446 2.264h1.511c2.668 0 4.386 2.189 3.747 4.61-.672 2.547-3.577 4.574-5.891 4.574h-1.791l2.424-9.184zm-1.349 11.122c3.769 0 7.694-2.852 8.627-6.386.966-3.66-1.467-6.673-5.348-6.673-.597 0-1.246.054-1.787.126-.518.054-.947.126-1.134.126-.149 0-.257-.018-.322-.054-.079-.054-.121-.108-.19-.197l-3.257 12.342c-.081.305-.207.502-.544.718h3.955zM62.676 1.331c.08-.305.207-.502.544-.718h-2.724c.223.215.246.413.165.718l-2.117 8.019c-.634 2.404.688 4.323 3.375 4.323 2.687 0 5.022-1.919 5.657-4.323l2.116-8.019c.08-.305.207-.502.544-.718h-2.724c.223.215.246.413.165.718l-2.117 8.019c-.279 1.058-1.283 2.386-3.074 2.386-1.735 0-2.272-1.076-1.927-2.386l2.117-8.019zM72.724 13.386c-.149-.072-.158-.251-.115-.413.024-.09.127-.269.277-.484l1.393-1.955h5.131l.361 1.955c.036.215.045.395.021.484-.043.161-.146.341-.333.413h3.116c-.163-.161-.232-.395-.287-.61l-2.891-12.45h-.037l-8.67 11.93c-.385.538-.558.843-.914 1.13h2.948zm6.395-4.789h-3.657l2.881-4.198.776 4.198zM87.272.614l-.568 2.153c.262-.144.552-.323.832-.323h2.37l-2.699 10.225c-.08.305-.207.502-.544.718h2.724c-.223-.215-.246-.413-.165-.718l2.698-10.225h2.388c.28 0 .475.179.661.323l.568-2.153h-8.265zM96.666 12.669c-.08.305-.207.502-.544.718h7.818l.611-2.314c-.398.448-.893.484-1.565.484h-4.012l.966-3.66h2.986c.205 0 .35.018.448.072.112.072.2.161.274.305l.696-2.637c-.285.233-.514.323-.906.323h-2.986l.928-3.516h4.012c.672 0 1.147.036 1.309.484l.611-2.314h-7.818c.223.215.246.413.165.718l-2.993 11.337zM107.746 13.673c.155-.161.44-.323.589-.323.709 0 1.352.323 2.266.323 2.5 0 4.696-1.884 5.278-4.09 1.094-4.144-3.749-4.108-3.19-6.225.161-.61 1.008-1.202 1.661-1.202.896 0 1.482.251 1.797.969l.734-2.78c-.155.161-.397.233-.584.233-.243 0-.466-.072-.713-.126-.247-.054-.508-.126-.825-.126-1.847 0-3.681 1.22-4.187 3.139-.9 3.408 3.948 3.355 3.204 6.171-.346 1.31-1.478 2.207-2.878 2.207-1.138 0-1.823-.305-2.38-1.094l-.772 2.924z"/></svg>