<svg xmlns="http://www.w3.org/2000/svg" width="321" height="25" viewBox="0 0 321 25">
<style>path{fill-rule:evenodd;clip-rule:evenodd;fill:url(#pn)}</style>
<linearGradient id="pn"><stop offset="0" stop-color="#004eff"/><stop offset="1" stop-color="#00a2ff"/></linearGradient>
<path d="M14.551 3.765c1.099-.282 2.19-.537 3.325-.844-.385 1.177-.719 2.431-.948 3.532l-.035.102c-.071.205-.236.308-.442.384-1.194.333-3.032.819-4.278 1.152-2.209 3.762-4.592 7.728-6.854 11.566-.334.589-.562 1.023-.826 1.561-1.459-.308-2.859-.639-4.129-1.049.367-.538.734-1.075 1.109-1.638 2.125-3.225 4.303-6.604 6.047-9.546-.842.206-1.674.384-2.362.513l-.214.026c-.154 0-.221-.104-.21-.282.102-1.177.283-2.508.47-3.634.394-.026.806-.103 1.217-.179 1.073-.205 2.335-.436 3.521-.742.66-1.305 1.26-2.585 1.819-4.044 1.541 0 2.841.103 4.08.23.171.026.247.103.193.257l-.097.205-1.386 2.43zm9.414 6.374c-.156.153-.26.23-.414.23l-.213-.051c-.571-.205-1.262-.359-1.904-.359-1.027 0-1.831.538-2.071 1.229-.134.385-.207.742-.238 1.126-.126 1.101-.214 2.457-.361 3.916 1.893.461 3.978 1.408 5.453 2.405.111.052.135.128.108.205l-.122.205c-.983 1.127-2.037 2.457-2.832 3.558-1.142-.998-2.38-1.792-3.563-2.304-.882 2.534-2.965 3.941-6.535 3.941-3.518 0-5.251-1.587-4.324-4.249.864-2.482 3.354-4.248 6.949-4.248l.813.025c.065-.998.182-1.996.209-2.738.053-.743.165-1.357.414-2.072.481-1.383 1.747-2.585 3.639-3.148-.681-.333-1.455-.615-2.104-.742.869-.947 1.99-2.175 2.866-2.995.113-.102.208-.153.311-.153l.196.026c2.438.666 4.761 1.817 6.263 3.328.076.077.092.179.065.256-.026.076-.08.154-.157.23l-2.448 2.379zm-9.883 8.982c-.332-.078-.819-.154-1.513-.154-1.516 0-2.162.385-2.349.921-.223.64.449.998 1.604.998.771 0 1.321-.179 1.693-.511.216-.18.339-.384.437-.666.063-.178.1-.357.128-.588zM37.718 13.058c-.996 1.459-2.345 3.122-3.327 4.094-.434.436-.881.614-1.523.614-.205 0-.402-.026-.624-.051-1.103-.154-1.488-.666-1.587-1.638-.102-1.255.139-3.2 1.11-5.989.678-1.945 1.817-4.556 3.155-7.217.229-.434.406-.869.583-1.305 1.214.128 2.563.307 3.854.512.196.026.247.103.184.282l-.07.127c-1.52 2.815-2.659 5.349-3.398 7.473-.214.614-.482 1.459-.7 2.304.756-.768 1.548-1.714 2.249-2.841-.03.896.085 1.818.339 2.637.04.179.046.384-.025.588-.044.129-.114.256-.22.41zm2.683 7.192c-1.468 1.561-3.138 2.814-4.846 3.735-.344.179-.637.282-.919.282-.231 0-.436-.078-.604-.256-.591-.588-1.738-1.203-2.828-1.613 2.292-1.125 4.228-2.405 5.729-3.915 1.676-1.714 2.893-3.737 3.757-6.219 1.204-3.456 2.154-6.551 2.957-9.443l.489-1.919c1.232 0 2.841.026 4.201.103.249.025.357.153.286.358l-.149.281c-.115.18-.237.384-.343.691-.045.127-.089.256-.117.41-.812 2.994-1.782 6.295-2.94 9.623-1.115 3.198-2.57 5.681-4.673 7.882zM64.567 8.019c-.142.333-.29.461-.573.538-1.09.179-2.179.358-3.312.511-3.09 4.965-6.425 10.263-9.498 15.252-1.313-.359-2.617-.819-3.8-1.332 3.033-4.503 5.954-8.982 8.764-13.512-.813.052-1.566.077-2.184.077h-.59c-.231 0-.298-.103-.227-.307l.018-.051c.514-1.254 1.028-2.585 1.508-3.813.273.026.521.052.803.052 1.002 0 2.064-.026 3.144-.103.613-1.023 1.368-2.379 1.993-3.582.281-.513.476-.922.678-1.356 1.375.255 2.586.538 3.797.896.171.026.195.103.168.179l-.113.179c-.814 1.229-1.488 2.355-2.102 3.378 1.012-.103 2.042-.256 2.968-.409-.539 1.253-1.017 2.328-1.442 3.403zm.659 15.509h-.309c-3.056 0-5.824-.385-7.706-1.101-.179-.077-.255-.154-.184-.358l.026-.077c.239-.538.461-1.101.666-1.689.267-.768.493-1.561.726-2.379 2.301.768 4.999 1.28 8.184 1.28 1.951 0 3.733-.102 5.336-.281-.239.614-.469 1.203-.674 1.791-.294.845-.545 1.638-.788 2.483-1.561.204-3.299.332-5.277.331zm8.118-12.028c-2.691-.896-5.749-1.484-9.084-1.639.633-1.229 1.352-2.483 2.105-3.686.123-.205.261-.307.518-.307h.231c2.747 0 5.926.462 8.369 1.409.162.051.204.153.159.281l-.079.153-2.219 3.789zM82.539 22.199c-.718.588-1.483.869-2.151.869-.693 0-1.289-.281-1.657-.844-.965-1.433-.957-4.556.496-8.728.972-2.79 2.601-6.065 4.703-9.52.465-.743.816-1.382 1.23-2.202 1.278.385 2.641.896 3.787 1.51.103.078.162.128.126.23l-.105.154c-.321.333-.652.767-.984 1.279-2.036 3.045-3.621 6.193-4.352 8.292l-.054.154c-.49 1.408-.684 2.405-.737 3.148-.01.179.014.255.091.255s.181-.077.328-.205c1.145-1.074 2.459-2.635 3.802-4.426.077 1.254.5 2.252 1.046 2.968.144.179.227.384.129.665-.036.103-.098.205-.159.307-1.746 2.358-4.007 4.866-5.539 6.094zm17.414-4.58c-.036.103-.104.154-.242.18-1.366.384-3.032.742-4.695 1.023.568-3.328.676-6.808.031-9.751 1.574-.46 2.93-.742 4.208-1.023l.137-.026c.129 0 .204.078.253.23.66 2.38.741 5.17.43 7.909-.066.486-.099.947-.095 1.305l-.027.153zM115.792 3.417c.871-1.101 1.632-2.252 2.106-3.173l4.465.308c-.332.435-.332.435-1.526 2.022-.191.255-.366.46-.68.844h5.804c1.567 0 2.295-.024 3.272-.102-.396.845-.655 1.511-1.208 3.097l-5.232 15.022c-.473 1.356-.696 2.073-.889 2.994h-4.186l.383-1.1-11.685-.001-.383 1.1h-4.109c.388-.819.733-1.664 1.188-2.968l5.241-15.048c.535-1.535.741-2.2.95-3.097.923.078 1.634.103 3.201.103l3.288-.001zm-8.092 16.302l11.71.001.66-1.895-11.71-.001-.66 1.895zm1.898-5.451l11.71.001.642-1.842-11.71-.001-.642 1.842zm1.872-5.374l11.71.001.66-1.895h-11.71l-.66 1.894zM138.826 12.351c-.693 0-1.164.026-1.782.103l.5-1.433c-1.679 1.279-2.482 1.816-4.174 2.84-.314-1.458-.635-2.38-1.362-3.609 3.666-2.047 6.462-4.324 9.011-7.292.861-.998 1.341-1.638 1.728-2.38l3.677 1.536c-.408.436-.618.666-1.123 1.305-1.263 1.561-3.287 3.685-5.133 5.374l9.682.001c-.756-1.74-1.168-3.506-1.352-5.63-.021-.384-.076-.743-.105-1.102l4.334-1.458c-.035.691.001 1.177.234 2.355.56 2.815 1.941 5.041 4.245 6.833-1.768 1.535-2.236 1.997-3.958 3.916-.819-.819-1.131-1.178-1.567-1.767-1.817 5.145-3.39 8.625-4.512 10.006-1.21 1.485-2.612 1.97-5.797 1.97-.257 0-.257 0-1.814-.026.346-1.51.409-2.354.321-4.095 1.025.154 2.025.231 2.643.231 1.335 0 1.706-.179 2.337-1.254.604-.998 1.667-3.531 2.674-6.423h-3.904c-1.245 2.764-2.424 4.53-4.326 6.526-1.573 1.638-3.433 3.071-5.538 4.248-.983.538-1.63.844-3.059 1.407-.313-1.459-.577-2.176-1.33-3.481 3.423-1.202 5.78-2.661 7.623-4.708 1.165-1.278 1.812-2.328 2.495-3.992l-.668-.001zM162.253 6.007c.35.026.659.026.916.026 1.104 0 2.38-.052 3.58-.102.789-1.382 1.508-2.637 2.203-3.966.22-.41.458-.871.625-1.28 1.238.205 2.406.538 3.659.999.162.051.203.154.15.307l-.089.18c-.76 1.151-1.522 2.379-2.292 3.633.651-.025 1.199-.051 1.688-.051 1.464 0 2.12.18 2.585.614.693.666.777 1.971-.114 4.53-.981 2.815-2.052 5.375-3.371 7.908-1.839 3.583-4.583 5.118-7.947 5.194h-.103c-.437 0-.562-.153-.574-.562.033-1.126-.132-2.278-.617-3.097 1.139-.025 2.159-.153 3.173-.409.867-.205 1.284-.588 1.819-1.536 1.421-2.457 2.588-5.144 3.631-8.139.187-.537.104-.741-.333-.741h-.076c-.677.026-1.379.051-1.988.102-2.697 4.35-5.936 9.597-8.799 14.28-.142.256-.271.333-.45.333l-.146-.026c-1.005-.358-1.948-.896-2.702-1.459-.153-.076-.204-.153-.15-.306l.088-.18c2.529-4.018 5.346-8.419 7.885-12.462-.9.076-2.125.127-3.203.127-.309 0-.436-.077-.338-.358l1.29-3.559zm19.131-.586l.223-.052c.129 0 .213.052.263.205.766 2.227 1.144 5.196.954 8.395l-.037.179c-.036.103-.104.154-.251.205-1.341.384-2.992.922-4.549 1.484.075-.435.132-.819.154-1.254.153-2.431-.07-5.477-.748-7.806l3.991-1.356zm1.275-.564c-.202-.896-.564-1.919-.998-2.739l1.403-.64.197-.05c.077 0 .137.05.196.102.427.691.758 1.51 1.02 2.457l-1.818.87zm2.577-1.279c-.254-.896-.651-1.817-1.087-2.559l1.328-.64c.095-.051.181-.077.231-.077.077 0 .146.026.196.103.461.665.826 1.458 1.098 2.303l-1.766.87zM190.044 16.4c-1.259 0-2.012.026-2.707.104.354-.794.681-1.587 1.1-2.79l3.36-9.648c.446-1.279.725-2.226.897-2.942.719.076 1.376.102 2.609.102l12.967.001c1.233 0 1.961-.026 2.707-.102-.344.69-.689 1.612-1.153 2.942l-3.36 9.648c-.445 1.279-.696 2.072-.844 2.79-.717-.078-1.453-.104-2.66-.104h-2.157l-1.266 3.635c-.205.588-.009.69 1.429.691 1.566 0 2.064-.102 2.386-.435.252-.281.845-1.612 1.413-3.172 1.121.691 1.758.998 3.182 1.408-1.326 3.147-2.027 4.273-3.125 4.99-.923.588-2.09.768-5.275.768-4.75 0-5.302-.333-4.49-2.662l1.818-5.222h-1.541c-.669 1.332-1.01 1.869-1.819 2.79-2.331 2.713-5.479 4.453-9.987 5.527-.134-1.458-.337-2.277-.859-3.505 4.668-.793 7.023-2.098 8.584-4.812h-1.209zm2.32-3.122l10.426.001.383-1.1-10.426-.001-.383 1.1zm1.346-3.864l10.426.001.383-1.1-10.426-.001-.383 1.1zm1.346-3.865l10.426.001.374-1.074-10.426-.002-.374 1.075zM233.07 23.239c-.106.307-.306.435-.623.459-1.054.077-2.167.103-3.605.103-1.695 0-3.09-.051-4.363-.154-2.018-.179-2.58-.998-1.921-2.893l.09-.256 1.332-3.455.026-.077c.196-.563-.015-.845-.503-.845-.539 0-1.476.333-2.531 1.075-2.695 1.842-5.169 3.71-7.604 5.834-.147.127-.242.179-.345.179-.104 0-.162-.052-.238-.128-.707-.844-1.346-1.74-1.829-2.712 4.25-3.353 9.032-6.833 14-10.185-2.742.281-5.407.486-7.498.588-.282 0-.384-.077-.296-.333.283-1.178.608-2.483 1.003-3.762.273.025.572.051.881.051.231 0 .437 0 .677-.025 3.485-.128 7.016-.307 10.312-.485.421-.026.892-.052 1.38-.128l.215-.025c.23 0 .333.076.424.332l.786 1.945c.049.154.057.281.012.409-.045.128-.175.281-.391.385-2.14 1.203-3.909 2.303-5.768 3.582 2.037-.024 2.629 1.152 2.014 2.918l-.045.128-1.189 3.122-.027.077c-.187.537-.001.742.615.742h.565c1.721 0 3.759-.102 5.858-.306l-1.414 3.84zm-1.729-17.378c-2.953-.59-5.92-.922-8.658-1.024.557-1.229 1.146-2.406 1.787-3.506.141-.256.27-.333.5-.333 2.859.051 6.072.411 8.734 1.101-.72 1.253-1.613 2.712-2.363 3.762zM253.211 8.038c-.142.333-.29.461-.573.537-1.09.179-2.179.359-3.312.512-3.091 4.965-6.425 10.262-9.497 15.252-1.314-.359-2.617-.819-3.801-1.332 3.033-4.504 5.954-8.982 8.764-13.512-.813.052-1.566.077-2.184.077h-.59c-.231 0-.299-.103-.227-.307l.018-.051c.514-1.254 1.027-2.585 1.508-3.813.273.026.521.052.803.052 1.002 0 2.064-.026 3.144-.104.613-1.023 1.368-2.379 1.993-3.582.281-.513.475-.922.678-1.356 1.374.256 2.586.538 3.797.896.171.026.195.103.168.179l-.113.179c-.813 1.229-1.488 2.355-2.102 3.379 1.012-.103 2.042-.256 2.968-.409-.54 1.253-1.017 2.328-1.442 3.403zm.659 15.509h-.309c-3.057 0-5.824-.385-7.706-1.101-.179-.077-.255-.154-.184-.358l.026-.077c.239-.538.461-1.101.666-1.689.267-.768.492-1.561.726-2.379 2.302.768 4.999 1.279 8.184 1.28 1.951 0 3.733-.102 5.336-.281-.239.614-.47 1.203-.675 1.791-.294.845-.545 1.638-.787 2.483-1.561.204-3.3.331-5.277.331zm8.117-12.028c-2.691-.896-5.748-1.485-9.084-1.639.633-1.229 1.352-2.483 2.104-3.686.123-.205.261-.307.518-.307h.231c2.747 0 5.926.462 8.369 1.409.162.051.203.153.159.281l-.079.153-2.218 3.789zM270.227 5.941c.351.025.659.025.916.025 1.112-.025 2.38-.05 3.579-.101.789-1.382 1.508-2.637 2.203-3.967.22-.41.457-.87.625-1.279 1.238.205 2.407.538 3.658.999.164.051.203.154.15.307l-.088.179c-.76 1.152-1.522 2.38-2.293 3.635.651-.026 1.199-.052 1.688-.052 1.463 0 2.12.18 2.585.615.693.666.778 1.971-.113 4.53-.981 2.815-2.043 5.349-3.337 7.882-1.873 3.609-4.581 5.118-7.946 5.194h-.103c-.437 0-.563-.153-.574-.562.032-1.126-.132-2.278-.617-3.097 1.139-.026 2.134-.154 3.173-.409.842-.205 1.25-.563 1.819-1.535 1.385-2.431 2.553-5.119 3.596-8.113.188-.538.104-.742-.332-.742h-.077c-.677.026-1.379.052-1.987.103-2.697 4.35-5.937 9.597-8.8 14.28-.141.256-.271.333-.45.333l-.145-.026c-1.006-.359-1.948-.896-2.702-1.459-.153-.077-.204-.153-.149-.307l.087-.179c2.529-4.018 5.347-8.42 7.885-12.462-.899.076-2.124.127-3.202.127-.309 0-.437-.077-.339-.358l1.29-3.561zm19.131-.587l.248-.051c.104 0 .188.051.237.205.766 2.226 1.144 5.195.954 8.395l-.036.179c-.036.103-.105.154-.251.205-1.342.384-2.992.921-4.55 1.484.074-.435.132-.819.155-1.254.152-2.431-.07-5.478-.749-7.807l3.992-1.356zM293.478 18.97c-.342-.052-.408-.231-.326-.615.384-1.689.983-3.634 1.732-5.784.481-1.381 1.191-3.199 1.924-4.785.248-.563.52-1.049.75-1.638 1.042.179 2.459.46 3.679.793.137.05.203.154.159.281l-.133.23c-.217.256-.4.486-.576.845-.605 1.151-1.164 2.457-1.601 3.711-.116.332-.231.665-.321.998 2.393-1.561 4.904-2.431 7.395-2.43 4.16 0 5.869 2.764 4.665 6.219-1.354 3.89-5.892 6.96-12.474 7.574h-.206c-.487 0-.733-.18-.754-.486-.092-.845-.573-1.971-1.377-2.611 5.964-.459 9.55-2.2 10.29-4.324.525-1.51-.129-2.507-1.875-2.507-2.696 0-5.589 1.739-7.888 4.58-.226.281-.391.384-.621.384l-.223-.025-2.219-.41zm11.926-11.977c-.953-1.612-2.115-3.071-3.46-4.222 1.418-.973 2.712-1.74 3.971-2.406.13-.076.241-.102.318-.102s.171.026.247.102c1.235 1.024 2.323 2.253 3.309 3.993-1.423.768-2.916 1.663-4.385 2.635zM316.814 16.567c1.489 1.331 3.018 3.43 3.822 5.323l-4.183 2.866c-.762-1.869-2.093-4.095-3.52-5.528l3.881-2.661z"/></svg>