<svg xmlns="http://www.w3.org/2000/svg" width="86" height="6" viewBox="0 0 86 6"><path d="M2.675 2.537h-1.196c-.276 0-.464.006-.651.025.019-.169.025-.307.025-.526v-1.178c0-.213-.006-.345-.025-.52.2.025.401.031.714.031h2.856c.344 0 .545-.006.708-.031-.02.169-.026.294-.026.52v1.178c0 .231.006.363.025.526-.194-.019-.37-.025-.645-.025h-1.109v.839h1.384c.338 0 .482-.006.646-.031v.695c-.188-.025-.358-.032-.646-.032h-1.384v1.015c.351.063.739.088 1.234.088.357 0 .664-.013 1.203-.05-.119.282-.157.419-.188.708-.376.019-.677.024-.99.024-.589 0-1.009-.031-1.472-.119-.764-.137-1.346-.532-1.747-1.164-.257.588-.489.964-.852 1.371-.194-.225-.307-.332-.539-.488.395-.401.62-.739.833-1.259.188-.445.32-.977.326-1.315l.695.138-.081.344-.106.438c.244.52.57.871 1.008 1.09v-2.292zm-1.147-1.548v.946h2.875v-.946h-2.875zm6.641 3.088c-.05.069-.113.113-.238.113l-.132-.012c-.162-.026-.231-.101-.325-.263-.163-.295-.251-.796-.251-1.435 0-.589.057-1.221.175-1.854l.038-.275.695.1.057.044-.006.031c-.144.702-.22 1.296-.22 1.867 0 .25.013.52.038.745.125-.207.25-.47.351-.764.05.188.132.351.25.514l.032.106-.013.082c-.075.306-.25.732-.451 1.001zm1.698.752c-.207.382-.552.739-.928.971l-.137.044-.157-.063c-.157-.132-.344-.244-.607-.319.47-.238.808-.533 1.065-.94.275-.451.407-1.008.407-1.697 0-.783-.031-1.535-.087-2.268l-.044-.363h.188c.188 0 .382.006.558.019.069.006.094.038.094.081l-.013.063-.033.156.006.113c.05.689.088 1.447.088 2.205.001.864-.125 1.497-.4 1.998zm3.922-3.827c.294-.075.564-.163.833-.244v.106c0 .169.013.363.032.545v.012l-.063.082-.977.294c-.257.996-.501 1.986-.751 2.938l-.063.307c-.263-.056-.545-.131-.827-.207l.113-.307c.275-.846.545-1.76.746-2.574-.251.075-.464.131-.67.175l-.025.006-.063-.057c-.069-.188-.119-.444-.169-.639l.207-.031c.276-.057.583-.132.896-.219.069-.345.106-.683.119-1.002.282.013.495.025.751.057l.056.056-.006.031-.139.671zm2.831 1.303l-.075.044-.044-.006c-.169-.05-.345-.075-.526-.075-.338 0-.539.201-.539.401 0 .119.031.244.057.332.081.307.182.67.269 1.027.551.119 1.14.363 1.597.626l.05.056-.019.044c-.119.213-.225.432-.313.664-.382-.276-.802-.501-1.196-.626v.082c0 .607-.345.908-1.096.908-.789 0-1.291-.363-1.291-.946 0-.495.401-.915 1.228-.915l.3.012c-.075-.288-.169-.614-.225-.795-.057-.182-.082-.338-.082-.488 0-.395.244-.695.745-.839-.257-.106-.514-.188-.727-.238l.338-.532.075-.044.044.006c.614.157 1.234.426 1.697.771l.031.05-.012.044-.286.437zm-1.992 2.267c-.375 0-.495.094-.495.232 0 .188.231.288.539.288.188 0 .313-.038.395-.125.05-.056.082-.131.082-.238l-.006-.113c-.114-.025-.27-.044-.515-.044zm5.745-.576c-.207.495-.507 1.015-.752 1.303-.106.125-.238.188-.369.188-.138 0-.276-.069-.395-.201-.263-.3-.514-.927-.514-2.029 0-.595.101-1.347.351-2.268l.1-.451c.25.069.539.156.771.263l.038.044-.013.038c-.056.094-.106.213-.138.313-.257.82-.363 1.591-.363 2.048 0 .501.056.852.144 1.059l.057.05.081-.062c.201-.282.382-.646.589-1.103.088.232.232.426.376.558l.062.138-.025.112zm3.05.338l-.044.044c-.213.05-.495.119-.764.169-.131-.79-.382-1.528-.745-2.192.231-.069.476-.125.651-.157l.031-.006.075.05c.313.526.551 1.14.708 1.792l.081.275.007.025zm2.269-2.23c-.275-.276-.639-.57-.939-.771l-.031-.05.013-.044c.087-.138.313-.375.438-.488.338.2.664.445.933.676.113-.388.226-.789.307-1.115l.05-.245.658.188.05.05-.013.05-.088.269c-.294.952-.576 1.898-.802 2.919.289.057.608.106.909.131-.05.194-.094.414-.101.583-.006.062-.038.087-.081.087h-.019c-.275-.031-.526-.069-.808-.138l-.019.282c0 .388.395.589.915.589.495 0 .852-.15.852-.514 0-.476-.288-1.09-1.271-1.898.219-.075.401-.175.507-.269l.082-.032.075.025c.896.676 1.384 1.478 1.384 2.18 0 .764-.47 1.247-1.547 1.247-1.221 0-1.716-.564-1.716-1.366l.025-.395c-.608-.175-.965-.457-.965-.939 0-.213.125-.526.363-.752l.101-.056.031.006.563.131c-.231.219-.338.438-.338.576 0 .176.094.25.389.338.1-.47.231-.99.395-1.528l-.302.273zm8.582 2.957c-.257.156-.645.326-.958.369l-.063.006c-.062 0-.106-.025-.144-.075-.094-.144-.307-.351-.539-.445.395-.069.783-.194 1.071-.338.607-.307.914-.739.914-1.428 0-.789-.482-1.535-1.578-1.685-.1 1.848-.646 2.976-1.347 3.558-.175.15-.351.225-.533.225-.156 0-.319-.062-.488-.175-.47-.319-.846-.915-.846-1.798 0-1.421 1.184-2.518 2.913-2.518s2.656 1.228 2.656 2.411c.001.797-.356 1.46-1.058 1.893zm-3.745-1.829c0 .495.125.845.345 1.09.056.062.112.094.182.094.062 0 .125-.031.194-.094.558-.507.927-1.378.921-2.85-1.104.175-1.642.958-1.642 1.76zm5.695-1.742l.182.013h.063l.858-.038c.069-.357.15-.689.201-1.002l.038-.294c.225.044.488.113.727.194l.056.069-.006.056c-.087.288-.182.614-.257.952l.526-.019c.294 0 .414.032.551.125.188.131.319.401.319 1.002 0 .727-.069 1.598-.219 2.224-.175.708-.514.952-1.366 1.015h-.019c-.1 0-.144-.044-.182-.132-.094-.244-.201-.463-.351-.589.275 0 .601-.025.858-.094.175-.044.257-.119.301-.319.15-.664.238-1.51.238-2.349 0-.125-.025-.169-.131-.169h-.019l-.67.031c-.27.958-.689 2.468-.99 3.626l-.051.058-.031-.006c-.2-.056-.401-.169-.563-.257l-.063-.075.006-.038c.313-1.065.639-2.199.934-3.276-.276.013-.602.031-.833.031-.087 0-.119-.025-.119-.087l.012-.652zm4.303-.125l.05-.013.062.031c.395.507.777 1.222 1.021 1.973l.006.031-.031.044-.689.313-.063-.257c-.219-.651-.557-1.309-.952-1.854l.596-.268zm.401-.125c-.131-.213-.313-.444-.514-.651l.245-.15.043-.012.063.025c.169.15.344.357.488.576l-.325.212zm.476-.307c-.144-.219-.338-.438-.532-.614l.231-.144.063-.025.05.025c.169.138.357.338.514.557l-.326.201zm1.504 3.207c.432.301.958.795 1.303 1.228l-.614.564c-.326-.42-.821-.958-1.253-1.278l.564-.514zm7.718-2.349c-.006.063-.031.094-.087.106-.276.057-.558.094-.877.144-.32 1.134-.714 2.493-1.04 3.727-.263-.062-.514-.15-.771-.238.376-1.171.727-2.336 1.027-3.439l-.52.013h-.163l-.057-.063.038-.676.182.019h.194l.52-.012c.075-.282.144-.564.2-.89l.038-.313c.245.031.514.087.746.15l.056.043-.012.05c-.113.332-.176.595-.25.902.275-.025.513-.056.814-.106l-.038.583zm1.378 3.871h-.062c-.72 0-1.384-.1-1.892-.288-.062-.025-.088-.044-.088-.106l.019-.345-.019-.401c.62.232 1.309.357 2.004.357.458 0 .921-.025 1.328-.069l-.006.357.013.413c-.351.045-.739.082-1.297.082zm1.058-2.981c-.689-.213-1.465-.363-2.368-.395.044-.238.082-.445.144-.664l.075-.062h.05c.702 0 1.584.131 2.211.351l.057.056-.006.025-.163.689zm4.524 3.156l-.156-.212c-.532-.614-1.579-1.584-2.361-2.048-.382-.226-.52-.407-.52-.651 0-.2.094-.37.388-.626.646-.557 1.372-1.221 2.023-1.873l.238-.282c.219.113.495.313.695.476l.025.044-.032.05-.238.194c-.783.633-1.453 1.24-2.08 1.829l-.082.125c0 .044.031.075.101.119.845.57 1.735 1.309 2.562 2.217l.163.163c-.262.15-.506.319-.726.475zm2.149-3.808c.695-.132 1.391-.32 1.911-.526-.294-.382-.607-.771-.877-1.059.194-.1.458-.207.683-.282h.019l.044.025.1.157c.219.275.476.595.727.896.395-.182.777-.388 1.077-.595.176.156.363.363.533.595l-.219.113c-.326.169-.658.338-.996.482.338.426.733.996 1.002 1.428.1.157.188.282.307.438l.019.044-.031.056-.438.357-.069.025-.075-.025c-.419-.238-1.008-.388-1.647-.388-.758 0-1.015.275-1.015.607 0 .407.313.658.989.658.533 0 1.053-.056 1.647-.169l-.012.301.019.382v.019l-.056.062c-.545.094-1.046.138-1.647.138-1.078 0-1.685-.451-1.685-1.353 0-.764.645-1.322 1.892-1.322.301 0 .595.019.915.088-.232-.363-.507-.751-.771-1.071-.551.219-1.215.414-1.867.545l-.038.006-.069-.043-.372-.589zm5.376 3.47l-.056-.069.025-.069.169-.363c.651-1.622 1.516-3.307 2.386-4.673l.126-.225c.182.087.451.2.695.332l.025.037-.025.057-.144.188c-.451.632-.877 1.322-1.353 2.211.351-.257.651-.382 1.04-.382.495 0 .808.357.808.946l-.031 1.428c0 .101.031.15.119.15l.112-.019c.438-.119 1.015-.495 1.566-1.14.013.276.094.539.163.664l.025.088-.062.138c-.651.67-1.259 1.021-1.936 1.021-.488 0-.739-.245-.739-.758 0-.426.019-.952.057-1.466v-.05c0-.188-.075-.275-.27-.275-.482 0-1.033.419-1.372 1.008-.232.401-.451.958-.595 1.378-.025.069-.05.094-.094.094l-.069-.019-.57-.232zm8.783-.156h-.013l-.05-.044-.113-.345c-.395.282-.764.47-1.103.551l-.25.031c-.213 0-.414-.069-.551-.213-.144-.15-.219-.344-.219-.595 0-.138.025-.288.069-.458.194-.702.852-1.522 1.81-1.854l.038-.539c-.426.044-.764.062-1.059.062h-.119l-.088-.069c-.056-.207-.088-.401-.125-.614h.106c.457 0 .958-.031 1.353-.062l.063-.539.025-.444c.226.006.489.031.72.062l.082.069-.037.09-.082.194-.075.482c.514-.05 1.078-.131 1.623-.25-.019.15-.031.313-.031.47l.006.163v.013l-.063.057c-.501.094-1.083.175-1.616.231-.025.157-.044.338-.05.489.15-.019.301-.025.451-.025l.375.019.082-.338c.213.044.445.094.639.15l.056.05-.031.082-.094.2c.909.275 1.353.896 1.353 1.547 0 .927-.814 1.591-1.785 1.797l-.094.013-.125-.057c-.114-.119-.364-.276-.602-.326 1.134-.238 1.86-.864 1.86-1.484 0-.37-.27-.727-.846-.902-.313.614-.72 1.165-1.115 1.522.05.207.125.47.188.639l-.563.175zm-.426-2.243c-.602.326-1.015.871-1.127 1.397l-.013.119c0 .125.056.194.157.194l.075-.012c.282-.075.626-.263.996-.558-.05-.332-.088-.795-.088-1.14zm1.053-.225c-.144 0-.282.013-.407.032 0 .263.006.57.038.839.194-.213.401-.526.57-.865l-.201-.006zm7.223-2.074l.037.075-.056.082c-.558.445-1.159 1.002-1.672 1.535.232-.056.482-.082.714-.082 1.027 0 1.691.677 1.691 1.585 0 .996-.802 1.741-2.055 1.741-1.046 0-1.535-.345-1.535-.921 0-.388.32-.745.902-.745.539 0 .877.282.877.727l-.025.238c.595-.094 1.059-.539 1.059-1.071 0-.495-.401-.89-1.09-.89-.576 0-1.002.169-1.372.407-.219.144-.438.364-.614.552-.094.1-.188.194-.276.257l-.082.038-.069-.038-.332-.414-.038-.075.044-.075c.783-.783 1.629-1.597 2.575-2.562-.533.063-1.109.119-1.51.163h-.031c-.062 0-.088-.019-.094-.075l-.042-.665h.087l.245-.012c.689-.05 1.459-.125 2.18-.232l.044-.006.112.062.326.401zm-2.086 3.834c-.125 0-.175.069-.175.163 0 .113.156.25.488.269 0-.288-.132-.432-.313-.432zm5.557.388c0 .47-.382.858-.852.858s-.858-.388-.858-.858c0-.464.388-.852.858-.852s.852.389.852.852zm-1.391 0c0 .3.245.539.539.539s.539-.238.539-.539c0-.294-.244-.533-.539-.533s-.539.239-.539.533z"/></svg>