<svg xmlns="http://www.w3.org/2000/svg" width="76" height="6" viewBox="0 0 76 6"><path fill="#121212" d="M1.885.992c.295-.075.564-.162.833-.244v.106c0 .169.013.363.031.545v.012l-.063.082-.977.294c-.256.997-.5 1.987-.751 2.939l-.063.307c-.262-.057-.544-.132-.826-.207l.113-.307c.275-.846.545-1.76.745-2.574-.251.075-.464.131-.67.175l-.025.006-.063-.056c-.069-.188-.119-.445-.169-.639l.207-.031c.275-.057.582-.132.895-.22.069-.344.106-.683.119-1.002.282.012.495.025.751.056l.057.057-.006.031-.138.67zm2.832 1.303l-.076.044-.044-.006c-.169-.05-.344-.075-.526-.075-.338 0-.539.2-.539.401 0 .119.031.244.056.332.081.307.182.67.269 1.027.551.119 1.14.363 1.597.626l.05.056-.019.044c-.117.214-.224.433-.311.664-.382-.275-.802-.501-1.197-.626v.082c0 .607-.344.908-1.096.908-.789 0-1.29-.363-1.29-.946 0-.495.401-.915 1.228-.915l.301.012c-.076-.287-.17-.613-.226-.795s-.082-.338-.082-.488c0-.395.244-.695.745-.839-.256-.107-.513-.188-.726-.239l.338-.532.075-.044.044.006c.614.157 1.234.426 1.698.771l.031.05-.012.044-.288.438zm-1.992 2.268c-.376 0-.495.094-.495.232 0 .188.232.288.539.288.188 0 .313-.038.395-.125.05-.056.081-.132.081-.238l-.006-.113c-.114-.025-.27-.044-.514-.044zM7.73 4.068c-.05.069-.112.113-.238.113l-.132-.012c-.163-.025-.232-.1-.326-.263-.163-.294-.25-.795-.25-1.434 0-.589.056-1.221.175-1.854l.038-.276.695.1.057.043-.006.031c-.144.702-.219 1.297-.219 1.867 0 .25.013.52.038.745.125-.207.25-.47.351-.764.05.188.132.351.25.514l.031.106-.013.081c-.075.308-.25.734-.451 1.003zm1.698.752c-.207.382-.551.739-.927.971l-.138.043-.156-.063c-.157-.131-.345-.244-.608-.319.47-.238.808-.532 1.065-.94.276-.451.407-1.009.407-1.698 0-.783-.031-1.535-.088-2.267l-.044-.362h.188c.188 0 .382.006.558.019.069.006.094.038.094.081l-.013.063-.031.156.006.113c.05.689.088 1.447.088 2.205 0 .864-.125 1.497-.401 1.998zM14.114 1.782c-.006.063-.031.094-.088.106-.276.056-.557.094-.877.144-.319 1.134-.714 2.493-1.04 3.727-.263-.063-.513-.15-.77-.238.376-1.171.727-2.336 1.027-3.439l-.52.013h-.163l-.056-.063.038-.677.182.019h.194l.52-.012c.075-.282.144-.564.2-.889l.038-.313c.244.031.513.088.745.15l.056.044-.013.05c-.113.332-.175.595-.25.902.276-.025.514-.056.814-.106l-.037.582zm1.378 3.871h-.063c-.72 0-1.384-.1-1.892-.288-.062-.025-.087-.044-.087-.107l.019-.344-.019-.401c.62.232 1.309.357 2.004.357.457 0 .921-.025 1.328-.069l-.006.357.013.413c-.351.044-.739.082-1.297.082zm1.059-2.982c-.689-.213-1.466-.363-2.368-.395.044-.238.081-.445.144-.664l.075-.062h.05c.701 0 1.585.131 2.211.351l.056.056-.006.025-.162.689zM19.903 3.987c-.207.495-.507 1.015-.752 1.303-.106.125-.238.188-.369.188-.138 0-.276-.069-.395-.2-.263-.301-.514-.927-.514-2.029 0-.595.1-1.347.351-2.268l.1-.451c.25.069.539.156.77.263l.038.044-.012.038c-.056.094-.106.213-.138.313-.257.821-.363 1.591-.363 2.048 0 .501.056.852.144 1.059l.056.05.081-.062c.2-.282.382-.645.589-1.103.088.232.232.426.376.558l.063.138-.025.111zm3.051.338l-.044.044c-.213.05-.495.119-.764.169-.132-.789-.383-1.528-.746-2.193.232-.069.476-.125.651-.156l.031-.006.075.05c.313.526.551 1.14.708 1.792l.081.276.008.024zM25.635.874c.138-.276.226-.539.288-.827l.789.075c-.113.301-.207.514-.32.752h1.453c.363 0 .539-.006.77-.031-.025.213-.031.382-.031.77v3.507c0 .369.006.526.038.727h-.72v-.32h-3.094v.32h-.708c.025-.157.038-.432.038-.727v-3.507c0-.376-.006-.551-.031-.77.226.025.401.031.764.031h.764zm-.82 1.346h3.094v-.708h-3.094v.708zm0 1.316h3.094v-.714h-3.094v.714zm0 1.359h3.094v-.758h-3.094v.758zM31.469 2.89c-.213 0-.37.012-.532.031v-.444c-.301.307-.457.445-.783.695-.106-.213-.257-.401-.482-.614.777-.539 1.247-1.052 1.647-1.798.15-.276.219-.445.25-.633l.752.269c-.063.094-.094.15-.169.319-.232.495-.601 1.052-1.008 1.522l.326.012h2.305l.388-.006c-.438-.495-.764-.99-1.033-1.572l-.132-.263.695-.269c.044.163.106.294.244.545.414.752.952 1.315 1.735 1.816-.263.307-.313.376-.476.677-.344-.257-.501-.388-.777-.658v.213c0 1.297-.106 2.286-.263 2.618-.138.276-.363.363-.921.363l-.645-.025c-.031-.275-.075-.426-.188-.733.301.05.576.081.758.081.232 0 .301-.025.357-.119.094-.188.194-1.015.194-1.666v-.361h-1.203c-.05.651-.188 1.109-.489 1.604-.345.576-.852 1.009-1.591 1.378-.119-.232-.219-.369-.457-.614.388-.144.645-.301.971-.576.438-.376.714-.858.821-1.428l.038-.363h-.332zM36.406 1.481l.182.013h.063l.858-.038c.069-.357.15-.689.2-1.002l.038-.294c.225.044.489.113.727.194l.056.069-.006.056c-.088.288-.182.614-.257.952l.526-.019c.294 0 .413.031.551.125.188.132.319.401.319 1.002 0 .727-.069 1.597-.219 2.224-.175.708-.513.952-1.365 1.015h-.019c-.1 0-.144-.044-.182-.132-.094-.244-.2-.464-.351-.589.276 0 .601-.025.858-.094.175-.044.257-.119.301-.319.15-.664.238-1.51.238-2.349 0-.125-.025-.169-.132-.169h-.019l-.67.031c-.269.958-.689 2.468-.99 3.627l-.05.056-.031-.006c-.2-.056-.401-.169-.564-.257l-.063-.075.006-.038c.313-1.065.639-2.198.933-3.276-.274.013-.6.032-.832.032-.088 0-.119-.025-.119-.088l.013-.651zm4.303-.125l.05-.012.063.031c.395.507.777 1.221 1.021 1.973l.006.031-.031.044-.689.313-.063-.257c-.219-.651-.557-1.309-.952-1.854l.595-.269zm.401-.126c-.132-.213-.313-.445-.514-.651l.244-.15.044-.012.063.025c.169.15.344.357.489.576l-.326.212zm.476-.306c-.144-.219-.338-.438-.532-.614l.232-.144.063-.025.05.025c.169.138.357.338.514.557l-.327.201zM44.042 4.043c-.301 0-.514.006-.677.019.025-.182.032-.376.032-.664v-2.286c0-.344-.013-.62-.032-.783.188.025.37.031.658.031h2.888c.288 0 .482-.006.664-.031-.019.15-.031.438-.031.783v2.286c0 .301.006.489.031.664-.163-.012-.407-.019-.664-.019h-.539v.965c0 .175.056.194.545.194.482 0 .607-.025.683-.132.063-.088.094-.326.113-.802.257.138.407.201.645.263-.062.695-.125.927-.282 1.077-.175.163-.445.213-1.152.213-1.04 0-1.228-.088-1.228-.557v-1.221h-.564c-.075.482-.275.864-.595 1.159-.395.37-.871.589-1.591.752-.106-.263-.182-.395-.363-.614.589-.106.921-.219 1.221-.414.338-.219.52-.489.595-.883h-.357zm.012-2.65h2.825v-.407h-2.825v.407zm0 1.009h2.825v-.42h-2.825v.42zm0 1.033h2.825v-.444h-2.825v.444zM53.439 4.688c-.633.282-1.365.445-2.073.501h-.025c-.101 0-.15-.031-.176-.075-.087-.194-.263-.438-.507-.595.846-.044 1.685-.213 2.318-.47.626-.251.864-.633.864-1.071 0-.626-.407-1.04-1.027-1.04-.25 0-.614.038-1.083.132-.651.125-1.422.338-2.104.52l-.363.069h-.025l-.081-.056c-.082-.232-.15-.47-.207-.702.125-.006.263-.038.401-.069.771-.194 1.522-.37 2.292-.514.451-.088.808-.131 1.203-.131 1.027 0 1.792.733 1.792 1.791-.003.789-.385 1.341-1.199 1.71zM55.62 1.437l.244.012.852-.038c.075-.351.157-.689.207-.996l.031-.301c.232.044.489.119.733.2l.062.069-.012.056c-.082.282-.182.614-.263.952l.545-.019c.282 0 .401.031.532.125.188.125.32.395.32.996 0 .727-.063 1.604-.213 2.224-.176.708-.514.958-1.372 1.015h-.019c-.094 0-.138-.038-.176-.132-.094-.244-.2-.463-.351-.583.276-.006.595-.031.858-.1.175-.044.257-.113.3-.313.15-.664.238-1.516.238-2.355 0-.125-.025-.169-.132-.169h-.019c-.232.006-.489.019-.67.038-.269.952-.683 2.462-.99 3.627l-.05.056-.031-.006c-.207-.063-.401-.169-.564-.257l-.062-.075.006-.044c.313-1.059.639-2.198.927-3.276-.269.019-.595.031-.833.038-.082 0-.113-.031-.113-.088l.015-.656zm4.297-.119l.056-.019.063.038c.388.501.776 1.221 1.021 1.967l.006.031-.038.044-.683.313-.062-.257c-.219-.651-.564-1.309-.952-1.854l.589-.263zM65.197 5.196c-.47.213-1.04.344-1.572.382h-.019c-.069 0-.113-.031-.131-.063-.069-.156-.194-.344-.376-.501.633-.031 1.228-.157 1.704-.351.458-.188.626-.432.626-.764 0-.47-.294-.733-.751-.733-.207 0-.445.031-.777.1-.482.106-1.065.25-1.591.388l-.25.05h-.019l-.094-.075c-.05-.15-.094-.37-.132-.558l.301-.044c.576-.144 1.14-.282 1.716-.395.344-.062.62-.094.921-.094.77 0 1.34.564 1.34 1.359 0 .597-.288 1.023-.896 1.299zM70.021 1.782c-.006.063-.031.094-.087.106-.276.056-.558.094-.877.144-.32 1.134-.714 2.493-1.04 3.727-.263-.063-.514-.15-.771-.238.376-1.171.727-2.336 1.027-3.439l-.52.013h-.163l-.057-.063.038-.677.182.019h.194l.52-.012c.075-.282.144-.564.2-.889l.038-.313c.245.031.514.088.746.15l.056.044-.012.05c-.113.332-.176.595-.25.902.275-.025.513-.056.814-.106l-.038.582zm1.378 3.871h-.062c-.72 0-1.384-.1-1.892-.288-.062-.025-.088-.044-.088-.106l.019-.344-.019-.401c.62.232 1.31.357 2.004.357.458 0 .921-.025 1.328-.069l-.006.357.013.413c-.351.043-.739.081-1.297.081zm1.059-2.982c-.689-.213-1.465-.363-2.368-.395.044-.238.082-.445.144-.664l.075-.062h.05c.702 0 1.584.131 2.211.351l.057.056-.006.025-.163.689zM75.196 5.014c0 .47-.382.858-.852.858s-.858-.388-.858-.858c0-.464.388-.852.858-.852s.852.388.852.852zm-1.391 0c0 .301.245.539.539.539.294 0 .539-.238.539-.539 0-.294-.245-.532-.539-.532-.294-.001-.539.237-.539.532z"/></svg>