<svg xmlns="http://www.w3.org/2000/svg" width="222" height="9" viewBox="0 0 222 9"><path fill="#121212" d="M4.115 3.832h-1.76c-.405 0-.682.01-.959.037.028-.249.037-.452.037-.775v-1.732c0-.313-.009-.507-.037-.765.295.037.59.046 1.051.046h4.203c.507 0 .802-.009 1.041-.046-.027.249-.037.433-.037.765v1.732c0 .342.01.535.037.774-.285-.027-.544-.036-.949-.036h-1.631v1.235h2.036c.498 0 .71-.009.95-.046v1.022c-.277-.036-.525-.045-.95-.045h-2.036v1.493c.515.092 1.087.129 1.815.129.525 0 .977-.019 1.77-.073-.175.413-.231.617-.277 1.04-.552.028-.995.038-1.456.038-.866 0-1.484-.046-2.166-.175-1.124-.203-1.981-.784-2.571-1.715-.378.866-.719 1.42-1.254 2.019-.285-.333-.451-.489-.792-.719.58-.59.912-1.088 1.226-1.853.276-.654.47-1.438.479-1.936l1.023.204-.119.507-.158.644c.36.766.839 1.281 1.484 1.605v-3.374zm-1.687-2.277v1.392h4.23v-1.392h-4.23zM12.747 6.099c-.073.102-.166.166-.35.166l-.194-.019c-.239-.037-.341-.147-.479-.387-.24-.434-.369-1.171-.369-2.111 0-.866.083-1.797.258-2.728.028-.129.047-.276.056-.405.268.036.683.092 1.023.147l.083.064-.01.046c-.212 1.032-.322 1.908-.322 2.746 0 .369.019.766.055 1.097.185-.304.369-.69.517-1.124.073.276.193.516.368.756l.047.156-.019.12c-.111.453-.369 1.08-.664 1.476zm2.498 1.107c-.305.562-.812 1.087-1.364 1.428-.064.037-.129.064-.203.064-.073 0-.156-.027-.229-.092-.23-.193-.507-.359-.895-.47.691-.351 1.189-.784 1.567-1.383.405-.663.599-1.483.599-2.497 0-1.152-.046-2.259-.129-3.337l-.064-.534h.276c.276 0 .562.009.82.027.102.01.138.056.138.12l-.019.092c-.036.064-.046.129-.046.23l.01.166c.073 1.014.129 2.129.129 3.244-.001 1.273-.185 2.203-.59 2.942zM21.564 1.574c.434-.11.83-.239 1.227-.359v.157c0 .248.018.534.046.802v.019c0 .082-.046.101-.093.119l-1.438.434c-.378 1.465-.737 2.921-1.105 4.322l-.093.451c-.387-.083-.802-.193-1.216-.304l.165-.452c.406-1.244.802-2.589 1.097-3.787-.368.11-.682.193-.985.258l-.037.009-.093-.083c-.101-.276-.175-.654-.248-.939l.304-.046c.405-.085.857-.196 1.318-.325.101-.507.156-1.004.175-1.475.415.019.729.037 1.105.083.056.01.083.037.083.083l-.009.046-.203.987zm4.166 1.917l-.11.064-.064-.009c-.249-.074-.507-.11-.774-.11-.498 0-.793.295-.793.59 0 .175.047.359.083.488.12.451.268.986.396 1.512.812.175 1.678.534 2.351.921l.073.083-.027.064c-.175.313-.332.636-.461.978-.562-.406-1.18-.737-1.761-.922v.12c0 .894-.507 1.336-1.612 1.336-1.161 0-1.898-.534-1.898-1.392 0-.729.59-1.346 1.807-1.346l.442.019c-.111-.424-.249-.903-.332-1.171-.083-.267-.12-.497-.12-.719 0-.58.359-1.022 1.097-1.234-.378-.157-.756-.276-1.069-.351.13-.193.313-.525.498-.783l.11-.064.064.009c.903.23 1.816.627 2.498 1.134l.046.074-.019.064-.425.645zm-2.931 3.337c-.553 0-.729.138-.729.341 0 .276.342.424.793.424.276 0 .461-.056.581-.185.073-.083.119-.193.119-.351l-.009-.165c-.165-.037-.395-.064-.755-.064zM31.8 5.979c-.304.729-.746 1.493-1.105 1.917-.157.185-.351.276-.544.276-.203 0-.405-.101-.581-.295-.387-.442-.756-1.363-.756-2.985 0-.876.147-1.981.517-3.337.064-.221.102-.424.147-.663.368.102.792.23 1.134.387l.055.064-.019.056c-.083.138-.156.313-.202.461-.378 1.207-.535 2.341-.535 3.014 0 .737.083 1.253.212 1.558l.083.073.12-.092c.295-.415.562-.949.866-1.622.129.341.341.627.553.82.056.055.093.12.093.202l-.038.166zm4.489.498l-.064.064c-.313.074-.729.175-1.124.249-.194-1.161-.562-2.249-1.097-3.226.341-.102.7-.185.958-.23l.046-.01.111.074c.46.774.811 1.677 1.041 2.636.037.156.074.286.12.405l.009.038zM38.109 2.228l.36.019c.35-.009.755-.027 1.253-.055.11-.517.23-1.015.305-1.466.027-.147.046-.295.046-.442.341.064.719.175 1.078.295.064.019.092.046.092.102l-.019.083c-.119.414-.267.903-.387 1.4.341-.019.599-.027.802-.027.415 0 .59.046.783.185.276.184.471.58.471 1.465 0 1.069-.093 2.359-.313 3.271-.259 1.042-.756 1.41-2.019 1.493h-.027c-.139 0-.203-.055-.259-.193-.138-.36-.295-.683-.516-.858.405-.01.875-.047 1.263-.148.258-.064.378-.165.442-.46.221-.978.35-2.23.35-3.466 0-.185-.036-.249-.193-.249h-.027c-.341.01-.719.028-.986.056-.396 1.4-1.005 3.622-1.456 5.336l-.074.083-.046-.009c-.304-.093-.59-.249-.829-.378-.064-.037-.093-.056-.093-.11l.01-.064c.461-1.558.94-3.235 1.364-4.82-.396.027-.876.046-1.226.055-.12 0-.166-.046-.166-.129l.017-.969zm6.323-.175l.083-.027.092.055c.571.737 1.143 1.798 1.502 2.895l.01.046-.056.064c-.332.147-.682.304-1.005.461l-.092-.378c-.322-.959-.829-1.927-1.4-2.729l.866-.387zM48.769 6.735c-.093-.019-.139-.055-.157-.202-.046-.535-.102-1.263-.102-1.973 0-.627.028-1.254.093-1.844l.046-.414c.258.046.646.119 1.041.239l.074.074-.019.073c-.046.074-.073.175-.092.305-.064.433-.12.968-.12 1.558l.009.451c.691-.71 1.586-1.06 2.517-1.06 1.438 0 2.313.931 2.313 2.11 0 1.29-1.189 2.35-3.41 2.627h-.074c-.129 0-.193-.047-.239-.12-.139-.268-.396-.498-.765-.691 2.341-.249 3.373-.958 3.373-1.843 0-.627-.498-1.069-1.198-1.069-.995 0-1.944.599-2.479 1.788-.037.073-.083.101-.138.101h-.028l-.645-.11zm2.516-4.443c-.516-.58-1.069-1.06-1.622-1.41.295-.248.571-.46.857-.636l.064-.019.073.028c.544.322 1.032.756 1.539 1.336-.257.149-.598.416-.911.701zM57.153 6.191c.637.442 1.41 1.171 1.917 1.807l-.902.829c-.479-.617-1.208-1.409-1.844-1.88l.829-.756zM64.671 6.238c-.479 0-.839.018-1.125.055v-1.023c.313.046.683.064 1.115.064h2.507v-.064c0-.185-.009-.351-.027-.507h.396c.396-.203.7-.406 1.088-.747h-2.535c-.378 0-.626.01-.921.037v-.922c.276.037.534.046.931.046h3.05c.36 0 .535-.009.701-.036l.507.562-.332.276c-.654.562-1.124.903-1.843 1.346v.01h2.405c.451 0 .856-.019 1.134-.064v1.022c-.268-.037-.664-.055-1.144-.055h-2.396v1.612c0 .322-.028.452-.12.581-.157.23-.47.304-1.3.304-.119 0-.424-.009-.903-.037-.101-.488-.147-.645-.304-.977.442.064.857.092 1.143.092.405 0 .47-.027.47-.212v-1.363h-2.497zm.47-4.554c-.212-.405-.332-.59-.691-1.041l.932-.276c.322.396.534.728.838 1.317h.978c-.157-.433-.305-.755-.562-1.161l.959-.267c.377.709.433.838.636 1.428h.783c.276-.368.599-.949.756-1.382l.995.276c-.212.396-.479.82-.691 1.105h.415c.627 0 .802-.009 1.134-.036-.028.23-.037.414-.037.765v.858c0 .248.019.479.046.7h-1.005v-1.428h-6.009v1.428h-1.004c.036-.212.046-.424.046-.71v-.847c0-.332-.01-.525-.037-.765.415.036.47.036 1.088.036h.43zM79.127.689l.074-.019.102.083c.479.895 1.299 1.77 2.516 2.71.139.11.212.249.212.405 0 .11-.046.23-.12.351-.193.285-.47.59-.709.765l-.139.056-.12-.056c-.239-.203-.525-.359-.765-.433.212-.139.396-.286.562-.479l.055-.11-.064-.111c-.35-.304-.709-.663-1.014-1.041.268.756.434 1.695.434 2.322 0 2.351-1.364 3.466-3.244 3.466-1.613 0-2.802-1.069-2.802-3.023 0-.968.332-2.019 1.18-3.235-.571.157-1.207.305-1.539.369l-.056.009c-.064 0-.092-.036-.11-.119-.056-.259-.12-.59-.166-.931l.341-.037c.774-.129 1.604-.313 2.415-.525l.332-.11.082-.019.139.073.424.442.046.102-.083.129c-1.161.978-1.917 2.396-1.917 3.724 0 1.4.691 2.064 1.733 2.064 1.327 0 2.193-.903 2.184-2.608-.009-1.317-.295-2.516-.939-3.677l-.037-.093c0-.055.037-.083.102-.11l.891-.334zm1.585 1.272c-.175-.323-.433-.664-.719-.978l.359-.212.064-.019.102.046c.24.222.488.535.691.867l-.497.296zm.72-.433c-.194-.322-.471-.654-.747-.922l.341-.202.093-.028.073.028c.24.212.507.525.729.848l-.489.276zM87.41 2.735c-.01.093-.046.139-.129.157-.405.083-.82.138-1.29.212-.471 1.668-1.051 3.668-1.53 5.483-.387-.092-.756-.221-1.134-.351.553-1.723 1.069-3.438 1.512-5.06l-.765.019h-.24c-.064 0-.083-.019-.083-.092l.056-.995.268.027h.285l.765-.019c.111-.415.212-.829.295-1.309.028-.157.047-.313.056-.461.359.046.756.129 1.097.221l.083.065-.019.073c-.166.488-.258.876-.368 1.327.405-.037.756-.083 1.198-.156-.03.325-.049.611-.057.859zm2.027 5.696h-.092c-1.061 0-2.037-.147-2.783-.424-.093-.037-.129-.065-.129-.157.018-.156.027-.332.027-.507 0-.203-.01-.405-.027-.59.912.341 1.926.525 2.949.525.672 0 1.354-.037 1.953-.102l-.009.525.019.608c-.516.066-1.088.122-1.908.122zm1.558-4.388c-1.014-.312-2.156-.534-3.483-.58.064-.351.119-.654.212-.977.019-.056.037-.093.11-.093h.074c1.032 0 2.331.193 3.253.517l.083.083-.01.036-.239 1.014zM96.474 5.979c-.304.729-.746 1.493-1.105 1.917-.157.185-.351.276-.544.276-.203 0-.405-.101-.581-.295-.387-.442-.756-1.363-.756-2.985 0-.876.147-1.981.517-3.337.064-.221.102-.424.147-.663.368.102.792.23 1.134.387l.055.064-.019.056c-.083.138-.156.313-.202.461-.378 1.207-.535 2.341-.535 3.014 0 .737.083 1.253.212 1.558l.083.073.12-.092c.295-.415.562-.949.866-1.622.129.341.341.627.553.82.056.055.093.12.093.202l-.038.166zm4.488.498l-.064.064c-.313.074-.729.175-1.124.249-.194-1.161-.562-2.249-1.097-3.226.341-.102.7-.185.958-.23l.046-.01.111.074c.46.774.811 1.677 1.041 2.636.037.156.074.286.12.405l.009.038zM105.107 7.491c0 .691-.562 1.263-1.254 1.263-.69 0-1.262-.571-1.262-1.263 0-.682.571-1.253 1.262-1.253.691 0 1.254.571 1.254 1.253zm-2.046 0c0 .442.359.793.792.793.434 0 .793-.351.793-.793 0-.434-.359-.783-.793-.783-.433 0-.792.349-.792.783zM115.388 7.777c-.876.165-.876.165-1.871.313-.737.101-1.06.156-1.29.202l-.212-.949.147.009c.147 0 .405-.018.792-.046v-2.856c-.405 0-.636.009-.912.046v-.895c.249.047.488.056.949.056h6.516c.471 0 .701-.009.959-.056v.895c-.295-.037-.516-.046-.968-.046h-3.198v3.373c.479-.176.895-.388 1.244-.654-.322-.369-.507-.627-.838-1.171l.783-.35h-.24c-.295 0-.461.009-.691.036v-.866c.213.028.396.037.774.037h1.549c.313 0 .544-.009.691-.037l.479.525-.147.268c-.304.608-.673 1.161-1.051 1.576.415.267.922.47 1.632.654-.185.276-.332.562-.47.903-.978-.378-1.235-.517-1.807-.959-.461.378-.83.608-1.429.895-.12-.295-.276-.562-.479-.774 0 .378.01.645.046.885h-1.014c.037-.222.056-.471.056-.931v-.083zm4.092-5.226c0 .359.01.58.037.802-.212-.019-.544-.028-.857-.028h-4.682c-.415 0-.664.01-.949.028.027-.23.037-.461.037-.793v-1.244c0-.341-.01-.571-.037-.802.304.027.553.037.977.037h4.535c.424 0 .663-.01.977-.037-.027.221-.037.442-.037.802v1.235zm-4.092 1.899h-1.53v.414h1.53v-.414zm0 1.087h-1.53v.442h1.53v-.442zm0 1.115h-1.53v.571c.452-.046.664-.073 1.53-.202v-.369zm-1.373-5.023h4.507v-.369h-4.507v.369zm0 1.014h4.507v-.378h-4.507v.378zm3.521 3.005c.249.47.378.673.654.968.286-.295.442-.525.682-.968h-1.336zM123.762 2.33c-.222.517-.322.71-.646 1.188-.239-.258-.507-.479-.756-.626.461-.618.71-1.144.932-1.945.082-.322.092-.387.129-.719l.968.166c-.037.093-.102.305-.176.608l-.119.434h1.05c.388 0 .6-.01.82-.047v.978c-.239-.028-.497-.037-.829-.037h-.083c-.009.636-.027 1.124-.046 1.447h.322c.351 0 .535-.01.774-.046v1.022c-.249-.027-.451-.037-.802-.037h-.396l-.056.323c.415.719.756 1.097 1.41 1.558-.322.35-.46.525-.663.848-.479-.442-.756-.783-1.042-1.263-.322.912-.773 1.595-1.529 2.313-.212-.332-.424-.608-.654-.839.894-.756 1.4-1.678 1.604-2.94h-.571c-.405 0-.627.01-.895.056v-1.051c.268.046.461.056.903.056h.664c.019-.305.037-.783.037-1.447h-.35zm4.792 5.133c.359-.766.535-1.263.747-2.129l.968.322c-.249.756-.434 1.207-.737 1.807h.544c.433 0 .636-.01.931-.046v1.041c-.286-.037-.498-.046-.931-.046h-3.3c-.434 0-.646.009-.931.046v-1.041c.295.036.497.046.931.046h1.778zm-2.395-6.829c.276.036.479.046.931.046h2.829c.452 0 .654-.01.931-.046v1.022c-.295-.027-.516-.037-.931-.037h-2.829c-.405 0-.646.01-.931.037v-1.022zm4.285 3.797c0 .387 0 .562.037.839-.276-.028-.507-.037-.876-.037h-2.359c-.359 0-.617.009-.875.037.027-.286.036-.471.036-.839v-1.3c0-.378-.009-.571-.036-.857.248.028.497.037.931.037h2.249c.424 0 .673-.009.931-.037-.028.277-.037.461-.037.857v1.3zm-3.134 2.921c-.221-.654-.424-1.105-.765-1.64l.857-.378c.387.636.571 1.022.802 1.641l-.894.377zm.047-3.031h2.119v-1.107h-2.119v1.107zM134.763 3.638h-.646c-.332 0-.534.01-.812.028.028-.24.037-.498.037-.94v-1.189c0-.433-.009-.719-.037-.968.295.028.517.037.895.037h1.529c.396 0 .627-.009.903-.037-.019.222-.027.479-.027.922v1.263c0 .59 0 .719.019.903-.175-.009-.405-.019-.737-.019h-.212v1.097h.322c.359 0 .535-.009.747-.055v.958c-.259-.037-.415-.046-.747-.046h-.322v1.465c.378-.11.562-.165 1.097-.341l.009.931c-1.105.351-1.76.535-3.188.867l-.544.156-.175-1.06c.202 0 .313-.019.516-.056v-2.423c0-.313-.009-.562-.046-.839h.977c-.036.23-.046.442-.046.774v2.332l.489-.111v-3.649zm-.479-.847h1.392v-1.319h-1.392v1.319zm3.815 4.617h2.359c.396 0 .737-.019 1.022-.056v1.051c-.295-.036-.58-.055-1.004-.055h-2.378v.47h-1.042c.037-.295.056-.682.056-1.124v-6.175c0-.332-.019-.747-.037-.95.249.028.571.037.959.037h2.341c.461 0 .737-.019 1.022-.055v1.041c-.295-.027-.617-.046-.985-.046h-2.313v1.217h2.064c.396 0 .627-.01.875-.037-.018.295-.027.507-.027.875v1.549c0 .498.01.691.027.894-.276-.018-.525-.027-.848-.027h-2.092v1.391zm1.954-2.314v-1.41h-1.954v1.41h1.954zM145.283.855c0-.268-.018-.433-.046-.59h1.042c-.028.185-.047.332-.047.581v.11h.876c.304 0 .59-.019.82-.046v.894c-.258-.027-.498-.037-.812-.037h-2.783c-.359 0-.571.01-.783.037v-.893c.222.036.434.046.82.046h.912v-.102zm1.179 6.783l-.083-.396c-.368.102-.875.212-1.309.286l-.267.064-.185-.774v.986c0 .525.009.756.037.968h-.978c.028-.276.046-.571.046-.986v-1.973c0-.35-.009-.607-.036-.912.239.027.479.037.765.037h.839l.064-.434h-.756c-.304 0-.434 0-.71.019.028-.175.037-.368.037-.673v-1.244c0-.193-.019-.424-.046-.645h.885c-.027.175-.037.322-.037.534v.71c.286-.176.378-.24.608-.434-.193-.156-.276-.221-.544-.415l.452-.451c.267.193.322.239.543.415.157-.185.212-.249.36-.498l.534.434c-.175.23-.23.304-.396.488.157.138.23.202.452.424l-.443.544c-.229-.249-.304-.332-.47-.489-.212.194-.35.305-.719.562-.147-.202-.23-.313-.378-.451v.461h2.019v-1.3c0-.203-.009-.359-.037-.534h.876c-.028.165-.037.304-.037.534v.646c.221-.323.442-.729.646-1.208.285-.654.414-1.105.516-1.76l.968.258-.129.341c-.074.23-.175.507-.341.949h.746c.24-.488.369-.885.498-1.447l.912.24-.202.516c-.037.102-.249.572-.313.691h.138c.507 0 .691-.009.949-.046v.968c-.239-.027-.488-.037-.949-.037h-.193v1.023h.175c.396 0 .571-.01.774-.046v.902c-.193-.027-.442-.036-.783-.036h-.166v1.022h.175c.359 0 .571-.009.774-.046v.912c-.193-.027-.461-.046-.774-.046h-.175v1.189h.332c.378 0 .654-.019.885-.047v.986c-.24-.036-.618-.055-.978-.055h-1.917v.414h-.939c.037-.221.046-.497.046-1.004v-3.536c0-.295 0-.359.019-.608-.157.267-.193.322-.359.534-.12-.23-.176-.304-.332-.488v.276l.019.571c-.276-.019-.424-.019-.664-.019h-.709l-.083.434h.958c.415 0 .571-.01.793-.037-.027.23-.037.452-.037.747v2.147c0 .765-.212.902-1.373.902l-.396-.009c-.027-.313-.073-.544-.193-.866.268.037.544.064.682.064.406 0 .442-.019.442-.24v-.238l-.528.23zm-1.769-.866h.037l.147-.01c.11-.35.175-.626.268-1.068h-.535v1.078h.083zm1.254-1.078c-.129.553-.175.709-.258.977l.479-.083c-.055-.156-.092-.239-.202-.461l.599-.212c.212.434.276.59.424 1.061v-1.282h-1.042zm3.99-3.088h-.811v1.023h.811v-1.023zm-.811 1.844v1.022h.811v-1.022h-.811zm0 3.032h.811v-1.19h-.811v1.19zM161.445 1.731l.019.064c0 .046-.037.073-.157.073-1.041 0-1.806.23-2.488.729-.783.562-1.18 1.392-1.18 2.331 0 1.244.517 1.733 1.438 1.954.572.139 1.263.222 2.047.249-.093.341-.166.719-.203 1.041-.01.093-.056.102-.139.102-.802-.037-1.492-.138-2.165-.322-1.401-.369-2.111-1.41-2.111-2.848 0-.986.286-1.853 1.097-2.737-1.151.23-2.229.415-3.28.571l-.064.009c-.064 0-.083-.027-.102-.11l-.212-1.005.424-.027c1.493-.156 2.986-.415 4.424-.682.783-.147 1.558-.249 2.166-.305.11 0 .166.028.193.111l.293.802zm-.756 2.35c-.185-.322-.451-.663-.737-.968l.351-.212.073-.027.093.046c.239.222.497.534.709.857l-.489.304zm.7-.443c-.193-.322-.479-.654-.765-.922l.341-.202.093-.037.073.037c.249.202.525.507.746.829l-.488.295zM164.271 6.191c.637.442 1.41 1.171 1.917 1.807l-.903.829c-.479-.617-1.207-1.409-1.843-1.88l.829-.756zM170.582 3.804c.248.037.396.046.737.046h.811c.276 0 .461-.009.7-.046-.027.286-.036.525-.036 1.014v1.852c.184.305.378.479.728.673.369.212.885.276 2.276.276 1.447 0 2.488-.055 3.41-.166-.156.415-.221.664-.276 1.069-.719.037-2.434.074-3.115.074-2.083 0-2.746-.203-3.493-1.051-.414.396-.645.59-1.253 1.041l-.176.129-.451-1.078.147-.064c.203-.073.848-.525 1.244-.885v-1.88h-.617c-.249 0-.388.009-.636.046v-1.05zm.866-3.364c.773.701.985.913 1.604 1.687l-.765.737c-.562-.765-.903-1.143-1.586-1.741l.747-.683zm3.456 3.392c-.074 1.622-.341 2.507-1.014 3.42-.313-.351-.498-.525-.793-.747.664-.82.866-1.788.866-4.138 0-.673-.019-1.051-.046-1.327l.285.009c.664 0 2.083-.221 2.978-.47.341-.092.59-.193.756-.295l.756.875c-1.015.369-2.268.618-3.761.756v.968h3.051c.424 0 .663-.009.949-.046v1.042c-.286-.028-.571-.047-.912-.047h-.535v2.471c0 .479.019.765.056.985h-1.106c.037-.239.056-.507.056-.985v-2.471h-1.586zM187.011 7.159c-.931.424-2 .664-3.051.747h-.037c-.138 0-.221-.046-.258-.12-.129-.276-.387-.646-.746-.866 1.253-.064 2.488-.322 3.419-.7.912-.378 1.263-.922 1.263-1.567 0-.921-.599-1.529-1.512-1.529-.368 0-.903.064-1.585.193-.968.193-2.102.497-3.105.765-.176.046-.359.083-.525.102h-.046c-.065 0-.093-.027-.12-.083-.12-.351-.222-.691-.295-1.041.175 0 .378-.037.59-.093 1.124-.276 2.23-.553 3.364-.765.672-.129 1.188-.185 1.778-.185 1.512 0 2.627 1.069 2.627 2.636 0 1.16-.563 1.972-1.761 2.506zm1.041-4.811c-.175-.322-.433-.673-.709-.977l.359-.213.064-.018.092.046c.24.221.488.534.691.866l-.497.296zm.72-.433c-.194-.322-.471-.654-.747-.921l.341-.203.093-.037.083.037c.239.212.507.525.719.848l-.489.276zM193.615.33c.295-.027.664-.064 1.051-.083l.074.064c.037.313.12.737.185 1.032.433-.102.977-.258 1.419-.424.046.369.102.673.156.876l.01.055-.064.093c-.369.129-.783.249-1.281.368.074.286.156.581.276.895.313-.056.59-.129.986-.249.11-.037.147-.064.147-.175 0-.093-.019-.213-.056-.369.249.037.608.064.895.064h.119c.074 0 .12.01.147.092.064.203.13.452.13.646l-.01.092c-.027.23-.185.36-.525.479-.378.129-.894.268-1.456.405.203.489.517 1.032.895 1.503l.046.102-.046.092-.388.488c-.037.056-.083.083-.129.083l-.092-.027c-.701-.295-1.447-.434-2.378-.434-.82 0-1.217.323-1.217.673 0 .553.627.885 2.313.885.562 0 1.217-.027 1.861-.102-.092.305-.156.673-.175.968-.01.074-.027.102-.102.102-.415.037-1.023.074-1.641.074-2.479 0-3.373-.737-3.373-1.927 0-.968.729-1.622 2.498-1.622.47 0 .848.037 1.253.083l-.332-.756c-1.226.176-2.258.286-3.4.351-.074 0-.11-.028-.139-.11l-.295-.913c1.208-.036 2.359-.147 3.503-.322-.093-.286-.185-.553-.268-.848-.839.175-1.668.285-2.461.341h-.019l-.083-.083-.368-.94c.885-.036 1.751-.129 2.673-.295l-.339-1.227zM203.658 2.735c-.01.093-.046.139-.129.157-.405.083-.82.138-1.29.212-.471 1.668-1.051 3.668-1.53 5.483-.387-.092-.756-.221-1.134-.351.553-1.723 1.069-3.438 1.512-5.06l-.765.019h-.24c-.064 0-.083-.019-.083-.092l.056-.995.268.027h.285l.765-.019c.111-.415.212-.829.295-1.309.028-.157.047-.313.056-.461.359.046.756.129 1.097.221l.083.065-.019.073c-.166.488-.258.876-.368 1.327.405-.037.756-.083 1.198-.156-.03.325-.048.611-.057.859zm2.027 5.696h-.092c-1.061 0-2.037-.147-2.783-.424-.093-.037-.129-.065-.129-.157.018-.156.027-.332.027-.507 0-.203-.01-.405-.027-.59.912.341 1.926.525 2.949.525.672 0 1.354-.037 1.953-.102l-.009.525.019.608c-.516.066-1.088.122-1.908.122zm1.558-4.388c-1.014-.312-2.156-.534-3.483-.58.064-.351.119-.654.212-.977.019-.056.037-.093.11-.093h.074c1.032 0 2.331.193 3.253.517l.083.083-.01.036-.239 1.014zM212.722 5.979c-.304.729-.746 1.493-1.105 1.917-.157.185-.351.276-.544.276-.203 0-.405-.101-.581-.295-.387-.442-.756-1.363-.756-2.985 0-.876.147-1.981.517-3.337.064-.221.102-.424.147-.663.368.102.792.23 1.134.387l.055.064-.019.056c-.083.138-.156.313-.202.461-.378 1.207-.535 2.341-.535 3.014 0 .737.083 1.253.212 1.558l.083.073.12-.092c.295-.415.562-.949.866-1.622.129.341.341.627.553.82.056.055.093.12.093.202l-.038.166zm4.488.498l-.064.064c-.313.074-.729.175-1.124.249-.194-1.161-.562-2.249-1.097-3.226.341-.102.7-.185.958-.23l.046-.01.111.074c.46.774.811 1.677 1.041 2.636.037.156.074.286.12.405l.009.038zM221.355 7.491c0 .691-.562 1.263-1.254 1.263-.69 0-1.262-.571-1.262-1.263 0-.682.571-1.253 1.262-1.253.691 0 1.254.571 1.254 1.253zm-2.046 0c0 .442.359.793.792.793.434 0 .793-.351.793-.793 0-.434-.359-.783-.793-.783-.433 0-.792.349-.792.783z"/></svg>