<svg xmlns="http://www.w3.org/2000/svg" width="197" height="9" viewBox="0 0 197 9"><path fill="#121212" d="M1.387.818c.083 0 .12.037.12.092l-.046.102c-.046.074-.074.156-.074.239l.056 3.641c0 .176.027.369.046.525h-.359c-.313 0-.581.01-.83.019l-.073-.056v-.027l.009-.507-.028-3.419c0-.222-.009-.452-.027-.654l1.206.045zm3.263-.11c.073 0 .11.036.11.092l-.046.129c-.037.055-.055.147-.055.267v.461l.01 1.797c0 1.687-.12 2.461-.507 3.207-.415.802-1.171 1.539-1.909 1.807l-.11.018c-.064 0-.12-.037-.166-.092-.249-.286-.488-.516-.875-.691.894-.332 1.539-.857 1.916-1.567.323-.609.452-1.346.452-2.802 0-.737 0-1.475-.027-2.202-.01-.166-.028-.332-.056-.488l1.263.064zM13.688 2.33l.047.101-.019.083c-.139.259-.24.461-.351.691-.654 1.429-1.419 2.553-2.249 3.42-.765.783-1.741 1.446-2.719 1.778l-.12.027-.138-.083c-.313-.322-.617-.59-.995-.802.332-.082.646-.192.95-.321.746-.314 1.493-.802 2.083-1.373.802-.774 1.521-1.788 2.027-2.913l-2.221.065c-.599.885-1.29 1.622-1.963 2.138l-.11.046-.129-.073c-.212-.222-.59-.452-.866-.562 1.271-.977 2.202-2.129 2.802-3.346.119-.239.185-.424.23-.627.331.083.765.194 1.124.323.092.027.129.073.129.12l-.092.11c-.093.055-.139.119-.212.249-.12.221-.203.414-.323.607l1.862-.073c.258-.009.47-.019.682-.046l.064-.01.139.074.368.397zM17.778 1.62c.092.009.129.056.129.11l-.037.11c-.092.139-.11.268-.11.396.009.332.009.627.009.895 0 1.493-.073 2.129-.285 2.746-.295.839-.876 1.539-1.475 1.825l-.129.036c-.056 0-.111-.027-.157-.073-.221-.212-.507-.424-.949-.608.737-.304 1.254-.829 1.512-1.466.258-.654.332-1.465.332-2.995 0-.276-.019-.645-.047-1.087l1.207.111zm2.101 4.673c.682-.332 1.354-.756 2.018-1.3.259-.212.507-.442.756-.71 0 .359.093.812.203 1.115l.027.102-.046.083c-.903.829-2.185 1.585-3.29 2l-.12.027-.138-.055-.517-.388c-.064-.045-.082-.072-.082-.137v-.037l.027-.627c.019-1.161.028-2.304.028-3.668 0-.488 0-.903-.046-1.419l1.226.102c.073.009.101.046.101.092l-.046.129c-.073.102-.101.203-.101.378v4.313zM30.805 3.952c.461 0 .932-.019 1.355-.037l-.019.746.009.498c-1.041-.037-1.972-.056-3.014-.056h-.636c-1.429.019-2.691.028-3.751.064-.083 0-.12-.027-.12-.11l.028-1.115c.138.019.239.028.414.028l5.734-.018zM37.945 5.657l-.101.064-.093-.056-.12-.156c-.47-.517-1.05-1.023-1.548-1.383l-.009.627c0 .856.018 2.129.046 3.068 0 .194.019.369.036.554l-.636-.01-.58.01c-.074 0-.093-.028-.093-.102l.019-.434c.037-1.207.056-2.442.056-3.658 0-.978 0-1.936-.027-2.913-.01-.184-.037-.387-.065-.553.498.01.903.019 1.281.064.064.01.102.037.102.092l-.037.102c-.046.083-.064.176-.073.313-.019.442-.027.895-.027 1.456 0 .323 0 .691.009 1.106.185-.203.332-.415.498-.664l.064-.046.055.027.185.139c.498.378 1.097.885 1.585 1.383l.259.23c-.261.187-.62.556-.786.74zM48.099 3.427l.036.073-.027.074c-.073.129-.138.267-.212.442-.977 2.331-2.295 3.695-4.193 4.312-.304.102-.59.147-.848.166h-.064c-.11 0-.166-.036-.212-.129-.166-.313-.488-.673-.774-.848.498-.046 1.032-.139 1.466-.286 1.465-.497 2.654-1.575 3.336-3.18l-2.156.01c-1.051 0-2.019.019-2.932.037-.073 0-.101-.028-.11-.093l-.009-.756v-.295l.414.028c.442.009.885.009 1.327.009h1.318c1.069 0 2.056-.019 3.069-.064.092 0 .147.009.193.064l.378.436zm-3.512-2.581c.691 0 1.761 0 2.442-.009.139 0 .286 0 .424-.019l-.009.608v.461c0 .073-.028.092-.093.092-.783-.027-1.936-.037-2.811-.037-.793 0-1.595 0-2.295.028-.102 0-.129-.028-.139-.083-.009-.378-.009-.737-.009-1.061l.507.019h1.983zM54.805.892c.102.037.147.083.147.13 0 .046-.056.101-.139.146-.092.047-.138.111-.23.249-.23.369-.571.866-1.069 1.475l.36.111c.064.027.092.055.092.101l-.056.111c-.064.064-.083.138-.083.267v2.157c0 .792.01 1.612.037 2.414l.027.498-1.244.019.019-.525c.01-.729.01-1.447.01-2.157v-1.973c-.618.663-1.337 1.217-1.991 1.576l-.138.046-.129-.064c-.313-.276-.554-.471-.885-.59.58-.286 1.068-.608 1.575-1.042 1.023-.866 1.871-1.953 2.396-3.004l.157-.351 1.144.406zM64.23 1.961l.046.083-.009.056c-.083.175-.166.368-.23.571-.766 2.341-2.037 3.99-3.734 4.958-.525.295-.985.498-1.382.6l-.11.018c-.083 0-.139-.036-.185-.119-.212-.322-.488-.636-.82-.848.562-.12 1.18-.378 1.732-.664 1.475-.783 2.673-2.175 3.263-4.046l-2.424.019c-.82.009-1.631.019-2.802.055-.129 0-.147-.009-.147-.11l.037-1.124c.166.019.35.027.516.027.857.019 1.742.027 2.608.027 1.005 0 2.009-.009 2.949-.046.11 0 .147.01.203.056l.489.487zM72.246 1.805l.037.073-.027.064c-.065.102-.13.203-.203.359-.434.94-.931 1.834-1.456 2.581.857.608 1.751 1.429 2.378 2.138l.267.286c-.322.23-.607.479-.894.737l-.074.037-.083-.056c-.636-.802-1.502-1.678-2.276-2.276-.543.608-1.151 1.097-1.787 1.493-.6.368-1.051.571-1.374.645l-.083.01c-.073 0-.119-.027-.175-.102-.239-.268-.544-.571-.848-.765.59-.129 1.263-.415 1.732-.691 1.475-.876 2.59-2.139 3.354-3.908l-2.11.019c-.7.01-1.29.028-1.954.047l-.46.027v-1.207l.507.027 4.497-.01c.166 0 .313-.009.479-.027.083 0 .12 0 .166.056l.387.443zM81.532 2.1l.056.102-.019.073-.222.581c-.378 1.087-.811 2-1.263 2.736.332.286.691.673.959.986-.305.203-.664.488-.903.71-.203-.286-.451-.571-.746-.839-.72.802-1.604 1.401-2.396 1.732-.305.13-.571.213-.83.249l-.064.01c-.083 0-.129-.028-.175-.102-.23-.351-.498-.608-.829-.765.461-.074.903-.203 1.317-.378.756-.323 1.493-.812 2.139-1.503-.498-.414-.885-.691-1.281-.912.166-.221.405-.507.636-.746l.056-.028.064.037c.037.046.129.11.212.156.276.166.562.369.958.683.342-.488.691-1.3.959-2.046l-1.944.064c-.479.802-1.189 1.695-1.853 2.322l-.12.046-.11-.037c-.222-.184-.544-.368-.839-.47 1.134-1.069 2.037-2.35 2.571-3.604.092-.212.166-.433.221-.636.332.083.72.203 1.069.304.064.019.102.056.102.102l-.073.11c-.083.056-.157.147-.203.23l-.305.627 1.881-.092c.166-.01.295-.028.47-.056h.037l.073.019.395.335zM88.267.892c.102.037.147.083.147.13 0 .046-.056.101-.139.146-.092.047-.138.111-.23.249-.23.369-.571.866-1.068 1.475l.359.111c.064.027.092.055.092.101l-.056.111c-.064.064-.083.138-.083.267v2.157c0 .792.01 1.612.037 2.414l.027.498-1.243.018.019-.525c.01-.729.01-1.447.01-2.157v-1.972c-.618.663-1.337 1.217-1.991 1.576l-.138.046-.13-.064c-.312-.276-.553-.471-.885-.59.581-.286 1.069-.608 1.576-1.042 1.023-.866 1.871-1.953 2.396-3.004l.156-.351 1.144.406zM93.158 1.62c.092.009.129.056.129.11l-.037.11c-.092.139-.11.268-.11.396.009.332.009.627.009.895 0 1.493-.073 2.129-.285 2.746-.295.839-.876 1.539-1.475 1.825l-.129.036c-.056 0-.111-.027-.157-.073-.221-.212-.507-.424-.949-.608.737-.304 1.254-.829 1.512-1.466.258-.654.332-1.465.332-2.995 0-.276-.019-.645-.047-1.087l1.207.111zm2.1 4.673c.683-.332 1.355-.756 2.019-1.3.259-.212.507-.442.756-.71 0 .359.093.812.203 1.115l.027.102-.046.083c-.903.829-2.185 1.585-3.29 2l-.12.027-.139-.055-.516-.388c-.064-.045-.082-.072-.082-.137v-.037l.027-.627c.019-1.161.028-2.304.028-3.668 0-.488 0-.903-.047-1.419l1.227.102c.073.009.102.046.102.092l-.047.129c-.073.102-.102.203-.102.378v4.313zM107.163 1.74l.019.064c0 .046-.037.073-.157.073-1.041 0-1.806.23-2.488.729-.783.562-1.18 1.392-1.18 2.331 0 1.244.517 1.733 1.438 1.954.572.139 1.263.222 2.047.249-.093.341-.166.719-.203 1.041-.01.093-.056.102-.139.102-.802-.037-1.492-.138-2.165-.322-1.401-.369-2.111-1.41-2.111-2.848 0-.986.286-1.853 1.097-2.737-1.151.23-2.229.415-3.28.571l-.064.009c-.064 0-.083-.027-.102-.11l-.212-1.005.424-.027c1.493-.156 2.986-.415 4.424-.682.783-.147 1.558-.249 2.166-.305.11 0 .166.028.193.111l.293.802zm-.756 2.35c-.185-.322-.451-.663-.737-.968l.351-.212.073-.027.093.046c.239.222.497.534.709.857l-.489.304zm.7-.443c-.193-.322-.479-.654-.765-.922l.341-.202.093-.037.073.037c.249.202.525.507.746.829l-.488.295zM115.933 7.556c-.378.23-.949.479-1.41.544l-.092.009c-.093 0-.157-.037-.212-.11-.139-.212-.452-.517-.793-.654.58-.102 1.152-.286 1.576-.498.894-.451 1.346-1.088 1.346-2.102 0-1.161-.71-2.258-2.323-2.479-.147 2.719-.949 4.377-1.981 5.234-.258.222-.516.332-.783.332-.23 0-.47-.093-.719-.258-.691-.471-1.244-1.346-1.244-2.646 0-2.092 1.742-3.705 4.285-3.705 2.544 0 3.908 1.807 3.908 3.549 0 1.17-.526 2.148-1.558 2.784zm-5.512-2.692c0 .728.185 1.244.507 1.604.083.092.166.139.268.139.092 0 .185-.047.286-.139.82-.746 1.363-2.027 1.354-4.193-1.622.257-2.415 1.41-2.415 2.589zM121.073 6.136c.119.424.202.571.433.756.304.24.673.359 1.115.359.912 0 1.493-.47 1.493-1.198 0-.424-.185-.773-.517-.968-.221-.129-.654-.221-1.06-.221s-.673.009-.986.046v-1.142c.295.037.498.046.895.046.921 0 1.465-.424 1.465-1.134 0-.636-.433-.995-1.217-.995-.451 0-.783.102-1.004.286-.185.175-.276.331-.388.709l-1.317-.221c.23-.683.442-1.005.875-1.318.471-.341 1.069-.507 1.807-.507 1.539 0 2.535.774 2.535 1.973 0 .553-.24 1.06-.637 1.354-.202.156-.405.23-.894.359.654.102.995.258 1.317.617.305.342.442.729.442 1.272 0 .497-.212 1.005-.553 1.346-.507.488-1.281.746-2.267.746-1.079 0-1.816-.276-2.342-.875-.23-.259-.35-.498-.516-1.032l1.321-.258zM128.801 3.859c0-.202-.009-.341-.027-.534.193.019.396.027.646.027h2.009v-1.198h-1.926c-.479.747-.932 1.281-1.521 1.816-.267-.396-.368-.517-.682-.82.94-.803 1.419-1.41 1.797-2.313.129-.295.193-.488.222-.673l1.097.221-.139.276-.267.581h4.312c.434 0 .664-.009.94-.046v1.005c-.286-.037-.525-.047-.94-.047h-1.88v1.198h1.484c.424 0 .672-.009.949-.046v.977c-.277-.027-.525-.036-.922-.036h-1.512v1.493h2.139c.424 0 .719-.019 1.004-.056v1.051c-.285-.037-.608-.056-1.004-.056h-2.139v1.152c0 .47.01.719.056.986h-1.125c.037-.268.056-.517.056-1.005v-1.132h-3.097c-.405 0-.7.019-1.005.056v-1.051c.295.037.59.056 1.005.056h.47v-1.882zm2.627 1.881v-1.493h-1.659v1.493h1.659zM138.705 7.62c0 .553.019.885.056 1.134h-1.078c.037-.277.055-.572.055-1.144v-6.017c0-.479-.009-.737-.036-1.032.258.027.497.036.949.036h1.631c.479 0 .691-.009.94-.036-.019.295-.027.497-.027.856v1.41c0 .424.009.636.027.839-.24-.019-.525-.027-.848-.027h-1.669v3.981zm0-5.815h1.586v-.461h-1.586v.461zm0 1.124h1.586v-.47h-1.586v.47zm4.728 3.963c0 .351.009.562.027.802.203.019.534.046.7.046.259 0 .342-.064.342-.248v-3.853h-1.816c-.322 0-.617.009-.848.027.019-.268.027-.442.027-.839v-1.41c0-.313-.009-.571-.027-.856.249.027.47.036.94.036h1.77c.461 0 .691-.009.949-.036-.028.331-.037.562-.037 1.022v6.037c0 .553-.11.792-.442.931-.193.083-.47.11-1.041.11l-.637-.027c-.055-.415-.101-.581-.239-.949l-.516-.01h-1.954v.517h-.978c.037-.222.065-.59.065-.922v-2.249c0-.322-.01-.58-.028-.829.268.027.479.037.857.037h2.055c.388 0 .59-.01.857-.037-.019.239-.027.47-.027.829v1.871zm-2.802-1.336h1.88v-.554h-1.88v.554zm0 1.345h1.88v-.6h-1.88v.6zm2.148-5.096h1.724v-.461h-1.724v.461zm0 1.124h1.724v-.47h-1.724v.47zM149.264 8.146c-.083.147-.249.193-.442.193h-.102c-.193-.019-.322-.102-.415-.322-.258-.608-.451-1.705-.451-2.876 0-1.327.147-2.839.405-4.175.037-.166.064-.305.083-.479.322.037.729.102 1.042.175l.083.074-.01.056c-.056.129-.083.212-.12.368-.304 1.419-.451 2.986-.451 4.037 0 .479.046.949.102 1.28.175-.285.341-.654.488-1.114.092.322.258.571.488.811l.046.12-.019.092c-.164.58-.423 1.224-.727 1.76zm1.161-5.577h.286c.645 0 1.345-.027 2.055-.064-.037-.654-.073-1.254-.12-1.797h.277c.295 0 .571.009.802.036.055 0 .092.028.092.074l-.019.064-.037.239v.046c.01.396.01.82.047 1.263.59-.046 1.143-.11 1.714-.202-.037.212-.046.461-.046.7v.286c0 .064-.028.092-.074.101-.461.074-.977.111-1.558.185.056.931.093 1.815.176 2.71.626.202 1.336.544 1.926.922l.037.055-.019.056c-.129.276-.304.59-.479.866-.488-.369-.949-.636-1.438-.829v.073c0 .479-.166.71-.405.866-.286.193-.664.295-1.134.295-1.134 0-1.898-.47-1.898-1.456 0-.673.636-1.143 1.658-1.143.277 0 .479.027.691.064-.073-.885-.11-1.585-.156-2.415-.627.046-1.171.064-1.705.064h-.313c-.083 0-.12-.036-.138-.11l-.222-.949zm1.678 4.277c-.396 0-.544.129-.544.286 0 .267.359.424.802.424.378 0 .636-.111.636-.489v-.055c-.268-.111-.609-.166-.894-.166zM158.171 6.2c.637.442 1.41 1.171 1.917 1.807l-.902.829c-.479-.617-1.208-1.409-1.844-1.88l.829-.756zM170.813.929l.056.102-.056.12c-.765.875-1.631 1.824-2.516 2.737 1.373-.489 2.719-.83 3.641-.996.258-.046.46-.073.645-.073.074.009.092.019.102.083.019.285.064.534.129.856l.01.037-.074.037c-.664.037-1.226.139-1.714.285-.554.166-1.042.517-1.327.885-.277.351-.517.857-.517 1.401s.268.812.903.922c.544.102 1.235.156 2.027.175-.055.305-.092.654-.102.977-.009.074-.036.093-.11.093-.765-.028-1.558-.12-2.175-.249-1.014-.221-1.631-.729-1.631-1.705 0-.719.267-1.41.848-1.99-1.263.405-2.313.912-3.272 1.502l-.119.055-.083-.055c-.157-.23-.305-.507-.388-.802l-.009-.056.056-.083c.341-.193.755-.451 1.143-.746.903-.71 1.797-1.595 2.765-2.783-.82.212-1.566.405-2.055.497l-.064.01-.083-.074c-.083-.313-.139-.608-.194-.939l.305-.047c1.014-.156 2.009-.433 2.912-.672l.156-.028.157.056.634.468zM174.571 8.2c-.055-.019-.083-.055-.083-.101l.037-.102c.083-.147.175-.359.249-.535.958-2.387 2.23-4.866 3.511-6.875l.185-.332c.268.129.664.295 1.023.488l.037.056-.037.083-.212.276c-.664.931-1.291 1.944-1.991 3.253.517-.377.959-.562 1.53-.562.728 0 1.188.525 1.188 1.392l-.046 2.102c0 .147.046.221.175.221l.166-.027c.646-.176 1.493-.729 2.305-1.678.018.405.138.793.239.978l.037.129c0 .064-.028.138-.093.202-.958.986-1.853 1.503-2.848 1.503-.719 0-1.087-.359-1.087-1.115 0-.627.027-1.401.083-2.157v-.073c0-.276-.111-.405-.396-.405-.71 0-1.521.617-2.019 1.483-.341.59-.664 1.41-.876 2.027-.036.102-.073.139-.138.139l-.102-.028-.837-.342zM187.211 1.583c.434-.11.83-.239 1.227-.359v.157c0 .248.018.534.046.802v.019c0 .082-.046.101-.093.119l-1.438.434c-.378 1.465-.737 2.921-1.105 4.322l-.093.451c-.387-.083-.802-.193-1.216-.304l.165-.452c.406-1.244.802-2.589 1.097-3.787-.368.11-.682.193-.985.258l-.037.009-.093-.083c-.101-.276-.175-.654-.248-.939l.304-.046c.405-.083.857-.194 1.318-.323.101-.507.156-1.004.175-1.475.415.019.729.037 1.105.083.056.01.083.037.083.083l-.009.046-.203.985zm4.166 1.917l-.11.064-.064-.009c-.249-.074-.507-.11-.774-.11-.498 0-.793.295-.793.59 0 .175.047.359.083.488.12.451.268.986.396 1.512.812.175 1.678.534 2.351.921l.073.083-.027.064c-.175.313-.332.636-.461.978-.562-.406-1.18-.737-1.761-.922v.12c0 .894-.507 1.336-1.612 1.336-1.161 0-1.898-.534-1.898-1.392 0-.729.59-1.346 1.807-1.346l.442.019c-.111-.424-.249-.903-.332-1.171-.083-.267-.12-.497-.12-.719 0-.58.359-1.022 1.097-1.234-.378-.157-.756-.276-1.069-.351.13-.193.313-.525.498-.783l.11-.064.064.009c.903.23 1.816.627 2.498 1.134l.046.074-.019.064-.425.645zm-2.93 3.337c-.553 0-.729.138-.729.341 0 .276.342.424.793.424.276 0 .461-.056.581-.185.073-.083.119-.193.119-.351l-.009-.165c-.165-.037-.396-.064-.755-.064zM194.967 6.2c.637.442 1.41 1.171 1.917 1.807l-.903.829c-.479-.617-1.207-1.409-1.843-1.88l.829-.756z"/></svg>