<svg xmlns="http://www.w3.org/2000/svg" width="323" height="25" viewBox="0 0 323 25">
<style>path{fill-rule:evenodd;clip-rule:evenodd;fill:url(#pn)}</style>
<linearGradient id="pn"><stop offset="0" stop-color="#004eff"/><stop offset="1" stop-color="#00a2ff"/></linearGradient>
<path d="M15.04 10.896h-5.06c-1.078 0-1.857.026-2.629.102.336-.742.594-1.407.941-2.406l1.792-5.143c.33-.947.536-1.613.699-2.304.693.077 1.558.103 2.893.103l12.558.001c1.413 0 2.295-.026 2.963-.103-.309.666-.557 1.305-.905 2.304l-1.792 5.143c-.365 1.05-.572 1.715-.735 2.406-.744-.077-1.479-.103-2.558-.103h-4.288l-.891 2.56h4.981c1.541 0 2.192-.026 2.972-.128l-1.319 3.788c-.812-.103-1.65-.128-2.883-.128h-4.981l-1.098 3.148c1.094.102 2.762.179 4.073.179 1.823 0 3.519-.077 5.652-.23-1.125 1.536-1.669 2.431-2.375 4.018-1.559.05-3.169.102-4.402.102-3.852 0-6.552-.359-8.057-1.051-1.412-.665-2.626-2.048-3.126-3.634-1.794 2.2-3.07 3.506-5 5.066-.625-1.305-1.103-1.996-2.023-2.892 1.746-1.33 2.18-1.688 3.231-2.866 2.104-2.277 3.958-5.092 4.696-7.139l3.705.716c-.202.359-.359.589-.808 1.433-.324.563-.526.921-.894 1.536.199 1.716.715 2.74 1.841 3.635l2.827-8.113zm-1.534-6.066l-.927 2.662 10.4.001.927-2.662-10.4-.001zM40.744 13.048c-.996 1.459-2.345 3.122-3.327 4.095-.434.435-.881.614-1.523.614-.205 0-.402-.026-.624-.051-1.103-.154-1.489-.667-1.586-1.638-.103-1.254.139-3.199 1.11-5.989.677-1.945 1.817-4.556 3.155-7.217.229-.435.405-.87.582-1.305 1.214.128 2.564.307 3.854.512.196.026.247.102.184.282l-.07.127c-1.52 2.816-2.659 5.349-3.398 7.473-.214.614-.483 1.459-.7 2.304.756-.769 1.547-1.714 2.248-2.841-.03.896.086 1.817.34 2.636.04.179.046.384-.025.588-.045.129-.114.257-.22.41zm2.683 7.192c-1.468 1.562-3.138 2.815-4.845 3.736-.345.179-.638.282-.92.282-.231 0-.436-.078-.604-.257-.591-.588-1.739-1.203-2.828-1.612 2.292-1.126 4.228-2.406 5.729-3.916 1.676-1.714 2.894-3.737 3.758-6.218 1.203-3.455 2.153-6.551 2.956-9.443l.488-1.919c1.232 0 2.842.026 4.202.103.247.025.356.153.285.358l-.148.281c-.114.18-.237.385-.345.692-.044.127-.089.255-.116.409-.812 2.994-1.781 6.295-2.94 9.623-1.114 3.198-2.57 5.681-4.672 7.881zM66.891 3.761c1.1-.282 2.19-.538 3.324-.844-.384 1.177-.719 2.431-.948 3.532l-.035.101c-.071.205-.236.308-.443.385-1.194.333-3.032.818-4.278 1.151-2.209 3.762-4.592 7.728-6.854 11.566-.334.589-.562 1.024-.826 1.562-1.459-.307-2.86-.639-4.129-1.049.367-.538.734-1.075 1.109-1.638 2.125-3.225 4.303-6.603 6.046-9.545-.842.205-1.674.384-2.361.512l-.214.026c-.154 0-.221-.104-.21-.283.103-1.177.282-2.507.47-3.633.394-.026.806-.103 1.218-.179 1.073-.205 2.335-.435 3.52-.742.66-1.305 1.26-2.585 1.82-4.044 1.541 0 2.84.103 4.08.231.17.026.247.103.193.256l-.097.205-1.385 2.43zm9.413 6.374c-.155.153-.259.229-.414.229l-.213-.051c-.571-.205-1.262-.358-1.904-.358-1.027 0-1.831.538-2.072 1.228-.134.385-.207.743-.237 1.126-.127 1.101-.214 2.457-.362 3.916 1.894.461 3.978 1.408 5.453 2.406.111.052.136.128.108.205l-.122.205c-.983 1.127-2.037 2.457-2.832 3.558-1.142-.998-2.38-1.792-3.563-2.304-.883 2.534-2.966 3.942-6.535 3.941-3.518 0-5.251-1.588-4.324-4.25.865-2.481 3.354-4.248 6.949-4.247l.813.025c.065-.998.181-1.996.208-2.738.054-.742.165-1.356.414-2.072.481-1.382 1.747-2.585 3.639-3.148-.68-.332-1.455-.614-2.104-.741.869-.947 1.99-2.176 2.866-2.995.113-.103.208-.154.311-.154l.196.026c2.439.667 4.761 1.817 6.263 3.329.076.077.092.179.065.255s-.08.154-.158.23l-2.445 2.379zm-9.882 8.982c-.333-.078-.82-.154-1.513-.154-1.516 0-2.162.384-2.349.921-.223.64.448.998 1.604.998.771 0 1.321-.179 1.693-.511.216-.18.339-.385.438-.666.061-.179.098-.358.127-.588zM87.106 22.19c-.718.588-1.484.869-2.152.869-.693 0-1.289-.281-1.657-.844-.965-1.434-.956-4.556.497-8.728.972-2.79 2.601-6.065 4.702-9.52.465-.742.815-1.382 1.229-2.201 1.279.384 2.643.896 3.789 1.51.102.077.161.128.125.23l-.105.154c-.321.333-.652.767-.985 1.279-2.036 3.045-3.621 6.194-4.352 8.292l-.054.154c-.49 1.407-.683 2.405-.736 3.147-.011.179.013.255.09.255s.181-.077.328-.205c1.145-1.074 2.459-2.635 3.801-4.426.077 1.254.5 2.252 1.046 2.969.144.179.227.384.129.665-.036.102-.098.205-.159.307-1.744 2.356-4.004 4.865-5.536 6.093zm17.414-4.58c-.036.104-.104.154-.243.18-1.366.383-3.032.742-4.696 1.023.568-3.327.676-6.808.032-9.751 1.573-.461 2.929-.742 4.209-1.023l.137-.026c.129 0 .205.078.254.231.66 2.38.741 5.17.43 7.908-.067.486-.098.947-.095 1.305l-.028.153zM116.258 9.064c-.839-1.203-1.901-2.432-2.914-3.43-.077-.077-.101-.154-.074-.23.018-.051.07-.128.174-.205.841-.793 2.054-1.766 3.229-2.636 1.092.92 2.061 1.97 2.742 2.892.884-1.356 1.724-2.738 2.468-3.915.245-.41.447-.769.658-1.152 1.202.307 2.319.639 3.409 1.049.162.052.203.154.167.256l-.113.179c-.295.333-.706.845-.967 1.229-2.462 3.455-5.017 7.473-6.929 10.825.76.18 1.682.333 2.826.513-.64 1.1-1.229 2.277-1.549 3.045-.133.307-.254.435-.486.435h-.154c-.931-.128-1.664-.309-2.527-.487-.105.23-.211.461-.3.717-.438 1.254.502 2.022 2.376 2.022 1.9 0 3.22-.691 3.657-1.946.65-1.867.368-4.376-1.795-7.012 1.099-.281 1.994-.64 3.064-1.279.19-.104.336-.154.49-.154s.291.051.4.179c2.385 2.738 3.052 5.913 2.054 8.779-1.114 3.198-3.891 5.271-8.41 5.271-5.316 0-7.113-1.997-5.74-5.938.151-.436.347-.921.584-1.382-2.786-.922-3.55-2.048-2.872-3.994.392-1.125 1.446-2.456 2.751-3.402.173-.128.303-.205.482-.205l.145.025 2.662.615c-1.106.819-1.75 1.56-1.964 2.174s.005.871.822 1.178c.939-1.664 2.051-3.456 3.144-5.119l-1.51 1.103zM148.903 20.711c-1.476.845-3.301 1.587-4.881 1.919-.188.025-.325.051-.454.051-.334 0-.469-.128-.594-.436-.263-.793-.831-1.74-1.961-2.405 2.043-.409 4.048-1.151 5.583-2.022 2.244-1.279 3.66-2.84 4.364-4.862 1.007-2.892.283-5.604-3.005-6.117-2.693 6.628-6.339 11.491-10.442 14.126-.933.614-1.827.895-2.624.895-.719 0-1.357-.23-1.908-.64-1.805-1.382-2.625-3.967-1.271-7.857 2.139-6.142 8.852-10.594 15.581-10.594 7.524.001 9.921 4.992 8.067 10.315-1.121 3.226-3.375 5.863-6.455 7.627zm-12.917-7.524c-.588 1.688-.671 2.814-.272 3.583.142.255.303.384.509.384.231 0 .506-.128.853-.384 2.551-1.868 4.75-4.862 6.618-9.929-3.898.792-6.77 3.581-7.708 6.346zM162.968 5.997c.351.026.659.026.916.026 1.104 0 2.38-.051 3.579-.102.79-1.383 1.509-2.637 2.203-3.967.22-.409.458-.871.625-1.28 1.238.205 2.407.538 3.66.998.161.052.203.154.149.307l-.089.18c-.76 1.151-1.522 2.379-2.293 3.634.651-.026 1.2-.052 1.688-.052 1.464 0 2.12.18 2.585.615.693.666.777 1.971-.114 4.53-.98 2.815-2.052 5.375-3.371 7.908-1.839 3.583-4.583 5.118-7.947 5.194h-.103c-.437 0-.563-.153-.575-.563.033-1.126-.131-2.278-.616-3.097 1.139-.026 2.16-.153 3.173-.409.867-.205 1.284-.588 1.819-1.535 1.421-2.457 2.587-5.145 3.63-8.139.187-.537.104-.742-.333-.742h-.076c-.677.026-1.379.051-1.988.103-2.697 4.35-5.936 9.596-8.8 14.279-.141.256-.27.333-.45.333l-.145-.026c-1.006-.358-1.948-.896-2.702-1.459-.153-.077-.204-.153-.15-.306l.088-.18c2.53-4.018 5.347-8.419 7.885-12.462-.899.076-2.125.128-3.203.128-.309 0-.436-.078-.338-.359l1.293-3.557zm19.132-.586l.223-.051c.129 0 .214.051.263.205.766 2.226 1.144 5.196.955 8.395l-.037.179c-.036.104-.104.154-.251.205-1.341.384-2.992.921-4.55 1.484.076-.435.132-.819.155-1.254.153-2.431-.07-5.477-.748-7.806l3.99-1.357zm1.274-.564c-.202-.896-.564-1.919-.998-2.738l1.404-.64.197-.051c.077 0 .137.051.195.103.428.69.759 1.509 1.02 2.457l-1.818.869zm2.577-1.279c-.253-.896-.651-1.817-1.086-2.56l1.327-.64c.095-.051.181-.077.231-.077.077 0 .146.026.196.103.462.665.827 1.458 1.098 2.303l-1.766.871zM191.273 16.39c-1.259 0-2.012.025-2.707.103.354-.794.681-1.587 1.1-2.79l3.36-9.648c.445-1.279.725-2.226.896-2.943.719.077 1.377.103 2.61.103l12.968.001c1.233 0 1.961-.025 2.706-.102-.343.691-.689 1.612-1.152 2.943l-3.36 9.648c-.445 1.279-.697 2.072-.844 2.79-.718-.078-1.453-.104-2.66-.104h-2.158l-1.266 3.634c-.205.588-.009.691 1.43.691 1.566 0 2.064-.103 2.385-.436.252-.281.845-1.611 1.414-3.172 1.12.691 1.758.998 3.182 1.407-1.327 3.147-2.027 4.274-3.125 4.99-.924.588-2.091.768-5.275.768-4.751 0-5.302-.333-4.491-2.662l1.819-5.222h-1.541c-.669 1.331-1.01 1.868-1.819 2.789-2.332 2.713-5.479 4.454-9.988 5.527-.134-1.458-.337-2.277-.859-3.506 4.668-.793 7.023-2.098 8.584-4.811l-1.209.002zm2.32-3.121l10.426.001.383-1.1-10.426-.001-.383 1.1zm1.346-3.864l10.426.001.384-1.101-10.426-.001-.384 1.101zm1.346-3.865l10.426.001.374-1.074-10.426-.001-.374 1.074zM234.813 23.229c-.106.307-.306.435-.623.46-1.054.077-2.166.102-3.604.102-1.695 0-3.09-.051-4.364-.153-2.018-.179-2.58-.998-1.92-2.892l.089-.256 1.332-3.455.026-.076c.197-.563-.014-.845-.502-.845-.539 0-1.477.333-2.532 1.075-2.695 1.842-5.169 3.709-7.604 5.834-.146.127-.242.179-.344.179-.104 0-.162-.052-.239-.128-.707-.845-1.345-1.741-1.829-2.713 4.25-3.353 9.032-6.833 14-10.185-2.742.281-5.407.485-7.498.589-.282 0-.384-.078-.295-.333.282-1.178.607-2.482 1.002-3.762.274.025.572.051.881.051.232 0 .438 0 .678-.026 3.484-.128 7.015-.307 10.312-.485.42-.026.891-.052 1.38-.128l.215-.025c.23 0 .332.077.423.332l.787 1.945c.049.154.056.281.012.41-.045.128-.176.281-.392.384-2.14 1.202-3.909 2.303-5.768 3.582 2.038-.025 2.63 1.152 2.015 2.918l-.045.128-1.19 3.122-.026.078c-.188.537-.002.741.614.742h.565c1.721 0 3.76-.102 5.859-.307l-1.415 3.838zm-1.729-17.378c-2.954-.589-5.92-.923-8.658-1.025.557-1.228 1.146-2.406 1.786-3.506.142-.256.271-.333.501-.333 2.859.05 6.072.41 8.734 1.101-.719 1.254-1.613 2.713-2.363 3.763zM263.91 5.317c.016.102.006.205-.021.281-.071.205-.277.281-.663.281-2.979 0-5.357.563-7.767 2.022-2.399 1.433-4.09 3.633-4.812 5.706-1.069 3.071-.084 4.3 2.45 4.837 1.435.308 3.093.487 5.034.589-.875 1.331-1.631 2.764-2.203 3.967-.168.333-.348.409-.656.409-2.233-.076-3.984-.358-5.699-.819-3.752-1.024-5.1-3.864-3.62-8.113.892-2.559 2.378-4.837 4.985-7.012-3.229.64-6.564 1.15-9.291 1.458h-.154c-.256 0-.298-.103-.261-.359l.575-3.864c.514 0 1.021-.052 1.654-.103 4.174-.409 9.167-1.177 13.972-1.995 2.317-.384 4.28-.639 5.943-.767h.103c.309 0 .392.128.414.434l.017 3.048zM269.604 4.242c2.432-.05 4.737-.255 7.404-.614.057-.972.148-2.047.194-2.917 1.277-.128 2.716-.205 4.096-.256.18 0 .213.052.177.231-.207.666-.329 1.459-.39 2.149 1.312-.23 2.877-.665 4.296-1.125-.307 1.1-.537 2.278-.634 3.147l-.037.18c-.045.127-.157.229-.304.281-1.229.357-2.544.742-3.789.997-.023.512-.04 1.075-.031 1.638.85-.154 1.7-.384 2.672-.665.344-.104.499-.18.597-.461l.054-.153c.07-.205.118-.487.174-.794.631.18 1.426.256 2.452.256.257 0 .54 0 .831-.026h.104c.23 0 .323.103.311.359-.076.665-.162 1.279-.377 1.893l-.106.307c-.292.691-.872 1.176-1.75 1.484-1.376.486-3.076.87-4.793 1.228.13 1.177.503 2.61 1.052 3.762.085.128.092.255.047.384-.036.102-.131.23-.322.409l-1.832 1.792c-.268.255-.467.384-.672.384-.103 0-.214-.052-.351-.103-1.573-.717-3.554-1.075-5.711-1.076-2.157 0-3.245.69-3.558 1.587-.375 1.075.618 1.765 5.163 1.766 1.566 0 3.579-.101 5.431-.255-.623 1.126-1.266 2.38-1.718 3.531-.114.256-.21.308-.501.333-1.406.127-3.042.179-4.839.179-7.037-.001-9.002-2.1-7.781-5.606 1.079-3.097 4.21-4.862 9.09-4.861 1.026 0 1.788.026 2.523.128-.034-.562-.113-1.151-.148-1.638-3.303.487-6.337.793-9.55.946-.257 0-.357-.077-.337-.358l.242-3.276c3.27-.025 6.552-.306 9.666-.768l.03-1.56c-2.256.357-4.58.613-6.824.715-.23 0-.307-.077-.312-.281l.061-3.273zM304.008 8.033c-.142.333-.289.461-.573.538-1.089.179-2.179.358-3.311.512-3.091 4.965-6.425 10.262-9.498 15.252-1.313-.358-2.616-.819-3.8-1.331 3.033-4.504 5.953-8.982 8.764-13.512-.814.052-1.566.077-2.184.077h-.59c-.23 0-.298-.103-.227-.307l.018-.051c.514-1.254 1.028-2.585 1.508-3.813.273.026.521.052.804.052 1.001 0 2.062-.026 3.142-.103.613-1.024 1.368-2.379 1.993-3.582.281-.513.476-.922.678-1.356 1.375.255 2.586.538 3.798.896.17.026.194.103.168.179l-.113.179c-.813 1.229-1.488 2.355-2.102 3.379 1.012-.103 2.041-.256 2.968-.409-.54 1.25-1.018 2.325-1.443 3.4zm.659 15.509h-.309c-3.056 0-5.824-.385-7.706-1.101-.179-.078-.255-.154-.184-.359l.027-.077c.238-.538.46-1.101.665-1.689.268-.767.493-1.561.726-2.379 2.302.768 5 1.28 8.184 1.28 1.951 0 3.733-.102 5.337-.281-.239.614-.47 1.203-.675 1.791-.294.845-.545 1.638-.787 2.482-1.562.206-3.3.334-5.278.333zm8.118-12.028c-2.692-.896-5.749-1.484-9.085-1.639.633-1.229 1.352-2.482 2.104-3.685.123-.205.262-.307.519-.307h.231c2.747 0 5.925.462 8.369 1.409.162.051.203.153.158.281l-.078.153-2.218 3.788zM322.357 20.985c-.669 1.919-2.788 3.506-4.714 3.506-1.927 0-2.966-1.588-2.298-3.507.66-1.895 2.805-3.48 4.731-3.48 1.927 0 2.941 1.587 2.281 3.481zm-5.701-.001c-.428 1.229.235 2.201 1.442 2.201s2.546-.972 2.974-2.2c.42-1.203-.242-2.176-1.449-2.176s-2.549.973-2.967 2.175z"/></svg>