<svg xmlns="http://www.w3.org/2000/svg" width="240" height="96" viewBox="0 0 240 96">
<style>path{fill-rule:evenodd;clip-rule:evenodd;fill:url(#nm)}</style>
<linearGradient id="nm"><stop offset="0" stop-color="#00d596"/><stop offset="1" stop-color="#12e62b"/></linearGradient>
<path d="M42.944 4.154c-.155-.297-.353-.297-.799-.297-.923.099-1.731.149-2.623.149l-24.197.05c-.941 0-1.852-.099-2.679-.149l-2.033 6.491c.824-.099 1.716-.099 2.524-.149 3.599-.099 6.801-.198 10.583-.248l11.379-.099c-7.093 9.514-15.215 16.303-24.618 21.01-2.994 1.487-7.092 3.023-10.481 3.717 1.309 1.041 2.432 2.676 3.271 4.113.173.396.374.545.771.545.099 0 .248 0 .462-.049 1.859-.396 4.628-1.487 8.47-3.469 4.087-2.131 8.18-4.757 12.128-8.028 3.154 3.221 6.337 7.928 8.406 12.24.087.198.204.297.353.297.099 0 .263-.05.458-.198 1.971-1.387 3.926-2.725 6.048-3.964-.34-.496-.631-.991-.956-1.536-2.174-3.816-5.6-8.226-9.184-11.496 4.082-4.014 8.263-8.82 12.175-13.875.66-.842 1.178-1.388 1.695-1.933.146-.149.226-.248.257-.347.047-.149.028-.248-.074-.396l-1.336-2.379zM92.924 8.118c.698-2.23-.527-4.014-2.757-4.014s-4.572 1.784-5.271 4.014c-.698 2.23.527 4.014 2.757 4.014s4.573-1.784 5.271-4.014zm-1.883 0c-.372 1.189-1.609 2.131-2.798 2.131s-1.836-.941-1.463-2.131c.373-1.189 1.609-2.131 2.798-2.131s1.836.942 1.463 2.131zm-37.085 17.938c.071.248.189.347.387.347.149 0 .313-.05.493-.149 4.579-2.279 9.028-4.46 13.514-6.442.523-.248.917-.396 1.264-.396s.598.149.966.396c4.745 3.518 10.36 8.374 15.872 13.875.167.099.285.198.433.198.149 0 .328-.099.474-.248 1.59-1.437 3.456-3.122 5.479-5.153-.755-.595-1.461-1.189-2.185-1.883-4.544-4.162-9.567-8.374-14.312-11.893-1.291-.941-2.888-1.536-4.771-1.536-1.784 0-3.41.446-5.145 1.239-3.962 1.734-8.07 3.617-11.475 5.153-.933.446-1.834.793-2.736 1.14l1.742 5.352zM134.285 8.118c-1.955-2.775-4.53-5.153-6.942-6.789l-1.158-.892c-.084-.05-.167-.099-.266-.099-.149 0-.328.099-.508.198-1.738 1.437-3.523 3.023-5.113 4.46 2.894 1.833 5.577 4.658 8.006 7.978 1.866-1.685 4.044-3.419 5.981-4.856zm-26.482 7.978c2.866 2.081 5.853 5.203 8.365 8.573 1.686-1.586 3.635-3.221 5.848-4.906-2.287-2.825-4.666-5.352-7.22-7.482-.303-.297-.588-.496-.842-.793-.068-.099-.201-.149-.3-.149-.149 0-.328.099-.524.248l-5.327 4.509zm-7.362 24.925c.021.248.189.347.436.347.099 0 .198 0 .313-.05 6.647-1.288 13.527-3.32 20.377-6.045 7.686-3.023 13.836-6.045 19.949-10.059.31-.198.536-.446.629-.743.047-.149.059-.347.087-.595-.033-1.635.3-3.964.822-5.946-7.183 5.054-14.59 8.771-21.638 11.496-6.704 2.577-12.568 4.212-18.376 5.352-1.103.198-2.19.347-3.509.446l.91 5.797zM187.449 16.79c-.118-.099-.201-.149-.35-.149l-.362.05c-.542.149-1.233.297-1.859.396l-12.985 2.378 1.147-5.401.124-.396c.109-.347.251-.644.493-.941.161-.198.257-.347.319-.545.093-.297-.043-.495-.539-.495l-5.036.099c-.476 2.626-1.032 5.352-1.648 8.424l-7.821 1.239c-.79.149-1.465.248-2.208.248l-.697 4.757c-.028.248-.025.396.223.396.099 0 .248 0 .412-.05.214-.049.706-.198 1.447-.347l7.552-1.487c-1.069 5.153-2.113 9.91-3.176 14.569-.304 1.288-.609 2.577-.979 3.915 1.629-.297 3.426-.496 5.058-.644.396 0 .576-.099.7-.496l.047-.149c1.06-5.6 2.21-11.645 3.503-17.988l9.974-1.784c-2.718 2.825-6.006 5.253-9.402 7.235 1.183.496 2.325 1.437 2.987 2.329.136.198.303.297.502.297.198 0 .427-.099.672-.248 3.703-2.329 8.02-6.145 11.674-10.059.679-.743 1.277-1.387 1.795-1.933.211-.198.291-.297.322-.396.031-.099.012-.198-.105-.297l-1.784-2.527zM229.35 7.474c.295-.942.614-1.487 1.181-2.032.226-.248.403-.496.465-.694.078-.248-.009-.446-.39-.496l-6.42-.545c-.622 2.775-1.32 5.005-2.143 7.631-2.297 7.334-4.271 13.478-6.326 19.722-.31.991-.766 2.131-1.204 3.37l-.062.198c-.109.347-.056.495.213.743l2.123 2.081c.186.198.402.297.65.297.198 0 .412-.05.691-.149 6.645-2.23 14.805-6.293 21.058-10.753.195-.149.341-.297.388-.446.046-.149.059-.347.022-.545-.083-1.635.182-4.063.788-5.996-1.788 1.437-3.514 2.676-5.258 3.816-4.484 2.924-8.815 5.203-13.041 6.987l7.265-23.189zm-16.998-2.528c-.596 2.379-1.118 4.361-1.584 5.847-2.577 8.226-4.339 12.586-6.828 16.105-2.458 3.419-6.118 6.244-10.594 7.879 2.068.991 3.247 2.131 4.079 3.27.17.248.421.396.718.396.198 0 .477-.099.756-.198 3.702-1.536 8.004-5.302 11.002-9.811 2.18-3.32 3.647-6.739 6.161-14.767.45-1.437.947-3.023 1.456-4.807.217-.694.534-1.388 1.262-2.131.211-.198.322-.396.384-.595.093-.297-.027-.545-.507-.595l-6.305-.593zM28.639 76.782c-.371-.396-.693-.793-.999-1.239-1.788-2.676-4.155-5.401-6.195-7.433-.269-.248-.588-.495-.758-.743-.068-.099-.152-.149-.251-.149s-.279.099-.425.248c-1.311 1.338-2.461 2.478-3.793 3.568.649-2.23 1.27-4.212 1.813-5.946.947-3.023 1.757-5.451 2.601-7.829.282-.743.537-1.239.924-1.685.226-.248.322-.396.369-.545.093-.297-.059-.446-.39-.495-1.954-.248-4.119-.297-6.779-.347-.131.892-.324 1.982-.584 2.973-1.497 5.253-3.111 10.406-4.756 15.659-2.049 6.541-4.228 13.181-6.459 19.672-.279.892-.577 1.685-.829 2.329-.124.396-.072.545.325.545.957-.05 2.047-.05 3.137-.05 1.14 0 2.329 0 3.404.05.211-.991.407-1.933.733-2.973 1.434-5.054 3.477-11.893 4.921-16.501.419-1.338.776-2.478 1.105-3.37 2.07 1.933 4.339 4.658 5.997 7.433.155.297.275.545.38.842.087.198.204.297.402.297.149 0 .378-.099.654-.347 1.202-.991 3.755-2.973 5.453-3.964zM45.485 71.678c-.942 0-1.471-.049-2.183-.149l-2.027 5.996c-.14.446.012.595.458.595 5.761-.198 12.565-.248 20.277-.347h3.419c5.6 0 10.573.099 16.111.297.214-.842.494-1.734.789-2.676.404-1.288.872-2.626 1.356-4.014-2.31.099-4.869.198-7.346.198l-30.854.1zM131.702 60.727c-.17-.248-.272-.396-.619-.396-.099 0-.198 0-.362.05-1.186.149-2.341.198-3.744.248l-10.134.396c.97-1.041 1.742-2.081 2.759-3.271.614-.694.97-1.041 1.559-1.338.409-.198.62-.396.682-.595.078-.248-.043-.495-.492-.644-1.715-.694-3.858-1.288-5.502-1.734-.589 1.09-1.246 2.081-2.294 3.37-5.27 6.541-12.215 12.735-20.698 17.988 1.3.595 2.944 1.833 3.711 3.023.17.248.322.396.57.396.198 0 .427-.099.672-.248 4.487-2.775 9.445-6.739 14.156-11.496l12.051-.347c-4.619 6.045-10.191 11.496-15.806 15.659-4.134 3.072-8.97 5.699-13.512 7.383-1.852.694-3.724 1.288-5.647 1.734 1.675 1.14 2.86 2.577 4.001 4.311.204.297.356.446.604.446.198 0 .412-.05.691-.149 5.811-1.784 12.181-5.352 17.614-9.564 5.919-4.658 11.925-10.703 17.849-18.384.983-1.239 1.869-2.329 3.047-3.716.112-.198.208-.347.239-.446.062-.198.01-.347-.077-.545l-1.318-2.131z"/></svg>