<svg xmlns="http://www.w3.org/2000/svg" width="512" height="82" viewBox="0 0 512 82"><path fill="#e9e9e9" d="M68.799 1.974c-.943.548-2.226.658-3.48.658-1.482 0-3.247-.658-5.383-1.206-2.021-.548-4.356-1.206-8.232-1.206-15.848 0-42.403 12.059-49.982 40.78-7.579 28.722 12.612 40.78 28.46 40.78 6.727 0 12.666-2.631 15.288-2.631 1.14 0 1.766.219 2.393.438l2.025-7.674c-5.939 2.631-12.274 4.604-18.203 4.604-10.717 0-31.577-8.66-24.49-35.518 7.087-26.857 32.517-35.517 43.234-35.517 6.499 0 11.509 1.754 16.142 4.933l2.228-8.441zM126.052.22c-23.031 0-45.876 18.307-51.806 40.78-5.93 22.473 7.254 40.78 30.284 40.78 23.031 0 45.876-18.307 51.806-40.78 5.93-22.473-7.254-40.78-30.284-40.78zm-1.389 5.262c20.066 0 31.233 16.444 26.2 35.518-5.033 19.075-24.878 35.518-44.945 35.518s-31.233-16.443-26.199-35.518c5.033-19.075 24.878-35.518 44.944-35.518zM235.741 1.974c.138 1.206.189 2.741-.158 4.056l-15.389 58.32h-.228l-29.824-64.13h-.228l-19.988 75.75c-.347 1.316-1.208 2.85-1.982 4.056h7.981c-.138-1.206-.189-2.741.158-4.056l15.273-57.881h.228l29.939 63.692h.228l19.989-75.751c.347-1.316 1.208-2.85 1.982-4.056h-7.981zM322.517 1.974c-.943.548-2.226.658-3.48.658-1.482 0-3.247-.658-5.382-1.206-2.022-.548-4.356-1.206-8.233-1.206-15.848 0-42.403 12.059-49.982 40.78-7.579 28.722 12.612 40.78 28.46 40.78 6.727 0 12.666-2.631 15.288-2.631 1.14 0 1.766.219 2.393.438l2.025-7.674c-5.939 2.631-12.274 4.604-18.203 4.604-10.717 0-31.577-8.66-24.49-35.518 7.087-26.857 32.517-35.517 43.234-35.517 6.499 0 11.509 1.754 16.142 4.933l2.228-8.441zM325.235 75.97c-.347 1.316-1.208 2.85-1.982 4.056h41.159l1.62-6.139c-1.428.658-2.968.877-4.45.877h-29.872l8.157-30.914h20.865c1.482 0 2.906.219 3.987.877l1.851-7.016c-1.428.658-2.968.877-4.45.877h-20.865l8.273-31.352h29.872c1.482 0 2.906.219 3.987.877l1.62-6.139h-41.159c.138 1.206.189 2.741-.158 4.056l-18.455 69.94zM395.888 80.026c-.138-1.206-.189-2.741.158-4.056l7.174-27.187c4.382 1.973 8.396 3.179 14.325 3.179 14.594 0 30.144-11.401 33.962-25.871 3.818-14.47-5.715-25.871-20.309-25.871-6.841 0-13.779 2.96-17.085 2.96-1.71 0-3.362-.219-4.698-1.206l-19.526 73.996c-.347 1.316-1.208 2.85-1.982 4.056h7.981zm17.832-71.036c5.767-2.412 10.731-3.508 16.09-3.508 11.858 0 18.462 9.537 15.54 20.609-2.922 11.072-14.56 20.609-26.417 20.609-5.359 0-9.744-1.096-14.238-3.508l9.025-34.202zM471.83 80.026c-.138-1.206-.189-2.741.158-4.056l18.137-68.734h16.19c1.482 0 2.906.219 3.987.877l1.62-6.139h-46.974l-1.62 6.139c1.428-.658 2.968-.877 4.45-.877h16.19l-18.137 68.734c-.347 1.316-1.208 2.85-1.982 4.056h7.981z"/></svg>