<svg xmlns="http://www.w3.org/2000/svg" width="99" height="14" viewBox="0 0 99 14">
<style>path{fill-rule:evenodd;clip-rule:evenodd;fill:url(#ei)}</style>
<linearGradient id="ei"><stop offset="0" stop-color="#ff9c00"/><stop offset="1" stop-color="#ffd200"/></linearGradient>
<path d="M0 .614c.107.09.111.215.134.341l2.857 12.719h.037l8.499-11.84c.328-.466.773-.879 1.274-1.22h-3.191c.083.107.19.197.138.394-.028.108-.085.252-.141.323l-5.461 8.109h-.019l-1.35-7.821-.119-.682c.024-.09.145-.197.346-.323h-3.004zM13.516 13.386c-.149-.072-.158-.251-.115-.413.024-.09.127-.269.277-.484l1.393-1.955h5.132l.361 1.955c.036.215.045.395.021.484-.043.161-.146.341-.333.413h3.116c-.163-.161-.232-.395-.287-.61l-2.891-12.45h-.037l-8.672 11.929c-.385.538-.558.843-.914 1.13h2.949zm6.395-4.789h-3.657l2.881-4.198.776 4.198zM35.188 11.09c-.394.431-.907.466-1.392.466h-3.806l2.699-10.225c.081-.305.207-.502.544-.718h-2.724c.223.215.246.413.165.718l-2.992 11.337c-.08.305-.207.502-.544.718h7.445l.605-2.296zM43.828 1.331c.081-.305.207-.502.544-.718h-2.724c.223.215.246.413.165.718l-2.117 8.019c-.634 2.404.688 4.323 3.375 4.323 2.687 0 5.022-1.919 5.657-4.323l2.116-8.019c.08-.305.207-.502.544-.718h-2.724c.223.215.246.413.165.718l-2.116 8.019c-.279 1.058-1.283 2.386-3.074 2.386-1.735 0-2.272-1.076-1.927-2.386l2.116-8.019zM53.356 12.669c-.08.305-.207.502-.544.718h7.818l.611-2.314c-.398.448-.893.484-1.565.484h-4.012l.966-3.66h2.986c.205 0 .35.018.447.072.112.072.2.161.274.305l.696-2.637c-.284.233-.513.323-.905.323h-2.986l.928-3.516h4.012c.672 0 1.147.036 1.309.484l.611-2.314h-7.818c.223.215.246.413.165.718l-2.993 11.337zM79.225 1.331c.081-.305.207-.502.544-.718h-2.724c.223.215.246.413.165.718l-2.116 8.019c-.634 2.404.688 4.323 3.375 4.323 2.687 0 5.022-1.919 5.657-4.323l2.116-8.019c.08-.305.207-.502.544-.718h-2.724c.223.215.246.413.165.718l-2.117 8.019c-.279 1.058-1.283 2.386-3.074 2.386-1.735 0-2.272-1.076-1.927-2.386l2.116-8.019zM91.703 8.776c.386.233 1.002.305 1.487.305 2.407 0 4.92-2.027 5.545-4.395.625-2.368-.939-4.359-3.458-4.359-.448 0-1.022.054-1.545.126-.518.054-.966.126-1.19.126-.149 0-.28 0-.382-.036-.084-.036-.158-.108-.242-.215l-3.258 12.341c-.081.305-.207.502-.544.718h2.724c-.223-.215-.246-.413-.165-.718l1.028-3.893zm1.719-6.512h1.287c1.511 0 2.366.933 1.987 2.368-.426 1.615-1.857 2.511-3.499 2.511-.354 0-.751.018-1.049-.054l1.274-4.825z"/></svg>