<svg xmlns="http://www.w3.org/2000/svg" width="135" height="31" viewBox="0 0 135 31">
<style>path{fill-rule:evenodd;clip-rule:evenodd;fill:url(#mr)}</style>
<linearGradient id="mr"><stop offset="0" stop-color="#f44"/><stop offset="1" stop-color="#ff6c00"/></linearGradient>
<path d="M27.477 12.972c1.127 0 2.105.064 3.105.161l1.14-3.639c-.942.129-1.757.161-3.206.161h-3.413l1.776-5.667c.434-1.385.678-2.061 1.275-3.349h-4.025c-.233 1.256-.41 2.029-.824 3.349l-1.776 5.667h-2.415c-1.385 0-2.212-.032-3.105-.161l-1.14 3.639c1.061-.097 2.111-.161 3.206-.161h2.415l-3.946 12.591h-3.51c-1.546 0-2.652-.064-3.643-.193l-1.221 3.896c1.178-.161 2.421-.225 3.709-.225h11.013c1.288 0 2.524.064 3.6.225l1.221-3.896c-1.039.129-2.121.193-3.732.193h-3.864l3.946-12.591h3.414zM11.93 21.377c.899-1.224 1.664-2.125 2.76-3.156-1.742-1.224-2.86-2.383-3.839-4.09 2.212-2.125 3.156-3.188 4.946-5.506.397-.547.691-.869 1.132-1.352l-1.021-1.674c-.439.064-.9.097-1.898.097h-1.32l.827-2.641c.333-1.063.619-1.771.98-2.512h-3.896c-.103.741-.311 1.61-.574 2.447l-.847 2.705h-1.61c-1.063 0-1.729-.032-2.504-.129l-1.119 3.574c.9-.097 1.586-.129 2.745-.129h5.249c-1.708 2.061-3.056 3.381-5.064 4.959-2.314 1.835-4.243 3.059-6.901 4.347.374.966.59 2.125.593 3.349 1.975-1.063 2.813-1.578 4.432-2.737l-2.533 8.083c-.474 1.514-.779 2.383-1.243 3.349h3.896c.174-.966.394-1.771.868-3.285l2.926-9.338c.881 1.61 1.684 2.544 3.015 3.639zM61.843 1.541h-14.619c-1.739 0-2.534-.032-3.621-.161-.174.966-.313 1.513-.616 2.479l-.777 2.48c-.272.869-.569 1.61-.886 2.415.986-.064 2.123-.097 3.572-.097h14.845c1.417 0 2.502.032 3.448.097.168-.741.357-1.449.66-2.415l.777-2.48c.323-1.03.537-1.61.906-2.479-1.167.129-1.95.161-3.689.161zm-1.477 4.508h-14.523l.555-1.771h14.523l-.555 1.771zM43.262 10.074c-1.513 0-2.598-.032-3.534-.129-.206.966-.436 1.803-.951 3.446l-2.553 8.147c-.505 1.61-.872 2.576-1.188 3.381 1.061-.097 2.005-.129 3.615-.129h2.479c-2.732 1.32-5.156 1.964-9.983 2.673.579 1.03.832 1.868.965 3.188 2.822-.58 3.901-.837 5.33-1.288 2.4-.773 4.071-1.481 6.759-2.866l-1.494-1.707h8.759l-2.233 1.578c2.948 2.512 4.725 3.317 9.403 4.315.804-1.127 1.372-1.707 2.985-3.156-3.648-.483-6.133-1.288-8.416-2.737h2.576c1.61 0 2.598.032 3.566.129.085-.58.115-.676.307-1.288.04-.129.23-.837.624-2.093l2.553-8.147c.565-1.803.839-2.576 1.208-3.446-1.157.097-2.069.129-3.647.129h-17.13zm13.357 12.043h-17.131l.495-1.578h17.131l-.495 1.578zm1.251-3.993h-17.131l.464-1.481h17.131l-.464 1.481zm1.221-3.896h-17.131l.464-1.481h17.131l-.464 1.481zM85.603 16.353c-1.191 0-1.922-.032-2.568-.129-.186.902-.416 1.739-.82 3.027l-2.412 7.696c-.404 1.288-.779 2.383-1.2 3.317h3.542l.505-1.61h7.793l-.545 1.739h3.542c.164-.934.434-1.9.888-3.349l2.432-7.761c.434-1.385.729-2.222 1.087-3.059-.707.097-1.393.129-2.745.129h-9.499zm5.829 9.146h-7.825l1.877-5.989h7.825l-1.877 5.989zM103.115 1.573c-.664.064-1.769.097-3.057.097h-10.143c-1.288 0-2.588-.064-3.546-.193l-1.1 3.51c.91-.129 2.089-.193 3.474-.193h1.835c-1.457 3.929-3.521 5.893-7.93 7.632.879.998 1.236 1.707 1.398 2.834 5.201-2.415 7.977-5.313 9.977-10.465h4.508c-1.098 3.091-1.753 4.669-2.47 5.828-.343.58-.725.773-1.627.773s-1.837-.097-3.174-.354c.216 1.159.169 2.029-.242 3.446 1.686.064 1.815.064 2.137.064 3.381 0 4.605-.515 5.694-2.447.953-1.707 2.018-4.283 3.298-7.954.609-1.741.742-2.063.968-2.578zM69.869 18.575c-1.606 4.508-2.679 6.698-4.399 9.21l2.758 1.063c1.969-3.51 2.832-5.442 4.378-9.757l-2.737-.516zM80.334 18.575l-2.79.58c-.219 2.447-.729 4.895-1.685 8.05l3.013-.676c.856-3.349 1.204-5.281 1.462-7.954zM79.855 16.611c0 .515-.017.773-.066 1.546l2.778-1.159c-.027-3.51-.027-3.51-.495-6.537l-2.48 1.03c.162 1.127.18 1.481.231 2.447-1.157.097-1.296.129-3.613.225 1.382-1.224 3.499-3.252 4.498-4.283 2.544-2.673 3.848-4.057 3.932-4.122l-2.428-1.707c-.865 1.32-2.7 3.478-4.793 5.635-.281-.644-.448-.934-.751-1.61 1.662-1.707 2.218-2.351 4.21-4.701 1.142-1.385 1.142-1.385 1.501-1.707l-2.796-1.352c-.714 1.352-2.116 3.156-4.195 5.474l-.766-1.256-2.552 2.803c1.329 2.029 1.753 2.834 2.676 5.023-.663.676-.989.998-2.022 1.932h-.58c-1.063 0-1.568-.032-2.031-.097l-.653 3.317c.556-.129.845-.129 2.325-.225 1.018-.064 1.512-.097 2.433-.161l-3.098 9.886c-.505 1.61-.789 2.415-1.263 3.413h3.671c.142-.966.352-1.739.866-3.381l3.199-10.208c1.191-.096 1.191-.096 2.262-.225zM121.609 15.516l-3.37 10.755c-.444 1.417-.882 2.608-1.416 3.8h4.122c.243-1.288.521-2.383.975-3.832l3.35-10.691c.515-1.642.819-2.512 1.313-3.574h-4.09c-.172 1.063-.46 2.19-.884 3.542zM111.742 14.325c-1.806 5.764-3.398 8.276-6.723 10.562-1.398.966-2.396 1.481-4.75 2.415.883 1.191 1.252 1.964 1.621 3.252 3.733-1.739 6.337-3.574 8.476-6.086 2.129-2.48 3.442-5.023 5.042-9.821.434-1.385.617-1.868.966-2.673h-4.122c-.11.869-.268 1.578-.51 2.351zM126.62 4.664c-.818-1.191-1.166-1.932-1.716-3.671h-4.186c-2.111 2.318-4.222 4.122-7.049 6.054-2.997 2.061-5.61 3.413-9.232 4.798.508 1.256.626 1.803.78 3.574 3.278-1.417 6.717-3.349 9.607-5.378 2.964-2.061 4.495-3.349 7.138-5.925.944 2.641 1.798 4.025 3.587 6.022 2.063 2.254 4.006 3.864 6.46 5.281.887-1.288 1.902-2.576 3.016-3.768-3.805-1.835-6.251-3.895-8.405-6.987z"/></svg>