<svg xmlns="http://www.w3.org/2000/svg" width="104" height="6" viewBox="0 0 104 6"><path fill="#121212" d="M1.722.498l.082.062-.031.069-.05.163.038 2.474.031.357h-.244l-.564.013-.05-.038v-.019l.006-.344-.02-2.324-.019-.445.821.032zm2.217-.076l.075.063-.031.088-.038.182v.313l.006 1.221c0 1.146-.082 1.673-.344 2.18-.282.545-.796 1.046-1.297 1.228l-.075.012-.113-.063c-.169-.194-.332-.35-.595-.469.608-.226 1.046-.583 1.303-1.065.219-.413.307-.914.307-1.904 0-.501 0-1.002-.019-1.497l-.037-.332.858.043zM10.21 1.525l.031.069-.013.056-.238.47c-.444.971-.964 1.735-1.528 2.324-.52.532-1.184.983-1.848 1.209l-.081.019-.094-.056c-.213-.22-.42-.402-.676-.546.225-.056.438-.132.645-.219.507-.213 1.015-.545 1.416-.933.545-.526 1.034-1.215 1.378-1.979l-1.51.044c-.407.6-.877 1.102-1.334 1.452l-.075.031-.088-.05c-.144-.15-.401-.307-.589-.382.865-.664 1.497-1.446 1.904-2.273.081-.163.125-.288.156-.426.226.056.52.132.764.219l.088.081-.062.075c-.063.038-.094.082-.144.17l-.219.413 1.265-.05.464-.031.043-.007.094.05.251.27zM12.867 1.043c.062.006.088.038.088.075l-.025.075c-.062.094-.075.182-.075.269l.005.608c0 1.015-.05 1.447-.194 1.866-.2.57-.595 1.046-1.002 1.24l-.088.025-.106-.05c-.15-.144-.344-.288-.645-.413.501-.207.852-.564 1.027-.996.176-.445.226-.996.226-2.036 0-.188-.012-.438-.031-.739l.82.076zm1.428 3.175c.464-.226.921-.514 1.372-.883.175-.144.344-.301.514-.482 0 .244.062.551.138.758l.019.069-.031.056c-.614.564-1.485 1.077-2.236 1.359l-.082.019-.094-.037-.351-.263-.056-.094v-.025l.019-.426c.012-.789.019-1.566.019-2.493 0-.332 0-.614-.031-.965l.833.069.069.062-.031.088c-.05.069-.069.138-.069.257v2.931zM21.349 2.627c.313 0 .633-.012.921-.025l-.013.507.006.338c-.708-.025-1.341-.038-2.048-.038h-.432c-.971.012-1.829.019-2.549.044-.056 0-.082-.019-.082-.075l.019-.758.282.019 3.896-.012zM25.578 3.786l-.069.044-.063-.038-.081-.106c-.32-.351-.714-.695-1.052-.94l-.006.426c0 .583.012 1.447.031 2.086l.025.376-.432-.006-.395.006-.063-.069.013-.294c.025-.821.038-1.66.038-2.487 0-.664 0-1.315-.019-1.979l-.044-.376c.338.006.614.012.871.044l.069.063-.025.069-.05.213c-.013.301-.019.608-.019.99l.006.752c.125-.138.226-.282.338-.451l.044-.031.038.019.125.094c.338.257.745.601 1.077.939l.176.157c-.176.123-.42.374-.533.499zM32.106 2.27l.025.05-.019.05-.144.301c-.664 1.585-1.56 2.512-2.85 2.931-.207.069-.401.1-.576.113h-.044c-.075 0-.113-.025-.144-.088-.113-.213-.332-.457-.526-.576.338-.031.702-.094.996-.194.996-.338 1.804-1.071 2.267-2.161l-1.466.006c-.714 0-1.372.012-1.992.025l-.075-.062-.006-.514v-.2l.282.019.902.006h.896c.727 0 1.397-.013 2.086-.044l.132.044.256.294zm-2.387-1.754c.47 0 1.196 0 1.66-.006l.288-.012-.006.413v.313l-.063.063c-.532-.019-1.315-.025-1.91-.025-.539 0-1.083 0-1.56.019l-.094-.056-.006-.72.344.013h1.347zM36.166.548l.1.088-.094.1c-.062.031-.094.075-.156.169-.157.251-.388.589-.727 1.002l.244.075.063.069-.038.075c-.044.044-.056.094-.056.182v1.466c0 .539.006 1.096.025 1.641l.019.338-.846.013.012-.357c.006-.495.006-.983.006-1.466v-1.341c-.42.451-.908.827-1.353 1.071l-.094.031-.088-.044c-.213-.188-.376-.319-.601-.401.395-.194.727-.413 1.071-.708.695-.589 1.272-1.328 1.629-2.042l.106-.238.778.277zM42.449 1.274l.031.056-.006.038c-.056.119-.113.25-.157.388-.52 1.591-1.384 2.712-2.537 3.37-.357.2-.67.338-.94.407l-.075.013c-.056 0-.094-.025-.125-.082-.144-.219-.332-.432-.557-.576.382-.082.802-.257 1.177-.451 1.002-.532 1.816-1.478 2.217-2.75l-1.646.013c-.557.006-1.109.012-1.904.038-.088 0-.1-.006-.1-.075l.025-.764.351.019c.583.012 1.184.019 1.773.019.683 0 1.365-.006 2.004-.031l.138.038.331.33zM47.9 1.168l.025.05-.019.044-.138.244c-.294.639-.633 1.247-.99 1.754.583.414 1.19.971 1.616 1.453l.182.194c-.219.156-.413.326-.608.501l-.05.025-.056-.038c-.432-.545-1.021-1.14-1.547-1.547-.37.413-.783.745-1.215 1.015-.407.25-.714.388-.933.438l-.056.006-.119-.069c-.163-.182-.37-.388-.576-.52.401-.088.858-.282 1.178-.47 1.002-.595 1.76-1.453 2.28-2.656l-1.435.012c-.476.006-.877.019-1.328.031l-.313.019v-.818l.344.019 3.057-.006.326-.019.113.038.262.3zM53.838 1.368l.038.069-.012.05-.15.395c-.257.739-.551 1.359-.858 1.86.226.194.47.457.651.67-.207.138-.451.333-.614.483-.138-.194-.307-.388-.507-.57-.489.545-1.09.952-1.629 1.177-.207.088-.388.144-.564.169l-.044.006-.119-.069c-.156-.238-.338-.413-.564-.52.313-.05.614-.138.896-.257.514-.219 1.015-.551 1.453-1.021-.338-.282-.601-.47-.871-.62.113-.15.276-.344.432-.507l.038-.019.044.025.144.107c.188.113.382.25.651.463.232-.332.47-.883.651-1.39l-1.322.044c-.326.545-.808 1.153-1.259 1.578l-.082.031-.075-.025c-.15-.125-.37-.25-.57-.319.771-.727 1.384-1.597 1.748-2.449.062-.144.113-.294.15-.432l.727.207.069.069-.05.075-.138.156-.207.426 1.278-.063.319-.038h.025l.05.012.271.227zM58.043.548l.1.088-.094.1c-.063.031-.094.075-.157.169-.157.251-.388.589-.727 1.002l.244.075.062.069-.038.075c-.043.044-.056.094-.056.182v1.466c0 .539.006 1.096.025 1.641l.019.338-.846.013.013-.357c.006-.495.006-.983.006-1.466v-1.341c-.42.451-.908.827-1.353 1.071l-.094.031-.088-.044c-.213-.188-.376-.319-.601-.401.395-.194.727-.413 1.071-.708.696-.589 1.272-1.328 1.629-2.042l.106-.238.779.277zM60.868 1.043c.063.006.088.038.088.075l-.025.075c-.063.094-.075.182-.075.269l.006.608c0 1.015-.05 1.447-.194 1.866-.201.57-.595 1.046-1.002 1.24l-.087.025-.106-.05c-.15-.144-.345-.288-.646-.413.501-.207.852-.564 1.027-.996.175-.445.226-.996.226-2.036 0-.188-.013-.438-.031-.739l.819.076zm1.428 3.175c.463-.226.921-.514 1.372-.883.176-.144.345-.301.514-.482 0 .244.063.551.138.758l.019.069-.031.056c-.614.564-1.484 1.077-2.236 1.359l-.081.019-.094-.037-.351-.263-.057-.094v-.025l.019-.426c.012-.789.019-1.566.019-2.493 0-.332 0-.614-.031-.965l.833.069.069.062-.031.088c-.05.069-.069.138-.069.257v2.931zM70.139 1.124l.013.044-.106.05c-.708 0-1.228.157-1.691.495-.532.382-.802.946-.802 1.585 0 .846.351 1.178.978 1.328.388.094.858.15 1.39.169-.062.232-.112.489-.138.708-.006.063-.038.069-.094.069-.545-.025-1.015-.094-1.472-.219-.952-.25-1.434-.958-1.434-1.935 0-.67.194-1.259.745-1.86-.783.156-1.516.282-2.23.388l-.044.006-.069-.075-.145-.684.288-.019c1.015-.106 2.03-.282 3.007-.464.532-.1 1.059-.169 1.472-.207.075 0 .112.019.131.075l.201.546zm-.514 1.597c-.125-.219-.306-.451-.501-.657l.238-.144.05-.019.063.031c.163.15.338.363.482.583l-.332.206zm.476-.3c-.131-.219-.326-.445-.52-.626l.231-.138.063-.025.05.025c.169.138.357.344.507.564l-.331.2zM75.727 5.077c-.256.156-.645.326-.958.369l-.063.006c-.062 0-.106-.025-.144-.075-.094-.144-.307-.351-.539-.445.395-.069.783-.194 1.071-.338.607-.307.915-.739.915-1.428 0-.789-.482-1.534-1.579-1.685-.1 1.848-.645 2.975-1.347 3.558-.175.15-.351.225-.532.225-.157 0-.32-.062-.489-.175-.47-.32-.846-.915-.846-1.798 0-1.422 1.184-2.518 2.913-2.518 1.729 0 2.656 1.228 2.656 2.411.001.796-.356 1.46-1.058 1.893zm-3.745-1.83c0 .495.125.846.345 1.09.056.063.113.094.182.094.062 0 .125-.031.194-.094.558-.507.927-1.378.921-2.85-1.104.176-1.642.959-1.642 1.76zM78.973 4.112c.082.288.138.388.294.513.207.163.458.244.758.244.62 0 1.015-.32 1.015-.814 0-.288-.125-.526-.351-.658-.15-.088-.445-.15-.72-.15s-.457.006-.67.031v-.776c.201.025.338.031.608.031.626 0 .996-.288.996-.771 0-.432-.294-.677-.827-.677-.307 0-.532.069-.683.194-.126.121-.188.227-.263.484l-.896-.15c.156-.464.3-.683.595-.896.32-.232.727-.344 1.228-.344 1.046 0 1.722.526 1.722 1.34 0 .376-.163.72-.432.921-.138.106-.275.156-.607.244.445.069.676.176.896.42.207.232.301.495.301.865 0 .338-.144.683-.376.915-.344.332-.871.507-1.541.507-.733 0-1.234-.188-1.591-.595-.156-.175-.238-.338-.351-.701l.895-.177zM83.853 2.565l-.019-.363.438.019h1.366v-.815h-1.309c-.326.507-.633.871-1.034 1.234-.182-.269-.25-.351-.463-.557.639-.545.964-.958 1.221-1.572.088-.2.132-.332.15-.457l.746.15-.094.188-.182.395h2.932c.294 0 .451-.006.639-.031v.683c-.194-.025-.357-.031-.639-.031h-1.278v.812h1.008c.288 0 .458-.006.645-.031v.664c-.188-.019-.357-.025-.626-.025h-1.027v1.015h1.453c.288 0 .489-.012.683-.038v.714c-.194-.025-.413-.038-.683-.038h-1.453v.783c0 .32.006.489.038.67h-.764c.025-.182.038-.351.038-.683v-.77h-2.105c-.275 0-.476.013-.683.038v-.714c.201.025.401.038.683.038h.32v-1.278zm1.786 1.277v-1.014h-1.127v1.015h1.127zM90.212 5.12c0 .376.013.601.038.771h-.733c.025-.188.038-.388.038-.777v-4.09c0-.326-.006-.501-.025-.702.175.019.338.025.645.025h1.109c.326 0 .47-.006.639-.025-.013.2-.019.338-.019.583v.958c0 .288.006.432.019.57-.163-.013-.357-.019-.576-.019h-1.134v2.706zm0-3.952h1.077v-.313h-1.077v.313zm0 .764h1.077v-.319h-1.077v.319zm3.213 2.693c0 .238.006.382.019.545l.476.031c.175 0 .232-.044.232-.169v-2.618h-1.234c-.219 0-.42.006-.576.019.012-.182.019-.301.019-.57v-.958c0-.213-.006-.388-.019-.583.169.019.319.025.639.025h1.203c.313 0 .47-.006.645-.025-.019.226-.025.382-.025.695v4.103c0 .376-.075.539-.301.633-.131.056-.319.075-.708.075l-.432-.019c-.038-.282-.069-.395-.163-.645l-.351-.006h-1.328v.351h-.664c.025-.15.044-.401.044-.626v-1.529c0-.219-.006-.395-.019-.564.182.019.326.025.583.025h1.396c.263 0 .401-.006.583-.025-.012.163-.019.319-.019.564v1.271zm-1.904-.908h1.278v-.376h-1.278v.376zm0 .915h1.278v-.408h-1.278v.408zm1.459-3.464h1.171v-.313h-1.171v.313zm0 .764h1.171v-.319h-1.171v.319zM97.015 5.477c-.056.1-.169.131-.3.131h-.069c-.132-.012-.219-.069-.282-.219-.175-.413-.307-1.159-.307-1.954 0-.902.1-1.929.275-2.838l.057-.326c.219.025.495.069.708.119l.057.05-.006.038-.082.25c-.207.965-.307 2.03-.307 2.744 0 .326.032.645.069.871.119-.194.231-.445.332-.758.063.219.176.388.332.551l.031.082-.012.062c-.114.396-.289.834-.496 1.197zm.79-3.789h.194c.438 0 .915-.019 1.397-.044-.025-.445-.05-.852-.082-1.221h.188c.201 0 .389.006.545.025l.063.05-.013.044-.025.163v.031c.006.269.006.557.031.858.401-.031.776-.075 1.165-.138-.025.144-.031.313-.031.476v.194l-.05.069c-.313.05-.664.075-1.059.125.038.633.062 1.234.119 1.842.426.138.908.369 1.309.626l.025.038-.013.038c-.087.188-.207.401-.326.589-.332-.25-.645-.432-.977-.564v.05c0 .326-.113.482-.275.589-.194.132-.451.2-.771.2-.771 0-1.291-.32-1.291-.99 0-.457.432-.777 1.127-.777.188 0 .326.019.47.044-.05-.601-.075-1.077-.106-1.641-.426.031-.795.044-1.159.044h-.213c-.056 0-.082-.025-.094-.075l-.148-.645zm1.139 2.906c-.269 0-.369.088-.369.194 0 .182.244.288.545.288.257 0 .432-.075.432-.332v-.038c-.182-.074-.413-.112-.608-.112zM102.697 4.156c.432.301.958.795 1.303 1.228l-.614.564c-.326-.42-.82-.958-1.253-1.278l.564-.514z"/></svg>