<svg xmlns="http://www.w3.org/2000/svg" width="146" height="14" viewBox="0 0 146 14">
<style>path{fill-rule:evenodd;clip-rule:evenodd;fill:url(#nm)}</style>
<linearGradient id="nm"><stop offset="0" stop-color="#00d596"/><stop offset="1" stop-color="#12e62b"/></linearGradient>
<path d="M0 13.673c.155-.161.44-.323.589-.323.709 0 1.351.323 2.266.323 2.5 0 4.696-1.884 5.278-4.09 1.094-4.144-3.749-4.108-3.19-6.225.161-.61 1.008-1.202 1.661-1.202.896 0 1.482.251 1.797.969l.734-2.781c-.155.162-.398.234-.585.234-.243 0-.466-.072-.713-.126-.247-.053-.508-.125-.825-.125-1.847 0-3.681 1.22-4.187 3.139-.9 3.408 3.947 3.355 3.204 6.171-.346 1.31-1.478 2.207-2.878 2.207-1.138 0-1.823-.305-2.379-1.094l-.772 2.923zM15.828 8.776c.386.233 1.002.305 1.487.305 2.407 0 4.92-2.027 5.545-4.395.625-2.368-.939-4.359-3.458-4.359-.448 0-1.022.054-1.545.126-.518.054-.966.126-1.19.126-.149 0-.28 0-.382-.036-.084-.036-.158-.108-.242-.215l-3.257 12.342c-.08.305-.207.502-.544.718h2.724c-.223-.215-.246-.413-.165-.718l1.027-3.894zm1.719-6.512h1.288c1.512 0 2.366.933 1.987 2.368-.426 1.615-1.857 2.511-3.499 2.511-.354 0-.751.018-1.049-.054l1.273-4.825zM25.941 12.669c-.081.305-.207.502-.544.718h7.818l.611-2.314c-.398.448-.893.484-1.565.484h-4.012l.966-3.66h2.986c.205 0 .35.018.448.072.112.072.2.161.274.305l.696-2.637c-.286.233-.515.323-.907.323h-2.986l.928-3.516h4.012c.672 0 1.148.036 1.309.484l.611-2.314h-7.818c.223.215.246.413.165.718l-2.992 11.337zM47.84 11c-1.066.502-2.209.736-3.161.736-2.799 0-4.484-2.099-3.788-4.736.687-2.601 3.508-4.736 6.288-4.736.933 0 2.056.341 2.763.771l.715-2.709c-.281.287-.375.359-.598.359-.205 0-1.585-.359-2.368-.359-3.937 0-7.877 2.978-8.852 6.673-.975 3.695 1.392 6.673 5.329 6.673.336 0 .728-.072 1.139-.144.411-.072.859-.144 1.269-.144.131 0 .238.018.34.054s.177.108.218.233l.706-2.671zM53.277 12.669c-.081.305-.207.502-.544.718h2.724c-.223-.215-.246-.413-.165-.718l2.992-11.337c.081-.305.207-.502.544-.718h-2.724c.223.215.246.413.165.718l-2.992 11.337zM63.201 13.386c-.149-.072-.158-.251-.115-.413.024-.09.127-.269.277-.484l1.393-1.955h5.132l.361 1.955c.036.215.045.395.021.484-.043.161-.146.341-.333.413h3.116c-.163-.161-.232-.395-.287-.61l-2.891-12.45h-.037l-8.672 11.929c-.385.538-.558.843-.914 1.13h2.949zm6.395-4.789h-3.657l2.881-4.198.776 4.198zM84.127 11.09c-.394.431-.907.466-1.392.466h-3.807l2.699-10.225c.08-.305.207-.502.544-.718h-2.724c.223.215.246.413.165.718l-2.992 11.338c-.08.305-.207.502-.544.718h7.445l.606-2.297zM95.083.614l-.568 2.153c.262-.143.552-.323.832-.323h2.37l-2.699 10.225c-.081.305-.207.502-.544.718h2.724c-.223-.215-.246-.413-.165-.718l2.699-10.225h2.388c.28 0 .475.179.661.323l.568-2.153h-8.266zM105.744 13.386c-.149-.072-.158-.251-.115-.413.024-.09.127-.269.277-.484l1.393-1.955h5.131l.361 1.955c.036.215.045.395.021.484-.043.161-.146.341-.333.413h3.116c-.163-.161-.232-.395-.287-.61l-2.891-12.45h-.037l-8.672 11.929c-.385.538-.558.843-.914 1.13h2.95zm6.395-4.789h-3.657l2.88-4.198.777 4.198zM128.163 11.09c-.394.431-.907.466-1.392.466h-3.807l2.699-10.225c.081-.305.207-.502.544-.718h-2.724c.223.215.246.413.165.718l-2.992 11.337c-.08.305-.207.502-.544.718h7.445l.606-2.296zM141.899.614c.084.108.144.233.115.341-.038.144-.118.233-.319.43l-5.277 5.077h-.037l1.354-5.131c.071-.269.306-.592.6-.718h-2.836c.228.126.292.449.221.718l-2.992 11.337c-.071.269-.305.592-.6.718h2.836c-.228-.126-.292-.448-.221-.718l1.221-4.628h.205c2.668 0 4.613 2.458 4.031 4.664-.076.287-.132.431-.385.682h2.948c-.153-.197-.315-.43-.305-.682.118-2.852-1.111-5.687-4.329-5.938l6.268-5.507c.243-.215.697-.448.992-.646h-3.49z"/></svg>