<svg xmlns="http://www.w3.org/2000/svg" width="208" height="47" viewBox="0 0 208 47">
<style>path{fill-rule:evenodd;clip-rule:evenodd;fill:url(#mr)}</style>
<linearGradient id="mr"><stop offset="0" stop-color="#f44"/><stop offset="1" stop-color="#ff6c00"/></linearGradient>
<path d="M13.758 26.944c1.355 2.478 2.589 3.915 4.638 5.599 1.383-1.883 2.561-3.271 4.247-4.856-2.681-1.883-4.401-3.667-5.908-6.293 3.403-3.27 4.857-4.906 7.609-8.473.611-.842 1.063-1.338 1.742-2.081l-1.571-2.577c-.675.099-1.385.149-2.921.149h-2.032l1.273-4.063c.512-1.635.953-2.725 1.508-3.865h-5.996c-.159 1.14-.479 2.478-.882 3.766l-1.304 4.162h-2.478c-1.635 0-2.66-.05-3.853-.198l-1.723 5.5c1.384-.149 2.441-.198 4.224-.198h8.077c-2.629 3.171-4.702 5.203-7.792 7.631-3.558 2.824-6.527 4.707-10.616 6.689.575 1.487.908 3.271.913 5.153 3.039-1.635 4.328-2.428 6.82-4.212l-3.896 12.438c-.73 2.329-1.198 3.667-1.912 5.153h5.996c.268-1.487.606-2.725 1.335-5.054l4.502-14.37zm23.307-7.334h5.253c1.734 0 3.239.099 4.778.248l1.754-5.599c-1.45.198-2.704.248-4.934.248h-5.253l2.732-8.721c.667-2.131 1.043-3.171 1.961-5.154h-6.194c-.358 1.933-.631 3.122-1.267 5.154l-2.732 8.721h-3.716c-2.131 0-3.404-.05-4.779-.248l-1.754 5.599c1.632-.149 3.249-.248 4.934-.248h3.716l-6.069 19.375h-5.401c-2.378 0-4.082-.099-5.605-.297l-1.878 5.996c1.812-.248 3.726-.347 5.708-.347h16.947c1.982 0 3.884.099 5.54.347l1.878-5.996c-1.598.198-3.265.297-5.742.297h-5.946l6.069-19.375zM63.314 37.796c-4.204 2.032-7.934 3.023-15.361 4.113.891 1.586 1.28 2.874 1.486 4.906 4.343-.892 6.003-1.288 8.203-1.982 3.692-1.189 6.264-2.279 10.4-4.41l-2.299-2.626h13.477l-3.436 2.428c4.537 3.865 7.271 5.104 14.471 6.64 1.237-1.734 2.111-2.626 4.593-4.856-5.614-.743-9.438-1.982-12.952-4.212h3.964c2.478 0 3.998.05 5.488.198.131-.892.177-1.041.472-1.982.062-.198.354-1.288.959-3.221l3.927-12.537c.869-2.775 1.291-3.964 1.859-5.302-1.781.149-3.184.198-5.612.198h-26.362c-2.329 0-3.998-.05-5.438-.198-.317 1.487-.671 2.775-1.463 5.302l-3.927 12.537c-.776 2.478-1.341 3.964-1.828 5.203 1.632-.149 3.085-.198 5.562-.198h3.817zm1.989-18.533h26.362l-.714 2.279h-26.362l.714-2.279zm-1.878 5.996h26.362l-.714 2.279h-26.362l.714-2.279zm-1.878 5.996h26.362l-.761 2.428h-26.362l.761-2.428zm37.92-25.668c.497-1.586.826-2.478 1.393-3.816-1.796.198-3.001.248-5.677.248h-22.496c-2.676 0-3.899-.05-5.572-.248-.267 1.487-.482 2.329-.947 3.816l-1.195 3.816c-.419 1.338-.875 2.478-1.362 3.716 1.518-.099 3.268-.149 5.497-.149h22.844c2.18 0 3.85.05 5.305.149.258-1.14.55-2.23 1.015-3.716l1.195-3.816zm-5.702.644l-.854 2.725h-22.348l.854-2.725h22.348zM106.893 26.597c.855-.198 1.301-.198 3.577-.347 1.567-.099 2.326-.149 3.744-.248l-4.765 15.213c-.776 2.478-1.214 3.716-1.943 5.253h5.649c.218-1.487.541-2.676 1.332-5.203l4.92-15.708c1.83-.149 1.83-.149 3.478-.347 0 .793-.026 1.189-.101 2.378l4.275-1.784c-.042-5.401-.042-5.401-.764-10.059l-3.817 1.586c.25 1.734.277 2.279.356 3.766-1.781.149-1.995.198-5.559.347 2.126-1.883 5.383-5.005 6.92-6.59 3.915-4.113 5.92-6.244 6.05-6.343l-3.736-2.626c-1.33 2.032-4.154 5.352-7.374 8.672-.433-.991-.69-1.437-1.157-2.478 2.557-2.626 3.412-3.617 6.478-7.235 1.758-2.131 1.758-2.131 2.309-2.626l-4.303-2.081c-1.098 2.081-3.255 4.856-6.454 8.424-.427-.694-.82-1.338-1.179-1.933l-3.927 4.311c2.045 3.122 2.698 4.361 4.12 7.73-1.02 1.041-1.522 1.536-3.112 2.973h-.892c-1.635 0-2.412-.049-3.125-.149l-1 5.104zm32.493-19.573c-2.241 6.045-5.417 9.068-12.202 11.744 1.352 1.536 1.903 2.626 2.152 4.361 8.002-3.716 12.273-8.176 15.351-16.105h6.937c-1.688 4.757-2.696 7.185-3.8 8.969-.527.892-1.116 1.189-2.503 1.189s-2.827-.149-4.884-.545c.333 1.784.261 3.122-.372 5.302 2.595.099 2.793.099 3.289.099 5.203 0 7.087-.793 8.761-3.766 1.467-2.626 3.105-6.59 5.072-12.24.937-2.676 1.142-3.171 1.49-3.964-1.022.099-2.722.149-4.704.149h-15.609c-1.982 0-3.983-.099-5.457-.297l-1.692 5.401c1.4-.198 3.215-.297 5.346-.297h2.825zm-31.865 21.208c-2.47 6.937-4.12 10.307-6.768 14.172l4.245 1.635c3.03-5.401 4.357-8.374 6.735-15.014l-4.212-.793zm11.811.892c-.337 3.766-1.12 7.532-2.592 12.388l4.637-1.041c1.317-5.153 1.852-8.127 2.248-12.24l-4.293.893zm7.859 14.618h11.992l-.838 2.676h5.451c.252-1.437.668-2.924 1.366-5.154l3.741-11.942c.667-2.131 1.12-3.419 1.673-4.708-1.087.149-2.143.198-4.225.198h-14.618c-1.833 0-2.958-.05-3.952-.198-.286 1.388-.64 2.676-1.261 4.658l-3.71 11.843c-.621 1.982-1.198 3.667-1.846 5.104h5.451l.776-2.477zm4.359-14.073h12.041l-2.887 9.217h-12.041l2.887-9.217zM185.749 1.176c-3.248 3.568-6.496 6.343-10.846 9.316-4.611 3.171-8.632 5.253-14.205 7.383.782 1.933.964 2.775 1.201 5.5 5.044-2.18 10.336-5.153 14.782-8.275 4.561-3.171 6.916-5.153 10.982-9.118 1.453 4.063 2.767 6.194 5.521 9.266 3.175 3.469 6.165 5.946 9.942 8.127 1.364-1.982 2.927-3.964 4.641-5.798-5.854-2.824-9.618-5.996-12.935-10.753-1.259-1.833-1.794-2.973-2.641-5.649h-6.442zm-13.023 16.898c-.171 1.338-.414 2.428-.786 3.617-2.778 8.87-5.228 12.735-10.344 16.253-2.15 1.487-3.687 2.279-7.309 3.716 1.358 1.833 1.927 3.023 2.496 5.005 5.744-2.676 9.75-5.5 13.042-9.366 3.276-3.816 5.295-7.73 7.757-15.114.667-2.131.95-2.874 1.486-4.113h-6.342zm15.758 0c-.264 1.635-.709 3.37-1.361 5.451l-5.184 16.551c-.683 2.18-1.356 4.014-2.178 5.847h6.343c.373-1.982.802-3.667 1.5-5.897l5.153-16.451c.792-2.527 1.26-3.865 2.02-5.5h-6.293z"/></svg>