<svg xmlns="http://www.w3.org/2000/svg" width="1327" height="828" viewBox="0 0 1327 828"><style>.st0{fill:#fff}.st1{fill:#ffcb00}</style><ellipse transform="matrix(.924 -.383 .383 .924 33.006 450.933)" class="st0" cx="1150" cy="142.5" rx="10" ry="10"/><ellipse transform="matrix(.925 -.38 .38 .925 -223.158 440.694)" class="st0" cx="1003.5" cy="785" rx="10" ry="10"/><circle class="st0" cx="161.5" cy="681" r="10"/><circle class="st1" cx="191" cy="133.5" r="10"/><ellipse transform="matrix(.924 -.383 .383 .924 29.324 496.422)" class="st1" cx="1262.5" cy="174.5" rx="10" ry="10"/><circle class="st1" cx="1059.5" cy="699" r="10"/><circle class="st1" cx="1236" cy="737" r="10"/><circle class="st1" cx="426" cy="673.5" r="10"/><circle class="st1" cx="747" cy="706.5" r="10"/><circle class="st1" cx="220" cy="747" r="10"/><ellipse transform="matrix(.16 -.987 .987 .16 593.06 963.059)" class="st1" cx="862.5" cy="133" rx="10" ry="10"/><ellipse transform="matrix(.161 -.987 .987 .161 -50.274 1576.849)" class="st1" cx="902.5" cy="818" rx="10" ry="10"/><ellipse transform="matrix(.16 -.987 .987 .16 386.362 499.114)" class="st1" cx="486.5" cy="22.5" rx="10" ry="10"/></svg>