<svg xmlns="http://www.w3.org/2000/svg" width="640" height="860" viewBox="0 0 640 860"><path fill="#fff" d="M21.3 728.3c12.3 0 22.3 10 22.3 22.3s-10 22.3-22.3 22.3-22.3-10-22.3-22.3 10-22.3 22.3-22.3zm577.5-690.7c6.2 0 11.2 5 11.2 11.2s-5 11.2-11.2 11.2-11.2-5-11.2-11.2 5-11.2 11.2-11.2zm-396.3 45.5c6.2 0 11.2 5 11.2 11.2s-5 11.2-11.2 11.2-11.2-5-11.2-11.2 5-11.2 11.2-11.2zm348.1 667.5c6.2 0 11.2 5 11.2 11.2 0 6.2-5 11.2-11.2 11.2-6.2 0-11.2-5-11.2-11.2.1-6.2 5.1-11.2 11.2-11.2zm-230-718.6c2.1 0 3.7 1.7 3.7 3.7 0 2.1-1.7 3.7-3.7 3.7-2.1 0-3.7-1.7-3.7-3.7 0-2.1 1.7-3.7 3.7-3.7zm-167.4 4.6c2.1 0 3.7 1.7 3.7 3.7s-1.7 3.7-3.7 3.7-3.7-1.7-3.7-3.7 1.6-3.7 3.7-3.7zm-56.8 60.5c2.1 0 3.7 1.7 3.7 3.7s-1.7 3.7-3.7 3.7-3.7-1.7-3.7-3.7 1.7-3.7 3.7-3.7zm511.9 726.1c2.1 0 3.7 1.7 3.7 3.7 0 2.1-1.7 3.7-3.7 3.7-2.1 0-3.7-1.7-3.7-3.7 0-2.1 1.6-3.7 3.7-3.7zm-64.6-664.7c2.1 0 3.7 1.7 3.7 3.7s-1.7 3.7-3.7 3.7c-2.1 0-3.7-1.7-3.7-3.7s1.6-3.7 3.7-3.7zm-183.1-77.2c2.1 0 3.7 1.7 3.7 3.7s-1.7 3.7-3.7 3.7c-2.1 0-3.7-1.7-3.7-3.7s1.7-3.7 3.7-3.7zm-53.7 640.5c2.1 0 3.7 1.7 3.7 3.7s-1.7 3.7-3.7 3.7c-2.1 0-3.7-1.7-3.7-3.7s1.7-3.7 3.7-3.7zm58.6 83.7c2.1 0 3.7 1.7 3.7 3.7s-1.7 3.7-3.7 3.7c-2.1 0-3.7-1.7-3.7-3.7s1.7-3.7 3.7-3.7zm-209.1-75.8c2.1 0 3.7 1.7 3.7 3.7s-1.7 3.7-3.7 3.7-3.7-1.7-3.7-3.7 1.7-3.7 3.7-3.7zm-64.2 53c2.1 0 3.7 1.7 3.7 3.7s-1.7 3.7-3.7 3.7-3.7-1.7-3.7-3.7 1.7-3.7 3.7-3.7z"/><path fill="#ffcb00" d="M32.3 32c12.3 0 22.3 10 22.3 22.3s-10 22.3-22.3 22.3-22.4-10-22.4-22.3 10-22.3 22.4-22.3zm584.4 641.4c12.3 0 22.3 10 22.3 22.3s-10 22.3-22.3 22.3-22.3-10-22.3-22.3c-.1-12.3 9.9-22.3 22.3-22.3zm-12.6-540c6.2 0 11.2 5 11.2 11.2s-5 11.2-11.2 11.2-11.2-5-11.2-11.2 5.1-11.2 11.2-11.2zm-505.6 533.5c6.2 0 11.2 5 11.2 11.2 0 6.2-5 11.2-11.2 11.2s-11.2-5-11.2-11.2c.1-6.2 5.1-11.2 11.2-11.2zm56.8 146c6.2 0 11.2 5 11.2 11.2 0 6.2-5 11.2-11.2 11.2s-11.2-5-11.2-11.2c0-6.2 5-11.2 11.2-11.2zm72.3-807.9c2.1 0 3.7 1.7 3.7 3.7s-1.7 3.7-3.7 3.7-3.7-1.7-3.7-3.7 1.6-3.7 3.7-3.7zm270 687c2.1 0 3.7 1.7 3.7 3.7 0 2.1-1.7 3.7-3.7 3.7-2.1 0-3.7-1.7-3.7-3.7s1.6-3.7 3.7-3.7zm-43-591.2c2.1 0 3.7 1.7 3.7 3.7s-1.7 3.7-3.7 3.7c-2.1 0-3.7-1.7-3.7-3.7s1.6-3.7 3.7-3.7zm-157 25c2.1 0 3.7 1.7 3.7 3.7 0 2.1-1.7 3.7-3.7 3.7-2.1 0-3.7-1.7-3.7-3.7s1.6-3.7 3.7-3.7zm-271.9 25.2c2.1 0 3.7 1.7 3.7 3.7s-1.7 3.7-3.7 3.7-3.7-1.7-3.7-3.7 1.7-3.7 3.7-3.7zm490.3-89.3c2.1 0 3.7 1.7 3.7 3.7s-1.7 3.7-3.7 3.7-3.7-1.7-3.7-3.7 1.6-3.7 3.7-3.7zm-11 765.2c2.1 0 3.7 1.7 3.7 3.7s-1.7 3.7-3.7 3.7c-2.1 0-3.7-1.7-3.7-3.7s1.7-3.7 3.7-3.7zm-453 17.7c2.1 0 3.7 1.7 3.7 3.7s-1.6 3.7-3.7 3.7-3.7-1.7-3.7-3.7 1.7-3.7 3.7-3.7zm362.8-69.8c2.1 0 3.7 1.7 3.7 3.7s-1.7 3.7-3.7 3.7c-2.1 0-3.7-1.7-3.7-3.7s1.7-3.7 3.7-3.7zm-150.7 22.3c2.1 0 3.7 1.7 3.7 3.7 0 2.1-1.7 3.7-3.7 3.7-2.1 0-3.7-1.7-3.7-3.7s1.7-3.7 3.7-3.7z"/></svg>